<svg width="1441" height="890" viewBox="0 0 1441 890" fill="none" xmlns="http://www.w3.org/2000/svg">
<g opacity="0.1">
<path d="M1610.59 -244.22H-117.828V889.014H1610.59V-244.22Z" fill="none"/>
<path d="M1487.69 518.121H835.188V17.3821L1487.69 -139.228V518.121Z" fill="none"/>
<path d="M861.484 353.385H878.5V300.969H933.906V362.466H943.609V347.012H967.797L999.437 394.011L967.516 432.885L861.484 414.404V353.385Z" fill="#6A6A6A"/>
<path d="M1152.58 349.561H1179.72V300.969H1224.44L1223.03 467.457L1109.55 449.773L1152.58 349.561Z" fill="#6A6A6A"/>
<path d="M1253.69 300.969C1254.81 302.403 1255.94 303.677 1257.06 305.111C1259.45 308.138 1261.98 311.165 1264.38 314.193C1266.91 317.22 1269.3 320.406 1271.83 323.433C1272.53 324.23 1273.09 325.026 1273.8 325.823C1274.5 326.619 1275.34 327.257 1275.48 328.531C1275.48 328.85 1275.48 329.009 1275.48 329.328C1275.48 330.124 1275.48 331.08 1275.48 331.877C1275.48 334.585 1275.48 337.453 1275.48 340.161C1275.48 343.826 1275.48 347.649 1275.48 351.314C1275.48 355.456 1275.48 359.758 1275.48 363.9C1275.48 368.042 1275.48 372.185 1275.48 376.327C1275.48 379.991 1275.48 383.496 1275.48 387.16C1275.48 389.71 1275.48 392.418 1275.48 394.967C1275.48 396.082 1275.48 397.038 1275.48 398.153H1283.08C1283.08 397.198 1283.08 396.242 1283.08 395.286C1283.08 392.896 1283.08 390.506 1283.08 388.276C1283.08 384.93 1283.08 381.425 1283.08 378.079C1283.08 374.096 1283.08 369.954 1283.08 365.971C1283.08 361.67 1283.08 357.368 1283.08 353.066C1283.08 348.924 1283.08 344.622 1283.08 340.48C1283.08 336.816 1283.08 333.151 1283.08 329.328C1283.08 326.46 1283.08 323.752 1283.08 320.884C1283.08 319.928 1283.08 318.972 1283.08 318.016C1283.08 317.698 1283.08 317.379 1283.08 316.901C1283.08 315.786 1283.5 315.467 1284.48 315.626C1285.47 315.786 1286.59 315.626 1287.58 315.626C1288.98 315.626 1290.53 315.626 1291.94 315.626C1295.59 315.626 1299.39 315.626 1303.05 315.626C1306.98 315.626 1310.78 315.626 1314.72 315.626C1317.81 315.626 1320.91 315.626 1324 315.626C1325.27 315.626 1326.53 315.626 1327.8 315.626L1385.45 381.425L1391.08 456.464L1296.02 467.776L1245.39 430.973L1253.69 300.969Z" fill="#6A6A6A"/>
<path d="M898.469 322.159H891.578V336.338H898.469V322.159Z" fill="#3F3161"/>
<path d="M889.188 304.156H882.297V318.335H889.188V304.156Z" fill="#3F3161"/>
<path d="M888.766 337.135H882.578V352.907H888.766V337.135Z" fill="#3F3161"/>
<path d="M1214.45 332.036H1207.28V348.446H1214.45V332.036Z" fill="#3F3161"/>
<path d="M1198.56 355.775H1191.11V373.937H1198.56V355.775Z" fill="#3F3161"/>
<path d="M1210.94 388.435H1203.48V409.784H1210.94V388.435Z" fill="#3F3161"/>
<path d="M1160.31 266.079C1156.52 268.787 1162 261.618 1168.33 257.794C1172.55 255.245 1173.67 261.936 1173.67 261.936C1173.67 261.936 1177.89 255.245 1185.77 260.025C1185.77 260.025 1173.81 264.645 1172.41 270.062C1172.27 270.062 1171.42 258.272 1160.31 266.079Z" fill="#CFF0FF"/>
<path d="M1342.14 188.012C1342.14 188.012 1329.9 188.809 1324.28 197.412C1318.65 206.015 1319.78 180.046 1339.04 179.568C1339.04 179.568 1339.33 168.894 1347.2 167.938C1355.08 166.982 1360.84 172.717 1360.84 172.717C1360.84 172.717 1343.68 170.168 1342.14 188.012Z" fill="#CFF0FF"/>
<path d="M1156.8 427.787L1242.44 432.885L1235.55 467.935L1092.67 458.058L1095.48 446.746L1156.8 427.787Z" fill="#1EAEF7"/>
<path d="M1090.14 141.81C1094.5 142.766 1098.3 146.59 1099.42 151.529C1103.08 148.024 1108 146.112 1112.92 146.43C1117.7 146.749 1122.48 149.298 1125.72 153.44C1116.44 150.732 1106.03 153.122 1098.3 159.654C1099 159.017 1093.37 152.644 1092.81 152.166C1090.28 149.935 1087.47 148.502 1084.37 147.705C1082.12 147.227 1077.62 147.705 1080.86 144.359C1082.97 141.81 1087.33 141.173 1090.14 141.81Z" fill="#CFF0FF"/>
<path d="M1161.44 411.377C1160.73 411.377 1160.17 410.74 1160.03 409.943C1159.89 409.147 1160.45 408.35 1161.3 408.191C1161.44 408.191 1170.58 406.916 1178.31 406.438C1187.87 405.96 1194.76 401.977 1198.56 395.127C1203.48 385.727 1202.22 371.388 1194.76 353.544C1184.36 328.691 1176.48 308.298 1177.89 292.844C1178.73 284.559 1182.25 278.027 1188.01 273.885C1196.31 268.15 1208.4 267.99 1221.2 273.567C1221.9 273.885 1222.33 274.841 1222.04 275.638C1221.76 276.434 1220.92 276.912 1220.22 276.594C1208.4 271.495 1197.01 271.495 1189.56 276.594C1184.5 280.099 1181.4 285.834 1180.7 293.163C1179.29 307.82 1187.31 328.531 1197.29 352.111C1205.17 370.91 1206.44 386.364 1200.95 396.72C1196.73 404.526 1189 408.987 1178.45 409.625C1170.86 410.103 1161.72 411.218 1161.44 411.377C1161.58 411.377 1161.58 411.377 1161.44 411.377Z" fill="#1EAEF7"/>
<path d="M1199.46 335.701C1198.9 335.701 1198.33 335.223 1198.33 334.585C1198.19 333.789 1198.76 333.151 1199.32 332.992C1199.6 332.992 1224.35 328.85 1235.04 308.457C1235.74 307.182 1236.44 305.589 1237.15 303.996C1228.43 300.65 1222.38 294.756 1219.57 288.861C1217.04 283.603 1216.76 277.868 1218.44 272.451C1219.99 267.671 1223.08 264.007 1226.74 262.414C1230.26 260.98 1233.91 261.299 1237.15 263.529C1241.37 266.397 1244.18 271.973 1245.02 278.664C1245.87 285.993 1243.47 294.915 1240.52 302.403C1246.01 304.155 1252.33 304.952 1259.65 304.315C1285.24 302.084 1293.68 290.932 1302.4 279.142C1312.38 265.76 1322.79 251.899 1359.63 252.695C1360.33 252.695 1360.76 253.333 1360.76 254.129C1360.76 254.926 1360.33 255.563 1359.49 255.404C1323.91 254.607 1314.35 267.353 1304.22 280.895C1295.51 292.525 1286.37 304.633 1259.79 307.023C1252.05 307.66 1245.3 306.864 1239.54 304.952C1238.69 306.705 1237.99 308.457 1237.15 309.891C1225.9 331.399 1200.87 335.541 1199.74 335.701C1199.6 335.701 1199.6 335.701 1199.46 335.701ZM1230.96 264.166C1229.83 264.166 1228.71 264.326 1227.58 264.963C1224.63 266.238 1221.96 269.424 1220.69 273.407C1219.15 278.027 1219.57 283.125 1221.68 287.586C1224.35 293.162 1229.97 298.42 1238.27 301.606C1241.08 294.437 1243.33 285.834 1242.63 278.983C1241.93 273.088 1239.54 268.309 1236.02 265.76C1234.33 264.804 1232.65 264.166 1230.96 264.166Z" fill="#1EAEF7"/>
<path d="M1414.42 481.318C1405.28 480.202 1396.14 479.246 1387 478.131C1370.13 476.219 1353.25 476.538 1336.23 476.538C1316.12 476.538 1295.88 475.741 1275.91 474.148C1270.84 473.67 1216.28 468.731 1216.42 466.82C1216.42 465.864 1216.56 465.067 1216.56 464.111C1217.27 447.223 1217.27 430.336 1217.27 413.448C1217.27 394.17 1217.27 374.893 1217.27 355.615C1217.27 331.877 1217.27 308.138 1217.27 284.4C1217.27 258.909 1217.27 233.418 1217.27 208.086C1217.27 183.551 1217.27 159.016 1217.27 134.64C1217.27 113.769 1217.27 92.8986 1217.27 72.1872C1217.27 57.6892 1217.27 43.1912 1217.27 28.6932C1217.27 23.2764 1217.27 14.9918 1217.27 9.57495L1037.13 51.7944V384.133L1001.27 377.76V60.2383L865 92.2613V403.889C865 400.543 856.281 395.445 853.609 395.763C853.75 390.347 853.609 384.93 853.609 379.513L849.531 376.008L849.109 259.387L378.016 258.271L360.719 356.571L-74.5156 403.889L-56.9375 -196.105H1422.44L1456.05 -46.8239L1265.64 -1.896V435.274L1368.86 446.745L1414.56 447.064V481.318H1414.42Z" fill="none"/>
<path d="M582.566 318.828L568.492 321.966L576.802 369.801L590.876 366.663L582.566 318.828Z" fill="#CFF0FF"/>
<path d="M599.339 318.112L583.773 327.366L603.77 370.536L619.336 361.281L599.339 318.112Z" fill="#CFF0FF"/>
<path d="M500.641 483.23L503.312 595.549L815.5 608.932L882.578 475.901L753.906 420.777L593.594 448.817L500.641 483.23Z" fill="#1EAEF7"/>
<path d="M387.156 367.883H646.469L691.469 404.048L640.281 443.082C640.281 443.082 396.016 473.352 395.031 473.352C379.281 473.352 387.156 367.883 387.156 367.883Z" fill="#3F3161"/>
<path d="M557.032 554.764C557.032 554.764 563.36 560.659 570.251 562.571C578.267 564.642 585.579 570.855 584.595 575.635C584.032 578.662 583.61 580.892 583.61 580.892L543.11 612.119C543.11 612.119 498.673 620.244 500.642 603.834C502.61 587.424 501.767 559.066 501.767 559.066L527.36 552.533L557.032 554.764Z" fill="#0062BA"/>
<path d="M778.656 377.602H854.594V410.262H774.719L778.656 377.602Z" fill="#6A6A6A"/>
<path d="M820.984 398.313H972.438V423.963H815.5L820.984 398.313Z" fill="#1EAEF7"/>
<path d="M811.279 420.618H938.686V473.512L765.154 516.687L811.279 447.065V420.618Z" fill="#0062BA"/>
<path d="M577.844 485.301L557.031 554.764C557.031 554.764 550.844 573.723 535.516 568.943C541.563 582.326 514.703 598.098 514.703 598.098L521.453 571.014L497.828 573.563V497.409L577.844 485.301Z" fill="#3F3161"/>
<path d="M382.094 301.129L377.875 367.883C385.469 367.883 392.922 367.883 400.516 367.883C404.594 367.883 408.812 367.883 412.891 367.883C414.437 367.883 416.125 367.883 417.672 367.883C419.219 367.883 431.453 367.883 432.859 367.883C434.969 367.883 437.219 367.883 439.328 367.883L445.094 361.988L450.016 367.883H568.281C568.281 362.944 568.281 357.846 568.281 352.907C568.281 348.128 568 343.189 568.281 338.569C568.563 334.904 570.25 315.786 566.875 315.786C564.625 315.786 562.375 315.786 560.125 315.627C558.297 315.467 557.453 316.423 557.453 318.494C557.312 323.752 557.313 329.169 557.172 334.426C557.172 335.86 557.031 337.613 555.906 338.409C555.906 332.196 556.047 326.142 556.047 319.928C556.047 318.972 556.047 317.698 555.203 317.061C554.641 316.583 554.078 316.583 553.375 316.583C550.703 316.583 548.031 316.742 545.359 316.742C544.516 316.742 543.531 316.742 542.828 317.379C541.281 318.813 542.406 321.203 542.266 322.955C540.859 322.955 527.641 323.115 527.641 322.955C527.641 319.132 527.641 315.308 527.641 311.484C527.641 308.935 527.641 306.386 527.641 303.996C527.641 300.651 525.109 300.969 522.859 300.969C520.609 300.969 518.359 300.969 516.25 300.969C512.594 300.969 508.938 300.969 505.422 300.969C504.578 300.969 503.734 300.81 503.031 300.969C502.328 301.129 501.625 301.766 500.922 301.925C499.516 302.244 497.969 302.085 496.563 302.085C491.922 301.925 487.422 303.04 483.203 305.112C482.219 305.59 481.094 306.227 479.969 306.545C477.438 307.023 477.016 304.793 475.047 303.518C473.359 302.403 471.25 302.085 469.281 301.925C466.047 301.766 462.812 301.925 459.859 303.518C457.609 304.793 455.641 306.545 455.078 309.254C454.234 312.281 454.094 315.467 453.953 318.654C453.813 321.84 453.953 325.186 453.813 328.372C453.672 329.965 453.531 331.559 453.25 333.152C452.969 334.267 452.266 335.86 452.125 337.135C452.266 331.718 452.406 326.301 452.687 320.884C452.828 318.176 452.969 315.467 453.25 312.759C453.391 311.803 453.672 310.369 453.391 309.413C453.109 308.935 452.266 307.979 451.844 307.501C450.719 306.068 449.453 304.474 448.328 303.04C448.047 302.722 446.922 300.81 446.5 300.81C444.25 300.81 442.141 300.81 439.891 300.81C437.5 300.81 435.109 300.81 432.719 300.81C430.75 300.81 427.797 300.013 426.953 302.563C426.531 303.678 426.672 304.793 426.672 305.908C426.953 314.193 426.812 322.477 426.109 330.603C426.109 330.762 426.109 331.081 425.828 331.24C425.406 331.559 425.125 330.762 425.125 330.125C425.266 323.115 425.266 316.105 425.406 308.935C425.406 306.864 425.406 304.474 424.422 302.722C424.281 302.403 424 302.085 423.859 301.925C422.312 300.173 420.625 300.651 418.656 300.81C416.125 300.81 413.734 300.81 411.203 300.81C409.094 300.81 407.406 300.013 405.719 302.244C404.594 303.837 404.172 305.908 404.031 307.82C403.891 309.732 404.031 311.803 403.891 313.715C403.75 315.627 403.188 317.698 401.922 319.132C402.063 314.193 402.203 309.095 402.344 304.156C402.344 303.359 402.344 302.403 402.062 301.766C401.359 300.173 398.406 300.969 397.141 300.969C391.937 300.969 387.016 300.969 382.094 301.129Z" fill="#CFF0FF"/>
<path d="M432.857 305.271C439.326 305.271 438.904 317.538 432.857 317.538C426.81 317.538 426.388 305.271 432.857 305.271Z" fill="#C0EFFF"/>
<path d="M1299.67 477.653L1063 614.349L1337.08 691.937L1299.67 477.653Z" fill="#3F3161"/>
<path d="M899.312 403.252C898.327 403.571 897.343 404.048 896.64 404.845C895.234 406.12 894.531 408.35 895.374 410.103C896.218 412.014 898.468 412.333 900.296 412.492C908.452 413.13 916.468 412.492 924.624 411.218C926.171 411.058 927.718 410.74 929.124 409.784C931.937 407.713 930.249 404.048 928.562 401.659C928.14 401.021 927.437 400.543 927.015 399.747C925.749 397.357 926.874 394.33 927.999 392.1C928.843 390.188 929.968 388.595 930.952 386.842C931.796 385.408 931.937 383.974 933.624 383.337C934.468 383.018 935.312 382.859 936.156 382.7C936.577 380.31 936.718 377.761 936.437 375.212C936.437 374.575 936.296 373.937 935.874 373.459C935.593 373.141 935.031 372.981 934.609 372.981C929.406 372.185 924.343 371.547 919.14 371.229C913.234 370.91 907.468 371.07 901.702 372.185C900.999 372.344 900.296 372.503 899.874 372.981C899.312 373.619 899.171 374.734 899.171 375.69C899.171 378.08 899.031 380.469 899.031 382.859C899.031 383.018 900.859 383.656 900.999 383.656C901.984 384.293 902.265 385.727 902.687 386.842C903.812 389.869 904.937 392.896 905.781 395.923C906.202 397.516 906.906 398.95 905.781 400.066C904.656 401.181 900.015 403.093 899.312 403.252Z" fill="#3F3161"/>
<path d="M911.969 369.476C910.563 369.157 909.156 368.998 907.75 368.839C904.234 368.361 900.719 366.927 898.047 364.537C895.234 361.988 893.406 358.324 893.266 354.182C893.266 353.704 901.422 354.5 902.125 354.66C903.391 354.978 904.797 355.137 906.063 355.456C907.469 355.934 908.875 356.571 910.281 357.209C908.453 353.863 907.469 350.039 907.047 346.056C906.906 344.782 907.188 343.189 908.594 343.667C909.719 343.985 910.563 345.1 911.125 346.216C912.531 348.924 914.078 351.632 915.484 354.341C915.484 348.446 915.625 342.711 915.625 336.816C915.625 334.904 916.187 332.196 917.875 332.196C919.281 337.453 920.125 342.87 920.266 348.446C921.25 343.826 922.234 338.887 925.187 335.541C925.609 334.904 926.453 334.426 927.016 334.904C927.297 335.063 927.297 335.382 927.438 335.86C928.703 340.799 928 346.375 925.328 350.677C927.578 347.172 930.109 343.189 933.906 343.985C934.328 347.172 933.484 349.88 931.797 352.27C930.25 354.66 928.281 356.89 926.031 358.642C928.703 357.049 931.375 355.934 934.328 354.978C935.172 354.659 936.156 354.66 936.719 355.456C937 355.934 937 356.412 937 356.89C936.719 360.714 933.344 363.103 930.672 364.697C928.141 366.13 925.609 366.927 923.078 368.202C922.375 368.52 921.672 368.839 921.25 369.476C920.828 369.954 920.547 371.069 920.828 371.707C921.109 372.185 921.812 372.663 922.375 372.981C923.219 373.459 924.063 373.3 925.047 373.459C926.594 373.778 933.766 373.618 929.547 375.53C925.75 377.123 924.344 376.645 918.438 376.805C912.672 376.964 903.672 376.008 903.672 375.371C903.672 374.734 911.266 374.096 913.094 372.981C913.656 372.663 913.797 371.866 913.938 371.229C914.078 370.273 913.656 370.113 912.813 369.954C912.391 369.635 912.25 369.476 911.969 369.476Z" fill="#0062BA"/>
<path d="M816.766 413.767C816.344 413.767 823.516 413.767 823.094 413.448C822.813 413.13 814.938 412.652 814.938 412.174C814.516 407.076 811.703 399.747 811.281 394.649C829.984 392.578 858.813 392.896 877.516 390.825C892 389.232 889.609 408.987 877.234 411.059C860.219 413.926 834.063 413.289 816.766 413.767Z" fill="#3F3161"/>
<path d="M467.031 330.443C469.517 330.443 471.531 325.45 471.531 319.291C471.531 313.131 469.517 308.138 467.031 308.138C464.546 308.138 462.531 313.131 462.531 319.291C462.531 325.45 464.546 330.443 467.031 330.443Z" fill="white"/>
<path d="M441.576 357.368H429.623V363.422H441.576V357.368Z" fill="white"/>
<path d="M441.576 349.402H429.623V355.456H441.576V349.402Z" fill="white"/>
<path d="M845.734 358.324H773.031V379.513H845.734V358.324Z" fill="#CFF0FF"/>
<path d="M837.156 329.646H780.203V356.412H837.156V329.646Z" fill="#CFF0FF"/>
<path d="M828.016 313.715H795.25V328.213H828.016V313.715Z" fill="#CFF0FF"/>
<path d="M814.513 320.406C814.654 316.423 825.06 314.83 824.919 320.725C824.779 326.619 814.373 325.026 814.513 320.406Z" fill="white"/>
<path d="M820.703 334.426H791.031V341.436H820.703V334.426Z" fill="white"/>
<path d="M834.625 375.53C833.359 375.69 831.953 375.849 830.687 376.167C829.984 376.327 829 376.486 828.437 377.123C827.875 377.92 828.016 379.035 828.016 379.991C828.016 381.266 828.016 382.7 828.016 383.974C828.016 386.842 828.016 389.71 828.016 392.418C828.016 392.737 828.016 393.215 828.156 393.533C828.578 394.648 830.125 394.171 830.969 394.171C832.234 394.171 833.641 394.171 834.906 394.171C837.437 394.171 839.969 394.33 842.641 394.33C847.844 394.489 853.047 394.489 858.109 394.648C862.047 394.648 866.125 394.808 869.922 393.693C871.891 393.055 873.859 392.099 874.703 390.028C875.969 387.32 874.563 383.815 872.453 382.062C870.344 380.31 867.531 379.672 865 379.195C862.469 378.717 859.937 378.239 857.406 377.601C855.297 377.123 852.906 377.123 851.078 376.167C849.25 375.212 847.281 375.212 845.313 375.212C841.656 374.893 838.141 375.212 834.625 375.53Z" fill="#1EAEF7"/>
<path d="M866.969 382.699C868.234 384.292 869.078 386.523 868.516 388.594C867.531 392.418 863.031 393.214 859.375 393.055C854.453 393.055 849.391 392.896 844.469 392.896C842.219 392.896 839.828 392.577 837.578 392.736C835.609 392.896 833.641 392.896 831.531 392.896C830.266 392.896 827.875 392.577 826.75 393.533C826.328 394.011 826.047 394.648 826.047 395.445C826.047 396.082 826.188 396.879 826.328 397.516C826.328 397.197 840.391 397.357 841.656 397.357C844.188 397.357 846.859 397.357 849.391 397.357C851.781 397.357 854.031 397.675 856.422 397.675C857.688 397.675 858.953 397.675 860.219 397.675H860.359C865.563 397.675 870.625 397.516 875.828 397.516C878.5 397.516 886.937 398.79 886.797 393.374C886.656 390.506 886.656 387.797 886.516 384.93C886.375 383.018 886.234 380.628 884.687 379.354C883.984 378.716 883 378.398 882.156 378.238C877.094 376.804 871.891 376.167 866.688 375.53C865.703 375.371 841.094 373.937 835.469 373.618C833.359 373.618 831.391 373.459 829.281 373.777C828.437 373.937 827.594 374.096 827.031 374.574C826.469 375.211 826.187 376.327 826.75 376.964C827.172 377.442 827.875 377.601 828.438 377.601C838.984 378.238 849.531 379.513 860.219 380.15C862.609 380.309 865.563 380.947 866.969 382.699Z" fill="#0062BA"/>
<path d="M923.641 340.003C922.094 345.897 920.406 351.633 918.859 357.528C919.141 356.731 919.984 355.775 920.406 354.978C920.969 354.023 921.391 353.226 921.813 352.27C922.797 350.358 923.5 348.446 924.344 346.375C925.047 344.463 925.609 342.392 926.172 340.321C926.453 339.206 927.719 335.382 926.453 334.745C925.187 333.948 923.922 339.047 923.641 340.003Z" fill="#1EAEF7"/>
<path d="M914.641 361.191C914.922 361.51 915.062 361.829 915.062 362.307C914.922 362.944 914.219 363.103 913.797 362.944C912.531 362.785 911.406 361.829 910.422 360.873C908.594 359.12 906.766 357.368 904.797 355.615C903.812 354.819 902.969 353.863 901.984 353.066C901.422 352.588 899.875 351.632 899.875 350.676C899.875 348.605 903.672 351.154 904.375 351.632C906.344 352.747 908.031 354.022 909.719 355.615C911.687 357.208 913.234 359.12 914.641 361.191Z" fill="#1EAEF7"/>
<path d="M522.438 372.185C522.297 372.185 522.156 372.185 522.156 372.185C521.453 372.185 521.031 371.547 521.031 370.751C521.031 369.954 521.594 369.476 522.297 369.476C523.281 369.476 541.844 369.954 554.922 354.5C546.484 351.951 540.016 345.419 536.781 337.931C531.719 326.619 533.266 312.759 540.156 306.705C546.484 301.128 557.875 300.332 564.484 308.138C569.266 313.874 570.391 323.911 567.438 334.904C565.469 342.073 562.656 347.968 559.281 352.748C563.219 353.226 567.578 352.748 572.5 350.995C583.609 346.853 588.672 341.277 593.172 336.497C599.359 329.806 604.703 324.23 621.859 324.23C622.563 324.23 622.984 324.867 622.984 325.504C622.984 326.141 622.422 326.779 621.859 326.779C605.688 326.779 600.906 331.877 594.859 338.409C590.219 343.507 584.875 349.083 573.344 353.544C567.578 355.775 562.234 356.093 557.453 355.137C544.234 371.547 524.969 372.185 522.438 372.185ZM551.828 304.952C548.031 304.952 544.234 306.386 541.563 308.616C535.516 314.033 534.25 326.301 538.75 336.497C541.141 341.914 547.188 349.561 556.609 351.951C560.125 347.331 563.078 341.436 565.047 333.948C567.719 324.07 566.734 314.83 562.656 309.891C559.844 306.545 555.906 304.952 551.828 304.952Z" fill="#1EAEF7"/>
<path d="M387.156 473.352V446.746L675.156 408.987L780.203 424.76L737.734 461.562L513.859 497.409L387.156 473.352Z" fill="#CFF0FF"/>
<path d="M387.578 464.908L513.859 491.195L737.734 455.986V469.05L521.453 504.897V649.399L397.844 613.393L385.328 511.907L387.578 464.908Z" fill="#6A6A6A"/>
<path d="M613.141 301.288C613 301.447 613 301.606 613 301.766C613 301.925 613 302.084 613 302.244C613 302.722 613 303.2 613 303.678C613 305.111 613 306.386 613 307.82C613 309.732 613 311.643 613 313.555C613 315.945 613 318.335 613 320.565C613 323.274 613 325.982 613 328.691C613 331.718 613 334.585 613 337.612C613 340.799 613 343.985 613 347.172C613 350.358 613 353.704 613 356.89C613 360.076 613 363.422 613 366.608C613 369.795 613 372.981 613 376.008C613 379.035 613 381.903 613 384.93C613 387.638 613 390.347 613 393.055C613 395.445 613 397.676 613 400.065C613 401.977 613 403.889 613 405.641C613 406.916 613 408.35 613 409.624C613 410.262 613 411.058 613 411.696C613 412.014 613.281 412.014 613.563 412.014C613.703 412.014 613.844 412.014 614.125 412.014C614.406 412.014 614.547 412.014 614.828 412.014C615.109 412.014 615.391 412.014 615.672 412.014C615.953 412.014 616.375 412.014 616.656 412.014C617.078 412.014 617.359 412.014 617.781 412.014C618.203 412.014 618.625 412.014 619.047 412.014C619.469 412.014 620.031 412.014 620.453 412.014C621.016 412.014 621.438 412.014 622 412.014C622.563 412.014 623.125 412.014 623.688 412.014C624.25 412.014 624.813 412.014 625.516 412.014C626.219 412.014 626.781 412.014 627.484 412.014C628.188 412.014 628.891 412.014 629.453 412.014C630.156 412.014 630.859 412.014 631.563 412.014C632.266 412.014 632.969 412.014 633.813 412.014C634.516 412.014 635.359 412.014 636.063 412.014C636.906 412.014 637.609 412.014 638.453 412.014C639.297 412.014 640.141 412.014 640.984 412.014C641.828 412.014 642.672 412.014 643.516 412.014C644.359 412.014 645.203 412.014 646.188 412.014C647.031 412.014 648.016 412.014 648.859 412.014C649.844 412.014 650.687 412.014 651.672 412.014C652.656 412.014 653.5 412.014 654.484 412.014C655.469 412.014 656.453 412.014 657.297 412.014C658.281 412.014 659.266 412.014 660.25 412.014C661.234 412.014 662.219 412.014 663.203 412.014C664.188 412.014 665.172 412.014 666.156 412.014C667.141 412.014 668.125 412.014 669.25 412.014C670.234 412.014 671.219 412.014 672.344 412.014C673.328 412.014 674.453 412.014 675.438 412.014C676.422 412.014 677.547 412.014 678.531 412.014C679.516 412.014 680.641 412.014 681.625 412.014C682.609 412.014 683.734 412.014 684.719 412.014C685.703 412.014 686.828 412.014 687.813 412.014C688.797 412.014 689.922 412.014 690.906 412.014C691.891 412.014 693.016 412.014 694 412.014C694.984 412.014 696.109 412.014 697.094 412.014C698.078 412.014 699.203 412.014 700.187 412.014C701.172 412.014 702.156 412.014 703.281 412.014C704.266 412.014 705.25 412.014 706.234 412.014C707.219 412.014 708.203 412.014 709.188 412.014C710.172 412.014 711.156 412.014 712.141 412.014C713.125 412.014 714.109 412.014 714.953 412.014C715.937 412.014 716.781 412.014 717.766 412.014C718.75 412.014 719.594 412.014 720.578 412.014C721.422 412.014 722.406 412.014 723.25 412.014C724.094 412.014 725.078 412.014 725.922 412.014C726.766 412.014 727.609 412.014 728.453 412.014C729.297 412.014 730.141 412.014 730.984 412.014C731.828 412.014 732.531 412.014 733.375 412.014C734.078 412.014 734.922 412.014 735.625 412.014C736.328 412.014 737.172 412.014 737.875 412.014C738.578 412.014 739.281 412.014 739.984 412.014C740.687 412.014 741.391 412.014 741.953 412.014C742.656 412.014 743.219 412.014 743.922 412.014C744.484 412.014 745.188 412.014 745.75 412.014C746.313 412.014 746.875 412.014 747.438 412.014C748 412.014 748.422 412.014 748.984 412.014C749.406 412.014 749.969 412.014 750.391 412.014C750.812 412.014 751.234 412.014 751.656 412.014C752.078 412.014 752.359 412.014 752.781 412.014C753.063 412.014 753.484 412.014 753.766 412.014C754.047 412.014 754.328 412.014 754.609 412.014C754.891 412.014 755.031 412.014 755.312 412.014C755.453 412.014 755.594 412.014 755.875 412.014C756.016 412.014 756.156 412.014 756.297 412.014C756.297 412.014 756.438 412.014 756.578 412.014L758.969 300.81C758.687 300.81 758.547 300.81 758.266 300.81C757.562 300.81 757 300.81 756.297 300.81C755.313 300.81 754.188 300.81 753.203 300.81C751.797 300.81 750.391 300.81 749.125 300.81C747.437 300.81 745.75 300.81 744.062 300.81C742.094 300.81 740.125 300.81 738.156 300.81C735.906 300.81 733.797 300.81 731.547 300.81C729.156 300.81 726.766 300.81 724.375 300.81C721.844 300.81 719.172 300.81 716.641 300.81C713.969 300.81 711.297 300.81 708.484 300.81C705.672 300.81 702.859 300.81 700.047 300.81C697.234 300.81 694.281 300.81 691.469 300.81C688.656 300.81 685.703 300.81 682.891 300.81C680.078 300.81 677.125 300.81 674.313 300.81C671.5 300.81 668.688 300.81 665.875 300.81C663.203 300.81 660.391 300.81 657.719 300.81C655.047 300.81 652.516 300.81 649.844 300.81C647.453 300.81 644.922 300.81 642.531 300.81C640.281 300.81 638.031 300.81 635.781 300.81C633.813 300.81 631.703 300.81 629.734 300.81C627.906 300.81 626.219 300.81 624.391 300.81C622.984 300.81 621.437 300.81 620.031 300.81C618.906 300.81 617.781 300.81 616.656 300.81C615.953 300.81 615.109 300.81 614.406 300.81C613.703 300.969 613.281 300.969 613.141 301.288Z" fill="#6A6A6A"/>
<path d="M648.578 426.513C651.953 429.062 666.438 428.584 685.281 428.584C704.125 428.584 704.969 424.76 704.969 424.76V417.431L702.719 410.103L679.516 403.73C679.516 403.73 654.766 412.015 663.766 412.015C672.906 412.015 673.328 413.13 673.188 415.36C673.047 417.272 660.11 417.75 651.11 419.184C648.578 419.981 646.469 424.76 648.578 426.513Z" fill="#6A6A6A"/>
<path d="M621.859 311.165V402.296H747.578L755.453 373.618L747.578 354.341V311.165H621.859Z" fill="white"/>
<path d="M470.968 353.066C470.968 353.066 466.187 363.103 466.608 363.581C467.03 364.059 497.686 383.337 497.686 383.337C497.686 383.337 500.499 369.317 500.78 364.378C504.436 360.395 507.812 361.829 510.202 356.571C512.593 351.314 513.858 346.215 517.796 344.304C521.452 342.551 523.14 341.277 522.718 339.365C522.155 336.338 518.921 336.338 518.218 329.487C517.936 327.257 518.921 318.016 513.999 309.572C511.749 305.749 507.671 301.128 499.515 301.128C482.077 301.128 474.202 329.806 474.202 329.806L470.968 353.066Z" fill="#6A6A6A"/>
<path d="M470.264 354.341C472.936 355.615 475.607 355.137 481.936 348.446C488.264 341.914 485.873 338.887 484.748 332.674C483.342 324.867 489.951 322.318 492.201 330.124C493.748 335.223 496.842 336.975 499.373 333.629C501.342 331.08 501.061 327.894 496.701 318.813C492.342 309.732 502.186 301.288 502.186 301.288C502.186 301.288 497.826 300.81 494.029 300.81C488.967 300.81 481.654 301.447 474.764 308.616C462.67 321.203 467.732 353.066 470.264 354.341Z" fill="#3F3161"/>
<path d="M468.999 357.368C468.999 357.368 464.499 358.642 459.156 358.961C452.265 359.28 443.687 359.439 436.656 367.724C424.14 382.381 424.984 406.916 420.484 413.448C415.984 419.821 408.953 428.743 411.203 443.559C413.453 458.376 438.343 457.579 453.812 458.057C469.281 458.695 514.843 459.651 514.843 459.651L572.499 403.73C572.499 403.73 562.656 387.798 553.796 377.601C547.328 370.113 541.984 367.724 536.921 370.432C535.093 371.388 533.406 372.822 531.437 375.371C531.437 375.371 524.546 369.158 511.89 365.812C510.765 365.493 508.374 361.67 507.531 359.758C504.156 359.598 502.749 359.439 500.781 364.059C500.781 364.059 498.249 375.69 486.718 373.141C475.187 370.751 466.609 363.9 468.999 357.368Z" fill="#0062BA"/>
<path d="M532.562 375.371C530.594 377.123 528.766 379.513 526.375 380.15C524.547 380.628 522.719 380.628 521.031 380.31C520.609 380.15 520.047 379.991 519.625 379.832C519.344 379.672 518.781 379.354 518.5 379.354C518.078 379.354 517.937 380.15 517.797 380.469C517.094 382.222 515.266 385.727 513.016 384.293C510.203 382.381 507.812 388.276 504.859 382.222C503.312 379.035 503.734 374.574 504.156 371.069C504.578 368.042 504.719 364.059 506.406 361.51C508.375 358.483 511.469 356.253 514.703 355.456C517.656 354.819 520.469 355.456 523.281 356.731C529.047 359.28 534.109 363.9 536.781 370.273C536.781 370.432 536.922 370.432 536.922 370.591L532.562 375.371Z" fill="#6A6A6A"/>
<path d="M442 457.102L492.906 455.349L489.953 470.166L442 457.102Z" fill="#1EAEF7"/>
<path d="M513.859 491.196L521.453 504.897L637.891 485.619V471.759L513.859 491.196Z" fill="#0062BA"/>
<path d="M472.937 459.172C471.249 458.694 469.562 458.216 467.874 457.738C466.609 457.42 464.359 456.942 463.234 456.464C462.249 455.986 464.64 449.772 465.906 448.817C473.078 443.081 488.406 445.152 491.64 444.834C495.999 444.515 499.093 445.152 498.531 447.064C497.828 449.135 497.687 451.525 496.984 453.596C496.421 455.827 495.999 458.216 495.437 460.447C495.156 461.562 495.156 462.677 494.734 463.792C494.171 465.067 493.468 464.748 492.343 464.589C489.671 464.27 486.999 463.633 484.328 462.837C480.671 461.562 476.734 460.447 472.937 459.172Z" fill="#6A6A6A"/>
<path d="M509.5 404.367C513.438 404.048 569.969 398.472 586.844 396.879C589.797 396.56 591.344 398.153 590.781 401.021C588.391 414.085 581.781 448.339 580.797 453.596C579.531 460.128 578.969 465.386 572.078 466.979C561.531 469.21 514.422 477.016 496.703 479.087C492.625 479.565 489.953 479.725 484.609 477.972C479.266 476.22 445.234 465.067 445.234 465.067L441.719 456.623L490.094 470.325C490.094 470.325 499.516 420.936 501.063 413.129C502.328 406.279 505 404.845 509.5 404.367Z" fill="white"/>
<path d="M629.732 325.504H626.92C626.357 325.504 625.795 325.026 625.795 324.23C625.795 323.433 626.217 322.955 626.92 322.955H629.732C630.295 322.955 630.857 323.433 630.857 324.23C630.857 325.026 630.295 325.504 629.732 325.504Z" fill="#1EAEF7"/>
<path d="M723.248 325.504H717.623C717.061 325.504 716.498 325.026 716.498 324.23C716.498 323.433 716.92 322.955 717.623 322.955H723.248C723.811 322.955 724.373 323.433 724.373 324.23C724.373 325.026 723.811 325.504 723.248 325.504ZM707.639 325.504H702.014C701.451 325.504 700.889 325.026 700.889 324.23C700.889 323.433 701.311 322.955 702.014 322.955H707.639C708.201 322.955 708.764 323.433 708.764 324.23C708.764 325.026 708.201 325.504 707.639 325.504ZM692.029 325.504H686.404C685.842 325.504 685.279 325.026 685.279 324.23C685.279 323.433 685.701 322.955 686.404 322.955H692.029C692.592 322.955 693.154 323.433 693.154 324.23C693.154 325.026 692.592 325.504 692.029 325.504ZM676.42 325.504H670.795C670.232 325.504 669.67 325.026 669.67 324.23C669.67 323.433 670.092 322.955 670.795 322.955H676.42C676.982 322.955 677.545 323.433 677.545 324.23C677.545 325.026 677.123 325.504 676.42 325.504ZM660.951 325.504H655.326C654.764 325.504 654.201 325.026 654.201 324.23C654.201 323.433 654.623 322.955 655.326 322.955H660.951C661.514 322.955 662.076 323.433 662.076 324.23C662.076 325.026 661.514 325.504 660.951 325.504ZM645.342 325.504H639.717C639.154 325.504 638.592 325.026 638.592 324.23C638.592 323.433 639.014 322.955 639.717 322.955H645.342C645.904 322.955 646.467 323.433 646.467 324.23C646.467 325.026 645.904 325.504 645.342 325.504Z" fill="#1EAEF7"/>
<path d="M735.904 328.691C735.342 328.691 734.779 328.213 734.779 327.416V325.504H733.092C732.529 325.504 731.967 325.026 731.967 324.23C731.967 323.433 732.389 322.955 733.092 322.955H735.904C736.467 322.955 737.029 323.433 737.029 324.23V327.416C737.029 328.213 736.467 328.691 735.904 328.691Z" fill="#1EAEF7"/>
<path d="M735.906 341.436H733.094C732.531 341.436 731.969 340.958 731.969 340.161C731.969 339.365 732.391 338.887 733.094 338.887H734.781V336.975C734.781 336.338 735.203 335.701 735.906 335.701C736.609 335.701 737.031 336.178 737.031 336.975V340.161C737.031 340.958 736.469 341.436 735.906 341.436Z" fill="#1EAEF7"/>
<path d="M723.81 341.436H718.467C717.904 341.436 717.342 340.958 717.342 340.161C717.342 339.365 717.764 338.887 718.467 338.887H723.81C724.373 338.887 724.936 339.365 724.936 340.161C724.936 340.958 724.373 341.436 723.81 341.436ZM709.186 341.436H703.842C703.279 341.436 702.717 340.958 702.717 340.161C702.717 339.365 703.139 338.887 703.842 338.887H709.186C709.748 338.887 710.311 339.365 710.311 340.161C710.311 340.958 709.748 341.436 709.186 341.436ZM694.561 341.436H689.217C688.654 341.436 688.092 340.958 688.092 340.161C688.092 339.365 688.514 338.887 689.217 338.887H694.561C695.123 338.887 695.685 339.365 695.685 340.161C695.685 340.958 695.123 341.436 694.561 341.436ZM679.936 341.436H674.592C674.029 341.436 673.467 340.958 673.467 340.161C673.467 339.365 673.889 338.887 674.592 338.887H679.936C680.498 338.887 681.061 339.365 681.061 340.161C681.061 340.958 680.498 341.436 679.936 341.436ZM665.311 341.436H659.967C659.404 341.436 658.842 340.958 658.842 340.161C658.842 339.365 659.264 338.887 659.967 338.887H665.311C665.873 338.887 666.436 339.365 666.436 340.161C666.436 340.958 665.873 341.436 665.311 341.436ZM650.686 341.436H645.342C644.779 341.436 644.217 340.958 644.217 340.161C644.217 339.365 644.639 338.887 645.342 338.887H650.686C651.248 338.887 651.811 339.365 651.811 340.161C651.811 340.958 651.248 341.436 650.686 341.436Z" fill="#1EAEF7"/>
<path d="M633.25 344.623C632.688 344.623 632.125 344.145 632.125 343.348V340.162C632.125 339.524 632.547 339.047 633.25 339.047H636.062C636.625 339.047 637.187 339.524 637.187 340.321C637.187 341.118 636.766 341.596 636.062 341.596H634.234V343.667C634.234 344.145 633.813 344.623 633.25 344.623Z" fill="#1EAEF7"/>
<path d="M635.922 357.846H633.109C632.828 357.846 632.547 357.687 632.406 357.528C632.266 357.368 632.125 357.05 632.125 356.731V353.545C632.125 352.907 632.547 352.43 633.25 352.43C633.813 352.43 634.234 352.908 634.234 353.704V355.616H635.922C636.484 355.616 637.047 356.094 637.047 356.89C637.047 357.687 636.625 357.846 635.922 357.846Z" fill="#1EAEF7"/>
<path d="M723.81 357.846H718.467C717.904 357.846 717.342 357.368 717.342 356.571C717.342 355.775 717.764 355.297 718.467 355.297H723.81C724.373 355.297 724.936 355.775 724.936 356.571C724.936 357.368 724.373 357.846 723.81 357.846ZM709.186 357.846H703.842C703.279 357.846 702.717 357.368 702.717 356.571C702.717 355.775 703.139 355.297 703.842 355.297H709.186C709.748 355.297 710.311 355.775 710.311 356.571C710.311 357.368 709.748 357.846 709.186 357.846ZM694.561 357.846H689.217C688.654 357.846 688.092 357.368 688.092 356.571C688.092 355.775 688.514 355.297 689.217 355.297H694.561C695.123 355.297 695.685 355.775 695.685 356.571C695.685 357.368 695.123 357.846 694.561 357.846ZM679.936 357.846H674.592C674.029 357.846 673.467 357.368 673.467 356.571C673.467 355.775 673.889 355.297 674.592 355.297H679.936C680.498 355.297 681.061 355.775 681.061 356.571C681.061 357.368 680.498 357.846 679.936 357.846ZM665.311 357.846H659.967C659.404 357.846 658.842 357.368 658.842 356.571C658.842 355.775 659.264 355.297 659.967 355.297H665.311C665.873 355.297 666.436 355.775 666.436 356.571C666.436 357.368 665.873 357.846 665.311 357.846ZM650.686 357.846H645.342C644.779 357.846 644.217 357.368 644.217 356.571C644.217 355.775 644.639 355.297 645.342 355.297H650.686C651.248 355.297 651.811 355.775 651.811 356.571C651.811 357.368 651.248 357.846 650.686 357.846Z" fill="#1EAEF7"/>
<path d="M735.906 361.032C735.344 361.032 734.781 360.554 734.781 359.758V357.846H733.094C732.531 357.846 731.969 357.368 731.969 356.571C731.969 355.775 732.391 355.297 733.094 355.297H735.906C736.188 355.297 736.469 355.456 736.609 355.615C736.75 355.775 736.891 356.093 736.891 356.412V359.598C737.031 360.554 736.469 361.032 735.906 361.032Z" fill="#1EAEF7"/>
<path d="M735.766 373.778H732.953C732.391 373.778 731.828 373.3 731.828 372.503C731.828 371.707 732.25 371.229 732.953 371.229H734.781V369.158C734.781 368.521 735.344 368.043 735.906 368.043C736.469 368.043 736.891 368.521 736.891 369.317V372.503C736.75 373.3 736.328 373.778 735.766 373.778Z" fill="#1EAEF7"/>
<path d="M723.67 373.778H718.326C717.764 373.778 717.201 373.3 717.201 372.504C717.201 371.707 717.623 371.229 718.326 371.229H723.67C724.232 371.229 724.795 371.707 724.795 372.504C724.795 373.3 724.232 373.778 723.67 373.778ZM709.045 373.778H703.701C703.139 373.778 702.576 373.3 702.576 372.504C702.576 371.707 702.998 371.229 703.701 371.229H709.045C709.607 371.229 710.17 371.707 710.17 372.504C710.17 373.3 709.607 373.778 709.045 373.778ZM694.42 373.778H689.076C688.514 373.778 687.951 373.3 687.951 372.504C687.951 371.707 688.373 371.229 689.076 371.229H694.42C694.982 371.229 695.545 371.707 695.545 372.504C695.545 373.3 694.982 373.778 694.42 373.778ZM679.936 373.778H674.592C674.029 373.778 673.467 373.3 673.467 372.504C673.467 371.707 673.889 371.229 674.592 371.229H679.936C680.498 371.229 681.061 371.707 681.061 372.504C681.061 373.3 680.498 373.778 679.936 373.778ZM650.686 373.778H645.342C644.779 373.778 644.217 373.3 644.217 372.504C644.217 371.707 644.639 371.229 645.342 371.229H650.686C651.248 371.229 651.811 371.707 651.811 372.504C651.811 373.3 651.248 373.778 650.686 373.778Z" fill="#1EAEF7"/>
<path d="M633.25 376.964C632.688 376.964 632.125 376.486 632.125 375.69V372.503C632.125 371.866 632.547 371.388 633.25 371.388H636.062C636.625 371.388 637.187 371.866 637.187 372.663C637.187 373.459 636.766 373.937 636.062 373.937H634.234V376.008C634.375 376.486 633.813 376.964 633.25 376.964Z" fill="#1EAEF7"/>
<path d="M635.922 390.188H633.109C632.828 390.188 632.547 390.029 632.406 389.869C632.266 389.71 632.125 389.391 632.125 389.073V385.886C632.125 385.249 632.547 384.771 633.25 384.771C633.813 384.771 634.234 385.249 634.234 386.046V387.957H635.922C636.484 387.957 637.047 388.435 637.047 389.232C637.047 390.029 636.484 390.188 635.922 390.188Z" fill="#1EAEF7"/>
<path d="M716.357 390.188H710.451C709.889 390.188 709.326 389.71 709.326 388.913C709.326 388.117 709.748 387.639 710.451 387.639H716.357C716.92 387.639 717.482 388.117 717.482 388.913C717.482 389.71 716.92 390.188 716.357 390.188ZM700.186 390.188H694.279C693.717 390.188 693.154 389.71 693.154 388.913C693.154 388.117 693.576 387.639 694.279 387.639H700.186C700.748 387.639 701.31 388.117 701.31 388.913C701.31 389.71 700.889 390.188 700.186 390.188ZM684.154 390.188H678.248C677.686 390.188 677.123 389.71 677.123 388.913C677.123 388.117 677.545 387.639 678.248 387.639H684.154C684.717 387.639 685.279 388.117 685.279 388.913C685.279 389.71 684.717 390.188 684.154 390.188ZM668.123 390.188H662.217C661.654 390.188 661.092 389.71 661.092 388.913C661.092 388.117 661.514 387.639 662.217 387.639H668.123C668.686 387.639 669.248 388.117 669.248 388.913C669.248 389.71 668.686 390.188 668.123 390.188ZM652.092 390.188H646.186C645.623 390.188 645.061 389.71 645.061 388.913C645.061 388.117 645.482 387.639 646.186 387.639H652.092C652.654 387.639 653.217 388.117 653.217 388.913C653.217 389.71 652.654 390.188 652.092 390.188Z" fill="#1EAEF7"/>
<path d="M745.469 390.188H742.656C742.094 390.188 741.531 389.71 741.531 388.913C741.531 388.117 741.953 387.639 742.656 387.639H745.469C746.031 387.639 746.594 388.117 746.594 388.913C746.594 389.71 746.031 390.188 745.469 390.188Z" fill="#1EAEF7"/>
<path d="M786.671 387.001C782.171 387.001 778.796 386.364 778.515 386.364C777.812 386.205 777.39 385.567 777.531 384.771C777.671 383.974 778.234 383.496 778.937 383.656C779.078 383.656 796.515 387.001 807.062 377.761C814.234 371.547 816.343 363.263 818.172 355.934C820.281 347.809 822.109 340.002 830.968 338.09C837.156 336.816 841.375 342.073 845.453 347.172C848.406 350.836 851.359 354.66 854.875 355.616C860.5 357.209 863.875 350.358 867.672 342.392C868.515 340.48 869.5 338.728 870.484 336.816C878.078 322.637 887.5 314.352 898.047 312.759C908.172 311.166 918.859 316.264 928.984 327.257C938.406 337.453 944.453 335.701 952.75 333.152C957.25 331.877 962.172 330.284 968.64 330.284C969.343 330.284 969.765 330.921 969.765 331.558C969.765 332.196 969.203 332.833 968.64 332.833C962.593 332.833 957.672 334.267 953.453 335.541C944.734 338.25 937.703 340.321 927.296 329.009C917.734 318.654 907.75 313.874 898.328 315.308C888.625 316.742 879.625 324.708 872.453 338.09C871.468 339.843 870.625 341.755 869.64 343.507C865.562 351.951 861.625 360.076 854.171 358.005C849.953 356.731 846.718 352.748 843.484 348.765C839.687 343.985 836.172 339.524 831.25 340.48C823.937 342.073 822.25 348.446 820.281 356.412C818.312 364.059 816.203 372.822 808.328 379.673C801.859 385.727 793 387.001 786.671 387.001Z" fill="#1EAEF7"/>
<path d="M726.344 564.482L728.453 608.932C728.453 608.932 719.453 608.773 707.359 614.349C695.266 620.084 678.672 628.05 678.672 628.05L773.031 626.776L754.328 611.959L772.047 606.861L769.375 591.088L742.094 601.444L745.187 561.933C745.187 561.933 758.828 559.862 773.031 551.099C787.234 542.337 775.563 520.988 775.563 520.988C751.797 534.212 728.453 549.347 701.875 553.648C699.344 554.126 696.812 554.445 694.281 554.604C696.109 554.604 709.609 562.092 726.344 564.482Z" fill="#3F3161"/>
<path d="M601.329 555.401C601.329 555.401 594.579 567.031 583.188 565.757C571.797 564.482 558.016 558.11 552.391 571.014C546.766 583.919 568.844 595.549 582.344 595.709C595.844 595.868 586.704 601.603 592.047 607.817C597.391 614.03 606.954 610.844 614.266 601.285C621.016 592.522 630.86 579.618 630.86 579.618L601.329 555.401Z" fill="#3F3161"/>
<path d="M783.578 394.329C783.578 394.329 800.453 377.601 822.109 394.329C843.766 411.058 832.094 467.297 781.469 494.222L757.844 472.714L783.578 394.329Z" fill="white"/>
<path d="M689.359 531.663C689.359 531.663 678.672 544.886 692.734 553.808C706.937 562.889 749.968 559.225 774.156 536.92C784.562 527.361 777.812 516.846 774.578 507.924C770.359 496.294 766.984 487.372 766.984 487.372L689.359 531.663Z" fill="white"/>
<path d="M757.844 484.026C757.844 484.026 685.281 458.057 672.203 454.234C659.125 450.41 643.656 449.136 631.141 471.44C622.422 487.213 619.188 511.27 598.375 538.991C592.609 546.639 578.266 554.127 590.781 563.845C603.297 573.404 623.688 589.017 623.688 589.017L635.359 577.546V613.712H683.313C683.313 613.712 684.438 542.018 689.641 532.778C689.641 532.778 708.906 549.666 743.078 544.408C766 540.744 774.297 521.785 777.813 510.633C774.578 497.25 773.875 494.541 773.875 494.541L757.844 484.026Z" fill="#0062BA"/>
<path d="M713.548 456.942C709.329 453.278 705.11 449.454 700.891 445.79C699.063 444.196 696.813 443.4 694.844 442.125C692.735 440.851 693.438 442.762 691.469 441.169C685.282 439.417 680.641 435.434 676.282 434.956C668.969 434.319 663.204 435.752 658.704 438.939C657.719 439.576 655.048 443.081 654.344 444.515C653.782 445.63 653.501 446.905 653.641 448.179C654.063 452.64 657.579 452.481 660.251 453.278C662.219 453.915 664.188 454.074 666.016 454.711C668.266 455.508 670.235 456.942 672.204 458.535C675.157 461.084 678.11 463.952 681.766 465.067C687.11 466.66 693.157 464.271 697.938 467.298C699.766 468.413 701.173 470.165 702.579 471.918C703.985 473.67 705.391 475.423 707.219 476.538C710.313 478.45 712.985 476.857 715.798 475.264C717.485 474.308 718.61 472.555 718.751 470.165C719.032 466.023 716.641 461.881 714.672 458.694C714.251 458.057 713.969 457.579 713.548 456.942Z" fill="#3F3161"/>
<path d="M696.952 368.361C695.265 370.114 693.296 371.229 691.609 372.981C690.202 374.415 688.796 376.008 687.39 377.442C686.124 378.876 685.562 380.469 683.452 380.31C682.468 380.151 681.624 379.832 680.64 379.513C676.14 377.761 671.499 377.283 666.859 376.486C662.921 375.69 659.406 372.981 655.89 370.592C652.234 368.043 648.999 364.06 647.452 359.439C646.187 355.775 645.202 348.446 649.14 346.216C649.984 345.738 650.968 345.579 651.812 345.419C655.046 344.782 656.874 345.419 659.546 347.49C661.656 349.084 663.765 350.517 665.874 351.951C667.14 352.748 669.671 354.978 671.077 354.66C674.171 354.022 670.796 349.562 670.234 347.809C669.531 346.057 668.124 342.552 669.812 340.799C671.64 338.569 673.609 342.074 674.874 343.348C676.702 345.26 678.671 347.172 680.499 349.243C683.734 352.748 686.827 356.253 689.64 360.077C691.609 362.466 694.281 366.609 696.952 368.361Z" fill="#3F3161"/>
<path d="M769.796 309.413C768.249 309.731 766.843 310.528 765.577 311.484C764.874 311.962 764.312 312.44 763.609 312.758C762.906 313.077 762.062 313.396 761.359 313.714C760.515 314.192 759.671 314.83 758.968 315.467C757.843 316.582 756.859 317.857 756.296 319.45C756.015 320.246 755.874 321.043 755.593 321.84C755.312 322.636 754.89 323.273 754.327 323.911C753.484 324.867 752.499 325.026 751.374 325.345C750.109 325.663 748.984 326.141 747.718 326.3C744.765 326.619 742.796 328.053 743.499 331.717C743.781 333.151 744.343 334.585 744.484 336.019C744.906 340.002 737.734 354.022 744.343 362.307C746.171 364.696 751.656 368.998 751.656 375.689C745.468 380.628 743.781 398.95 745.187 399.268C746.452 399.746 769.234 404.526 769.234 404.526L782.734 386.364C782.734 386.364 780.624 383.496 779.359 379.194C778.093 375.211 777.531 369.795 778.656 364.378C780.906 353.066 792.437 330.283 792.437 330.283L785.968 321.84C784.562 320.724 783.296 319.45 781.89 318.335C779.921 316.582 777.812 314.83 775.843 313.077C774.156 311.962 772.046 309.094 769.796 309.413Z" fill="#3F3161"/>
<path d="M684.438 438.302C678.25 443.241 673.891 459.172 678.531 464.589C684.86 471.918 730.141 498.684 742.797 499.639C748.985 500.117 751.657 495.656 755.875 497.728C764.594 502.029 774.578 507.924 774.578 518.12C774.578 518.12 776.547 519.554 779.219 510.792C782.172 500.755 786.25 479.565 791.032 465.067C797.922 444.197 811.844 427.309 809.453 406.916C806.922 385.886 785.969 382.54 779.36 379.194C779.36 379.194 765.157 388.594 755.875 387.32C746.594 385.886 751.657 379.035 751.657 375.689C748.703 375.689 746.453 375.052 743.5 376.167C740.828 377.123 738.297 378.876 735.906 380.788C732.953 383.177 730.141 385.886 726.766 387.798C725.36 388.594 723.953 389.55 722.266 389.072C720.578 388.754 719.172 387.638 717.907 386.523C711.719 381.266 696.11 367.883 694.563 366.13C692.594 363.741 678.25 378.239 677.828 380.947C677.406 384.293 679.938 388.913 681.203 391.781C684.578 399.428 688.375 407.075 692.172 414.404C694.563 418.865 696.953 423.326 699.906 427.468C701.313 429.38 703 431.292 704.688 433.044C706.375 434.637 708.203 435.593 709.891 437.027C705.531 436.868 701.313 436.709 696.953 436.549C691.891 436.071 687.11 436.071 684.438 438.302Z" fill="#E23B53"/>
<path d="M798.203 329.168C797.922 328.053 797.641 326.779 798.344 325.982C798.766 325.345 799.469 325.185 800.172 324.867C801.859 324.23 803.406 323.114 804.672 321.84C806.078 320.406 806.641 318.972 807.203 316.901C808.188 313.396 808.187 309.413 806.641 306.386C804.953 302.881 801.437 300.65 797.922 300.969C794.406 301.128 791.172 303.837 789.766 307.501C787.094 303.359 782.453 300.969 777.812 301.447C775.422 301.766 773.031 302.722 770.641 302.881C766.844 303.04 762.625 300.013 758.969 300.81C755.453 301.606 752.781 305.111 752.781 310.528C752.781 313.874 755.594 321.84 755.594 321.84C755.594 321.84 757.141 318.335 757.703 317.538C759.25 314.83 761.922 313.396 764.875 315.467C766.562 316.582 767.406 318.813 767.547 321.043C767.687 323.274 767.125 325.345 766.562 327.416C766 329.487 765.437 331.558 765.297 333.789C765.297 334.745 765.297 335.86 765.719 336.656C766.141 337.612 766.844 338.25 767.687 338.409C768.391 338.409 769.094 338.09 769.375 337.294C769.797 336.338 770.359 335.541 771.344 335.063C772.75 334.267 774.578 334.426 775.844 335.541C777.25 336.656 776.547 339.684 776.125 341.277C775.141 345.419 772.75 348.127 771.484 351.951C770.078 356.093 769.656 360.714 770.359 365.175C770.641 366.927 771.063 368.839 772.047 370.273C773.031 371.707 774.437 372.981 776.125 372.981C778.375 373.14 780.203 371.388 781.891 369.795C785.125 366.608 788.5 363.422 791.734 360.236C793.141 358.802 794.969 357.527 795.953 355.615C796.938 353.704 797.781 351.632 798.344 349.402C800.172 343.029 800.172 336.019 798.484 329.646C798.203 329.328 798.203 329.168 798.203 329.168Z" fill="#1EAEF7"/>
<path d="M767.828 521.307V513.022L866.547 493.426L879.484 519.236L928.844 513.022L930.391 480.84L1108.56 445.63L1368.72 476.698C1354.38 484.504 1339.89 492.151 1325.55 499.958C1296.02 515.89 1266.48 531.822 1236.95 547.754C1225.28 554.126 1213.47 560.34 1201.8 566.713C1187.73 574.36 1177.19 588.38 1170.02 604.152C1169.31 605.746 1168.61 607.498 1167.34 608.773C1166.22 610.047 1164.39 610.844 1162.98 610.207C1161.72 609.729 1160.88 608.454 1160.17 607.18C1157.64 603.197 1154.27 594.593 1150.33 592.363C1149.06 591.726 1146.95 591.885 1145.55 591.566C1143.16 591.088 1140.91 590.77 1138.52 590.292C1131.91 589.017 1125.16 587.743 1118.55 586.627C1099 582.963 1079.31 579.299 1059.77 575.634C1035.02 571.014 1010.41 566.394 985.656 561.933C959.641 557.153 933.766 552.215 907.75 547.435C884.406 543.133 861.062 538.832 837.719 534.371C820.844 531.184 804.109 528.157 787.234 524.971C780.766 523.697 774.297 522.422 767.828 521.307Z" fill="#CFF0FF"/>
<path d="M811.281 482.592C811.281 485.938 811.281 501.392 811.281 506.49C811.281 509.995 813.25 512.385 816.766 513.022C820.281 513.659 882.578 524.334 882.578 524.334L940.094 512.385V506.968C940.094 506.968 898.047 515.093 891.578 516.208C885.109 517.324 875.687 515.253 875.687 503.782C875.687 492.311 883.703 491.036 889.188 489.921C894.672 488.965 940.094 480.68 940.094 480.68L904.656 461.562C904.656 461.562 825.484 471.281 818.453 472.396C811.281 473.511 811.281 477.813 811.281 482.592Z" fill="#3F3161"/>
<path d="M927.438 480.521C927.438 480.521 916.328 496.134 916.328 517.483C916.328 538.832 929.828 534.371 948.953 534.371C968.078 534.371 973.844 531.025 973.844 513.819C973.844 496.612 959.781 471.121 959.781 471.121L927.438 480.521Z" fill="#1EAEF7"/>
<path d="M780.203 654.975L774.719 531.185L1139.92 592.841L1136.97 673.775L780.203 654.975Z" fill="#3F3161"/>
<path d="M767.828 521.307V638.087H796.234V540.106L929.547 567.668V646.372H956.969V571.333L1124.17 603.993V649.399H1152.58V592.841L767.828 521.307Z" fill="#6A6A6A"/>
<path d="M876.673 625.342C876.673 625.342 876.532 625.342 876.532 625.501C871.47 627.891 856.423 638.247 854.313 626.935C853.47 622.315 853.329 617.376 853.048 612.596C852.766 607.498 852.485 602.4 852.204 597.142C852.063 592.044 851.782 586.787 851.782 581.689C851.782 579.139 851.782 576.59 851.641 574.041C851.641 572.289 852.204 569.899 851.782 568.146C851.22 565.438 848.548 565.916 847.282 568.465C846.438 570.058 846.438 572.129 846.298 574.041C846.157 584.875 846.016 595.549 845.876 606.383C845.735 612.118 843.766 615.146 838.563 612.437C834.766 610.366 832.235 606.224 830.97 601.763C829.704 597.302 829.423 592.522 829.282 587.743C829.141 583.282 828.86 578.98 828.72 574.519C828.72 571.174 828.72 567.35 830.829 564.641C832.095 563.048 833.782 562.092 835.61 561.136C837.016 560.34 838.563 559.703 839.97 558.906C836.454 559.703 833.079 560.818 829.704 562.092C829.001 562.411 828.298 562.73 827.735 563.208C825.345 565.279 826.048 570.536 825.907 573.563C825.907 577.546 826.048 581.689 825.907 585.672C825.766 592.363 825.204 599.373 822.532 605.268C821.688 607.339 820.423 609.41 818.876 610.844C817.329 612.278 815.22 613.234 813.11 613.074C809.313 612.596 806.501 608.454 805.938 604.153C805.516 600.966 806.079 597.62 806.782 594.593C807.485 591.885 807.345 589.336 807.345 586.627C807.485 579.936 807.626 573.245 807.204 566.553C807.063 562.57 806.641 558.906 810.157 556.516C812.829 554.604 832.516 549.506 838.141 548.71C856.985 552.374 890.876 559.543 890.876 559.543C890.876 559.543 876.391 563.526 876.11 567.509C875.829 570.855 876.11 574.36 876.11 577.706C876.11 578.662 876.11 592.682 876.11 592.682H886.095C886.095 589.655 886.095 586.468 886.095 583.441C886.095 581.051 886.095 578.662 886.095 576.272C886.095 574.519 885.532 571.333 887.079 570.218C888.204 569.262 901.141 571.652 906.345 572.289C908.876 572.607 919.001 572.926 920.407 574.519C921.954 576.272 921.251 580.733 921.251 583.122C921.251 586.468 921.251 589.814 921.251 593.16C921.251 597.302 921.251 601.444 921.251 605.586C921.251 606.064 915.626 608.135 915.204 608.295C914.079 608.773 909.438 611.8 908.595 610.366C908.173 609.729 908.313 608.932 908.454 608.136C909.438 600.966 895.938 596.346 895.798 602.4C895.657 606.542 896.36 611.641 894.391 615.305C893.126 617.854 890.735 619.128 888.345 620.084C884.548 621.996 880.61 623.589 876.673 625.342Z" fill="#0062BA"/>
<path d="M1154.69 300.969H968.078L960.203 312.281L970.187 475.901L1165.52 438.62C1165.66 438.62 1167.34 345.1 1154.69 300.969Z" fill="#0062BA"/>
<path d="M985.375 314.033L1143.58 309.891L1154.41 426.831L993.812 453.437L985.375 314.033Z" fill="white"/>
<path d="M1048.38 455.827C1047.11 459.013 1046.27 462.518 1045.7 465.864C1045.28 469.05 1045.28 471.918 1043.88 474.786C1042.89 476.857 1041.2 478.609 1039.38 479.884C1035.58 482.592 1031.36 484.026 1027.28 486.257C1025.03 487.531 1022.78 489.124 1020.95 491.196C1019.27 493.267 1018.56 495.019 1018 497.728C1020.95 499.48 1023.77 501.233 1026.72 502.985C1028.69 504.1 1030.66 505.375 1032.48 506.49C1032.91 506.65 1034.59 508.083 1035.02 507.924C1036.42 507.446 1037.97 506.968 1039.38 506.49C1046.41 504.1 1053.58 501.711 1060.61 499.321C1070.73 495.975 1080.72 492.63 1090.84 489.125C1100.69 485.779 1110.53 482.433 1120.38 479.247C1126.28 477.176 1132.47 475.901 1138.09 473.033C1139.08 472.555 1141.05 472.077 1140.91 470.484C1140.91 469.21 1139.5 468.254 1138.8 467.616C1137.11 466.342 1135.28 465.386 1133.45 464.589C1128.81 462.518 1123.75 462.04 1118.83 462.2C1099.98 462.678 1104.06 438.78 1104.06 438.78C1097.73 440.532 1091.27 442.444 1084.94 444.197C1074.67 447.064 1064.41 450.091 1054.28 452.959C1052.31 453.437 1049.22 453.596 1048.38 455.827Z" fill="#0062BA"/>
<path d="M1042.61 525.131V541.063L1116.72 557.95L1248.77 502.189V491.514L1193.08 473.352L1042.61 525.131Z" fill="#0062BA"/>
<path d="M972.015 420.936C974.124 421.732 976.093 422.529 978.202 423.325C979.187 423.644 980.312 423.963 981.015 423.166C981.437 422.688 981.577 421.892 981.718 421.095C981.999 419.024 982.984 416.953 983.546 414.882C984.39 410.899 982.14 405.641 978.484 404.685C978.624 401.339 975.812 398.312 972.859 398.472C971.874 398.472 970.609 398.95 969.765 398.472C969.624 398.472 969.484 398.312 969.343 398.312C968.218 397.516 968.077 395.923 967.656 394.489C967.093 391.94 965.546 389.55 963.296 388.594C961.187 387.638 958.374 388.275 956.968 390.346C952.468 389.072 955.14 397.038 950.781 397.038C949.656 397.038 948.531 396.401 947.546 395.923C946.984 395.763 946.421 395.445 945.859 395.445C945.437 395.445 944.593 395.763 944.312 395.604C943.609 395.285 943.187 393.852 942.484 393.374C941.64 392.736 940.374 392.736 939.812 393.692C939.671 394.011 939.531 394.489 939.249 394.807C938.546 395.285 937.843 394.489 937.281 393.852C933.343 389.072 927.859 393.533 926.171 398.472C925.468 400.384 925.327 402.455 924.484 404.207C923.64 405.96 922.093 407.712 920.265 407.234C919.562 407.075 918.999 406.756 918.296 406.916C917.874 407.075 917.452 407.553 917.031 407.712C915.906 408.35 914.499 407.394 913.374 406.597C911.968 405.482 910.281 404.526 908.593 404.685C906.906 404.844 905.077 406.438 905.359 408.349C905.499 409.783 906.624 410.899 906.765 412.332C907.187 415.2 904.093 416.793 902.124 418.705C899.171 421.573 898.609 427.149 900.859 430.654C898.046 432.088 895.093 433.681 893.124 436.549C891.999 438.142 891.296 440.213 891.437 442.284C891.437 443.4 891.718 444.196 892.14 445.152C892.562 446.586 892.421 446.586 891.859 448.02C890.031 452.321 889.749 457.42 891.015 461.881C892.984 468.572 898.749 473.67 904.937 474.626C903.39 475.901 902.124 477.972 901.702 480.043C903.812 478.768 906.202 478.131 908.593 478.29C908.874 480.68 909.437 483.07 910.14 485.3C909.999 484.663 913.515 483.07 913.796 483.07C915.484 482.433 917.171 481.955 918.999 482.592C920.546 483.229 921.812 484.345 923.218 485.141C924.624 485.938 926.312 486.575 927.859 485.938C930.109 485.141 931.796 482.751 934.046 481.636C935.734 480.839 938.406 481.158 939.531 479.406C940.234 478.45 940.234 477.175 940.234 476.06C940.515 467.457 941.499 458.854 943.468 450.569C944.874 444.196 946.984 437.823 950.781 433.044C955.421 427.308 961.89 425.397 968.077 423.166C971.171 422.051 974.265 420.776 976.937 418.546C979.468 416.634 982.421 415.678 982.562 411.536C982.562 410.58 982.421 409.465 982.14 408.509" fill="#0062BA"/>
<path d="M998.593 457.898C998.593 457.739 998.733 457.579 998.733 457.42C999.858 453.756 997.187 449.932 999.155 446.586C999.999 445.152 1001.26 443.878 1002.11 442.444C1002.95 441.01 1003.66 439.098 1003.09 437.346C1002.11 434.319 998.593 434 996.624 431.61C993.53 427.946 998.171 423.485 994.937 420.299C993.671 419.024 991.561 419.024 990.577 420.458C990.155 418.865 988.608 417.909 987.061 417.909C985.655 417.909 984.249 418.705 983.124 419.821C982.561 420.458 981.999 421.095 981.155 421.095C980.03 421.095 979.186 419.661 979.327 418.387C979.327 417.112 979.89 415.838 980.171 414.563C980.733 411.536 979.046 408.19 976.515 407.075C973.983 405.96 970.749 407.234 969.343 409.943C968.077 408.35 966.249 407.394 964.28 407.394C962.452 407.394 960.483 408.35 959.358 410.102C958.374 407.234 956.265 405.004 953.593 404.207C950.499 403.252 948.952 405.801 946.28 406.757C944.171 407.394 942.061 406.279 939.952 405.96C936.858 405.641 933.624 407.234 931.796 410.102C931.233 410.899 930.952 411.855 930.249 412.651C929.546 413.607 928.421 414.404 927.296 413.926C926.452 413.607 926.171 412.492 925.468 411.855C924.624 411.058 923.64 410.421 922.515 410.899C922.233 411.058 920.546 412.651 921.249 413.129C919.983 412.333 918.296 413.607 918.296 415.2C918.296 415.997 918.718 416.953 918.296 417.75C918.155 418.068 917.733 418.387 917.593 418.705C917.03 419.502 917.311 420.617 917.874 421.573C918.296 422.37 918.858 423.326 918.858 424.282C918.858 425.875 917.452 426.99 916.046 426.99C914.64 426.99 913.515 426.193 912.39 425.397C911.265 424.6 910.14 423.644 908.874 423.166C907.608 422.848 905.921 423.166 905.358 424.441C904.515 426.034 905.499 428.105 906.343 429.698C904.937 429.221 903.39 430.017 902.827 431.451C902.124 432.885 902.546 434.797 903.53 435.753C901.702 436.071 900.577 438.142 900.437 440.213C900.296 442.125 901.843 444.515 901.14 446.108C900.437 447.701 899.171 448.976 898.468 450.729C897.202 454.234 897.062 458.216 898.327 461.721C900.155 467.298 905.218 471.121 910.421 471.121C913.796 471.121 917.733 469.847 920.265 472.396C922.233 474.467 922.937 477.494 923.921 480.043C924.343 480.999 924.905 482.592 925.608 483.389C926.452 484.345 928.14 484.345 929.265 484.504C929.546 484.504 929.827 484.663 929.968 484.823C930.39 485.301 930.39 486.097 930.53 486.735C930.811 487.69 931.655 488.328 932.64 488.487C933.624 488.646 934.468 488.328 935.452 488.168C935.733 491.036 937.702 493.426 940.093 491.036C940.937 490.08 941.78 488.965 943.046 488.806C944.03 488.646 945.015 489.284 945.858 489.602C947.124 489.921 948.671 489.284 949.515 488.168C950.358 487.053 950.64 485.301 950.218 483.867C951.343 484.982 953.03 485.301 954.436 484.663C955.843 484.026 956.968 482.592 957.108 480.999C957.952 483.389 960.061 482.433 961.749 482.592C963.999 482.752 966.108 483.548 968.218 484.026C971.171 484.663 974.405 484.663 976.796 482.752C980.03 480.202 980.593 474.945 983.124 471.44C985.233 468.413 988.608 466.66 991.561 464.908C994.515 463.633 997.468 461.403 998.593 457.898Z" fill="#3F3161"/>
<path d="M923.078 445.949C923.641 446.905 923.641 447.861 923.359 448.817C922.938 449.773 922.234 450.41 921.391 450.569C919.562 451.206 917.734 448.817 918.297 446.905C918.578 445.79 919.563 444.993 920.547 444.834C921.109 444.674 921.531 444.674 922.094 444.993C922.375 444.993 922.797 445.471 923.078 445.949Z" fill="#E23B53"/>
<path d="M937.422 467.616C937.281 467.297 937.14 467.138 937.14 466.819C937 466.342 936.859 465.704 937 465.226C937.14 463.314 938.828 462.518 940.234 462.996C941.218 463.314 942.343 464.589 942.203 465.864C942.062 466.66 941.64 467.297 941.218 467.775C940.515 468.413 939.812 468.572 938.968 468.572C938.546 468.572 937.984 468.413 937.562 467.935C937.562 467.775 937.562 467.775 937.422 467.616Z" fill="#E23B53"/>
<path d="M950.499 436.39C949.937 435.753 949.093 435.275 948.249 435.275C947.687 435.275 947.265 435.434 946.702 435.753C945.437 436.549 944.874 438.62 945.437 440.214C945.999 441.807 947.546 442.763 948.952 442.444C950.64 441.966 951.765 439.576 951.062 437.505C950.921 437.027 950.781 436.709 950.499 436.39Z" fill="#E23B53"/>
<path d="M972.296 451.844C972.296 451.684 972.296 451.684 972.155 451.525C972.014 450.888 971.593 450.251 971.03 449.932C970.468 449.613 969.905 449.613 969.343 449.773C968.358 449.932 967.374 450.569 966.952 451.844C966.389 453.437 967.093 455.667 968.358 456.305C969.624 456.942 971.03 456.145 971.874 454.711C972.296 453.915 972.436 452.8 972.296 451.844Z" fill="#E23B53"/>
<path d="M970.466 423.007C971.17 423.963 971.451 425.078 971.31 426.353C971.31 426.99 970.888 427.787 970.466 428.265C969.201 429.539 966.951 429.38 965.826 427.946C964.701 426.512 964.982 423.963 966.248 422.848C966.81 422.37 967.654 421.892 968.357 421.892C969.201 421.733 969.904 422.37 970.466 423.007Z" fill="#E23B53"/>
<path d="M978.906 507.924V521.307L1010.69 528.476L1039.66 515.571V506.331L1018 502.826L978.906 507.924Z" fill="#1EAEF7"/>
<path d="M1227.25 490.559C1229.78 491.355 1230.34 496.931 1232.17 499.321C1234.42 502.189 1237.52 504.101 1240.89 504.419C1246.23 504.897 1251.3 501.87 1256.5 500.596C1260.58 499.64 1264.66 499.64 1268.73 500.436C1272.81 501.233 1276.61 503.623 1280.55 504.579C1283.08 505.057 1282.52 505.057 1283.08 502.189C1283.5 499.958 1283.92 497.887 1284.34 495.657C1284.62 493.745 1288.14 471.281 1288.84 471.281C1278.72 471.122 1268.17 469.529 1258.61 465.386C1255.94 464.271 1253.27 462.996 1250.45 462.837C1246.8 462.678 1243.28 464.43 1240.05 466.183C1232.45 470.166 1224.86 474.149 1217.41 478.45C1213.61 480.681 1209.81 482.911 1206.16 485.301C1203.62 486.894 1200.11 489.762 1203.2 493.426C1204.33 494.701 1206.02 495.179 1207.7 495.02C1209.25 494.86 1210.8 494.223 1212.34 493.745C1215.16 492.47 1223.17 489.284 1227.25 490.559Z" fill="#1EAEF7"/>
<path d="M1263.25 475.264C1263.25 475.583 1263.11 475.901 1263.11 476.22C1262.41 482.911 1262.55 489.762 1263.39 496.453C1264.09 502.826 1266.06 505.694 1271.41 506.65C1273.37 506.969 1274.92 507.924 1277.03 508.721C1281.11 510.314 1285.47 510.792 1289.69 511.907C1294.89 513.182 1300.09 514.297 1305.3 515.253C1316.12 517.324 1327.8 519.395 1337.78 514.456C1346.92 509.996 1353.25 500.596 1359.01 491.515C1360.98 488.328 1362.95 485.142 1364.08 481.637C1365.2 477.972 1365.48 473.83 1363.94 470.325C1361.97 466.024 1357.75 463.634 1353.53 463.156C1349.31 462.678 1345.09 463.634 1341.01 464.59C1330.61 466.82 1319.64 470.325 1308.95 469.529C1298.41 468.573 1288.84 466.183 1278.58 463.474C1275.34 462.519 1271.69 461.881 1268.59 463.634C1265.22 465.705 1263.81 470.644 1263.25 475.264Z" fill="#E23B53"/>
<path d="M1300.52 355.775C1300.38 355.775 1300.09 355.775 1299.95 356.093C1299.67 356.571 1299.81 359.598 1299.81 360.236C1299.53 361.988 1299.25 363.581 1298.83 365.334C1297.28 372.184 1294.89 378.717 1291.8 384.771C1290.67 387.001 1289.41 389.232 1289.69 391.781C1289.97 394.648 1292.22 396.72 1294.47 398.313C1296.58 399.747 1298.83 401.34 1300.52 403.57C1302.06 405.641 1302.34 408.668 1303.05 411.218C1303.89 414.563 1304.74 417.909 1305.58 421.095C1307.27 427.309 1309.52 436.39 1314.72 440.054C1321.89 445.312 1335.95 441.966 1337.22 444.993C1338.49 448.02 1344.25 484.186 1344.81 483.867C1345.38 483.548 1398.67 445.152 1398.67 445.152L1371.81 369.317C1365.77 368.202 1359.86 367.086 1353.81 365.971C1340.31 363.422 1326.81 360.873 1313.31 358.324C1309.66 357.686 1305.44 356.093 1301.64 356.093C1301.08 355.934 1300.8 355.775 1300.52 355.775Z" fill="#1EAEF7"/>
<path d="M1384.61 438.78C1374.34 439.258 1357.75 439.098 1352.27 425.397C1348.89 416.634 1351.14 407.872 1352.83 400.702C1354.52 393.055 1355.36 379.672 1344.95 379.991C1331.88 380.31 1343.41 402.455 1335.95 403.411C1328.5 404.367 1324.28 397.197 1323.02 382.859C1322.17 373.459 1311.49 370.273 1305.86 365.493C1301.78 361.988 1299.11 357.527 1297.99 351.951C1296.72 345.259 1297.14 338.249 1299.11 331.877C1299.53 330.284 1300.09 328.85 1300.8 327.416C1305.16 317.697 1313.17 310.369 1322.31 307.023C1331.45 303.677 1341.58 304.474 1350.58 308.457C1359.16 312.281 1366.19 318.494 1375.47 320.565C1384.33 322.477 1393.61 322.318 1402.33 324.867C1407.39 326.301 1412.45 328.85 1416.11 333.151C1419.49 337.134 1421.59 342.232 1422.86 347.49C1424.41 353.863 1424.69 360.554 1423.56 366.927C1422.44 373.3 1419.77 379.513 1415.55 384.133C1412.59 387.479 1408.94 389.869 1405.84 392.896C1403.03 395.764 1402.05 400.384 1399.66 403.889C1389.11 419.502 1396.14 437.983 1396.14 437.983C1396.14 437.983 1395.02 438.302 1384.61 438.78Z" fill="#3F3161"/>
<path d="M1044.16 461.722L1054.98 459.651C1054.98 459.651 1060.89 472.555 1053.86 479.406C1050.2 482.911 1045.7 485.46 1041.2 487.531C1037.27 489.443 1033.05 491.514 1030.8 495.816C1029.95 497.409 1029.53 499.162 1028.69 500.755C1028.55 501.073 1026.86 504.419 1026.72 504.419C1025.73 504.26 1024.61 504.1 1023.62 503.782C1022.08 503.463 1021.37 503.782 1019.83 504.1C1018.98 504.26 1010.55 503.304 1010.97 502.029C1013.08 495.975 1015.89 490.08 1020.39 486.097C1026.3 480.84 1041.34 477.654 1043.45 471.918C1045.14 467.616 1044.72 464.271 1044.16 461.722Z" fill="#3F3161"/>
<path d="M978.906 507.924L1012.52 497.887C1012.52 497.887 1034.73 500.914 1042.61 499.162L1013.64 515.731L978.906 507.924Z" fill="white"/>
<path d="M1042.61 525.131V541.063L1116.72 557.95C1116.72 555.879 1117.28 552.374 1116.58 550.622C1115.73 548.71 1112.78 548.551 1111.23 548.073C1108.84 547.276 1106.31 546.479 1103.92 545.683C1095.48 542.815 1087.05 540.107 1078.61 537.239C1070.31 534.531 1062.02 531.663 1053.86 528.954C1050.06 527.68 1046.27 526.405 1042.61 525.131Z" fill="#3F3161"/>
<path d="M1146.25 542.018C1142.87 539.947 1139.5 537.717 1136.12 535.646C1133.87 534.212 1131.62 532.778 1129.51 530.866C1128.11 529.751 1124.87 527.839 1126.28 525.608C1126.84 524.653 1127.97 524.175 1128.81 523.537C1139.08 518.28 1150.61 513.819 1161.01 509.199C1166.36 506.809 1171.7 504.578 1177.05 502.507C1179.72 501.392 1182.39 500.436 1185.06 499.321C1188.86 497.887 1191.11 497.728 1194.91 499.162C1198.28 500.436 1201.94 502.029 1204.89 504.26C1207.28 506.012 1209.95 507.765 1211.36 510.632C1212.48 512.704 1212.76 515.571 1211.5 517.483C1210.66 519.076 1208.97 519.873 1207.56 520.67C1197.3 525.927 1186.61 530.069 1175.92 533.734C1174.8 534.212 1173.39 534.53 1172.26 534.052C1170.72 533.256 1170.44 533.096 1168.75 533.734C1167.06 534.371 1165.23 535.008 1163.55 535.646C1160.59 536.761 1157.64 537.876 1154.69 538.832C1152.58 539.628 1150.61 540.425 1148.5 541.062C1147.94 541.381 1146.81 542.178 1146.25 542.018Z" fill="#3F3161"/>
<path d="M1212.34 556.676C1207.42 551.737 1201.52 547.754 1197.16 542.496C1187.88 531.503 1176.2 523.697 1162.56 522.263C1158.34 521.785 1154.27 522.422 1150.05 522.263C1145.27 522.103 1140.49 521.944 1135.84 523.059C1130.92 524.175 1129.38 532.937 1129.52 538.035C1130.08 550.303 1142.88 560.181 1151.31 566.235C1158.77 571.492 1167.2 573.245 1175.22 577.068C1178.31 578.502 1181.55 580.095 1184.92 580.255C1188.02 580.255 1191.11 579.139 1194.06 577.706C1201.52 574.041 1208.69 568.784 1213.19 561.136C1213.47 560.499 1213.89 559.862 1213.89 559.225C1213.61 558.109 1212.91 557.313 1212.34 556.676Z" fill="#1EAEF7"/>
<path d="M767.828 513.022V521.307L1152.58 599.214V591.248L767.828 513.022Z" fill="white"/>
<path d="M941.922 419.024C941.922 419.98 942.344 420.776 943.047 421.095C943.609 421.254 944.172 421.254 944.594 420.936C945.719 420.299 946.562 417.909 945.297 416.953C944.031 415.838 941.922 417.271 941.922 419.024Z" fill="#E23B53"/>
<path d="M990.015 444.993C991.421 446.586 993.39 443.878 992.124 442.285C990.718 440.692 988.608 443.4 990.015 444.993Z" fill="#E23B53"/>
<path d="M960.624 471.918C960.483 472.396 960.483 472.874 960.764 473.193C961.045 473.671 961.467 473.989 961.889 474.149C962.733 474.308 963.717 473.989 964.139 473.193C965.827 470.325 961.186 468.732 960.624 471.918Z" fill="#E23B53"/>
<path d="M1210.09 640.795C1207.42 634.104 1207.42 629.324 1201.37 625.501C1194.34 621.04 1186.61 617.694 1178.73 615.623C1175.22 614.667 1171.7 614.03 1168.47 612.277C1165.23 610.525 1162.28 607.657 1161.3 603.833C1159.89 598.735 1162.28 593.159 1164.81 588.698C1172.12 575.475 1181.97 563.844 1193.36 555.082C1196.73 552.374 1200.53 549.984 1204.61 549.665C1208.97 549.506 1212.91 551.736 1216.84 553.967C1226.83 559.862 1236.81 565.597 1246.8 571.492C1250.17 573.404 1253.83 575.475 1257.34 574.519C1261.28 573.563 1263.81 569.421 1266.06 565.756C1272.39 555.241 1278.58 544.726 1284.91 534.211C1290.39 525.13 1295.31 513.34 1303.05 506.649C1307.69 502.666 1311.91 498.205 1317.11 494.7C1327.09 487.849 1336.52 480.202 1346.36 473.192C1356.48 465.863 1366.75 459.172 1377.3 452.799C1385.17 448.02 1393.33 443.559 1401.91 440.85C1411.47 437.983 1423.42 436.867 1432.7 441.806C1437.62 444.355 1441.56 449.135 1444.8 453.915C1453.09 466.66 1458.02 482.114 1462.23 497.09C1465.89 510.313 1468.84 524.015 1471.09 537.716C1471.66 540.743 1472.08 543.93 1472.64 547.116L1333.28 661.666C1331.73 661.347 1330.33 661.188 1328.78 660.87C1306.28 657.046 1283.78 653.382 1261.28 649.558C1244.41 646.531 1227.11 642.548 1210.09 640.795Z" fill="#E23B53"/>
<path d="M1437.77 514.934C1437.77 514.934 1374.77 539.469 1358.88 580.095C1342.98 620.562 1340.03 630.599 1340.03 630.599L1444.23 626.776L1437.77 514.934Z" fill="#3F3161"/>
<path d="M806.503 604.153C807.768 606.542 810.018 608.614 812.549 609.41C815.924 610.366 819.581 609.091 821.971 606.224C822.253 605.905 822.393 605.586 822.674 605.268L806.784 593.956C806.081 597.461 804.815 600.966 806.503 604.153Z" fill="#3F3161"/>
<path d="M855.02 628.21C855.16 628.688 855.441 629.166 855.723 629.644C856.707 631.078 858.395 631.874 859.941 631.715L855.02 628.21Z" fill="#3F3161"/>
<path d="M-52.0156 -3.17041C-52.0156 -3.17041 357.625 102.458 371.547 106.122C385.469 109.787 391.516 119.505 391.516 133.844C391.516 148.342 391.516 608.932 391.516 608.932L-57.7812 603.993L-52.0156 -3.17041Z" fill="none"/>
<path d="M74.1244 314.033C76.515 313.555 78.2025 311.325 80.3119 310.05C82.5619 308.617 85.3744 308.298 87.9056 308.457C89.7337 308.457 91.5619 308.616 93.1087 309.572C94.6556 310.528 96.0619 312.122 96.3431 314.193C96.6244 316.264 95.3587 318.494 93.5306 318.654C91.7025 318.972 90.1556 317.379 88.4681 316.742C85.2337 315.627 81.9994 318.335 79.4681 320.725C76.9369 323.274 73.7025 325.823 70.4681 324.867C68.64 324.389 67.515 322.796 65.9681 321.84C63.9994 320.725 63.015 321.362 61.3275 321.043C59.0775 320.725 58.2337 320.087 58.6556 316.901C59.9212 306.545 69.3431 314.989 74.1244 314.033Z" fill="#CFF0FF"/>
<path d="M41.6395 430.018C43.4676 431.452 44.7333 434.479 46.8426 434.001C47.827 433.841 48.5301 432.885 49.2333 431.93C50.7801 429.699 52.1864 426.991 54.2958 425.557C56.4051 423.964 59.7801 423.964 61.1864 426.353C61.6083 426.991 61.7489 427.787 62.3114 428.424C63.4364 429.858 65.5458 429.858 67.0926 429.062C68.6395 428.265 70.0458 426.831 71.5926 426.194C74.827 424.76 79.0458 426.672 80.1708 430.336C81.2958 434.001 78.9051 438.78 75.3895 438.94C72.4364 439.099 69.6239 436.39 66.6708 437.028C64.702 437.346 63.1551 439.099 61.6083 440.533C60.0614 441.967 57.8114 443.082 56.1239 441.967C55.2801 441.489 54.577 440.373 53.7333 439.895C51.4833 438.462 48.8114 440.214 46.5614 441.967C44.452 443.56 41.3583 444.994 39.5301 442.922C38.6864 442.126 38.4051 440.692 37.5614 440.055C34.8895 437.824 27.4364 444.675 29.4051 438.143C30.6708 433.363 37.4208 426.831 41.6395 430.018Z" fill="#CFF0FF"/>
<path d="M11.8263 462.359C12.9513 461.881 14.0763 461.722 15.2013 462.2C17.592 463.156 18.8576 466.661 21.3888 466.342C23.9201 466.023 24.7638 461.722 27.2951 461.562C29.8263 461.244 31.092 465.227 33.6232 466.183C36.0138 466.979 38.2638 464.908 40.092 462.996C41.9201 461.244 44.7326 459.491 46.7013 461.244C47.2638 461.881 47.6857 462.678 48.3888 463.156C51.4826 465.545 55.4201 458.376 58.5139 460.606C60.0607 461.722 59.7795 464.43 58.6545 465.864C57.3888 467.298 55.5607 467.935 53.8732 468.254C51.6232 468.732 49.5138 469.21 47.2638 469.528C46.7013 469.688 45.9982 469.688 45.4357 469.369C45.0138 469.05 44.7326 468.732 44.4513 468.413C43.0451 466.979 40.7951 467.776 39.2482 469.05C37.7013 470.325 36.4357 472.077 34.6076 472.555C32.9201 473.033 30.9513 472.077 29.967 470.484C29.5451 469.847 29.4045 469.05 28.842 468.572C27.2951 466.979 24.9045 468.254 23.4982 470.006C22.092 471.599 20.4045 473.671 18.4357 473.352C15.9045 473.033 14.4982 469.21 11.967 469.05C10.4201 468.891 9.01384 470.325 7.74822 471.44C4.79509 473.989 2.68572 473.193 4.51384 469.528C5.92009 466.183 8.73259 463.474 11.8263 462.359Z" fill="#CFF0FF"/>
<path d="M292.656 472.396C292.375 472.555 292.094 472.715 291.953 472.874C289.281 474.945 287.172 477.972 285.484 481.159C284.922 482.114 284.5 483.07 284.5 484.186C284.641 485.62 285.625 486.735 286.891 486.894C291.953 487.85 294.203 479.087 299.688 480.362C301.797 480.84 303.344 482.911 305.453 483.07C309.25 483.548 312.344 477.972 316 479.247C317.266 479.565 318.25 480.84 319.234 481.796C321.766 484.345 325.562 486.257 328.516 484.504C330.766 483.23 331.75 479.884 330.906 477.176C329.922 474.467 328.797 474.308 326.547 474.149C324.297 473.989 322.188 473.671 320.219 472.396C318.953 471.599 317.828 470.325 316.281 469.688C314.313 468.891 312.203 469.21 310.375 470.325C308.125 471.599 306.438 474.627 303.906 474.149C299.547 472.874 296.734 469.847 292.656 472.396Z" fill="#CFF0FF"/>
<path d="M316.563 492.948C317.688 491.992 318.813 491.196 320.219 491.196C323.031 491.196 324.719 494.701 327.391 495.497C332.453 497.09 336.531 488.965 341.735 489.762C345.531 490.399 347.781 495.656 351.719 496.134C353.828 496.453 355.938 495.179 357.766 493.904C359.594 492.629 361.844 491.514 363.953 492.151C366.063 492.789 367.469 496.134 365.922 497.728C364.656 499.161 362.688 498.524 360.86 498.684C356.641 499.002 353.547 504.26 349.469 503.941C345.953 503.622 343.422 499.48 339.906 499.161C334.844 498.524 330.906 505.853 325.844 505.375C322.328 504.897 319.516 500.755 316 501.711C313.61 502.348 310.094 506.968 310.235 502.348C310.375 498.684 314.453 494.701 316.563 492.948Z" fill="#CFF0FF"/>
<path d="M-39.7812 483.548C-40.625 483.548 -41.1875 482.911 -41.1875 481.955C-41.1875 480.999 -40.625 480.362 -39.7812 480.362C-8.42188 480.362 -2.79688 454.871 1.28125 436.071C-7.57812 438.62 -17.8438 437.824 -29.2344 434C-29.6562 433.841 -30.0781 433.363 -30.2188 432.885C-30.3594 432.407 -30.2187 431.769 -29.7969 431.292C-29.6562 430.973 -14.8906 415.041 -11.7969 381.903C-11.6562 381.106 -11.0938 380.469 -10.25 380.469C-9.96875 380.469 21.1094 383.655 32.2188 377.92C32.6406 377.601 33.2031 377.76 33.625 378.079C34.0469 378.398 34.1875 379.035 34.1875 379.513C34.1875 379.672 31.6562 402.455 42.3438 404.845C46.2812 405.641 49.6562 404.845 52.4688 402.136C58.6562 396.401 61.4688 383.337 61.4688 373.618V337.771C61.4688 337.293 61.6094 336.975 61.8906 336.656C62.1719 336.338 62.5938 336.178 63.0156 336.178C63.4375 336.178 101.125 339.365 119.828 330.921C120.531 330.602 121.375 330.921 121.656 331.877C121.938 332.673 121.656 333.629 120.812 333.948C103.516 341.754 71.7344 340.002 64.2812 339.524V373.618C64.2812 384.293 61.1875 398.153 54.2969 404.526C50.7812 407.872 46.5625 408.987 41.7812 407.872C30.8125 405.482 30.8125 388.275 31.2344 381.584C19.7031 385.886 -3.21875 384.133 -9.125 383.496C-11.9375 410.739 -22.0625 426.034 -26.1406 431.292C-15.5937 434.637 -6.03125 434.956 2.125 432.247C4.09375 423.963 8.3125 411.058 14.2188 411.695C18.2969 412.173 19.4219 414.722 19.7031 416.156C20.6875 420.617 17.0313 426.831 13.0938 430.017C10.4219 432.088 7.60938 433.681 4.51562 434.797C4.375 435.274 4.23438 435.752 4.23438 436.23C0.015625 455.189 -6.03125 483.548 -39.7812 483.548ZM13.6562 415.041C11.125 415.041 7.89063 421.414 5.35938 431.132C7.46875 430.176 9.57813 428.902 11.4063 427.468C14.7813 424.919 17.5938 419.661 16.8906 417.112C16.75 416.634 16.4688 415.36 13.7969 415.041H13.6562Z" fill="#1EAEF7"/>
<path d="M350.591 372.981C349.748 372.981 349.044 372.981 348.201 372.981C333.154 372.184 319.513 363.74 313.747 351.951C306.857 354.5 300.951 358.324 295.185 361.988C283.935 369.157 274.372 375.211 262.982 368.361C244.841 357.368 246.107 332.355 246.107 331.239L248.919 331.399C248.919 331.717 247.794 355.456 264.248 365.493C274.232 371.547 282.81 366.13 293.638 359.12C299.122 355.615 305.31 351.632 312.341 348.924C301.232 321.521 308.263 303.518 308.544 302.881C308.826 302.243 309.247 301.925 309.81 301.925H353.404C354.248 301.925 354.81 302.562 354.81 303.518C354.81 324.389 364.232 340.798 364.373 340.958C364.654 341.436 364.654 342.073 364.373 342.551C364.091 343.029 363.669 343.348 363.107 343.348C346.373 343.348 330.904 345.737 316.138 350.676C321.482 361.351 333.997 368.839 347.919 369.635C363.951 370.432 377.732 362.307 385.466 347.49C387.154 344.303 388.701 340.958 390.247 337.293C396.857 322.795 404.31 306.226 421.607 306.226C434.544 306.226 442.138 317.379 448.747 327.416C454.372 335.7 459.997 343.507 467.451 343.507L467.872 346.853C459.013 346.853 452.404 338.249 446.497 329.328C439.888 319.609 433.138 309.413 421.607 309.413C406.138 309.413 399.388 324.229 392.779 338.727C391.232 342.232 389.544 345.737 387.857 349.083C380.404 364.378 366.763 372.981 350.591 372.981ZM311.076 305.111C309.81 309.094 306.013 325.185 315.294 347.968C329.779 343.029 344.826 340.48 360.998 340.321C358.326 335.063 352.701 321.68 352.279 305.111H311.076Z" fill="#1EAEF7"/>
<path d="M360.578 379.832C360.578 379.832 353.828 375.371 355.937 378.876C357.625 381.743 347.641 379.354 345.672 382.062C341.594 387.798 350.734 396.401 356.5 400.543L360.578 379.832Z" fill="#E23B53"/>
<path d="M355.938 378.876C355.938 378.876 328.516 428.106 319.938 439.417C319.938 439.417 335.266 461.085 382.094 462.519L408.953 447.702L411.344 398.472L408.953 382.541L355.938 378.876Z" fill="#CFF0FF"/>
<path d="M-42.7363 593C-40.7676 586.787 -43.2988 531.663 -15.1738 517.165C-15.1738 517.165 -14.752 517.483 -14.8926 517.961C-15.1738 521.148 -16.0176 534.849 -0.408203 536.761C17.3105 538.991 33.623 525.927 36.5762 545.842C39.5293 565.757 -6.87695 598.895 -6.87695 598.895L-42.7363 593Z" fill="#E23B53"/>
<path d="M-14.6104 501.711C-14.7511 505.375 -15.1729 515.253 -15.1729 517.165C-15.1729 518.28 -18.5479 539.151 1.28019 541.859C21.1083 544.568 31.3739 528.158 36.8583 545.842L85.2333 523.059V498.046C85.2333 498.046 73.9833 481.796 35.1708 481.796C3.10831 481.796 -9.96981 494.382 -13.4854 498.843C-14.3292 499.799 -14.6104 500.914 -14.6104 501.711Z" fill="#3F3161"/>
<path d="M-17.1406 620.242C-17.1406 620.242 -11.0937 590.884 -8.84375 585.629C-3.92187 574.755 3.8125 569.318 8.45313 566.781C13.0938 564.244 145.703 489.762 145.703 489.762C145.703 489.762 238.094 525.644 291.391 520.932C334.562 517.126 355.938 528.543 368.734 541.048C381.391 553.552 389.547 577.292 398.125 577.292C412.047 577.111 395.594 548.297 400.516 528C405.156 508.971 436.516 488.493 468.156 494.292C472.094 495.017 476.734 501.36 476.734 501.36L535.375 627.853L-17.1406 620.242Z" fill="#1EAEF7"/>
<path d="M416.828 503.782C413.875 496.135 408.109 484.345 399.25 480.203C385.609 473.83 380.265 463.952 377.593 442.763C374.922 421.574 359.312 402.615 364.656 395.764C370 388.913 388.14 406.598 393.625 418.547C397.562 427.15 402.343 420.14 402.343 420.14C402.343 420.14 408.25 407.713 407.828 392.259L355.937 378.876C355.937 378.876 349.187 374.734 352.562 367.246C355.937 359.758 393.625 363.582 405.578 372.503C417.531 381.266 427.656 412.174 430.609 427.628C433.843 444.515 459.718 485.301 465.062 496.772C465.906 498.525 463.515 500.118 463.515 500.118L428.922 508.402C428.922 508.402 418.375 507.924 416.828 503.782Z" fill="#E23B53"/>
<path d="M254.125 285.515C254.125 285.515 265.656 307.342 278.031 314.352C290.406 321.362 295.75 318.653 296.312 326.938C296.875 335.063 286.469 345.259 286.328 356.412C286.047 367.564 288.156 412.173 283.516 421.095C278.875 430.017 241.047 478.609 241.047 478.609L181 338.409L254.125 285.515Z" fill="#E23B53"/>
<path d="M255.671 601.285C255.671 601.285 267.062 622.474 284.218 579.617C298.843 543.293 304.468 508.402 283.093 460.288C263.687 416.634 243.577 404.526 232.187 394.648C220.796 384.771 219.249 363.741 232.187 358.164C244.421 352.907 247.374 367.724 253.281 365.812C259.187 363.741 270.296 320.884 262.562 292.366C254.827 263.848 224.874 241.384 188.734 237.879C146.687 233.896 108.296 244.252 89.8744 308.298C82.9837 332.195 83.6869 358.324 80.3119 375.689C75.2494 402.614 61.4681 411.855 60.3431 441.488C59.3587 471.281 71.7337 490.558 68.0775 517.961C64.4212 545.364 35.1712 594.434 65.265 619.925C95.4994 645.416 255.671 601.285 255.671 601.285Z" fill="#0062BA"/>
<path d="M19.1413 352.747H-24.4524C-25.1556 352.747 -25.7181 352.269 -25.8587 351.473C-25.9993 350.836 -25.7181 350.039 -25.1556 349.72C-24.8743 349.561 -0.405569 334.904 1.84443 303.359C1.84443 302.562 2.54756 301.925 3.25068 301.925H42.3444C43.0476 301.925 43.6101 302.403 43.7507 303.199C43.7507 303.518 50.0788 334.426 19.7038 352.588C19.5632 352.588 19.4226 352.747 19.1413 352.747ZM-19.5306 349.561H18.7194C43.8913 334.426 42.0632 310.847 41.2194 305.111H4.65693C2.40693 329.168 -12.2181 343.666 -19.5306 349.561Z" fill="#1EAEF7"/>
<path d="M1004.36 433.044C1004.08 433.044 1003.66 432.885 1003.52 432.726C1003.23 432.407 1003.09 432.088 1002.95 431.61L1001.97 404.208C1001.97 403.411 1002.53 402.615 1003.23 402.615L1136.83 387.161L1134.86 372.185L1002.53 383.815C1002.11 383.815 1001.83 383.656 1001.55 383.496C1001.27 383.178 1001.12 382.859 1001.12 382.381L999.859 355.138C999.859 354.182 1000.42 353.544 1001.12 353.385L1132.89 345.1L1130.78 327.735L987.062 331.399H986.359L986.219 328.213H987.625L1132.05 324.548C1132.75 324.548 1133.31 325.186 1133.45 325.982L1135.98 346.534C1135.98 347.012 1135.98 347.49 1135.7 347.809C1135.42 348.127 1135.14 348.287 1134.72 348.446L1002.81 356.731L1003.94 380.788L1136.12 369.158C1136.83 369.158 1137.53 369.636 1137.67 370.432L1140.06 388.435C1140.06 388.913 1140.06 389.232 1139.78 389.71C1139.5 390.028 1139.22 390.347 1138.8 390.347L1005.06 405.801L1005.91 430.017L1152.16 409.465L1152.72 409.306L1153 412.492L1004.64 433.363C1004.5 433.044 1004.5 433.044 1004.36 433.044Z" fill="#1EAEF7"/>
</g>
</svg>
