<svg width="20" height="19" viewBox="0 0 20 19" fill="none" xmlns="http://www.w3.org/2000/svg">
<path d="M13.0159 11.6614C14.1799 10.455 14.8148 8.84656 14.8148 7.03704C14.8148 3.1164 11.5344 0 7.40741 0C3.28042 0 0 3.1164 0 7.03704C0 10.9577 3.28042 14.0741 7.40741 14.0741C9.31217 14.0741 10.8995 13.3704 12.2751 12.3651L19.2593 19L20 18.2963L13.0159 11.6614ZM7.40741 13.0688C3.91534 13.0688 1.0582 10.3545 1.0582 7.03704C1.0582 3.71958 3.91534 1.00529 7.40741 1.00529C10.8995 1.00529 13.7566 3.71958 13.7566 7.03704C13.7566 10.3545 10.8995 13.0688 7.40741 13.0688Z" fill="black"/>
</svg>
