<svg width="24" height="24" viewBox="0 0 24 24" fill="none" xmlns="http://www.w3.org/2000/svg">
<path fill-rule="evenodd" clip-rule="evenodd" d="M12 3.75C9.92893 3.75 8.25 5.42893 8.25 7.5C8.25 9.57107 9.92893 11.25 12 11.25C14.0711 11.25 15.75 9.57107 15.75 7.5C15.75 5.42893 14.0711 3.75 12 3.75ZM6.75 7.5C6.75 4.60051 9.10051 2.25 12 2.25C14.8995 2.25 17.25 4.60051 17.25 7.5C17.25 10.3995 14.8995 12.75 12 12.75C9.10051 12.75 6.75 10.3995 6.75 7.5ZM12 15.75C10.6076 15.75 9.27225 16.3031 8.28769 17.2877C7.30312 18.2723 6.75 19.6076 6.75 21C6.75 21.4142 6.41421 21.75 6 21.75C5.58579 21.75 5.25 21.4142 5.25 21C5.25 19.2098 5.96116 17.4929 7.22703 16.227C8.4929 14.9612 10.2098 14.25 12 14.25C12.1884 14.25 12.3761 14.2579 12.5625 14.2735C12.9752 14.308 13.2819 14.6706 13.2474 15.0833C13.2129 15.4961 12.8503 15.8028 12.4375 15.7682C12.2926 15.7561 12.1466 15.75 12 15.75ZM14.5 21H17C17.2111 21.1056 17.7889 21.1056 18 21H19.5L19.25 20.25H14.75L14.5 21Z" fill="#23262A"/>
<path fill-rule="evenodd" clip-rule="evenodd" d="M14.7502 15.5C14.7502 14.2574 15.7576 13.25 17.0002 13.25C18.2429 13.25 19.2502 14.2574 19.2502 15.5V16.25H19.5C20.1904 16.25 20.75 16.8096 20.75 17.5V21C20.75 21.4142 20.4142 21.75 20 21.75H14C13.5858 21.75 13.25 21.4142 13.25 21V17.5C13.25 16.8096 13.8096 16.25 14.5 16.25H14.7502V15.5ZM17.7502 15.5V16.25H16.2502V15.5C16.2502 15.0858 16.586 14.75 17.0002 14.75C17.4145 14.75 17.7502 15.0858 17.7502 15.5ZM14.75 17.75V20.25H19.25V17.75H14.75Z" fill="#23262A"/>
</svg>
