<svg width="24" height="24" viewBox="0 0 24 24" fill="none" xmlns="http://www.w3.org/2000/svg">
<path fill-rule="evenodd" clip-rule="evenodd" d="M21.5 15.469C21.5 13.6724 19.5824 12.5263 18.0001 13.3772L15.3667 14.7933C15.3229 14.2488 15.1053 13.7059 14.6994 13.2796C14.2326 12.7896 13.5611 12.5 12.75 12.5H9.75C9.65501 12.5 9.49142 12.4554 9.21536 12.3224C9.11005 12.2716 9.00691 12.2176 8.89362 12.1583L8.8096 12.1143C8.67052 12.0418 8.51206 11.9606 8.35408 11.8939C7.79123 11.656 6.96829 11.5 5.75 11.5C3.99592 11.5 2.99717 12.2553 2.48188 13.1141C2.23878 13.5193 2.12021 13.9184 2.06144 14.2123C2.03178 14.3606 2.01651 14.4863 2.0086 14.5785C2.00463 14.6248 2.00249 14.663 2.00133 14.6919C2.00075 14.7064 2.00042 14.7186 2.00023 14.7283L2.00005 14.741L2.00001 14.746L2 14.7481C2 14.7481 2 14.75 2.75 14.75H2V19.25C2 19.5728 2.20657 19.8594 2.51283 19.9615L5.51283 20.9615C5.5893 20.987 5.66939 21 5.75 21H15.0484C15.6729 21 16.2787 20.7875 16.7663 20.3974L20.6086 17.3236C21.172 16.8728 21.5 16.1905 21.5 15.469ZM12.75 17.5C13.268 17.5 13.7291 17.3819 14.1162 17.1689L18.7105 14.6983C19.2935 14.3848 20 14.8071 20 15.469C20 15.7348 19.8792 15.9862 19.6716 16.1523L15.8293 19.2261C15.6077 19.4034 15.3323 19.5 15.0484 19.5H5.87171L3.5 18.7094V14.7556L3.50013 14.7519C3.50044 14.7442 3.50122 14.7287 3.50312 14.7066C3.50693 14.6622 3.51509 14.5925 3.53231 14.5065C3.56729 14.3316 3.63622 14.1057 3.76812 13.8859C4.00283 13.4947 4.50408 13 5.75 13C6.85939 13 7.46111 13.145 7.77023 13.2756C7.86661 13.3163 7.97728 13.372 8.11607 13.4444L8.18887 13.4825C8.30347 13.5425 8.43402 13.6109 8.56412 13.6736C8.86674 13.8195 9.2927 14 9.75 14H12.75C13.1889 14 13.4549 14.1479 13.6131 14.3141C13.7808 14.4902 13.875 14.7369 13.875 15C13.875 15.2631 13.7808 15.5098 13.6131 15.6859C13.4549 15.8521 13.1889 16 12.75 16H9.75C9.33579 16 9 16.3358 9 16.75C9 17.1642 9.33579 17.5 9.75 17.5H12.75Z" fill="#23262A"/>
<path d="M6.53027 7.34985C6.2374 7.64272 6.23737 8.11755 6.53021 8.41046V8.41046C6.8231 8.70341 7.29802 8.70344 7.59094 8.41052L13.1909 2.81055L18.7909 8.41052C19.0838 8.70344 19.5587 8.70341 19.8516 8.41046V8.41046C20.1445 8.11756 20.1444 7.64273 19.8516 7.34985L13.7212 1.21948C13.4282 0.926757 12.9536 0.926757 12.6606 1.21948L6.53027 7.34985Z" fill="#23262A"/>
<path d="M9.75 7C9.33579 7 9 7.33579 9 7.75V13H10.5V8.5H16V12.25C16 12.6642 16.3358 13 16.75 13V13C17.1642 13 17.5 12.6642 17.5 12.25V7.75C17.5 7.33579 17.1642 7 16.75 7H9.75Z" fill="#23262A"/>
<path d="M17 0.75C17.4142 0.75 17.75 1.0858 17.75 1.5V5.5C17.75 5.9142 17.4142 6.25 17 6.25C16.5858 6.25 16.25 5.9142 16.25 5.5V1.5C16.25 1.0858 16.5858 0.75 17 0.75Z" fill="#23262A"/>
</svg>
