<svg width="24" height="24" viewBox="0 0 24 24" fill="none" xmlns="http://www.w3.org/2000/svg">
<path fill-rule="evenodd" clip-rule="evenodd" d="M9.75006 6C9.75006 3.92893 11.429 2.25 13.5001 2.25H15.0001C17.0712 2.25 18.7501 3.92893 18.7501 6V21C18.7501 21.4142 18.4143 21.75 18.0001 21.75C17.5859 21.75 17.2501 21.4142 17.2501 21V6C17.2501 4.75736 16.2427 3.75 15.0001 3.75H13.5001C12.2575 3.75 11.2501 4.75736 11.2501 6V6.5C11.2501 6.91421 10.9143 7.25 10.5001 7.25C10.0859 7.25 9.75006 6.91421 9.75006 6.5V6ZM10.5001 7.93935L11.0304 8.46968C11.304 8.74324 11.7119 9.19716 12.0575 9.70473C12.3783 10.1758 12.7501 10.8406 12.7501 11.5C12.7501 12.7426 11.7427 13.75 10.5001 13.75C9.25742 13.75 8.25006 12.7426 8.25006 11.5C8.25006 10.8406 8.62188 10.1758 8.94263 9.70473C9.28824 9.19716 9.69617 8.74324 9.96973 8.46968L10.5001 7.93935ZM10.1825 10.549C9.87824 10.9958 9.75006 11.331 9.75006 11.5C9.75006 11.9142 10.0859 12.25 10.5001 12.25C10.9143 12.25 11.2501 11.9142 11.2501 11.5C11.2501 11.331 11.1219 10.9958 10.8177 10.549C10.7172 10.4014 10.6085 10.2574 10.5001 10.1231C10.3917 10.2574 10.283 10.4014 10.1825 10.549ZM5.93215 9.25308C6.34466 9.21558 6.70947 9.51959 6.74697 9.9321L7.27775 15.7707L7.86539 16.2114C8.56061 16.7328 9.50909 16.7591 10.2322 16.2771C11.2648 15.5887 12.5797 15.4908 13.7004 16.013L14.2532 9.9321C14.2907 9.51959 14.6555 9.21558 15.068 9.25308C15.4805 9.29058 15.7845 9.65539 15.747 10.0679L14.8297 20.1584C14.7477 21.0598 13.992 21.75 13.0869 21.75H7.91326C7.00816 21.75 6.25239 21.0598 6.17045 20.1584L5.25313 10.0679C5.21563 9.65539 5.51963 9.29058 5.93215 9.25308ZM7.66429 20.0226L7.45494 17.7198C8.58952 18.3114 9.97463 18.2516 11.0643 17.5252C11.6763 17.1172 12.46 17.0684 13.1179 17.3973L13.5547 17.6157L13.3358 20.0226C13.3241 20.1514 13.2162 20.25 13.0869 20.25H7.91326C7.78396 20.25 7.67599 20.1514 7.66429 20.0226Z" fill="#23262A"/>
</svg>
