<svg width="24" height="24" viewBox="0 0 24 24" fill="none" xmlns="http://www.w3.org/2000/svg">
<path fill-rule="evenodd" clip-rule="evenodd" d="M20.2674 22C20.4612 22 20.6438 21.8876 20.7605 21.6964C20.8772 21.5053 20.9146 21.2575 20.8613 21.0273L20.2719 3.55349C20.1962 3.22587 19.9538 3 19.678 3L17.2075 3C16.9317 3 16.6893 3.22587 16.6136 3.55349L15.9089 21.0273C15.8556 21.2575 14.8929 21.5053 15.0096 21.6964C15.1264 21.8876 15.3089 22 15.5027 22L20.2674 22ZM18.9428 4.52617L19.5347 20.2966H17.5L17.9428 4.52617L18.9428 4.52617Z" fill="#23262A"/>
<path d="M3 21.25C3 21.6642 3.33579 22 3.75 22L17 22L17 20.5L4.5 20.5L4.5 12L16.25 12C16.6642 12 17 11.6642 17 11.25C17 10.8358 16.6642 10.5 16.25 10.5L3.75 10.5C3.33579 10.5 3 10.8358 3 11.25L3 21.25Z" fill="#23262A"/>
<path d="M6.75 14.5C7.16421 14.5 7.5 14.8358 7.5 15.25V17.25C7.5 17.6642 7.16421 18 6.75 18C6.33579 18 6 17.6642 6 17.25V15.25C6 14.8358 6.33579 14.5 6.75 14.5Z" fill="#23262A"/>
<path d="M11 15.25C11 14.8358 10.6642 14.5 10.25 14.5C9.8358 14.5 9.5 14.8358 9.5 15.25V17.25C9.5 17.6642 9.8358 18 10.25 18C10.6642 18 11 17.6642 11 17.25V15.25Z" fill="#23262A"/>
<path d="M13.75 14.5C14.1642 14.5 14.5 14.8358 14.5 15.25V17.25C14.5 17.6642 14.1642 18 13.75 18C13.3358 18 13 17.6642 13 17.25V15.25C13 14.8358 13.3358 14.5 13.75 14.5Z" fill="#23262A"/>
<path d="M3.75 10.25V6.5L8.75 10.25H3.75Z" fill="#23262A" stroke="#23262A" stroke-width="1.5"/>
<path d="M9.75 10.25V6.5L14.75 10.25H9.75Z" fill="#23262A" stroke="#23262A" stroke-width="1.5"/>
</svg>
