<svg width="24" height="24" viewBox="0 0 24 24" fill="none" xmlns="http://www.w3.org/2000/svg">
<path fill-rule="evenodd" clip-rule="evenodd" d="M17.0303 1.21967C17.3232 1.51256 17.3232 1.98744 17.0303 2.28033L15.8107 3.5H18C20.0711 3.5 21.75 5.17893 21.75 7.25V9.75C21.75 10.1642 21.4142 10.5 21 10.5C20.5858 10.5 20.25 10.1642 20.25 9.75V7.25C20.25 6.00736 19.2426 5 18 5H15.8107L17.0303 6.21967C17.3232 6.51256 17.3232 6.98744 17.0303 7.28033C16.7374 7.57322 16.2626 7.57322 15.9697 7.28033L13.4697 4.78033C13.3978 4.70842 13.3435 4.62555 13.3069 4.53709C13.2702 4.44866 13.25 4.35169 13.25 4.25C13.25 4.05806 13.3232 3.86612 13.4697 3.71967L15.9697 1.21967C16.2626 0.926777 16.7374 0.926777 17.0303 1.21967Z" fill="#23262A"/>
<path fill-rule="evenodd" clip-rule="evenodd" d="M6.7197 22.7803C6.4268 22.4874 6.4268 22.0126 6.7197 21.7197L7.9393 20.5L5.75 20.5C3.6789 20.5 2 18.8211 2 16.75L2 14.25C2 13.8358 2.3358 13.5 2.75 13.5C3.1642 13.5 3.5 13.8358 3.5 14.25L3.5 16.75C3.5 17.9926 4.5074 19 5.75 19L7.9393 19L6.7197 17.7803C6.4268 17.4874 6.4268 17.0126 6.7197 16.7197C7.0126 16.4268 7.4874 16.4268 7.7803 16.7197L10.2803 19.2197C10.3522 19.2916 10.4065 19.3745 10.4431 19.4629C10.4798 19.5513 10.5 19.6483 10.5 19.75C10.5 19.9419 10.4268 20.1339 10.2803 20.2803L7.7803 22.7803C7.4874 23.0732 7.0126 23.0732 6.7197 22.7803Z" fill="#23262A"/>
<path fill-rule="evenodd" clip-rule="evenodd" d="M20 19.5C20.9665 19.5 21.75 18.7165 21.75 17.75L21.75 13.75C21.75 12.7835 20.9665 12 20 12L14 12C13.0335 12 12.25 12.7835 12.25 13.75L12.25 17.75C12.25 18.7165 13.0335 19.5 14 19.5L20 19.5ZM20.25 17.75C20.25 17.8881 20.1381 18 20 18L14 18C13.8619 18 13.75 17.9043 13.75 17.7662L13.75 13.75C13.75 13.6119 13.8619 13.5 14 13.5L20 13.5C20.1381 13.5 20.25 13.6119 20.25 13.75L20.25 17.75Z" fill="#23262A"/>
<path d="M20.5007 23L16.75 23L15.25 23L13.4999 23C13.0857 22.9999 12.75 22.6642 12.75 22.2499C12.75 21.8357 13.0857 21.5 13.4999 21.5L15.25 21.5L16.75 21.5L20.5007 21.5C20.9149 21.5 21.25 21.8358 21.25 22.25C21.25 22.6642 20.9149 23 20.5007 23Z" fill="#23262A"/>
<path d="M17.75 18.75L17.75 19.7308L17.75 20.7692L17.75 21.75C17.75 22.1642 17.4142 22.5 16.9999 22.5C16.5857 22.5 16.25 22.1643 16.25 21.7501L16.25 20.7692L16.25 19.7308L16.25 18.7499C16.25 18.3357 16.5858 18 16.9999 18C17.4142 18 17.75 18.3358 17.75 18.75Z" fill="#23262A"/>
<path fill-rule="evenodd" clip-rule="evenodd" d="M9.75 8.5C10.7165 8.5 11.5 7.7165 11.5 6.75L11.5 2.75C11.5 1.7835 10.7165 0.999999 9.75 0.999999L3.75 0.999998C2.7835 0.999998 2 1.7835 2 2.75L2 6.75C2 7.7165 2.7835 8.5 3.75 8.5L9.75 8.5ZM10 6.75C10 6.8881 9.88807 7 9.75 7L3.75 7C3.6119 7 3.5 6.90427 3.5 6.76617L3.5 2.75C3.5 2.6119 3.6119 2.5 3.75 2.5L9.75 2.5C9.88807 2.5 10 2.6119 10 2.75L10 6.75Z" fill="#23262A"/>
<path d="M10.2507 12L6.5 12L5 12L3.24994 12C2.83573 11.9999 2.5 11.6642 2.5 11.2499C2.5 10.8357 2.83571 10.5 3.24992 10.5L5 10.5L6.5 10.5L10.2507 10.5C10.6649 10.5 11 10.8358 11 11.25C11 11.6642 10.6649 12 10.2507 12Z" fill="#23262A"/>
<path d="M7.49997 7.74998L7.5 8.73077L7.5 9.76923L7.49997 10.75C7.49995 11.1642 7.16416 11.5 6.74994 11.5C6.33573 11.5 5.99996 11.1643 5.99998 10.7501L6 9.76923L6 8.73077L6 7.74991C6 7.33572 6.33576 7 6.74995 7C7.16416 7 7.49996 7.33577 7.49997 7.74998Z" fill="#23262A"/>
</svg>
