<svg width="24" height="24" viewBox="0 0 24 24" fill="none" xmlns="http://www.w3.org/2000/svg">
<path fill-rule="evenodd" clip-rule="evenodd" d="M13.9083 8.18705C14.3722 7.97584 14.8665 7.76867 15.3397 7.60407C15.8938 7.41135 16.493 7.24994 17.0002 7.24994C17.8975 7.24994 18.8335 7.54506 19.494 8.12301C20.1905 8.73241 20.5696 9.66339 20.2117 10.7371C19.8764 11.7429 19.1412 12.354 18.2749 12.6656C17.4353 12.9676 16.4665 12.9952 15.5508 12.8857C14.6264 12.7752 13.6984 12.518 12.9066 12.1965C12.3983 11.9901 11.9156 11.7447 11.5176 11.4744C11.3418 11.6614 11.1214 11.9356 10.8966 12.3178C10.3982 13.165 9.861 14.5725 9.76516 16.79C12.2088 17.0519 13.5421 18.5434 14.1824 19.6154C14.3948 19.971 14.2787 20.4315 13.9231 20.6439C13.5675 20.8563 13.1071 20.7402 12.8946 20.3846C12.3631 19.4947 11.2411 18.25 9.00003 18.25C6.75895 18.25 5.637 19.4947 5.10541 20.3846C4.893 20.7402 4.43253 20.8563 4.07693 20.6439C3.72133 20.4315 3.60525 19.971 3.81767 19.6154C4.46052 18.5392 5.80188 17.04 8.26401 16.787C8.36196 14.3155 8.96305 12.6463 9.60366 11.5572C9.896 11.0603 10.1931 10.6902 10.4466 10.4239C9.70648 9.45188 8.96447 7.99404 8.70064 6.54464C8.53541 5.63694 8.54382 4.65732 8.93223 3.78192C9.3331 2.87846 10.0991 2.17639 11.263 1.78843C11.8208 1.6025 12.3617 1.64605 12.8379 1.86584C13.2968 2.07763 13.6568 2.43375 13.9271 2.81984C14.461 3.58259 14.7502 4.61096 14.7502 5.49994C14.7502 6.01433 14.5852 6.5865 14.3885 7.10288C14.2502 7.46594 14.0827 7.83533 13.9083 8.18705ZM12.2093 3.22778C12.0762 3.16633 11.9295 3.14739 11.7373 3.21145C10.9292 3.48085 10.515 3.91325 10.3033 4.39027C10.0792 4.89536 10.0428 5.54225 10.1764 6.276C10.3828 7.41001 10.9616 8.57122 11.5228 9.35677C11.5658 9.28892 11.6168 9.2075 11.6739 9.11468C11.8559 8.81896 12.0977 8.41091 12.3384 7.9595C12.5803 7.506 12.8146 7.0208 12.9868 6.56888C13.1651 6.10088 13.2502 5.73555 13.2502 5.49994C13.2502 4.88892 13.0393 4.16729 12.6982 3.68004C12.531 3.44113 12.3598 3.29724 12.2093 3.22778ZM12.7257 10.4556C12.7854 10.4232 12.8515 10.3876 12.9234 10.3492C13.2675 10.1657 13.7403 9.92173 14.257 9.67856C14.7757 9.43445 15.3277 9.19638 15.8325 9.02081C16.3566 8.83853 16.7573 8.74994 17.0002 8.74994C17.6028 8.74994 18.1668 8.95482 18.5063 9.25187C18.8098 9.51747 18.9307 9.8365 18.7887 10.2628C18.6234 10.7584 18.2801 11.0697 17.7672 11.2542C17.2275 11.4483 16.5164 11.4905 15.7289 11.3963C14.95 11.3032 14.1516 11.0831 13.471 10.8067C13.1893 10.6923 12.9394 10.573 12.7257 10.4556Z" fill="#111D46"/>
</svg>
