<svg width="24" height="24" viewBox="0 0 24 24" fill="none" xmlns="http://www.w3.org/2000/svg">
<path fill-rule="evenodd" clip-rule="evenodd" d="M21.5 15.469C21.5 13.6724 19.5824 12.5263 18.0001 13.3772L15.3667 14.7933C15.3229 14.2488 15.1053 13.7059 14.6994 13.2796C14.2326 12.7896 13.5611 12.5 12.75 12.5H9.75C9.65501 12.5 9.49142 12.4554 9.21536 12.3224C9.11005 12.2716 9.00691 12.2176 8.89362 12.1583L8.8096 12.1143C8.67052 12.0418 8.51206 11.9606 8.35408 11.8939C7.79123 11.656 6.96829 11.5 5.75 11.5C3.99592 11.5 2.99717 12.2553 2.48188 13.1141C2.23878 13.5193 2.12021 13.9184 2.06144 14.2123C2.03178 14.3606 2.01651 14.4863 2.0086 14.5785C2.00463 14.6248 2.00249 14.663 2.00133 14.6919C2.00075 14.7064 2.00042 14.7186 2.00023 14.7283L2.00005 14.741L2.00001 14.746L2 14.7481C2 14.7481 2 14.75 2.75 14.75H2V19.25C2 19.5728 2.20657 19.8594 2.51283 19.9615L5.51283 20.9615C5.5893 20.987 5.66939 21 5.75 21H15.0484C15.6729 21 16.2787 20.7875 16.7663 20.3974L20.6086 17.3236C21.172 16.8728 21.5 16.1905 21.5 15.469ZM12.75 17.5C13.268 17.5 13.7291 17.3819 14.1162 17.1689L18.7105 14.6983C19.2935 14.3848 20 14.8071 20 15.469C20 15.7348 19.8792 15.9862 19.6716 16.1523L15.8293 19.2261C15.6077 19.4034 15.3323 19.5 15.0484 19.5H5.87171L3.5 18.7094V14.7556L3.50013 14.7519C3.50044 14.7442 3.50122 14.7287 3.50312 14.7066C3.50693 14.6622 3.51509 14.5925 3.53231 14.5065C3.56729 14.3316 3.63622 14.1057 3.76812 13.8859C4.00283 13.4947 4.50408 13 5.75 13C6.85939 13 7.46111 13.145 7.77023 13.2756C7.86661 13.3163 7.97728 13.372 8.11607 13.4444L8.18887 13.4825C8.30347 13.5425 8.43402 13.6109 8.56412 13.6736C8.86674 13.8195 9.2927 14 9.75 14H12.75C13.1889 14 13.4549 14.1479 13.6131 14.3141C13.7808 14.4902 13.875 14.7369 13.875 15C13.875 15.2631 13.7808 15.5098 13.6131 15.6859C13.4549 15.8521 13.1889 16 12.75 16H9.75C9.33579 16 9 16.3358 9 16.75C9 17.1642 9.33579 17.5 9.75 17.5H12.75Z" fill="#23262A"/>
<path d="M9.82465 3.96262C9.87666 4.09249 9.93463 4.22328 9.99594 4.35232C9.78212 4.26543 9.56371 4.18308 9.35107 4.11272C8.98216 3.99065 8.5702 3.88365 8.21397 3.88365C7.59772 3.88365 6.94869 4.07586 6.48514 4.46172C5.99174 4.87243 5.71589 5.51049 5.97267 6.24335C6.20972 6.91988 6.73021 7.3278 7.33072 7.53328C7.90985 7.73145 8.57085 7.74767 9.18639 7.67764C9.80909 7.6068 10.4331 7.44225 10.9655 7.23653C11.271 7.1185 11.565 6.97975 11.8184 6.82598C11.9153 6.93274 12.028 7.0758 12.1431 7.26195C12.4515 7.76068 12.7902 8.59062 12.8666 9.89837C12.0013 10.0085 11.345 10.3375 10.8577 10.7255C10.6113 10.905 10.5058 11.1851 10.5508 11.4224C10.5736 11.5425 10.6361 11.6541 10.7415 11.7285C10.8475 11.8033 10.9845 11.8318 11.1398 11.8087C11.3653 11.7752 11.5986 11.6914 11.8121 11.5249C12.1722 11.2439 12.4028 11.1317 12.6298 11.0842C12.8129 11.0458 12.996 11.0479 13.2552 11.0507C13.3308 11.0516 13.4129 11.0525 13.5034 11.0525C14.9305 11.0525 15.6369 11.8022 15.9725 12.3366C16.1499 12.6191 16.5291 12.7072 16.8201 12.5419C17.1145 12.3746 17.2155 12.0063 17.0356 11.7198C16.6063 11.036 15.7191 10.0889 14.1099 9.89461C14.0308 8.379 13.6363 7.34067 13.2106 6.65212C13.0407 6.37731 12.8679 6.16174 12.7125 5.99626C13.1888 5.37427 13.6532 4.48148 13.8241 3.58852C13.9363 3.00233 13.9332 2.35708 13.6615 1.77449C13.3795 1.1699 12.8426 0.707247 12.045 0.454313C11.6471 0.32813 11.2582 0.357324 10.9157 0.507703C10.587 0.652 10.3329 0.892841 10.1451 1.14812C9.77509 1.65098 9.57659 2.32423 9.57659 2.90793C9.57659 3.25584 9.69294 3.63371 9.82465 3.96262ZM11.4318 1.59324C11.4921 1.56673 11.5578 1.5566 11.6558 1.58767C12.1619 1.74816 12.4053 1.99899 12.5284 2.26281C12.6617 2.54857 12.6882 2.9264 12.6028 3.37257C12.4835 3.99627 12.1676 4.63878 11.8402 5.11322C11.7209 4.92875 11.5626 4.6746 11.4052 4.39382C11.2467 4.11115 11.0946 3.81115 10.9835 3.53381C10.8672 3.24339 10.8183 3.03167 10.8183 2.90793C10.8183 2.5482 10.9504 2.12073 11.1589 1.83733C11.2603 1.69958 11.3574 1.62588 11.4318 1.59324ZM10.759 6.0222C10.679 6.05818 10.5933 6.09403 10.5023 6.1292C10.0613 6.29957 9.54378 6.43517 9.04037 6.49245C8.52982 6.55053 8.08011 6.52283 7.74733 6.40896C7.43633 6.30254 7.24342 6.13048 7.14946 5.86233C7.10968 5.74879 7.10986 5.65981 7.13345 5.58581C7.15747 5.51044 7.21007 5.43722 7.29815 5.3639C7.49586 5.19932 7.83862 5.07712 8.21397 5.07712C8.35352 5.07712 8.60262 5.1273 8.94673 5.24117C9.27491 5.34976 9.63565 5.49767 9.97657 5.65029C10.2711 5.78215 10.5441 5.91447 10.759 6.0222Z" fill="#262626" stroke="#262626" stroke-width="0.25"/>
</svg>
