<svg width="24" height="24" viewBox="0 0 24 24" fill="none" xmlns="http://www.w3.org/2000/svg">
<path fill-rule="evenodd" clip-rule="evenodd" d="M6.25 3C6.25 2.58579 6.58579 2.25 7 2.25L21 2.25C21.4142 2.25 21.75 2.58579 21.75 3V9.25V9.42305C21.75 9.65002 21.75 9.58579 21.75 10V21C21.75 21.4142 21.4142 21.75 21 21.75H3C2.58579 21.75 2.25 21.4142 2.25 21V10C2.25 9.58579 2.58579 9.25 3 9.25H6.25V3ZM20.25 3.75V20.25H7.75V3.75H20.25ZM6.25 10.75V20.25H3.75V10.75H6.25Z" fill="#23262A"/>
<path d="M18 15.5C18 15.0858 17.6642 14.75 17.25 14.75C16.8358 14.75 16.5 15.0858 16.5 15.5V17.5C16.5 17.9142 16.8358 18.25 17.25 18.25C17.6642 18.25 18 17.9142 18 17.5V15.5Z" fill="#23262A"/>
<path d="M14.75 15.5C14.75 15.0858 14.4142 14.75 14 14.75C13.5858 14.75 13.25 15.0858 13.25 15.5V17.5C13.25 17.9142 13.5858 18.25 14 18.25C14.4142 18.25 14.75 17.9142 14.75 17.5V15.5Z" fill="#23262A"/>
<path d="M11.5 15.5C11.5 15.0858 11.1642 14.75 10.75 14.75C10.3358 14.75 10 15.0858 10 15.5V17.5C10 17.9142 10.3358 18.25 10.75 18.25C11.1642 18.25 11.5 17.9142 11.5 17.5V15.5Z" fill="#23262A"/>
<path fill-rule="evenodd" clip-rule="evenodd" d="M12.2632 9C12.2632 7.48848 13.4885 6.26316 15 6.26316C16.5115 6.26316 17.7368 7.48848 17.7368 9C17.7368 10.5115 16.5115 11.7368 15 11.7368C13.4885 11.7368 12.2632 10.5115 12.2632 9ZM15 5C12.7909 5 11 6.79086 11 9C11 11.2092 12.7909 13 15 13C17.2092 13 19 11.2092 19 9C19 6.79086 17.2092 5 15 5ZM15 6.68421C15.3488 6.68421 15.6316 6.96698 15.6316 7.31579V8.73839L16.2887 9.39551C16.5353 9.64216 16.5353 10.0421 16.2887 10.2887C16.0421 10.5353 15.6422 10.5353 15.3955 10.2887L14.5534 9.44659C14.435 9.32815 14.3684 9.1675 14.3684 9V7.31579C14.3684 6.96698 14.6512 6.68421 15 6.68421Z" fill="#23262A"/>
</svg>
