<svg width="24" height="24" viewBox="0 0 24 24" fill="none" xmlns="http://www.w3.org/2000/svg">
<path fill-rule="evenodd" clip-rule="evenodd" d="M10.0792 3.04294C9.85243 3.0071 9.69906 3.2254 9.75643 3.39752L10.415 5.37324C10.9062 5.29163 11.4339 5.24994 12 5.24994C12.5661 5.24994 13.0938 5.29163 13.585 5.37324L14.2436 3.39752C14.3009 3.2254 14.1476 3.0071 13.9208 3.04294C13.2603 3.14736 12.4973 3.24994 12 3.24994C11.5027 3.24994 10.7397 3.14736 10.0792 3.04294ZM8.3334 3.87186L8.96564 5.76857C8.54821 5.93422 8.16578 6.13831 7.81654 6.37904C6.74891 7.11495 6.05887 8.14684 5.61268 9.30451C4.79574 11.4241 4.75232 14.1047 4.75011 16.5087C4.62251 16.5735 4.47928 16.654 4.33397 16.7509C3.91368 17.0311 3.25 17.6018 3.25 18.4999C3.25 19.269 3.63792 19.8235 3.96967 20.1553C4.13758 20.3232 4.30348 20.4474 4.42772 20.5302C4.49048 20.5721 4.54435 20.6045 4.58493 20.6277C4.60527 20.6393 4.62241 20.6487 4.63583 20.6558L4.65315 20.6649L4.65963 20.6683L4.6623 20.6696L4.66349 20.6702L4.66405 20.6705C4.66432 20.6706 4.66459 20.6708 5 19.9999L4.66459 20.6708C4.76873 20.7228 4.88357 20.7499 5 20.7499H19C19.1164 20.7499 19.2313 20.7228 19.3354 20.6708L19 19.9999C19.3354 20.6708 19.3357 20.6706 19.3359 20.6705L19.3365 20.6702L19.3377 20.6696L19.3404 20.6683L19.3469 20.6649L19.3642 20.6558C19.3776 20.6487 19.3947 20.6393 19.4151 20.6277C19.4557 20.6045 19.5095 20.5721 19.5723 20.5302C19.6965 20.4474 19.8624 20.3232 20.0303 20.1553C20.3621 19.8235 20.75 19.269 20.75 18.4999C20.75 17.6018 20.0863 17.0311 19.666 16.7509C19.5207 16.654 19.3775 16.5735 19.2499 16.5087C19.2477 14.1047 19.2043 11.4241 18.3873 9.30451C17.9411 8.14684 17.2511 7.11495 16.1835 6.37904C15.8342 6.13831 15.4518 5.93422 15.0344 5.76857L15.6666 3.87186C16.0948 2.58714 14.9767 1.35741 13.6866 1.56134C13.014 1.66768 12.3625 1.74994 12 1.74994C11.6375 1.74994 10.986 1.66768 10.3134 1.56134C9.02331 1.35741 7.90516 2.58714 8.3334 3.87186ZM18.7866 19.2499C18.8418 19.2101 18.9063 19.1579 18.9697 19.0946C19.1379 18.9264 19.25 18.7309 19.25 18.4999C19.25 18.3981 19.1637 18.2188 18.834 17.999C18.6919 17.9043 18.5446 17.8301 18.4298 17.779C18.3734 17.754 18.3275 17.7357 18.2975 17.7242C18.2825 17.7185 18.2716 17.7146 18.2656 17.7125L18.2624 17.7113L18.2621 17.7112L18.2614 17.711L18.2604 17.7106C17.9555 17.6078 17.75 17.3219 17.75 16.9999C17.75 14.389 17.7396 11.7949 16.9877 9.84396C16.6214 8.89353 16.0927 8.13827 15.3322 7.61406C14.5713 7.0896 13.511 6.74994 12 6.74994C10.489 6.74994 9.42871 7.0896 8.66784 7.61406C7.90734 8.13827 7.37863 8.89353 7.01232 9.84396C6.26038 11.7949 6.25 14.389 6.25 16.9999C6.25 17.3219 6.04452 17.6078 5.7396 17.7106L5.73858 17.711L5.73794 17.7112L5.73772 17.7113L5.73441 17.7125C5.72837 17.7146 5.71751 17.7185 5.70254 17.7242C5.67248 17.7357 5.62657 17.754 5.57023 17.779C5.45542 17.8301 5.30805 17.9043 5.16603 17.999C4.83632 18.2188 4.75 18.3981 4.75 18.4999C4.75 18.7309 4.86208 18.9264 5.03033 19.0946C5.09365 19.1579 5.15816 19.2101 5.21339 19.2499H18.7866ZM11.2564 10.9054C11.5878 11.154 11.655 11.6241 11.4064 11.9554L9.84924 14.0317L11.4064 16.108C11.655 16.4393 11.5878 16.9094 11.2564 17.158C10.9251 17.4065 10.455 17.3393 10.2064 17.008L9.03018 15.4396V16.558C9.03018 16.9722 8.6944 17.308 8.28018 17.308C7.86597 17.308 7.53018 16.9722 7.53018 16.558V11.5054C7.53018 11.0912 7.86597 10.7554 8.28018 10.7554C8.6944 10.7554 9.03018 11.0912 9.03018 11.5054V12.6238L10.2064 11.0554C10.455 10.7241 10.9251 10.6569 11.2564 10.9054ZM12.8778 10.7554C12.4636 10.7554 12.1278 11.0912 12.1278 11.5054V16.558C12.1278 16.9722 12.4636 17.308 12.8778 17.308C13.292 17.308 13.6278 16.9722 13.6278 16.558V14.7817H13.9932L15.049 16.8933C15.2342 17.2638 15.6848 17.414 16.0552 17.2288C16.4257 17.0435 16.5759 16.593 16.3906 16.2225L15.5189 14.479C16.0898 14.1237 16.4698 13.4905 16.4698 12.7686C16.4698 11.6567 15.5685 10.7554 14.4567 10.7554H12.8778ZM14.4397 13.2817C14.4488 13.2815 14.4579 13.2815 14.467 13.2816C14.7456 13.2761 14.9698 13.0485 14.9698 12.7686C14.9698 12.4852 14.7401 12.2554 14.4567 12.2554H13.6278V13.2817H14.4397Z" fill="#111D46"/>
</svg>
