<svg width="202" height="202" viewBox="0 0 202 202" fill="none" xmlns="http://www.w3.org/2000/svg">
<mask id="mask0" mask-type="alpha" maskUnits="userSpaceOnUse" x="0" y="0" width="202" height="202">
<circle cx="101" cy="101" r="101" fill="#C4C4C4"/>
</mask>
<g mask="url(#mask0)">
<path d="M260.012 41.7442H-617.642V243H260.012V41.7442Z" fill="#00AFF9"/>
<path d="M-617.2 41.7527H-565.667L-559.328 38.5443L-533.829 35.1146L-512.562 41.7527H259.562V-207H-615.076L-617.2 41.7527Z" fill="#C0EFFF"/>
<path d="M114.079 166.236C121.708 165.772 129.363 166.058 136.936 167.087C148.024 168.789 154.821 168.227 152.91 160.593C150.998 152.959 130.911 154.031 120.001 160.823C109.092 167.614 114.079 166.236 114.079 166.236Z" fill="#0062BD"/>
<path d="M160.922 176.882C160.922 176.882 171.034 177.146 176.565 167.835C182.096 158.525 181.57 158.551 186.175 155.921C192.48 152.363 218.293 166.389 218.293 166.389L266.079 161.512L265.348 176.363C265.348 176.363 255.552 176.363 239.501 180.235C234.089 181.546 226.356 183.844 217.409 184.737C201.112 186.397 180.567 185.103 160.922 176.882Z" fill="#0062BD"/>
<path d="M45.7477 210.039C45.7477 210.039 31.8044 202.277 45.5777 192.771C65.5198 179.01 96.5587 162.916 129.212 166.593C155.306 169.538 155.493 179.452 186.141 183.52C234.199 189.895 234.513 175.418 271.05 176.423L260.811 210.669L45.7477 210.039Z" fill="#C0EFFF"/>
<path d="M186.013 156.048C193.983 151.172 203.585 143.598 213.9 121.462C224.215 99.3261 244.896 90.3986 263.266 96.1091L264.847 159.163L197.671 163.342L186.013 156.048Z" fill="#C0EFFF"/>
<path d="M181.094 122.287C175.528 116.645 164.95 114.083 164.95 114.083L128.558 115.913L-32.6949 116.279V96.3049C-24.8885 91.7229 -17.5887 86.3255 -10.9176 80.2031C5.14993 65.0885 29.4848 53.7525 55.4087 56.7993C81.3325 59.846 131.838 57.761 131.838 57.761L153.623 51.0717L219.27 77.1563L278 56.0674L274.958 116.773L181.094 122.287Z" fill="#C0EFFF"/>
<path d="M-23.2125 152.849C-23.2125 152.849 -32.7034 172.465 -80.1412 168.329C-100.355 166.567 -120.314 171.733 -135.269 170.831C-157.411 169.555 -164.957 164.219 -169.604 159.87C-179.444 148.21 -157.794 143.742 -147.317 145.742C-137.121 147.7 -131.59 147.444 -121.699 141.861C-109.362 134.908 -104.026 139.887 -96.2088 133.113C-87.2446 125.326 -75.1451 129.079 -75.1451 129.079C-75.1451 129.079 -71.8993 126.364 -69.6222 128.015C-71.0745 126.729 -72.7025 125.657 -74.4568 124.832C-84.5851 119.496 -95.2231 125.572 -99.7095 128.636C-101.961 130.177 -106.507 131.011 -112.973 132.04C-125.871 134.125 -128.267 141.776 -141.939 138.449C-156.74 134.832 -165.279 137.155 -185.273 142.951C-205.266 148.746 -260.359 164.61 -281.915 164.593C-307.448 164.593 -321.706 156.244 -323.55 144.244C-326.524 124.764 -276.316 118.483 -244.801 122.117C-232.999 123.479 -210.364 127.751 -191.135 126.977C-169.044 126.126 -139.067 117.266 -131.989 112.509C-115.437 101.292 -52.1187 115.436 -52.1187 115.436L-6.41431 82.4924C-6.41431 82.4924 -11.1555 83.2158 -18.7092 81.4797C-21.4027 80.8669 -23.5779 75.7776 -27.291 76.1521C-45.8396 77.9989 -75.1451 72.7479 -87.0916 72.7479C-105.955 72.7479 -147.419 85.5136 -189.903 93.9135C-250.528 105.879 -294.533 95.9304 -295.697 81.2499C-296.504 71.1224 -273.741 62.8758 -313.957 58.8418C-343.619 55.8716 -376.935 58.229 -403.743 60.3652C-435.963 62.9183 -477.207 71.9479 -518.45 63.1907C-520.685 71.4628 -538.299 68.348 -552.777 67.1395C-563.143 66.2885 -593.324 65.9821 -601.464 65.3778C-610.224 69.5565 -612.034 68.2714 -614.303 68.5522C-621.1 69.4033 -724.634 72.2883 -624.796 88.8582C-524.959 105.428 -410.005 70.8671 -365.218 76.2202C-331.554 80.2456 -312.538 92.756 -318.001 105.428C-339.668 155.861 -570.17 122.143 -612.051 109.777C-651.077 98.2538 -631.432 155.87 -631.432 155.87C-631.432 155.87 -639.182 189.844 -617.192 176.882C-582.729 156.534 -523.047 146.321 -459.1 159.529C-421.637 167.248 -364.496 189.554 -339.294 205.409C-299.461 230.481 -246.815 207.111 -239.032 201.418C-227.935 193.367 -213.72 182.797 -180.701 178.814C-138.778 173.75 -103.057 192.839 -54.3788 196.686C-29.9165 198.643 -28.6335 182.142 -17.749 180.354C27.9894 172.874 34.5914 172.474 53.9727 165.725V151.24L-23.2125 152.849Z" fill="#C0EFFF"/>
<path d="M216.925 -105.751C211.351 -80.8407 242.942 -27.4715 225.948 -12.825C217.452 -5.52296 210.952 -22.3397 194.995 -22.3397C177.941 -22.3397 168.45 -14.9441 162.418 -6.26337C151.499 9.43846 142.102 11.515 130.589 7.69382C116.526 3.01305 115.804 -18.5185 89.1495 -19.6333C76.5488 -20.161 66.2081 -11.8122 66.2081 -11.8122C66.2081 -11.8122 63.0303 -37.1904 33.3934 -39.1053C23.775 -39.7266 60.1159 -80.4577 52.4008 -81.3513C31.728 -83.7513 -12.0646 -97.6489 -39.7813 -90.432C-67.8803 -83.113 -79.7929 -54.6369 -83.54 -52.1348C-92.0368 -46.4584 -93.0819 -60.5857 -113.279 -62.4495C-127.086 -63.7261 -138.769 -59.2581 -145.992 -57.1305C-153.214 -55.0029 -159.264 -64.1431 -165.849 -69.9983C-181.993 -84.3555 -213.219 -89.3597 -237.01 -71.0621C-260.801 -52.7646 -254.573 -58.1177 -277.472 -65.9559C-302.962 -74.6791 -335.989 -72.2281 -355.218 -45.4286C-355.218 -45.4286 -360.494 -66.109 -382.917 -82.6194C-404.516 -98.4914 -430.007 -93.1979 -453.152 -86.3895C-476.297 -79.5811 -494.786 -87.8788 -511.78 -96.3893C-528.774 -104.9 -550.866 -113.623 -576.356 -106.602C-601.846 -99.5808 -619.69 -108.304 -619.69 -108.304L-614.592 -29.4374C-590.231 -29.4374 -377.114 -42.7648 -333.78 -6.73145C-290.446 29.3019 -299.648 41.7783 -269.909 41.7783H-156.196C-156.196 41.7783 -146.136 25.3275 -123.764 26.4594C-101.392 27.5913 -78.153 26.1786 -71.3555 15.6766C-64.558 5.17471 -79.3936 -11.9739 -11.8013 -14.927C26.6724 -16.6291 65.9108 -16.6291 84.0345 6.59596C102.158 29.8211 111.088 36.9018 148.339 17.3617C186.574 -2.69748 208.437 5.18323 269.716 5.18323L259.621 -140.082C259.621 -140.082 225.311 -143.231 216.925 -105.751ZM143.92 -21.4971C141.255 -22.7421 138.363 -23.4257 135.423 -23.5056C130.461 -23.6758 123.868 -17.8206 129.543 -23.8375C135.219 -29.8544 142.518 -26.2204 142.518 -26.2204C147.71 -34.0075 153.386 -27.2928 153.386 -27.2928C147.132 -27.5311 143.92 -21.5141 143.92 -21.5141V-21.4971Z" fill="white"/>
<path d="M48.2118 12.5959C46.8947 13.1235 43.5555 12.6724 41.1849 11.3533C37.7267 9.43847 30.8952 12.1022 30.3259 11.3533C29.7566 10.6044 33.7247 7.85552 36.1463 7.48106C38.5679 7.10659 42.7228 8.53635 42.7228 8.53635C42.7228 8.53635 43.7339 3.64283 54.1086 6.57895C54.1086 6.57895 48.2457 7.97466 47.0477 9.77888C45.8496 11.5831 48.2118 12.5959 48.2118 12.5959Z" fill="white"/>
<path d="M196.524 159.18C191.825 163.384 186.328 162.755 186.175 166.133C186.022 169.512 194.85 172.167 203.704 168.235C212.557 164.304 215.2 166.746 217.452 171.163C219.703 175.58 229.5 172.167 236.434 168.329C243.367 164.491 260.802 165.844 260.802 165.844V154.159C259.074 153.071 257.454 151.817 255.968 150.415C253.138 147.717 248.847 146.304 245.287 150.415C245.287 150.415 243.588 147.461 242.186 145.385C239.637 141.589 235.983 140.355 233.239 145.385C232.926 144.219 232.235 143.189 231.276 142.457C229.764 141.538 227.333 141.913 226.118 145.385C225.362 147.564 225.362 148.874 224.419 148.857C223.476 148.84 224.02 145.827 222.898 144.738C221.777 143.649 219.329 144.278 216.525 149.317C212.965 155.717 204.8 157.887 206.941 152.721C209.227 147.189 215.438 136.628 214.019 135.759C212.6 134.891 209.771 140.696 206.627 146.091C203.483 151.487 199.931 156.134 196.524 159.18Z" fill="#422D62"/>
<path d="M140.98 135.649C136.961 135.785 130.427 137.351 126.74 141.513C121.641 147.283 112.057 149.836 103.254 147.274C98.0117 145.751 93.279 151.997 91.2058 146.423C91.2058 146.423 88.8947 151.666 79.6416 153.734C74.1732 154.966 68.6422 155.901 63.0728 156.534C63.0728 156.534 70.0742 155.921 70.2526 159.699C70.3716 162.082 64.5513 164.295 53.9897 165.793C43.2752 167.316 30.1561 166.397 28.3887 164.329C24.1403 159.333 46.0367 156.287 46.0367 156.287C46.0367 156.287 39.2392 154.219 24.1318 159.333C9.02448 164.448 -8.24107 165.427 -23.2125 152.874C-38.1839 140.321 -37.6571 141.538 -37.6571 141.538C-37.6571 141.538 -41.3362 146.959 -48.6435 141.938C-48.6435 141.938 -54.7612 146.193 -60.3266 140.934C-60.3266 140.934 -62.8757 139.742 -66.5293 141.666C-70.1829 143.589 -73.0974 141.844 -75.2895 139.47C-77.4817 137.096 -84.1942 137.998 -88.8845 139.649C-95.3675 141.938 -98.1715 135.555 -90.3459 135.079C-82.8602 134.619 -82.4949 133.981 -79.6654 132.423C-76.836 130.866 -72.732 125.845 -69.6222 128.032C-69.6222 128.032 -69.0784 112.305 -51.8213 107.607C-51.8213 107.607 -53.0109 104.041 -48.72 103.862C-44.4291 103.683 -47.9892 102.16 -46.7997 99.607C-45.6101 97.0538 -41.7781 95.5815 -40.0447 98.9687C-40.0447 98.9687 -38.5832 95.3092 -35.295 95.3092C-32.0067 95.3092 -31.4629 98.7134 -31.4629 98.7134C-31.4629 98.7134 -28.9139 97.8623 -28.9988 99.9899C-29.0838 102.118 -31.6498 103.394 -31.6498 103.394C-31.6498 103.394 -28.3616 102.024 -28.2511 105.403C-28.2511 105.403 -24.5125 104.492 -23.7818 108.237C-23.6323 109.027 -23.6441 109.839 -23.8164 110.624C-23.9887 111.41 -24.318 112.152 -24.7844 112.807C-24.7844 112.807 -21.6831 108.603 -19.3039 112.262C-19.3039 112.262 -16.381 108.237 -13.5516 112.441C-13.5516 112.441 -11.8522 107.505 -8.25807 112.075C-8.25807 112.075 -8.1646 106.969 -3.87371 110.151C-3.87371 110.151 0.32373 105.394 5.61725 108.143C10.9108 110.892 12.1003 106.773 13.6468 104.032C15.1932 101.292 17.8952 98.5431 22.9933 100.373C22.9933 100.373 24.2423 92.1433 36.4777 96.5347C48.7132 100.926 65.231 91.9646 71.6206 92.5092C73.5552 92.6624 75.4216 93.2938 77.0528 94.3469C78.6839 95.3999 80.0288 96.8417 80.9671 98.5432C80.9671 98.5432 88.0874 96.0751 92.4718 101.198C96.8562 106.322 99.4987 107.326 105.217 104.032L106.585 107.045L110.239 104.118L114.343 110.33C114.343 110.33 118.319 112.994 123.927 108.679C128.677 105.02 131.685 106.977 132.874 111.232C133.393 113.105 136.409 113.292 138.261 110.228C140.632 106.296 145.747 110.688 145.747 110.688C145.747 110.688 142.705 99.8112 141.796 97.7942C140.887 95.7772 126.153 96.5772 126.153 96.5772C126.483 95.1267 126.442 93.6164 126.034 92.1858C125.728 91.3943 124.207 91.8794 124.207 91.8794C125.857 90.3314 127.867 89.2199 130.053 88.6455C141.193 85.2923 143.138 79.8712 145.084 81.8796C145.084 81.8796 148.916 79.7095 151.533 82.0839C151.533 82.0839 157.923 78.6797 163.284 85.1051C168.646 91.5305 172.631 98.0836 171.254 105.037C172.99 106.693 174.367 108.689 175.298 110.902C176.229 113.114 176.695 115.495 176.667 117.896C176.488 125.938 175.027 120.577 173.99 120.577C172.954 120.577 164.177 122.568 162.188 123.011C158.501 123.862 155.433 123.011 154.541 112.245C154.541 112.245 153.471 111.139 150.548 114.058C150.004 114.602 148.848 115.139 148.169 116.185C145.152 120.79 141.286 129.147 141.371 131.317C141.372 132.77 141.241 134.22 140.98 135.649Z" fill="#422D62"/>
<path d="M75.2573 52.2802C75.2573 52.2802 71.7566 49.7781 73.7618 50.5185C75.7671 51.2589 74.7305 47.9654 76.7442 44.6037C77.4203 43.4823 78.3874 42.5655 79.5425 41.9511C80.6977 41.3366 81.9975 41.0475 83.3038 41.1144C86.0482 41.1144 87.9345 42.0761 89.9228 44.2718C90.8284 45.3755 91.4654 46.6749 91.7836 48.0675C91.7836 48.0675 99.4307 44.6633 101.912 41.9144C104.393 39.1656 105.863 36.4933 109.211 37.2252C112.558 37.9571 112.252 43.2591 114.02 43.5655C115.787 43.8718 119.288 41.2421 122.049 43.4463C124.114 45.0888 123.026 47.1654 124.726 47.4037C126.425 47.642 130.996 44.6633 136.29 51.4291C136.29 51.4291 157.609 30.221 198.079 30.221H271.746V72.2798C271.746 72.2798 242.262 66.1523 219.992 85.5391C216.501 83.3881 212.76 81.6732 208.853 80.4329C201.699 78.1946 192.709 77.0287 187.857 74.9436C178.732 71.1054 167.278 58.4843 151.44 57.029C142.493 56.178 136.562 59.4971 136.562 59.4971C136.562 59.4971 133.248 64.3906 128.983 64.314C125.822 64.2544 127.521 66.6459 120.766 66.5097C117.843 66.4501 119.679 68.7735 118.702 70.5437C117.724 72.3139 114.564 71.4458 114.564 71.4458C114.564 71.4458 115.906 74.3138 112.312 75.4032C108.718 76.4925 87.4502 70.6884 87.4502 70.6884L79.7181 59.046L75.2573 52.2802Z" fill="#422D62"/>
<path d="M211.181 23.2254L213.874 18.9702C215.149 16.9617 215.149 17.0383 207.621 17.0383H191.027C190.747 17.0383 190.471 17.0948 190.214 17.2045C189.957 17.3142 189.725 17.4748 189.531 17.6766L184.153 23.3105L211.181 23.2254Z" fill="#422D62"/>
<path d="M29.6719 211.477C29.6719 211.477 23.7241 196.422 36.6223 200.788C36.6223 200.788 40.3609 192.082 49.3675 190.175C58.0428 188.354 66.3612 196.363 66.3612 196.363C63.542 191.57 59.7465 187.426 55.2218 184.201C47.5152 178.567 46.3426 172.261 48.025 171.001C49.7074 169.742 56.7427 182.499 58.3911 182.32C60.0395 182.142 49.3505 169.682 55.1623 167.504C60.9742 165.325 61.6454 175.733 62.7415 178.933C63.6723 181.303 64.9 183.545 66.3951 185.605C66.3951 185.605 62.5291 171.223 69.403 170.61C73.507 170.244 73.0567 177.103 73.0567 177.103C73.0567 177.103 73.9063 171.435 78.4436 170.797C78.4436 170.797 72.3429 154.9 83.4653 154.797C93.8739 154.704 81.7659 180.525 77.1691 186.89C74.0678 191.146 77.4155 194.005 80.2705 188.167C82.7345 183.137 86.4392 186.056 86.4392 186.056C86.4392 186.056 83.1849 177.018 90.1268 175.844C97.0687 174.669 98.9805 184.533 98.9805 184.533C98.9805 184.533 102.813 180.695 102.269 177.035C102.269 177.035 98.802 180.508 96.4229 174.482C94.0438 168.457 94.9615 158.312 97.8844 157.657C100.807 157.002 102.32 172.559 102.32 172.559C102.32 172.559 105.005 156.925 109.661 156.653C114.317 156.38 106.466 173.563 107.112 173.844C107.758 174.125 111.607 168.252 113.162 165.699C114.717 163.146 112.686 174.576 112.686 174.576C112.686 174.576 115.422 165.708 119.806 166.916C124.191 168.125 119.806 177.427 119.806 177.427C119.806 177.427 124.462 166.27 129.204 166.635C133.945 167.001 127.836 180.899 127.836 180.899C127.836 180.899 134.633 168.057 139.06 170.933C142.459 173.155 135.321 177.793 132.127 189.656C132.127 189.656 131.591 186.95 133.35 181.291C134.157 178.737 135.415 177.12 134.633 176.763C133.129 176.065 129.119 181.333 127.105 186.729C122.857 198.107 109.763 201.043 109.763 211.503L29.6719 211.477Z" fill="#422D62"/>
<path d="M65.9192 195.946C65.9192 195.946 50.9818 192.695 47.6426 191.69C44.3033 190.686 43.0033 187.435 45.4334 185.222C46.436 184.286 48.3903 183.852 52.3158 185.495C58.9178 188.286 65.9192 195.946 65.9192 195.946Z" fill="#422D62"/>
<path d="M74.8663 165.044C73.0565 164.772 72.7676 168.567 73.7277 171.989C73.7192 172.031 77.6023 165.495 74.8663 165.044Z" fill="#422D62"/>
<path d="M113.476 165.333C114.156 165.631 119.908 160.746 116.535 158.831C113.162 156.917 112.091 164.746 113.476 165.333Z" fill="#422D62"/>
<path d="M149.052 150.287C149.112 156.44 150.752 159.427 144.37 159.061C137.989 158.695 134.879 159.368 132.815 159.061C130.886 158.763 128.43 155.785 134.336 154.074C140.241 152.363 140.844 150.295 140.844 150.295L149.052 150.287Z" fill="#422D62"/>
<path d="M182.037 167.053L174.67 170.457C174.67 170.457 175.775 174.074 170.83 180.422C170.83 180.422 172.164 180.857 175.299 181.588C177.848 182.167 179.292 182.439 179.292 182.439C180.218 180.997 181.034 179.486 181.731 177.92C182.836 175.563 184.314 174.406 182.037 167.053Z" fill="#422D62"/>
<path d="M191.307 76.2202C184.288 73.5564 180.805 71.0288 173.752 65.9565C166.7 60.8843 150.76 52.11 136.613 59.3609C135.428 61.1172 133.817 62.5433 131.931 63.5055C128.796 65.097 128.175 63.0545 126.111 65.4119C124.046 67.7693 119.925 65.514 119.313 67.114C119.313 67.114 123.655 71.8032 147.191 67.2586C163.701 64.0672 174.679 69.8799 180.575 72.2883C186.472 74.6968 191.307 76.2202 191.307 76.2202Z" fill="#C0EFFF"/>
<path d="M184.153 23.3276L183.303 31.1997C188.032 30.6829 192.786 30.4187 197.544 30.4083C206.508 30.4083 211.283 30.221 211.283 30.221L211.173 23.2339L184.153 23.3276Z" fill="#FF3853"/>
<path d="M74.586 96.1092C75.3082 93.3943 76.7782 103.232 76.0474 104.969C75.3167 106.705 73.0056 102.067 74.586 96.1092Z" fill="#0062BD"/>
<path d="M109.78 211.477C109.78 211.477 106.797 201.077 113.178 199.409C119.262 197.826 116.577 208.703 121.675 207.852C125.482 207.213 111.997 187.784 116.577 183.852C119.007 181.75 120.35 191.775 123.511 191.895C126.671 192.014 121.735 181.878 125.091 181.597C127.122 181.427 128.371 184.89 129.883 190.89C130.937 195.069 132.432 195.248 133.486 191.895C134.599 188.354 135.355 186.627 139.255 181.486C142.654 177.001 146.053 176.065 147.208 178.023C148.67 180.474 147.506 186.661 148.381 186.729C149.256 186.797 149.23 182.908 150.36 179.18C151.491 175.452 153.759 171.759 157.812 172.533C161.05 173.154 162.494 177.129 161.789 181.044C161.249 183.733 160.426 186.358 159.333 188.873C159.333 188.873 164.202 178.21 167.609 180.644C171.016 183.078 164.499 192.405 164.499 192.405C164.499 192.405 173.174 183.188 176.556 187.716C178.519 190.337 173.769 195.001 169.223 199.631C164.382 204.475 160.488 210.185 157.744 216.464L109.78 211.477Z" fill="#0062BD"/>
<path d="M32.9091 139.513C31.5241 138.534 29.4254 138.006 26.1881 139.453C24.3443 140.304 24.8541 135.887 21.141 135.947C17.4279 136.006 13.4939 138.993 11.3442 140.942C9.19447 142.891 7.09575 139.759 1.42837 138.389C-2.07233 137.538 -5.0802 138.483 -5.44557 135.189C-5.81093 131.896 -6.86454 131.002 -11.8947 130.057C-16.9248 129.113 -15.2934 126.262 -13.2372 122.296C-11.7757 119.453 -19.8987 120.917 -19.5163 119.368C-18.3438 114.585 -13.4326 114.594 -10.3142 113.802C-6.66061 112.875 -5.02922 111.632 -4.11156 109.547C-2.47168 105.769 -1.13768 106.994 -0.449432 106.994C0.23881 106.994 0.0858688 106.058 0.587181 105.292C1.90419 103.241 4.19833 104.535 3.60355 108.237C3.16172 110.951 2.20158 114.968 0.629665 115.547C-1.68147 116.398 1.30091 109.59 0.570187 109.334C-0.16054 109.079 -5.30962 114.305 -6.72859 120.611C-7.45932 123.845 -7.17042 128.075 -5.81093 128.483C-4.59588 128.849 -5.87891 126.781 -4.53641 120.492C-3.49979 115.624 -1.67298 114.092 -1.67298 114.092C-1.92775 116.152 -1.67693 118.244 -0.942249 120.185C0.272797 123.172 -1.30761 126.041 -0.0925655 126.704C1.12248 127.368 1.12248 122.619 4.10487 122.355C7.08725 122.092 8.24282 125.913 8.24282 125.913C8.24282 125.913 6.66241 118.356 7.81798 113.232C8.97355 108.109 8.3023 117.317 8.79511 120.304C9.28793 123.292 10.554 109.973 13.4769 110.739C15.1168 111.164 11.4121 115.981 10.9788 120.373C10.6984 123.224 11.6416 119.121 13.1625 116.594C14.9808 113.573 16.5612 115.334 14.0122 119.096C13.1048 120.556 12.4659 122.167 12.1259 123.853C12.1259 123.853 14.9978 124.577 14.437 128.177C15.1944 127.503 16.1351 127.07 17.139 126.934C17.0335 126.347 16.9908 125.751 17.0115 125.155C17.156 121.751 20.4103 122.355 19.7815 125.317C19.6428 125.98 19.4081 126.62 19.0848 127.215C19.7102 127.412 20.2702 127.776 20.7044 128.267C21.1386 128.759 21.4305 129.361 21.5489 130.006C24.4215 130.091 27.222 130.927 29.6718 132.432C33.198 134.866 34.5405 136.764 35.0843 138.832C35.6876 141.147 34.0052 140.304 32.9091 139.513Z" fill="#0062BD"/>
<path d="M1.81063 117.734C2.29495 115.905 4.10477 113.232 5.50675 110.551C6.61134 108.432 5.99107 113.402 5.32832 116.143C4.87367 118.361 3.72119 120.374 2.04004 121.887C0.731533 123.053 1.22435 119.939 1.81063 117.734Z" fill="#0062BD"/>
<path d="M16.5356 108.586C15.3036 108.543 14.6663 110.875 15.8474 110.96C17.0284 111.045 17.7761 108.628 16.5356 108.586Z" fill="#0062BD"/>
<path d="M18.6854 112.194C16.986 112.007 16.2723 115.351 17.9546 115.394C19.0932 115.419 19.9174 112.33 18.6854 112.194Z" fill="#0062BD"/>
<path d="M17.4535 116.994C17.7679 115.556 12.7548 121.504 15.2273 124.823C16.3999 126.415 17.2666 117.828 17.4535 116.994Z" fill="#0062BD"/>
<path d="M22.8743 125.266C22.203 125.419 21.8122 128.509 23.7834 128.738C26.4854 129.062 24.4377 124.9 22.8743 125.266Z" fill="#0062BD"/>
<path d="M36.3588 64.8076C32.1104 65.2076 30.0031 66.7565 28.6267 68.5522C27.8534 69.565 25.2279 69.8288 22.4834 69.6161C21.5485 69.5243 20.606 69.6813 19.7511 70.0714C18.8962 70.4614 18.1593 71.0706 17.6148 71.8373C16.7651 72.782 15.3036 71.6586 13.3664 71.8373C11.4291 72.016 10.384 74.4585 9.28787 74.4926C8.19178 74.5266 8.63362 70.7565 7.86041 70.6203C6.64536 70.4075 7.28262 75.5223 6.39895 76.4755C5.51528 77.4287 5.2094 75.7776 5.54927 73.8202C5.88914 71.8628 5.79568 70.8075 4.9375 70.4671C4.07932 70.1267 2.99172 76.5351 2.28649 76.4244C1.58125 76.3138 1.64922 73.3436 2.80479 70.2714C3.70546 67.8714 2.22701 66.6714 1.10543 68.3225C-0.0161543 69.9735 -1.05277 78.7138 -1.05277 78.7138C-1.05277 78.7138 -2.53971 72.2203 -2.08938 71.0033C-1.63905 69.7863 -0.169096 70.0586 -1.14623 67.0459C-2.12337 64.0332 -2.40376 68.8756 -2.40376 68.8756C-2.40376 68.8756 -3.01553 68.0842 -3.6528 68.5097C-3.92469 68.6884 -4.01816 70.5182 -3.13449 72.4075C-1.94493 74.9606 -2.75213 78.8755 -3.25344 81.335C-4.10313 85.5902 -2.5822 71.9224 -4.95281 70.2714C-7.32343 68.6203 -5.28419 74.05 -5.28419 74.05C-5.28419 74.05 -6.98355 73.6841 -6.62669 76.4585C-6.63362 76.6759 -6.58101 76.891 -6.47454 77.0806C-6.36808 77.2702 -6.21184 77.427 -6.02275 77.534C-5.83366 77.6409 -5.61895 77.694 -5.40188 77.6874C-5.18481 77.6809 -4.97368 77.615 -4.79137 77.4968L-4.74039 81.6414C-4.74039 81.6414 -7.53585 79.6584 -8.02866 73.3522C-8.52148 67.0459 -11.4274 70.6969 -9.2777 73.7777C-9.74966 73.9846 -10.1255 74.3635 -10.329 74.8375C-10.5325 75.3116 -10.5485 75.8454 -10.3738 76.3308C-9.796 78.2542 -8.44501 77.9563 -8.44501 77.9563C-8.44501 77.9563 -8.00317 80.2797 -6.60119 81.0967C-6.60119 81.0967 -8.52148 84.1945 -4.96131 84.5945C-3.36994 87.3844 -1.42818 89.9585 0.816537 92.2539C0.816537 92.2539 -0.491975 83.42 2.15904 83.2073C4.81005 82.9945 4.35122 92.9858 4.35122 92.9858C4.35122 92.9858 5.10743 84.4753 11.2761 81.5988C13.9526 80.3478 13.4768 81.1648 11.1742 84.2796C10.1115 85.6213 9.4069 87.2115 9.12643 88.9008C9.12643 88.9008 12.8056 82.8669 13.7487 83.4456C14.6919 84.0243 11.9219 86.8498 10.35 89.905C8.77806 92.9603 7.00223 99.0198 8.21727 99.0198C9.25389 99.0198 8.6761 96.6709 10.2225 93.105C11.1967 90.9034 12.4784 88.8517 14.0291 87.0115C13.9669 86.0062 14.2686 85.0121 14.8788 84.2115C15.8559 83.2669 14.9977 81.3435 16.0683 80.952C17.1389 80.5605 16.8331 83.4541 15.8899 84.9094L17.4363 83.3435C17.2953 83.0068 17.2439 82.6393 17.2871 82.2769C17.3303 81.9144 17.4666 81.5694 17.6827 81.2754C18.4135 80.0584 19.0252 78.7223 19.4756 78.7733C19.9259 78.8244 19.1442 81.1392 19.3226 81.0712C19.5011 81.0031 21.5148 78.901 22.3305 79.5733C23.1462 80.2456 19.4756 84.1945 17.8952 83.7349L14.9723 86.9689C14.9723 86.9689 18.286 84.7477 19.1442 85.4455C20.0024 86.1434 13.6382 88.2795 13.4258 88.9519C13.2134 89.6242 14.0631 89.5306 15.6775 88.6199C17.2919 87.7093 17.2919 90.0838 14.5559 90.9348C11.8199 91.7858 11.1062 93.4454 10.6898 95.3858C10.4095 96.7219 10.2225 97.6836 10.9957 97.7262C11.7689 97.7687 12.984 95.173 14.6154 93.8624C17.5723 91.4625 20.1808 92.1603 22.1266 91.8795C24.0723 91.5986 25.5253 90.1774 26.0521 86.6881C26.5789 83.1988 29.7057 77.1478 35.2032 75.6244C44.6772 73.0202 45.3994 67.8203 45.3994 67.8203C42.888 65.6832 39.6478 64.6035 36.3588 64.8076ZM5.63424 84.7988C4.53815 83.7264 7.3336 77.301 8.61662 77.6074C10.7153 78.1265 6.73033 85.8966 5.63424 84.7988Z" fill="#0062BD"/>
<path d="M72.4023 120.653C74.518 120.398 73.5918 115.445 72.7252 110.551C71.8585 105.658 70.6265 101.275 68.5702 102.092C66.514 102.909 67.8395 121.198 72.4023 120.653Z" fill="#0062BD"/>
<path d="M79.1572 120.058C77.3219 121.002 75.9624 115.028 75.0533 112.185C74.2036 109.479 72.5042 103.139 71.2212 99.8963C71.2212 99.8963 73.2774 101.037 74.8238 106.934C76.2768 112.475 77.7468 113.785 77.7468 113.785C77.2062 109.87 77.2377 105.896 77.8402 101.99C77.8402 101.99 80.9331 119.147 79.1572 120.058Z" fill="#0062BD"/>
<path d="M77.3474 96.9602C77.3474 96.9602 78.2906 98.6623 79.1232 103.471C79.9729 108.407 80.2193 112.832 81.6723 112.832C82.7344 112.832 84.5357 111.13 84.0769 107.258C83.8849 104.899 84.0597 102.525 84.5952 100.22C84.5952 100.22 81.5873 104.475 81.8082 108.534C81.8422 108.586 81.188 99.3261 77.3474 96.9602Z" fill="#0062BD"/>
<path d="M87.9175 95.0539C87.2293 94.7815 84.9096 101.267 85.2665 106.662C85.6234 112.058 83.0319 115.573 84.6717 116.024C86.8384 116.594 89.5064 113.215 94.2562 114.032C99.0059 114.849 101.835 117.275 103.518 117.922C105.2 118.568 102.422 116.824 102.668 112.16C102.914 107.496 103.603 104.313 104.537 104.569C105.472 104.824 104.903 115.13 104.903 115.13C104.903 115.13 110.001 109.368 114.3 110.875C118.6 112.381 125.159 110.279 125.524 107.862C125.89 105.445 122.194 107.683 121.14 108.96C121.14 108.96 120.18 107.632 117.486 110.381C117.486 110.381 116.212 109.879 118.336 108.415C120.46 106.952 119.934 104.756 118.472 104.713C117.011 104.671 114.504 107.726 116.773 109.054C116.773 109.054 116 110.33 114.903 110.288C113.807 110.245 115.311 105.53 113.901 104.986C112.49 104.441 112.125 106.313 112.125 106.313C112.125 106.313 112.533 102.654 111.029 102.518C109.525 102.381 106.831 106.083 106.831 106.083C106.831 106.083 107.29 102.194 105.778 101.743C104.265 101.292 103.042 103.352 101.81 106.543C99.7536 111.845 94.732 113.309 95.7431 108.466C96.7542 103.624 96.5163 101.743 95.7856 101.522C95.0549 101.301 92.7267 105.088 92.2679 107.232C91.8091 109.377 89.5319 108.79 90.628 105.266C91.7241 101.743 92.1999 100.739 91.0359 99.9644C89.8718 99.19 87.3397 104.39 87.3397 106.841C87.3652 106.773 88.5973 95.3262 87.9175 95.0539Z" fill="#0062BD"/>
<path d="M101.045 101.547C99.5156 100.611 95.692 109.088 97.8078 109.36C99.9235 109.632 102.931 102.688 101.045 101.547Z" fill="#0062BD"/>
<path d="M166.471 33.5912C168.068 33.4295 169.75 31.8891 172.903 31.6934C174.721 31.5742 178.001 32.2891 178.749 34.7997C179.598 37.5741 179.343 41.7357 174.636 41.7357C169.283 41.7357 166.292 41.7357 166.292 41.7357C166.292 41.7357 167.091 44.7144 164.168 45.4974C161.245 46.2803 161.347 43.3953 157.761 45.5739C155.773 46.7824 153.156 46.9016 152.969 44.5697C152.423 45.6057 151.622 46.4846 150.641 47.1229C149.715 47.6675 148.092 48.3824 146.656 47.7952C146.063 47.589 145.559 47.1844 145.23 46.6495C144.9 46.1147 144.765 45.4823 144.846 44.8591C145.033 43.3016 146.546 42.1783 147.71 41.7868C147.71 41.7868 146.163 41.5315 145.849 38.0932C145.483 34.1188 149.817 28.953 154.915 30.2551C160.65 31.6763 162.299 33.9827 166.471 33.5912Z" fill="#0062BD"/>
<path d="M180.652 52.4504C182.751 56.0163 187.704 54.8504 193.185 57.8716C196.193 59.5737 202.361 60.6971 206.899 59.412C212.303 57.8801 214.92 55.0802 215.625 52.1951C216.662 53.0054 217.903 53.5121 219.21 53.6589C224.988 54.51 228.489 51.2334 230.724 47.3697C231.231 47.8061 231.884 48.0346 232.552 48.0094C233.22 47.9841 233.854 47.707 234.326 47.2335C234.921 46.6207 235.864 44.9272 236.875 45.3527C239.068 46.2548 240.758 44.7655 241.557 43.8633C239.229 44.1272 237.377 40.9868 235.049 41.3102C234.517 41.4321 234.027 41.6898 233.625 42.0582C233.223 42.4267 232.923 42.8932 232.754 43.4123C231.696 42.7479 230.45 42.4481 229.206 42.5587C227.962 42.6693 226.788 43.1843 225.863 44.025C224.377 45.3697 221.36 49.3356 214.206 45.242C211.07 43.4463 206.414 44.2463 206.236 48.9867C206.236 48.9867 202.939 45.5825 199.999 45.8633C199.295 45.9873 198.639 46.303 198.102 46.7759C197.566 47.2488 197.17 47.8606 196.957 48.5441C196.464 49.8207 195.708 49.9654 194.918 48.0931C194.622 47.3841 194.162 46.7558 193.576 46.2605C192.99 45.7651 192.294 45.4169 191.546 45.2447C190.799 45.0725 190.021 45.0812 189.277 45.2702C188.534 45.4592 187.846 45.823 187.271 46.3314C186.335 47.361 185.754 48.6649 185.614 50.0505C185.257 49.5352 184.782 49.1122 184.23 48.8163C183.677 48.5204 183.063 48.3601 182.436 48.3484C180.83 48.4505 179.522 50.5356 180.652 52.4504Z" fill="#0062BD"/>
<path d="M119.908 66.5693C119.908 68.1863 121.123 68.5182 126.96 68.6799C142.051 69.1054 157.549 63.863 170.532 68.3735C183.277 72.799 186.141 75.7266 197.187 77.3946C212.481 79.7095 220.035 85.4115 220.035 85.4115C220.035 85.4115 234.726 70.3224 260.819 71.233L262.952 96.0836C257.097 94.4106 250.934 94.1193 244.947 95.2326C238.081 96.4971 231.698 99.6433 226.509 104.322C218.165 111.734 215.829 117.266 214.155 120.815C212.481 124.364 192.496 122.253 192.496 122.253C192.496 122.253 183.796 113.93 189.208 109.785C194.621 105.641 199.608 102.569 199.608 102.569C199.608 102.569 200.288 97.7261 197.909 97.607C196.549 97.5389 194.281 100.313 191.919 101.973C191.579 102.211 191.834 102.475 191.494 102.569C191.154 102.662 192.343 93.522 191.97 93.5305C191.256 93.5305 188.452 102.526 187.934 102.645C185.971 103.079 185.911 106.143 183.464 106.347C177.754 106.824 173.591 106.892 170.974 104.977C170.974 104.977 179.471 99.8708 176.786 95.5134C174.101 91.1561 167.32 89.3008 167.524 84.4924C167.839 78.3393 165.094 73.7521 158.101 73.5734L144.982 81.8456C144.982 81.8456 144.787 80.4499 139.34 84.2966C121.497 89.3348 120.775 73.5989 114.572 71.4203C116.203 71.6926 118.107 71.2586 118.718 70.0075C119.177 69.0629 118.243 66.8246 119.908 66.5693Z" fill="#0062BD"/>
<path d="M152.4 112.015C152.4 112.015 144.184 117.504 140.216 125.547C136.248 133.589 140.836 150.295 140.836 150.295H149.052C149.052 150.295 149.205 139.172 148.976 132.27C148.976 132.27 155.408 125.734 156.411 126.194C157.413 126.653 157.26 128.883 161.339 137.257C165.587 145.964 165.536 147.129 166.819 149.172C168.102 151.214 172.436 162.942 174.67 170.508L182.037 167.104C182.037 167.104 181.136 161.419 180.193 156.891C179.221 152.632 177.572 148.557 175.307 144.823C175.307 144.823 175.605 128.117 175.155 121.845C175.155 121.845 175.324 119.521 171.603 120.577C167.881 121.632 161.228 123.981 158.509 122.279C155.425 120.373 154.397 112.211 154.397 112.211C154.295 112.086 154.164 111.988 154.017 111.924C153.869 111.86 153.708 111.833 153.547 111.845C153.369 111.845 153.326 111.666 153.054 111.751C152.83 111.823 152.611 111.911 152.4 112.015Z" fill="#C0EFFF"/>
<path d="M145.305 81.8031C145.246 80.6456 143.733 80.4499 143.308 84.6541C142.884 88.8582 141.94 92.756 144.829 97.8198C147.718 102.883 146.903 111.275 154.414 112.228C154.414 112.228 154.167 110.926 152.256 108.364C150.344 105.803 146.223 92.5688 146.928 85.8966L145.305 81.8031Z" fill="#0062BD"/>
<path d="M148.627 90.4667C147.9 89.0637 147.73 87.437 148.152 85.9136C149.452 81.735 154.15 80.7477 157.957 79.0116C161.764 77.2755 165.485 75.9053 165.485 75.9053C165.485 75.9053 168.519 78.2627 168.544 83.5647C168.544 84.0158 170.532 86.1179 171.467 87.2583C173.965 90.305 177.916 92.6794 177.415 99.0793C176.99 104.671 170.991 105.037 170.991 105.037C170.991 105.037 170.082 97.5389 166.182 91.7518C162.282 85.9647 158.849 80.6882 153.768 82.552C148.687 84.4158 148.627 90.4667 148.627 90.4667Z" fill="#C0EFFF"/>
<path d="M141.15 83.0456C138.958 84.7477 139.57 87.6072 140.385 88.0923C141.821 88.9433 142.765 82.135 142.765 82.135L141.15 83.0456Z" fill="#ACEFFF"/>
<path d="M135.364 70.9352C135.483 72.1108 135.836 73.2508 136.4 74.2883C136.615 74.9052 136.685 75.5634 136.604 76.2117C136.519 76.9776 136.171 77.5053 136.502 77.9138C137.021 78.5095 137.921 78.1776 138.89 78.935C139.859 79.6925 141.753 81.3435 143.988 80.2456C146.223 79.1478 143.869 83.6498 144.838 85.9306C145.237 86.8923 146.155 86.62 147.055 85.803C147.531 82.8498 151.516 80.3563 149.358 81.335C149.095 79.1478 146.019 69.0033 146.019 69.0033L135.364 70.9352Z" fill="white"/>
<path d="M150.072 65.114C147.523 62.1864 142.348 61.5651 139.502 62.8162C136.213 64.2629 131.854 68.7735 135.364 70.9352C139.391 73.4032 143.223 72.9351 145.33 70.9352C145.238 71.8264 145.238 72.7247 145.33 73.616C145.551 76.3478 146.486 80.5009 150.964 82.2626L165.51 75.8968C165.51 75.8968 163.76 74.3564 158.645 73.2415C154.227 72.2798 153.368 68.8756 150.072 65.114Z" fill="#FF3853"/>
<path d="M39.0183 80.118C37.6673 83.0626 34.9144 83.3519 35.5176 91.8794C35.6921 95.2473 35.6921 98.622 35.5176 101.99C31.1165 107.198 27.1387 112.75 23.6221 118.594L33.5804 120.662C33.5804 120.662 43.3432 111.36 45.3655 108.875C47.5067 106.262 47.7701 101.99 47.7701 101.99L57.0146 113.785C57.0146 113.785 46.4276 126.364 42.2301 136.602L53.4544 137.453C53.4544 137.453 52.8172 140.925 55.1538 142.21C57.4904 143.495 61.2205 144.559 61.9598 146.321C61.9598 146.321 63.3617 145.555 61.5009 143.768C59.6401 141.981 54.8989 141.972 54.9924 138.738C55.0858 135.504 64.2879 126.083 68.9866 120.185C73.6854 114.288 71.8586 109.394 68.9866 104.5C66.1147 99.6069 62.1892 90.5603 62.1892 90.5603C62.1892 90.5603 41.4144 74.9776 39.0183 80.118Z" fill="#00AFF9"/>
<path d="M75.4187 52.3398C76.2952 52.8008 77.2906 52.9848 78.2736 52.8674C80.4318 52.4674 81.4939 48.4505 83.0574 49.5739C84.043 50.2802 82.8704 51.8632 83.907 51.9568C84.4593 52.0079 85.7593 50.4079 86.3286 50.2547C86.8979 50.1015 88.3934 50.9866 89.1156 50.9696C90.0423 50.9238 90.9183 50.5321 91.5712 49.8717C91.2483 50.6377 91.1123 51.0717 90.764 51.7441C90.2211 52.6756 89.766 53.6557 89.4045 54.6717C89.0561 55.9567 89.5149 57.2248 89.1666 57.8631C88.7247 58.6375 87.2208 57.761 85.377 58.7737C84.5698 59.2162 82.1142 60.6375 80.9416 59.6248C78.5866 57.6343 76.7006 55.1465 75.4187 52.3398Z" fill="#00AFF9"/>
<path d="M103.45 86.0157C106.186 87.5391 109.262 88.7306 111.479 88.671C113.697 88.6114 116.195 90.3731 117.835 92.756C119.475 95.1389 119.628 98.058 116.713 98.2453C113.799 98.4325 114.054 98.5516 110.553 97.207C107.545 96.0496 102.473 94.2794 98.8276 92.8156L103.45 86.0157Z" fill="#00AFF9"/>
<path d="M125.278 91.522C119.993 92.305 117.028 92.7645 114.13 91.071C111.233 89.3774 110.553 89.854 110.553 90.2199C110.553 90.5859 111.046 91.0709 112.006 91.556C113.107 92.2936 114.053 93.2389 114.793 94.339C116.934 97.1474 117.716 97.7006 120.681 97.19C122.586 96.875 124.506 96.6592 126.434 96.5432C126.434 96.5432 127.105 91.2582 125.278 91.522Z" fill="white"/>
<path d="M105.574 95.3943C105.574 95.3943 105.939 98.0921 111.097 98.2283C116.254 98.3644 108.267 94.3475 105.574 95.3943Z" fill="white"/>
<path d="M103.45 86.0157C102.872 84.0668 98.6065 82.5605 95.9385 79.9818C92.4361 76.4842 89.3431 72.5982 86.7194 68.399C84.8926 65.4119 79.4292 54.8503 74.0932 50.6972C72.7252 49.6334 65.9107 50.2972 65.9107 50.2972C65.9107 50.2972 56.3858 58.2375 48.6197 65.2161C46.2915 67.3012 45.2804 70.2543 43.5641 71.9394C42.0856 73.3862 39.8 73.6415 39.1967 74.4925C34.9993 80.1946 33.7502 83.2413 39.1967 88.5433C43.1477 92.4071 49.6138 90.5092 54.9243 90.3135C56.5217 90.1939 58.1211 90.5178 59.5466 91.2496C61.0335 92.1007 61.7133 94.4156 63.7355 93.9645C66.5395 93.3432 68.1709 82.3392 73.3539 81.1052C76.3023 80.4073 78.6475 83.1477 86.7704 88.1944C89.8807 89.9894 93.1882 91.4174 96.6268 92.4496C96.7126 92.903 96.9275 93.3217 97.2456 93.6554C97.5637 93.9892 97.9714 94.2236 98.4196 94.3305C100.042 94.7985 104.393 89.1901 103.45 86.0157Z" fill="white"/>
<path d="M162.596 114.202C162.596 114.202 162.681 121.513 162.324 123.955C161.967 126.398 157.914 128.892 158.305 131.76C158.696 134.628 157.991 136.457 159.495 136.815C160.999 137.172 162.962 136.968 165.579 130.747C168.196 124.526 167.278 122.909 169.623 115.556C169.623 115.564 166.037 113.436 162.596 114.202Z" fill="white"/>
<path d="M73.0735 81.1648C74.6454 80.7392 71.6291 83.4285 69.4369 83.4626C66.395 83.5137 61.5263 82.9179 57.8132 79.1393C57.8132 79.1393 56.5472 79.8116 50.268 78.0755C44.881 76.5861 45.4928 73.5649 44.881 72.2202C42.5757 75.0407 39.2923 76.8857 35.6875 77.3861L34.9482 75.684C34.9482 75.684 42.5019 73.233 44.7281 68.0246C44.7281 68.0246 45.7307 59.0971 51.5256 54.4078C57.3204 49.7185 62.2231 45.4122 68.0179 50.0845C73.8127 54.7568 74.2206 54.8929 74.0761 56.6631C74.0761 56.6631 81.3749 55.9738 82.1396 60.663C82.1396 60.663 79.2507 57.9141 74.0761 60.3567C74.0761 60.3567 69.029 69.5905 65.4943 73.1224C63.9479 74.65 62.7052 76.4579 61.8322 78.4499C61.8322 78.4499 61.7048 80.8924 68.2303 81.5648C69.8556 81.7178 71.4952 81.5824 73.0735 81.1648Z" fill="#FF3853"/>
<path d="M57.8897 79.1308C57.04 83.386 51.9419 87.7263 51.9419 87.7263L54.0406 88.8497C59.5805 84.0328 60.2773 79.1308 60.2773 79.1308H57.8897Z" fill="#FF3853"/>
<path d="M194.026 106.322C191.596 107.598 188.979 106.322 187.636 107.726C186.294 109.13 184.238 110.917 181.79 111.198C179.173 111.505 181.179 112.475 183.43 112.356C185.682 112.236 177.89 112.781 177.89 115.224C177.89 116.807 180.083 117.36 181.782 117.36C184.467 117.36 177.763 120.287 181.536 122.602C181.536 122.602 176.786 124.611 179.59 127.785C179.59 127.785 175.639 131.564 182.453 131.257C189.268 130.951 190.1 127.479 194.017 128.704C197.934 129.93 206.567 123.726 210.722 127.853L214.121 120.849C214.121 120.849 208.037 123.589 202.132 120.177C202.132 120.177 192.7 121.641 190.236 116.458C187.772 111.275 194.026 106.322 194.026 106.322Z" fill="#422D62"/>
<path d="M182.564 87.2412C182.037 87.437 181.544 105.964 183.685 106.228C185.826 106.492 184.331 102.501 186.549 91.2241C185.034 94.2974 184.128 97.6354 183.881 101.054C183.881 101.054 183.575 96.7985 183.43 92.9603C183.311 89.7689 183.464 86.9093 182.564 87.2412Z" fill="#422D62"/>
<path d="M189.276 89.0199C190.916 88.7901 188.613 99.3006 189.718 95.573C190.89 91.6412 192.556 87.2753 194.476 85.9136L192.437 96.7219C192.437 96.7219 194.986 89.7944 200.084 89.9135C200.084 89.9135 196.065 96.8836 197.628 97.1815C198.198 97.2921 200.305 91.2241 201.996 91.8369C203.687 92.4496 201.868 96.2709 201.868 96.2709C201.868 96.2709 203.423 95.4198 203.466 97.1815C204.095 97.1449 204.726 97.2257 205.327 97.4198C205.51 97.472 205.68 97.5619 205.826 97.6837C205.972 97.8054 206.092 97.9564 206.176 98.127C206.261 98.2976 206.309 98.484 206.318 98.6744C206.327 98.8647 206.296 99.0548 206.227 99.2325C206.167 99.3823 206.075 99.5167 205.956 99.626C205.838 99.7352 205.696 99.8165 205.542 99.8639C205.388 99.9112 205.225 99.9234 205.066 99.8995C204.907 99.8757 204.755 99.8165 204.621 99.7261C204.212 99.3809 203.867 98.966 203.602 98.5006C203.602 98.5006 203.644 100.739 202.752 100.832C201.86 100.926 201.902 99.8708 201.477 99.9218C201.053 99.9729 201.155 103.258 199.515 103.326C197.875 103.394 199.719 99.2155 199.013 99.0708C198.164 98.9006 197.008 103.471 196.091 103.471C194.672 103.471 195.997 100.807 194.858 100.773C193.72 100.739 193.159 105.879 191.035 105.769C189.675 105.709 192.216 97.0283 191.341 96.9006C190.466 96.773 190.083 98.9176 188.596 104.007C187.917 106.347 186.251 105.998 185.648 104.969C184.662 103.403 187.636 89.2497 189.276 89.0199Z" fill="#422D62"/>
<path d="M-124.342 159.461C-132.278 161.776 -84.1772 159.827 -79.7079 169.333C-78.4983 172.228 -76.2614 174.571 -73.4287 175.912C-64.4561 180.788 -40.0022 178.371 -39.8068 182.065C-39.6793 184.933 -64.6005 182.065 -62.7482 190.184C-61.6266 195.188 -47.4539 195.426 -43.265 195.171C-37.0623 194.797 -33.1368 192.167 -29.84 189.827C-23.0935 185.027 -15.3614 187.486 -13.4921 188.022C-6.69463 189.895 0.765572 190.405 7.00224 185.469C14.9468 179.163 43.0118 185.682 52.1204 181.597C50.4314 179.884 48.9718 177.959 47.7785 175.869C44.6929 174.431 41.179 174.212 37.9392 175.257C32.2803 176.959 37.3019 169.146 30.547 168.55C23.792 167.955 22.1691 174.167 18.1416 170.78C15.9069 168.899 20.2063 164.67 23.1207 160.389C25.4489 156.985 25.8312 153.189 23.3417 151.214C20.6057 149.044 16.0429 150.406 12.7376 151.997C9.2794 153.7 6.47545 155.546 5.54079 153.768C3.71397 150.295 2.43945 144.721 -6.41424 146.908C-15.2679 149.095 -20.6549 160.253 -34.1649 164.916C-47.6748 169.58 -75.0601 167.963 -77.6092 158.67C-77.6092 158.67 -84.2707 161.35 -92.759 157.146C-101.247 152.942 -116.474 157.172 -124.342 159.461Z" fill="white"/>
<path d="M18.8978 140.202C15.7115 139.981 11.8709 145.232 15.703 145.691C19.535 146.151 22.9168 140.474 18.8978 140.202Z" fill="white"/>
<path d="M98.2412 154.066C94.9869 154.865 91.4863 152.176 96.9667 150.287C102.447 148.398 102.685 152.968 98.2412 154.066Z" fill="white"/>
<path d="M104.265 149.836C104.265 149.836 109.194 147.359 111.199 144.866C113.204 142.372 118.073 138.551 118.566 141.802C118.566 141.802 126.901 137.13 124.513 142.125C122.126 147.121 131.081 140.074 132.424 141.802C133.766 143.53 129.34 148.142 124.088 147.181C118.837 146.219 109.746 154.746 104.265 149.836Z" fill="#C0EFFF"/>
<path d="M124.777 132.917C122.228 132.713 116.866 137.41 120.826 137.538C124.785 137.666 126.298 133.045 124.777 132.917Z" fill="white"/>
<path d="M112.941 137.547C110.791 136.696 108.956 141.802 110.723 141.802C112.49 141.802 114.734 138.27 112.941 137.547Z" fill="white"/>
<path d="M127.088 129.589C125.575 129.223 125.321 131.036 126.298 131.155C127.275 131.274 128.184 129.845 127.088 129.589Z" fill="white"/>
<path d="M178.664 130.474C180.72 133.343 183.762 131.734 185.758 132.602C187.755 133.47 188.392 134.066 190.083 134.015C193.295 133.921 193.1 131.462 196.031 132.074C203.347 133.606 206.941 130.321 205.76 128.866C204.91 127.768 201.469 129.717 199.506 129.368C196.957 128.917 195.759 127.513 193.227 127.411C191.247 127.334 189.463 129.189 188.18 129.964C186.897 130.738 185.291 127.411 183.77 128.883C180.329 132.16 178.664 130.474 178.664 130.474Z" fill="#C0EFFF"/>
<path d="M191.468 122.909C190.101 122.517 186.863 126.543 189.327 126.687C191.791 126.832 192.658 123.249 191.468 122.909Z" fill="white"/>
<path d="M195.776 117.224C193.975 117.181 193.117 119.828 194.731 119.777C196.346 119.726 197.586 117.266 195.776 117.224Z" fill="white"/>
<path d="M198.903 121.93C196.923 121.573 195.895 124.398 197.849 124.483C199.804 124.568 200.917 122.296 198.903 121.93Z" fill="white"/>
<path d="M103.526 183.767C102.014 183.401 99.7875 186.831 101.929 187.376C104.07 187.92 104.843 184.099 103.526 183.767Z" fill="#FF3853"/>
<path d="M109.083 179.205C108.038 178.84 105.761 183.461 106.857 183.75C107.953 184.039 110.128 179.571 109.083 179.205Z" fill="#FF3853"/>
<path d="M114.079 180.763C113.026 182.329 114.436 183.869 115.481 181.767C116.527 179.665 115.269 178.976 114.079 180.763Z" fill="#FF3853"/>
<path d="M113.476 176.465C114.232 176.797 115.481 174.457 114.479 174.32C113.476 174.184 112.745 176.108 113.476 176.465Z" fill="#FF3853"/>
<path d="M108.692 187.12C106.993 186.712 104.724 191.375 106.916 191.878C109.109 192.38 110.392 187.529 108.692 187.12Z" fill="#FF3853"/>
<path d="M104.223 45.6761C103.212 45.6761 102.787 47.1058 103.586 47.1058C104.384 47.1058 104.911 45.6761 104.223 45.6761Z" fill="#FF3853"/>
<path d="M106.619 49.6164C105.846 49.6164 105.395 51.1824 106.084 51.0632C106.772 50.9441 107.171 49.6164 106.619 49.6164Z" fill="#FF3853"/>
<path d="M110.392 46.5527C109.652 46.3824 109.389 47.4037 109.89 47.5143C110.392 47.625 110.986 46.6888 110.392 46.5527Z" fill="#FF3853"/>
<path d="M105.395 53.1738C104.707 53.0462 104.393 54.1866 105.124 54.2802C105.854 54.3738 106.084 53.31 105.395 53.1738Z" fill="#FF3853"/>
<path d="M111.054 52.7057C110.46 52.7057 110.46 53.6078 111.054 53.7525C111.129 53.762 111.204 53.7556 111.276 53.7336C111.347 53.7117 111.413 53.6747 111.469 53.6252C111.526 53.5757 111.57 53.5147 111.601 53.4464C111.632 53.3781 111.648 53.3041 111.648 53.2291C111.648 53.1542 111.632 53.0801 111.601 53.0118C111.57 52.9435 111.526 52.8826 111.469 52.8331C111.413 52.7836 111.347 52.7466 111.276 52.7246C111.204 52.7027 111.129 52.6962 111.054 52.7057Z" fill="#FF3853"/>
<path d="M116.076 49.6164C115.439 49.6164 115.345 50.6377 115.753 50.6717C116.339 50.7143 116.713 49.6164 116.076 49.6164Z" fill="#FF3853"/>
<path d="M116.339 55.6078C115.541 55.5652 115.396 57.0716 116.339 57.0716C117.283 57.0716 117.189 55.6503 116.339 55.6078Z" fill="#FF3853"/>
<path d="M122.874 52.0419C122.236 51.5823 120.325 52.7738 121.276 53.4631C122.228 54.1525 123.511 52.5015 122.874 52.0419Z" fill="#FF3853"/>
<path d="M124.879 60.1779C123.681 59.7013 122.958 60.7226 123.876 61.0885C124.794 61.4545 125.796 60.5439 124.879 60.1779Z" fill="#FF3853"/>
<path d="M119.279 63.1055C118.353 62.6715 117.767 64.3395 118.769 64.5693C118.963 64.637 119.176 64.6249 119.361 64.5355C119.546 64.4461 119.688 64.2868 119.755 64.0927C119.823 63.8986 119.811 63.6856 119.721 63.5004C119.632 63.3153 119.473 63.1732 119.279 63.1055Z" fill="#FF3853"/>
<path d="M130.674 56.595C129.561 56.195 129.076 57.9822 130.266 58.0759C130.462 58.13 130.671 58.104 130.848 58.0034C131.025 57.9029 131.155 57.7361 131.209 57.5397C131.263 57.3433 131.237 57.1335 131.137 56.9563C131.036 56.7792 130.87 56.6492 130.674 56.595Z" fill="#FF3853"/>
<path d="M183.388 33.5997C182.768 33.5572 182.411 34.5784 183.065 34.5359C183.719 34.4933 184.008 33.6423 183.388 33.5997Z" fill="#FF3853"/>
<path d="M182.224 37.0465C181.569 36.9699 181.586 38.0252 182.224 38.1017C182.363 38.1017 182.497 38.0462 182.596 37.9472C182.695 37.8483 182.75 37.714 182.75 37.5741C182.75 37.4342 182.695 37.3 182.596 37.201C182.497 37.102 182.363 37.0465 182.224 37.0465Z" fill="#FF3853"/>
<path d="M183.736 36.1529C183.456 36.1529 183.49 36.7911 183.736 36.7486C183.983 36.706 184.017 36.1614 183.736 36.1529Z" fill="#FF3853"/>
<path d="M186.863 36.5358C186.659 36.0422 185.47 36.7146 185.742 37.106C186.013 37.4975 187.067 37.1145 186.863 36.5358Z" fill="#FF3853"/>
<path d="M186.702 33.5912C186.132 33.3614 185.504 34.2805 186.277 34.3656C187.05 34.4507 186.999 33.7188 186.702 33.5912Z" fill="#FF3853"/>
<path d="M191.443 36.8422C190.729 36.6124 190.049 37.6422 190.967 37.889C191.885 38.1358 191.876 36.9784 191.443 36.8422Z" fill="#FF3853"/>
<path d="M194.204 33.1316C193.473 33.1316 192.998 34.1103 193.949 34.0763C194.901 34.0422 194.774 33.1316 194.204 33.1316Z" fill="#FF3853"/>
<path d="M188.18 38.7826C187.653 38.7826 187.815 39.2677 188.18 39.3102C188.545 39.3528 188.469 38.7826 188.18 38.7826Z" fill="#FF3853"/>
<path d="M4.30013 126.526C3.99424 125.938 2.26089 127.053 3.11057 127.572C3.96025 128.092 4.50405 126.917 4.30013 126.526Z" fill="#FF3853"/>
<path d="M6.78966 125.989C6.17789 125.989 5.889 127.164 6.56025 127.147C7.2315 127.13 7.2315 125.998 6.78966 125.989Z" fill="#FF3853"/>
<path d="M5.75305 129.198C6.29685 129.666 5.3367 130.619 4.66545 130.143C4.22362 129.836 5.03082 128.611 5.75305 129.198Z" fill="#FF3853"/>
<path d="M8.26827 128.551C7.76696 128.551 7.62251 129.53 8.26827 129.402C8.91403 129.274 8.97351 128.568 8.26827 128.551Z" fill="#FF3853"/>
<path d="M10.129 125.819C9.44075 125.436 8.42963 127.258 9.43225 127.36C10.4349 127.462 10.6983 126.151 10.129 125.819Z" fill="#FF3853"/>
</g>
</svg>
