<svg width="373" height="246" viewBox="0 0 373 246" fill="none" xmlns="http://www.w3.org/2000/svg">
    <rect width="372.101" height="245.014" transform="translate(0.0478516 0.963867)" fill="white"/>
    <rect x="151.311" y="86.4395" width="156.424" height="152.808" transform="rotate(-29.2602 151.311 86.4395)" fill="#C0EFFF"/>
    <circle cx="125.036" cy="115.022" r="100.964" fill="#CFF0FF"/>
    <path d="M163.461 135.687C163.108 135.687 162.826 135.405 162.756 135.053C162.685 134.7 162.967 134.348 163.39 134.277C163.461 134.277 168.044 133.713 171.922 133.502C176.716 133.29 180.171 131.528 182.074 128.496C184.542 124.336 183.908 117.99 180.171 110.094C174.953 99.095 171.005 90.0703 171.71 83.2313C172.133 79.565 173.896 76.6743 176.787 74.8411C180.946 72.3029 187.01 72.2324 193.426 74.7001C193.778 74.8411 193.99 75.2642 193.849 75.6167C193.708 75.9692 193.285 76.1807 192.932 76.0397C187.01 73.7835 181.299 73.7835 177.562 76.0397C175.024 77.5908 173.473 80.129 173.12 83.3723C172.415 89.8588 176.434 99.0245 181.44 109.459C185.388 117.779 186.023 124.618 183.273 129.201C181.158 132.656 177.28 134.63 171.992 134.912C168.185 135.123 163.602 135.617 163.461 135.687C163.531 135.687 163.531 135.687 163.461 135.687Z" fill="#1EAEF7"/>
    <path d="M269.252 83.1355C268.97 83.1355 268.688 82.924 268.688 82.642C268.618 82.2895 268.9 82.0074 269.182 81.9369C269.323 81.9369 281.732 80.1038 287.09 71.0791C287.443 70.5151 287.795 69.81 288.148 69.1049C283.776 67.6243 280.745 65.0156 279.335 62.4069C278.066 60.0803 277.925 57.5421 278.771 55.1449C279.546 53.0297 281.097 51.4081 282.93 50.703C284.693 50.0685 286.526 50.2095 288.148 51.1966C290.263 52.4657 291.673 54.9334 292.096 57.8946C292.519 61.1378 291.321 65.0861 289.84 68.3999C292.59 69.1755 295.762 69.528 299.429 69.246C312.261 68.2589 316.491 63.3235 320.862 58.1061C325.868 52.1836 331.086 46.0497 349.558 46.4022C349.911 46.4022 350.122 46.6842 350.122 47.0367C350.122 47.3893 349.911 47.6713 349.488 47.6008C331.65 47.2483 326.855 52.8887 321.779 58.8817C317.408 64.0286 312.825 69.387 299.499 70.4445C295.621 70.7266 292.237 70.374 289.346 69.528C288.923 70.3035 288.571 71.0791 288.148 71.7136C282.507 81.2319 269.957 83.065 269.393 83.1355C269.323 83.1355 269.323 83.1355 269.252 83.1355ZM285.046 51.4786C284.482 51.4786 283.917 51.5491 283.353 51.8311C281.873 52.3952 280.533 53.8053 279.899 55.5679C279.123 57.6126 279.335 59.8687 280.392 61.8429C281.732 64.3106 284.552 66.6373 288.712 68.0474C290.122 64.8746 291.25 61.0673 290.898 58.0356C290.545 55.4269 289.346 53.3117 287.584 52.1836C286.738 51.7606 285.892 51.4786 285.046 51.4786Z" fill="#1EAEF7"/>
    <path d="M160.077 86.8281H66.516L62.5677 91.834L67.5736 164.243L165.506 147.745C165.576 147.745 166.422 106.358 160.077 86.8281Z" fill="#0062BA"/>
    <path d="M75.1881 92.6085L154.507 90.7754L159.936 142.526L79.4184 154.301L75.1881 92.6085Z" fill="white"/>
    <path d="M106.775 155.359C106.14 156.769 105.717 158.32 105.435 159.8C105.223 161.21 105.223 162.48 104.518 163.749C104.025 164.665 103.179 165.441 102.262 166.005C100.359 167.203 98.2435 167.838 96.1988 168.825C95.0707 169.389 93.9426 170.094 93.0261 171.011C92.18 171.927 91.8274 172.703 91.5454 173.901C93.026 174.677 94.4361 175.453 95.9168 176.228C96.9038 176.722 97.8909 177.286 98.8075 177.779C99.019 177.85 99.8651 178.484 100.077 178.414C100.782 178.202 101.557 177.991 102.262 177.779C105.788 176.722 109.383 175.664 112.909 174.606C117.985 173.126 122.991 171.645 128.067 170.094C133.003 168.614 137.938 167.133 142.873 165.723C145.835 164.806 148.937 164.242 151.757 162.973C152.251 162.762 153.238 162.55 153.167 161.845C153.167 161.281 152.462 160.858 152.11 160.576C151.264 160.012 150.347 159.589 149.43 159.236C147.104 158.32 144.566 158.108 142.098 158.179C132.65 158.39 134.695 147.814 134.695 147.814C131.522 148.59 128.279 149.436 125.106 150.212C119.959 151.481 114.812 152.82 109.736 154.089C108.749 154.301 107.198 154.371 106.775 155.359Z" fill="#0062BA"/>
    <path d="M103.884 186.029V193.079L141.04 200.553L207.245 175.876V171.152L179.325 163.114L103.884 186.029Z" fill="#0062BA"/>
    <path d="M103.884 186.028V193.079L141.04 200.552C141.04 199.636 141.322 198.085 140.97 197.309C140.547 196.463 139.066 196.393 138.291 196.181C137.092 195.829 135.823 195.476 134.624 195.124C130.394 193.854 126.164 192.656 121.933 191.387C117.774 190.188 113.614 188.919 109.524 187.72C107.621 187.156 105.717 186.592 103.884 186.028Z" fill="#3F3161"/>
    <path d="M155.846 193.502C154.154 192.585 152.462 191.598 150.77 190.682C149.642 190.047 148.514 189.413 147.456 188.566C146.751 188.073 145.13 187.227 145.835 186.24C146.117 185.817 146.681 185.605 147.104 185.323C152.251 182.997 158.032 181.022 163.249 178.978C165.929 177.92 168.608 176.933 171.287 176.016C172.627 175.523 173.966 175.1 175.306 174.606C177.21 173.972 178.338 173.901 180.241 174.536C181.933 175.1 183.767 175.805 185.247 176.792C186.446 177.568 187.785 178.343 188.49 179.612C189.054 180.529 189.195 181.798 188.561 182.644C188.138 183.349 187.292 183.702 186.587 184.054C181.44 186.381 176.081 188.214 170.723 189.836C170.159 190.047 169.454 190.188 168.89 189.977C168.114 189.624 167.973 189.554 167.127 189.836C166.281 190.118 165.365 190.4 164.519 190.682C163.038 191.175 161.557 191.669 160.077 192.092C159.019 192.444 158.032 192.797 156.974 193.079C156.692 193.22 156.128 193.572 155.846 193.502Z" fill="#3F3161"/>
    <path d="M84.7064 145.277C84.5654 145.277 84.3539 145.206 84.2834 145.136C84.1424 144.995 84.0718 144.854 84.0013 144.642L83.5078 132.515C83.5078 132.163 83.7898 131.81 84.1423 131.81L151.123 124.971L150.135 118.344L83.7898 123.491C83.5783 123.491 83.4373 123.42 83.2963 123.35C83.1553 123.209 83.0848 123.068 83.0848 122.856L82.4502 110.8C82.4502 110.377 82.7322 110.095 83.0848 110.024L149.148 106.358L148.091 98.6728L76.0342 100.294H75.6817L75.6112 98.8843H76.3163L148.725 97.2627C149.078 97.2627 149.36 97.5447 149.43 97.8972L150.7 106.992C150.7 107.204 150.7 107.415 150.558 107.556C150.417 107.697 150.276 107.768 150.065 107.839L83.9308 111.505L84.4949 122.151L150.77 117.004C151.123 117.004 151.475 117.216 151.546 117.568L152.744 125.535C152.744 125.747 152.744 125.888 152.603 126.099C152.462 126.24 152.321 126.381 152.11 126.381L85.0589 133.22L85.482 143.937L158.808 134.842L159.09 134.772L159.231 136.182L84.8474 145.418C84.7769 145.277 84.7769 145.277 84.7064 145.277Z" fill="#1EAEF7"/>
    <rect x="193.893" y="75.5908" width="112.873" height="68.5658" rx="1.87782" transform="rotate(-0.230705 193.893 75.5908)" fill="white"/>
    <path d="M217.928 87.4747C239.638 78.286 266.562 92.4813 289.807 87.4747" stroke="#0062BA" stroke-width="1.12669" stroke-linecap="round"/>
    <path d="M221.442 110.41C243.153 101.222 270.077 115.417 293.321 110.41" stroke="#0062BA" stroke-width="1.12669" stroke-linecap="round"/>
    <path d="M221.442 131.654C243.153 122.466 270.077 136.661 293.321 131.654" stroke="#0062BA" stroke-width="1.12669" stroke-linecap="round"/>
    <path d="M209.73 90.532C210.179 85.1481 209.73 82.562 209.73 81.5587C209.73 80.5555 205.805 83.5217 205.805 83.5217M208.048 103.712C210.457 100.649 215.404 101.39 215.9 103.712C216.395 106.034 211.386 110.22 208.048 111.844C204.709 113.468 215.9 111.844 215.9 111.844M209.73 121.98C213.729 121.088 214.853 121.001 215.572 122.782C216.291 124.564 210.762 126.245 213.047 126.414C215.332 126.582 217.218 126.83 217.714 129.214C218.211 131.598 217.973 132.528 215.572 133.648C213.171 134.769 209.283 132.325 208.963 130.498" stroke="#0062BA" stroke-width="1.12669" stroke-linecap="round"/>
</svg>