<svg width="377" height="226" viewBox="0 0 377 226" fill="none" xmlns="http://www.w3.org/2000/svg">
    <g clip-path="url(#clip0_14027_3178)">
        <rect width="376" height="225" transform="translate(0.779297 0.0410156)" fill="white"/>
        <rect x="36.043" y="85.0488" width="234.767" height="216.887" transform="rotate(-29.2602 36.043 85.0488)" fill="#1EAEF7"/>
        <path d="M203.228 163.072L204.542 187.054L190.09 184.799L187.582 164.507L203.228 163.072Z" fill="#0062BA"/>
        <path d="M302.396 36.7135C266.357 34.8689 100.308 26.2607 96.0413 26.0557C91.3258 25.8508 90.0909 27.2855 89.754 30.7697C88.8559 40.0953 86.1613 64.895 83.8036 88.9774C81.5582 112.445 79.8741 138.372 80.211 148.312C80.3232 152.104 84.2527 153.129 84.2527 153.129C84.2527 153.129 283.872 179.568 287.464 180.081C291.057 180.491 293.751 179.876 295.548 178.031C297.344 176.186 299.814 173.42 302.284 169.833C306.775 158.663 308.347 139.294 311.827 113.47C316.206 81.4965 312.389 54.0323 310.255 42.6572C309.806 39.0705 306.775 36.9184 302.396 36.7135ZM284.77 164.401L95.4799 141.651L103.002 38.763L295.436 51.0604L284.77 164.401Z" fill="#C0EFFF"/>
        <path d="M164.969 159.647L165.958 186.505L197.004 190.48L195.891 159.862L164.969 159.647Z" fill="#C0EFFF"/>
        <path d="M226.133 198.98C224.885 198.771 136.701 187.159 136.701 187.159L137.382 173.351C137.382 173.351 218.643 184.126 224.317 184.858C229.992 185.59 233.283 189.042 233.283 189.042C233.283 189.042 234.532 190.402 235.893 191.867C236.915 192.913 236.688 193.749 235.893 194.272C235.326 194.691 231.581 196.992 229.538 198.352C228.743 198.875 227.495 199.189 226.133 198.98Z" fill="#C0EFFF"/>
        <path d="M266.607 134.562L258.369 132.414L260.157 139.902L262.648 137.813L264.755 139.496L266.288 138.219L264.308 136.477L266.607 134.562Z" fill="white"/>
        <path d="M104.577 34.2559L294.198 48.0206L280.232 161.314L93.8067 143.349L104.577 34.2559Z" fill="#0062BA"/>
        <path d="M174.13 52.5528L206.858 55.7456L206.621 90.3059L173.25 87.6804L174.13 52.5528Z" fill="white"/>
        <path d="M119.761 94.7114L152.496 97.8433L152.337 132.404L118.959 129.84L119.761 94.7114Z" fill="white"/>
        <path d="M219.096 56.3888L255.538 58.9689L254.959 93.998L218.026 91.1632L219.096 56.3888Z" fill="white"/>
        <path d="M164.735 98.464L201.182 100.976L200.682 136.007L163.742 133.24L164.735 98.464Z" fill="white"/>
        <path d="M121.177 43.357L162.285 47.1645L160.631 91.4549L120.163 85.9833L121.177 43.357Z" fill="white"/>
        <path d="M212.623 95.3752L253.828 98.1693L253.495 142.484L212.879 138.011L212.623 95.3752Z" fill="white"/>
        <path d="M124.815 83.2391C124.815 83.2391 125.671 57.7304 126.118 57.6509C126.565 57.5715 147.181 60.9547 147.181 60.9547M124.815 83.2391C125.922 83.7711 145.921 85.7088 145.921 85.7088M124.815 83.2391C124.815 83.2391 135.043 75.3025 135.082 74.839C135.12 74.3755 145.921 85.7088 145.921 85.7088M147.181 60.9547C147.181 60.9547 146.244 85.4446 145.921 85.7088M147.181 60.9547C147.181 60.9547 196.453 67.4198 199.518 65.5375C202.583 63.6552 198.87 93.3271 199.538 94.3867C200.205 95.4462 176.579 92.2341 176.579 92.2341C176.579 92.2341 174.713 76.7968 176.567 74.8672C178.421 72.9376 232.245 79.7804 237.646 80.736C243.047 81.6915 220.773 94.4011 222.928 94.4026C225.083 94.404 227.835 96.0209 246.103 95.9142C264.372 95.8075 266.207 145.046 242.022 144.848C226.274 110.193 164.712 131.925 180.064 120.872C195.415 109.819 120.343 124.833 126.168 130.665C131.994 136.498 132.009 159.305 132.009 159.305M128.675 63.3584C128.675 63.3584 127.712 69.3929 128.378 69.1993C129.044 69.0056 133.285 69.4492 133.285 69.4492C133.285 69.4492 133.559 64.0599 133.582 63.6083C133.605 63.1568 128.675 63.3584 128.675 63.3584ZM138.864 66.6659C139.415 69.52 138.651 65.1885 139.006 63.8846C139.36 62.5807 142.266 62.6271 142.738 66.8632C143.226 68.8016 143.163 69.6766 140.774 69.8306C138.865 69.6548 138.313 63.8118 138.864 66.6659Z" stroke="#C0EFFF" stroke-width="1.5" stroke-linecap="round"/>
    </g>
    <defs>
        <clipPath id="clip0_14027_3178">
            <rect width="376" height="225" fill="white" transform="translate(0.779297 0.0410156)"/>
        </clipPath>
    </defs>
</svg>