<svg width="400" height="400" viewBox="0 0 400 400" fill="none" xmlns="http://www.w3.org/2000/svg">
    <g clip-path="url(#clip0_9580_81634)">
        <path d="M233.658 226.603H140.278C139.614 226.603 139.033 226.022 139.033 225.358V59.5974C139.033 58.9334 139.614 58.3524 140.278 58.3524H233.658C234.322 58.3524 234.903 58.9334 234.903 59.5974V145.175C234.903 145.839 234.322 146.42 233.658 146.42C232.994 146.42 232.413 145.839 232.413 145.175V60.8425H141.523V224.113H232.413V163.021C232.413 162.357 232.994 161.776 233.658 161.776C234.322 161.776 234.903 162.357 234.903 163.021V225.358C234.903 226.022 234.405 226.603 233.658 226.603Z" fill="#0062BA"/>
        <path d="M372.774 201.204H252.749C252.085 201.204 251.504 200.623 251.504 199.959C251.504 199.294 252.085 198.713 252.749 198.713H371.529V2.90518H253.995V154.223C253.995 154.887 253.414 155.468 252.749 155.468H160.282C159.618 155.468 159.037 154.887 159.037 154.223C159.037 153.559 159.618 152.978 160.282 152.978H251.504V1.66011C251.504 0.996072 252.085 0.415039 252.749 0.415039H372.774C373.438 0.415039 374.019 0.996072 374.019 1.66011V199.959C374.019 200.706 373.521 201.204 372.774 201.204Z" fill="#0062BA"/>
        <path d="M371.944 296.825H290.351C289.687 296.825 289.106 296.244 289.106 295.58V276.655C289.106 275.991 289.687 275.41 290.351 275.41H396.846V226.603H317.908C317.244 226.603 316.663 226.022 316.663 225.358V143.681C308.861 143.515 301.805 142.851 297.406 139.78C294.003 137.456 291.762 133.638 291.181 129.487C290.683 125.752 291.679 122.183 294.003 119.527C296.493 116.539 301.888 114.63 307.284 116.622C311.6 118.199 318.821 123.511 319.153 141.191C319.734 141.191 320.315 141.191 320.814 141.191H354.513V102.677H269.849C269.185 102.677 268.604 102.096 268.604 101.432V83.0878C268.604 82.4237 269.185 81.8427 269.849 81.8427H355.842C356.506 81.8427 357.087 82.4237 357.087 83.0878C357.087 83.7518 356.506 84.3329 355.842 84.3329H271.094V100.187H355.842C356.506 100.187 357.087 100.768 357.087 101.432V142.436C357.087 143.1 356.506 143.681 355.842 143.681H320.897C320.315 143.681 319.734 143.681 319.236 143.681V224.113H398.174C398.838 224.113 399.419 224.694 399.419 225.358V276.738C399.419 277.402 398.838 277.983 398.174 277.983H291.679V294.418H372.027C372.691 294.418 373.273 294.999 373.273 295.663C373.273 296.327 372.691 296.825 371.944 296.825ZM302.884 118.282C299.979 118.282 297.323 119.527 295.995 121.104C294.169 123.262 293.422 126.084 293.754 129.155C294.169 132.642 296.078 135.713 298.9 137.705C302.718 140.361 309.525 141.025 316.746 141.108C316.58 134.717 315.501 129.487 313.509 125.586C311.766 122.266 309.359 119.942 306.537 118.946C305.292 118.531 304.047 118.282 302.884 118.282Z" fill="#0062BA"/>
        <path d="M398.174 325.379H263.789C263.125 325.379 262.544 324.798 262.544 324.134V225.358C262.544 224.694 263.125 224.113 263.789 224.113H307.035C307.699 224.113 308.28 224.694 308.28 225.358C308.28 226.022 307.699 226.603 307.035 226.603H265.034V322.889H396.929V286.948C396.929 286.283 397.51 285.702 398.174 285.702C398.838 285.702 399.419 286.283 399.419 286.948V324.134C399.419 324.798 398.838 325.379 398.174 325.379Z" fill="#0062BA"/>
        <path d="M355.925 65.8228H269.849C269.185 65.8228 268.604 65.2417 268.604 64.5777C268.604 63.9137 269.185 63.3326 269.849 63.3326H355.842C356.506 63.3326 357.087 63.9137 357.087 64.5777C357.087 65.2417 356.589 65.8228 355.925 65.8228Z" fill="#0062BA"/>
        <path d="M213.156 97.6966H160.282C159.618 97.6966 159.037 97.1156 159.037 96.4516C159.037 95.7875 159.618 95.2065 160.282 95.2065H213.156C213.82 95.2065 214.401 95.7875 214.401 96.4516C214.401 97.1156 213.82 97.6966 213.156 97.6966Z" fill="#0062BA"/>
        <path d="M213.156 116.373H160.282C159.618 116.373 159.037 115.792 159.037 115.128C159.037 114.464 159.618 113.883 160.282 113.883H213.156C213.82 113.883 214.401 114.464 214.401 115.128C214.401 115.792 213.82 116.373 213.156 116.373Z" fill="#0062BA"/>
        <path d="M213.156 135.879H160.282C159.618 135.879 159.037 135.298 159.037 134.634C159.037 133.97 159.618 133.389 160.282 133.389H213.156C213.82 133.389 214.401 133.97 214.401 134.634C214.401 135.298 213.82 135.879 213.156 135.879Z" fill="#0062BA"/>
        <path d="M113.717 159.037C113.717 159.037 120.025 132.891 126.582 125.752C130.899 121.021 134.136 113.052 137.373 107.491C139.033 104.669 139.614 101.017 142.602 101.598C151.567 103.341 139.448 127.578 139.448 127.578L139.116 168.998L126.001 178.792L113.717 159.037Z" fill="#CFF0FF"/>
        <path d="M33.036 199.377C33.036 199.377 7.38748 246.109 2.15818 259.722C-3.15412 273.335 2.90522 343.557 22.9094 372.442C33.119 387.134 18.0121 400 37.2692 400C56.5263 400 149.243 400 149.243 400C149.243 400 154.223 395.933 157.543 381.49C159.867 371.28 157.543 350.944 157.543 350.944C157.543 350.944 210.334 296.244 212.575 284.955C214.816 273.667 194.065 239.718 177.547 249.927C161.029 260.137 134.468 274.414 134.468 274.414L132.559 250.259C132.559 250.259 156.547 241.295 157.709 226.52C157.709 226.52 142.27 226.354 141.025 226.354C139.78 226.354 139.033 225.441 139.033 223.947C139.033 222.453 139.116 168.915 139.116 168.915C139.116 168.915 124.59 172.899 113.717 158.954L106.495 185.35L57.9374 178.211L33.036 199.377Z" fill="#0062BA"/>
        <path d="M26.8105 220.461C26.8105 220.461 35.941 237.228 55.8622 238.058C75.7833 238.888 75.2853 210.417 75.2853 210.417C75.2853 210.417 88.234 202.532 91.1392 194.148C94.0444 185.765 94.2104 174.393 96.6175 171.239C99.0246 168.002 104.669 163.436 104.918 159.037C105.25 154.638 96.1195 155.219 89.3131 142.934C82.5067 130.649 73.4592 119.444 73.4592 119.444L32.6208 137.622L21.7472 194.231C21.8302 194.148 26.8105 209.587 26.8105 220.461Z" fill="#CFF0FF"/>
        <path d="M24.8184 205.105C24.8184 205.105 32.3718 210.5 40.5063 214.733C48.6407 218.967 60.6764 210.085 52.791 194.148C44.9055 178.211 44.4075 166.923 52.542 166.176C60.6764 165.428 59.2654 176.551 66.2378 173.812C70.969 171.986 70.222 165.013 70.222 155.219C70.222 145.424 86.2419 137.124 85.7439 124.59C85.2458 112.056 70.886 101.349 57.6883 105.333C57.6883 105.333 37.2691 97.9456 20.0871 118.116C2.90511 138.286 -0.166069 154.14 0.331959 167.587C1.16201 190.911 20.1701 202.034 24.8184 205.105Z" fill="#0062BA"/>
        <path d="M192.82 253.58C192.82 253.58 197.136 249.678 201.453 241.544C207.678 230.089 211.745 205.935 220.378 205.935C229.01 205.935 221.125 226.354 221.125 226.354C221.125 226.354 231.417 226.354 232.579 226.354C233.741 226.354 234.904 225.524 234.904 224.113C234.904 222.702 234.904 220.71 234.904 218.552C234.904 208.342 234.904 195.642 234.904 195.642C234.904 195.642 239.967 196.389 242.291 205.686C244.615 215.065 245.196 222.204 247.603 231.085C250.259 241.129 240.714 249.263 229.757 260.552C218.801 271.841 202.366 282.797 202.366 282.797L192.82 253.58Z" fill="#CFF0FF"/>
        <path d="M371.944 259.39H290.268C289.604 259.39 289.023 258.809 289.023 258.145C289.023 257.481 289.604 256.9 290.268 256.9H371.944C372.609 256.9 373.19 257.481 373.19 258.145C373.19 258.809 372.692 259.39 371.944 259.39Z" fill="#0062BA"/>
    </g>
    <defs>
        <clipPath id="clip0_9580_81634">
            <rect width="400" height="400" fill="white"/>
        </clipPath>
    </defs>
</svg>