<?xml version="1.0" encoding="UTF-8"?>
<svg width="7px" height="7px" viewBox="0 0 7 7" version="1.1" xmlns="http://www.w3.org/2000/svg" xmlns:xlink="http://www.w3.org/1999/xlink">
    <!-- Generator: Sketch 40.1 (33804) - http://www.bohemiancoding.com/sketch -->
    <title>disabled-background</title>
    <desc>Created with Sketch.</desc>
    <defs>
        <polyline id="path-1" points="6.986 0 6.986 6.986 0 6.986 0 0"></polyline>
        <polyline id="path-3" points="6.986 0 6.986 6.986 0 6.986 0 0"></polyline>
        <polyline id="path-5" points="6.986 0 6.986 6.986 0 6.986 0 0"></polyline>
        <polyline id="path-7" points="6.986 0 6.986 6.986 0 6.986 0 0"></polyline>
    </defs>
    <g id="Page-1" stroke="none" stroke-width="1" fill="none" fill-rule="evenodd">
        <g id="disabled-background">
            <g id="Group">
                <g id="Clipped">
                    <mask id="mask-2" fill="white">
                        <use xlink:href="#path-1"></use>
                    </mask>
                    <g id="SVGID_1_"></g>
                    <g id="Group" mask="url(#mask-2)">
                        <g transform="translate(1.000000, 3.000000)">
                            <rect id="Rectangle-path" x="0.608" y="0.31" width="6.986" height="6.986"></rect>
                            <g id="Group" stroke-width="1" fill-rule="evenodd">
                                <polygon id="Shape" points="0.608 0.31 7.594 0.31 7.594 7.296 0.608 7.296"></polygon>
                                <polygon id="Shape" fill="#D4F9E4" points="0.608 0.31 0.608 3.845 4.143 0.31"></polygon>
                                <polygon id="Shape" fill="#D4F9E4" points="7.594 0.372 0.67 7.296 4.205 7.296 7.594 3.907"></polygon>
                            </g>
                        </g>
                    </g>
                </g>
                <g id="Clipped">
                    <mask id="mask-4" fill="white">
                        <use xlink:href="#path-3"></use>
                    </mask>
                    <g id="SVGID_1_"></g>
                    <g id="Group" mask="url(#mask-4)">
                        <g transform="translate(1.000000, -4.000000)">
                            <rect id="Rectangle-path" x="0.608" y="0.324" width="6.986" height="6.986"></rect>
                            <g id="Group" stroke-width="1" fill-rule="evenodd">
                                <polygon id="Shape" points="0.608 0.324 7.594 0.324 7.594 7.31 0.608 7.31"></polygon>
                                <polygon id="Shape" fill="#D4F9E4" points="7.594 0.386 0.67 7.31 4.205 7.31 7.594 3.921"></polygon>
                            </g>
                        </g>
                    </g>
                </g>
                <g id="Clipped">
                    <mask id="mask-6" fill="white">
                        <use xlink:href="#path-5"></use>
                    </mask>
                    <g id="SVGID_1_"></g>
                    <g id="Group" mask="url(#mask-6)">
                        <g transform="translate(-6.000000, 3.000000)">
                            <rect id="Rectangle-path" x="0.622" y="0.31" width="6.986" height="6.986"></rect>
                            <g id="Group" stroke-width="1" fill-rule="evenodd">
                                <polygon id="Shape" points="0.622 0.31 7.608 0.31 7.608 7.296 0.622 7.296"></polygon>
                                <polygon id="Shape" fill="#D4F9E4" points="7.608 0.372 0.684 7.296 4.219 7.296 7.608 3.907"></polygon>
                            </g>
                        </g>
                    </g>
                </g>
                <g id="Clipped">
                    <mask id="mask-8" fill="white">
                        <use xlink:href="#path-7"></use>
                    </mask>
                    <g id="SVGID_1_"></g>
                    <g id="Group" mask="url(#mask-8)">
                        <g transform="translate(-6.000000, -4.000000)">
                            <rect id="Rectangle-path" x="0.622" y="0.324" width="6.986" height="6.986"></rect>
                            <g id="Group" stroke-width="1" fill-rule="evenodd">
                                <polygon id="Shape" points="0.622 0.324 7.608 0.324 7.608 7.31 0.622 7.31"></polygon>
                                <polygon id="Shape" fill="#D4F9E4" points="7.608 0.386 0.684 7.31 4.219 7.31 7.608 3.921"></polygon>
                            </g>
                        </g>
                    </g>
                </g>
            </g>
        </g>
    </g>
</svg>