<svg width="115" height="28" viewBox="0 0 115 28" fill="none" xmlns="http://www.w3.org/2000/svg">
<path d="M15.0011 0H1.07226C0.920488 0 0.774931 0.05962 0.667612 0.165744C0.560292 0.271868 0.5 0.415803 0.5 0.565885V27.4341C0.5 27.5842 0.560292 27.7281 0.667612 27.8343C0.774931 27.9404 0.920488 28 1.07226 28H15.0011C18.6848 27.8964 22.1825 26.3766 24.751 23.7634C27.3195 21.1503 28.7564 17.6498 28.7564 14.0057C28.7564 10.3615 27.3195 6.86104 24.751 4.2479C22.1825 1.63475 18.6848 0.114919 15.0011 0.011318V0ZM16.3631 23.7785C14.2556 24.1371 12.0874 23.8232 10.1724 22.8821C8.25745 21.941 6.69508 20.4216 5.71155 18.5439C4.72803 16.6662 4.3744 14.5277 4.70187 12.438C5.02935 10.3483 6.02093 8.41598 7.53304 6.92072C9.04515 5.42546 10.9993 4.44493 13.1125 4.1211C15.2257 3.79727 17.3883 4.14696 19.2872 5.11953C21.186 6.0921 22.7225 7.63706 23.6742 9.53071C24.626 11.4244 24.9435 13.5684 24.5808 15.6524C24.2278 17.6804 23.2482 19.5506 21.7767 21.0057C20.3052 22.4608 18.414 23.4295 16.3631 23.7785Z" fill="#022F51"/>
<path d="M47.8833 4.07429H51.6716C51.7353 4.05694 51.8025 4.05694 51.8662 4.07429L58.5159 23.7218C58.5159 23.869 58.5159 23.9482 58.3671 23.9482H55.3685C55.3112 23.9482 55.254 23.9482 55.2197 23.8124L53.9149 19.7606H45.1021C45.0653 19.761 45.0292 19.7504 44.9986 19.7302C44.968 19.71 44.9442 19.6812 44.9304 19.6475L43.6028 23.7105C43.6028 23.869 43.5608 23.9482 43.4769 23.9482H41.1077C40.9856 23.9482 40.936 23.9029 40.9589 23.8124L47.7116 4.16483C47.7297 4.13617 47.755 4.11271 47.7852 4.09682C47.8153 4.08092 47.8491 4.07315 47.8833 4.07429ZM45.9147 17.4065H53.0107C53.1252 17.4065 53.1633 17.3575 53.1252 17.2594L49.7832 6.90372C49.761 6.84123 49.7188 6.78757 49.6631 6.75083C49.6073 6.71409 49.541 6.69625 49.4742 6.7C49.3254 6.7 49.2338 6.7 49.188 6.81317L45.7545 17.1576C45.7392 17.3236 45.7926 17.4065 45.9147 17.4065Z" fill="#022F51"/>
<path d="M64.0095 4.21005V23.8576C64.0112 23.8759 64.0089 23.8943 64.0026 23.9116C63.9964 23.9288 63.9863 23.9445 63.9732 23.9575C63.96 23.9705 63.9442 23.9804 63.9267 23.9866C63.9092 23.9928 63.8906 23.9952 63.8721 23.9934H61.4343C61.4153 23.995 61.3962 23.9926 61.3782 23.9865C61.3602 23.9804 61.3437 23.9706 61.3297 23.9579C61.3157 23.9451 61.3046 23.9296 61.297 23.9123C61.2894 23.8951 61.2855 23.8764 61.2855 23.8576V4.21005C61.2855 4.11951 61.2855 4.07424 61.4343 4.07424H63.8607C63.88 4.07058 63.9 4.07146 63.9189 4.07681C63.9378 4.08216 63.9552 4.09183 63.9697 4.10504C63.9842 4.11825 63.9953 4.13463 64.0022 4.15287C64.0091 4.1711 64.0116 4.19069 64.0095 4.21005Z" fill="#022F51"/>
<path d="M75.5348 21.7299V23.8577C75.5348 23.9482 75.5348 23.9935 75.386 23.9935H73.1885C70.6935 24.0463 69.4421 22.9145 69.4345 20.5982V11.9515C69.4361 11.9327 69.4337 11.9138 69.4275 11.896C69.4213 11.8782 69.4114 11.8618 69.3985 11.848C69.3856 11.8342 69.3699 11.8231 69.3525 11.8156C69.335 11.8081 69.3162 11.8043 69.2971 11.8043H66.7449C66.7264 11.8061 66.7077 11.8038 66.6903 11.7976C66.6728 11.7914 66.6569 11.7814 66.6438 11.7684C66.6307 11.7554 66.6206 11.7398 66.6143 11.7225C66.6081 11.7052 66.6057 11.6868 66.6075 11.6685V9.82372C66.6057 9.80545 66.6081 9.78702 66.6143 9.76974C66.6206 9.75247 66.6307 9.73678 66.6438 9.7238C66.6569 9.71083 66.6728 9.70088 66.6903 9.69467C66.7077 9.68847 66.7264 9.68616 66.7449 9.68791H69.2857C69.3773 9.68791 69.423 9.68791 69.423 9.54078V5.72671C69.423 5.63617 69.423 5.5909 69.5718 5.5909H71.9982C72.0167 5.58915 72.0353 5.59146 72.0528 5.59766C72.0703 5.60387 72.0861 5.61382 72.0993 5.6268C72.1124 5.63977 72.1224 5.65546 72.1287 5.67274C72.135 5.69001 72.1373 5.70844 72.1356 5.72671V9.54078C72.134 9.55954 72.1363 9.57843 72.1425 9.59623C72.1487 9.61404 72.1586 9.63038 72.1715 9.64422C72.1844 9.65805 72.2001 9.66908 72.2176 9.6766C72.235 9.68412 72.2539 9.68797 72.2729 9.68791H75.3631C75.3821 9.68634 75.4012 9.68869 75.4192 9.69481C75.4372 9.70093 75.4537 9.71068 75.4677 9.72345C75.4817 9.73623 75.4929 9.75173 75.5005 9.76899C75.5081 9.78626 75.512 9.80489 75.5119 9.82372V11.6572C75.5119 11.7477 75.5119 11.793 75.3631 11.793H72.2729C72.1813 11.793 72.1356 11.793 72.1356 11.9401V20.1907C72.1356 21.1339 72.6506 21.6055 73.6807 21.6055H75.3517C75.489 21.5941 75.5348 21.6394 75.5348 21.7299Z" fill="#022F51"/>
<path d="M81.4635 4.21011V7.17535C81.4635 7.26589 81.4634 7.32248 81.3147 7.32248H78.2588C78.1672 7.32248 78.1214 7.32248 78.1214 7.17535V4.21011C78.1197 4.19184 78.122 4.17341 78.1283 4.15613C78.1345 4.13886 78.1446 4.12317 78.1577 4.11019C78.1708 4.09722 78.1867 4.08727 78.2042 4.08106C78.2217 4.07486 78.2403 4.07255 78.2588 4.0743H81.2574C81.4062 4.0743 81.4635 4.11957 81.4635 4.21011ZM81.1659 9.86897V23.9029C81.1676 23.9212 81.1653 23.9396 81.159 23.9569C81.1528 23.9742 81.1427 23.9899 81.1296 24.0028C81.1165 24.0158 81.1006 24.0258 81.0831 24.032C81.0656 24.0382 81.047 24.0405 81.0285 24.0387H78.5792C78.5608 24.0405 78.5421 24.0382 78.5247 24.032C78.5072 24.0258 78.4913 24.0158 78.4782 24.0028C78.4651 23.9899 78.455 23.9742 78.4487 23.9569C78.4425 23.9396 78.4401 23.9212 78.4419 23.9029V9.8237C78.4401 9.80542 78.4425 9.78699 78.4487 9.76972C78.455 9.75244 78.4651 9.73676 78.4782 9.72378C78.4913 9.7108 78.5072 9.70085 78.5247 9.69464C78.5421 9.68844 78.5608 9.68613 78.5792 9.68788H81.0285C81.047 9.68613 81.0656 9.68844 81.0831 9.69464C81.1006 9.70085 81.1165 9.7108 81.1296 9.72378C81.1427 9.73676 81.1528 9.75244 81.159 9.76972C81.1653 9.78699 81.1676 9.80542 81.1659 9.8237V9.86897Z" fill="#022F51"/>
<path d="M85.2402 9.68793H87.4148C87.4148 9.68793 87.5178 9.68793 87.5522 9.82374L87.8498 11.0913C87.8576 11.1242 87.8767 11.1534 87.9038 11.174C87.9309 11.1947 87.9644 11.2054 87.9985 11.2045C88.0317 11.208 88.0653 11.2025 88.0956 11.1885C88.1258 11.1746 88.1516 11.1527 88.1702 11.1253C88.597 10.5493 89.1636 10.0888 89.8176 9.78624C90.4716 9.48363 91.1922 9.34863 91.9128 9.39367C92.7695 9.34742 93.6258 9.49226 94.4182 9.81746C95.2107 10.1427 95.9191 10.6399 96.4909 11.2724C97.6155 12.6225 98.1981 14.3347 98.1276 16.0824V23.8577C98.1276 23.9482 98.1276 23.9935 97.9788 23.9935H95.541C95.5225 23.9953 95.5038 23.9929 95.4864 23.9867C95.4689 23.9805 95.453 23.9706 95.4399 23.9576C95.4268 23.9446 95.4167 23.9289 95.4105 23.9117C95.4042 23.8944 95.4018 23.876 95.4036 23.8577V16.0824C95.441 14.9944 95.1241 13.9232 94.4994 13.0267C94.1774 12.6129 93.7573 12.284 93.2762 12.0688C92.7952 11.8537 92.268 11.759 91.7411 11.793C91.1964 11.7668 90.6531 11.8667 90.1543 12.0848C89.6556 12.3029 89.2153 12.6332 88.8684 13.0493C88.1757 13.9051 87.8109 14.9753 87.8383 16.0711V23.8464C87.8401 23.8646 87.8377 23.8831 87.8315 23.9004C87.8252 23.9176 87.8151 23.9333 87.802 23.9463C87.7889 23.9593 87.773 23.9692 87.7556 23.9754C87.7381 23.9816 87.7194 23.9839 87.701 23.9822H85.2517C85.2332 23.9839 85.2146 23.9816 85.1971 23.9754C85.1796 23.9692 85.1638 23.9593 85.1506 23.9463C85.1375 23.9333 85.1275 23.9176 85.1212 23.9004C85.1149 23.8831 85.1126 23.8646 85.1143 23.8464V9.82374C85.1127 9.80647 85.1148 9.78905 85.1204 9.77262C85.126 9.75618 85.1351 9.74109 85.1469 9.7283C85.1588 9.71551 85.1732 9.70531 85.1893 9.69836C85.2053 9.69141 85.2227 9.68786 85.2402 9.68793Z" fill="#022F51"/>
<path d="M101.63 9.68793H103.782C103.782 9.68793 103.885 9.68793 103.919 9.82374L104.216 11.0913C104.224 11.1242 104.243 11.1534 104.271 11.174C104.298 11.1947 104.331 11.2054 104.365 11.2045C104.398 11.208 104.432 11.2025 104.462 11.1885C104.493 11.1746 104.518 11.1527 104.537 11.1253C104.964 10.5493 105.53 10.0888 106.184 9.78624C106.838 9.48363 107.559 9.34863 108.28 9.39367C109.136 9.34742 109.993 9.49226 110.785 9.81746C111.577 10.1427 112.286 10.6399 112.858 11.2724C113.982 12.6225 114.565 14.3347 114.494 16.0824V23.8577C114.494 23.9482 114.494 23.9935 114.346 23.9935H111.919C111.901 23.9953 111.882 23.9929 111.865 23.9867C111.847 23.9805 111.831 23.9706 111.818 23.9576C111.805 23.9446 111.795 23.9289 111.789 23.9117C111.782 23.8944 111.78 23.876 111.782 23.8577V16.0824C111.819 14.9944 111.502 13.9232 110.878 13.0267C110.556 12.6129 110.135 12.284 109.654 12.0688C109.173 11.8537 108.646 11.759 108.119 11.793C107.575 11.7668 107.031 11.8667 106.533 12.0848C106.034 12.3029 105.593 12.6332 105.247 13.0493C104.554 13.9051 104.189 14.9753 104.216 16.0711V23.8464C104.218 23.8646 104.216 23.8831 104.21 23.9004C104.203 23.9176 104.193 23.9333 104.18 23.9463C104.167 23.9593 104.151 23.9692 104.134 23.9754C104.116 23.9816 104.098 23.9839 104.079 23.9822H101.63C101.611 23.9839 101.593 23.9816 101.575 23.9754C101.558 23.9692 101.542 23.9593 101.529 23.9463C101.516 23.9333 101.506 23.9176 101.499 23.9004C101.493 23.8831 101.491 23.8646 101.493 23.8464V9.82374C101.491 9.80547 101.493 9.78704 101.499 9.76976C101.506 9.75249 101.516 9.7368 101.529 9.72382C101.542 9.71084 101.558 9.7009 101.575 9.69469C101.593 9.68849 101.611 9.68618 101.63 9.68793Z" fill="#022F51"/>
</svg>
