<svg width="1426" height="556" viewBox="0 0 1426 556" fill="none" xmlns="http://www.w3.org/2000/svg">
<g clip-path="url(#clip0_440_8547)">
<path d="M1631.63 -66.4062H-79.9313V780.089H1631.63V-66.4062Z" fill="white"/>
<path d="M1509.92 503.042H863.788V129.003L1509.92 12.0195V503.042Z" fill="white"/>
<path d="M889.828 379.988H906.677V340.835H961.543V386.772H971.152V375.228H995.103L1026.44 410.335L994.825 439.373L889.828 425.568V379.988Z" fill="#0062B8"/>
<path d="M1178.08 377.132H1204.96V340.835H1249.24L1247.85 465.197L1135.47 451.987L1178.08 377.132Z" fill="#0062B8"/>
<path d="M1278.21 340.835C1279.32 341.906 1280.43 342.858 1281.55 343.929C1283.91 346.19 1286.42 348.451 1288.79 350.713C1291.29 352.974 1293.66 355.354 1296.17 357.615C1296.87 358.21 1297.42 358.805 1298.12 359.4C1298.81 359.995 1299.65 360.471 1299.79 361.423C1299.79 361.661 1299.79 361.78 1299.79 362.018C1299.79 362.613 1299.79 363.327 1299.79 363.922C1299.79 365.945 1299.79 368.088 1299.79 370.111C1299.79 372.848 1299.79 375.704 1299.79 378.441C1299.79 381.535 1299.79 384.748 1299.79 387.843C1299.79 390.937 1299.79 394.031 1299.79 397.125C1299.79 399.862 1299.79 402.481 1299.79 405.218C1299.79 407.122 1299.79 409.145 1299.79 411.049C1299.79 411.882 1299.79 412.596 1299.79 413.429H1307.31C1307.31 412.715 1307.31 412.001 1307.31 411.287C1307.31 409.502 1307.31 407.717 1307.31 406.051C1307.31 403.552 1307.31 400.933 1307.31 398.434C1307.31 395.459 1307.31 392.365 1307.31 389.39C1307.31 386.177 1307.31 382.963 1307.31 379.75C1307.31 376.656 1307.31 373.443 1307.31 370.349C1307.31 367.612 1307.31 364.874 1307.31 362.018C1307.31 359.876 1307.31 357.853 1307.31 355.711C1307.31 354.997 1307.31 354.283 1307.31 353.569C1307.31 353.331 1307.31 353.093 1307.31 352.736C1307.31 351.903 1307.73 351.665 1308.7 351.784C1309.68 351.903 1310.79 351.784 1311.77 351.784C1313.16 351.784 1314.69 351.784 1316.08 351.784C1319.7 351.784 1323.46 351.784 1327.08 351.784C1330.98 351.784 1334.74 351.784 1338.64 351.784C1341.7 351.784 1344.77 351.784 1347.83 351.784C1349.09 351.784 1350.34 351.784 1351.59 351.784L1408.69 400.933L1414.26 456.986L1320.12 465.435L1269.99 437.945L1278.21 340.835Z" fill="#0062B8"/>
<path d="M926.452 356.663H919.628V367.255H926.452V356.663Z" fill="#3F3161"/>
<path d="M917.261 343.215H910.438V353.806H917.261V343.215Z" fill="#3F3161"/>
<path d="M916.843 367.85H910.716V379.631H916.843V367.85Z" fill="#3F3161"/>
<path d="M1239.35 364.041H1232.25V376.299H1239.35V364.041Z" fill="#3F3161"/>
<path d="M1223.62 381.773H1216.24V395.34H1223.62V381.773Z" fill="#3F3161"/>
<path d="M1235.87 406.17H1228.49V422.117H1235.87V406.17Z" fill="#3F3161"/>
<path d="M1185.74 314.772C1181.98 316.795 1187.41 311.44 1193.68 308.584C1197.86 306.68 1198.97 311.678 1198.97 311.678C1198.97 311.678 1203.15 306.68 1210.95 310.25C1210.95 310.25 1199.11 313.701 1197.72 317.748C1197.58 317.748 1196.74 308.941 1185.74 314.772Z" fill="#CFF0FF"/>
<path d="M1365.8 256.459C1365.8 256.459 1353.68 257.054 1348.11 263.48C1342.54 269.907 1343.65 250.509 1362.73 250.152C1362.73 250.152 1363.01 242.178 1370.81 241.464C1378.61 240.75 1384.32 245.034 1384.32 245.034C1384.32 245.034 1367.33 243.13 1365.8 256.459Z" fill="#CFF0FF"/>
<path d="M1182.26 435.564L1267.06 439.373L1260.24 465.554L1118.76 458.176L1121.55 449.726L1182.26 435.564Z" fill="#1EAEF7"/>
<path d="M1116.25 221.947C1120.57 222.661 1124.33 225.517 1125.44 229.207C1129.06 226.588 1133.94 225.16 1138.81 225.398C1143.55 225.636 1148.28 227.54 1151.48 230.635C1142.29 228.611 1131.99 230.397 1124.33 235.276C1125.03 234.8 1119.46 230.04 1118.9 229.683C1116.39 228.016 1113.61 226.945 1110.54 226.35C1108.32 225.993 1103.86 226.35 1107.06 223.851C1109.15 221.947 1113.47 221.471 1116.25 221.947Z" fill="#CFF0FF"/>
<path d="M1186.86 423.307C1186.16 423.307 1185.6 422.831 1185.46 422.236C1185.32 421.641 1185.88 421.046 1186.72 420.927C1186.86 420.927 1195.91 419.975 1203.57 419.618C1213.03 419.261 1219.86 416.286 1223.62 411.169C1228.49 404.147 1227.24 393.437 1219.86 380.108C1209.55 361.543 1201.76 346.31 1203.15 334.766C1203.98 328.578 1207.46 323.699 1213.17 320.604C1221.39 316.32 1233.37 316.201 1246.04 320.366C1246.73 320.604 1247.15 321.318 1246.87 321.913C1246.59 322.509 1245.76 322.866 1245.06 322.628C1233.37 318.819 1222.09 318.819 1214.71 322.628C1209.69 325.246 1206.63 329.53 1205.93 335.004C1204.54 345.953 1212.48 361.424 1222.36 379.037C1230.16 393.08 1231.42 404.623 1225.99 412.359C1221.81 418.19 1214.15 421.522 1203.7 421.998C1196.19 422.355 1187.13 423.188 1186.86 423.307C1186.99 423.307 1186.99 423.307 1186.86 423.307Z" fill="#1EAEF7"/>
<path d="M1288.79 318.581C1288.23 318.581 1287.67 318.224 1287.67 317.748C1287.54 317.153 1288.09 316.677 1288.65 316.558C1288.93 316.558 1313.44 313.463 1324.02 298.231C1324.72 297.279 1325.41 296.088 1326.11 294.898C1317.47 292.399 1311.49 287.996 1308.7 283.593C1306.2 279.666 1305.92 275.381 1307.59 271.335C1309.12 267.765 1312.18 265.028 1315.8 263.838C1319.28 262.767 1322.91 263.005 1326.11 264.671C1330.29 266.813 1333.07 270.978 1333.91 275.976C1334.74 281.451 1332.37 288.115 1329.45 293.708C1334.88 295.017 1341.15 295.612 1348.39 295.136C1373.73 293.47 1382.09 285.14 1390.72 276.333C1400.61 266.337 1410.91 255.983 1447.4 256.578C1448.09 256.578 1448.51 257.054 1448.51 257.649C1448.51 258.244 1448.09 258.72 1447.26 258.601C1412.03 258.006 1402.56 267.527 1392.53 277.642C1383.9 286.33 1374.85 295.374 1348.53 297.16C1340.87 297.636 1334.19 297.041 1328.48 295.612C1327.64 296.922 1326.94 298.231 1326.11 299.302C1314.97 315.368 1290.18 318.462 1289.07 318.581C1288.93 318.581 1288.93 318.581 1288.79 318.581ZM1319.98 265.147C1318.87 265.147 1317.75 265.266 1316.64 265.742C1313.71 266.694 1311.07 269.074 1309.82 272.049C1308.28 275.5 1308.7 279.308 1310.79 282.641C1313.44 286.806 1319.01 290.733 1327.22 293.113C1330.01 287.758 1332.24 281.332 1331.54 276.214C1330.84 271.811 1328.48 268.241 1324.99 266.337C1323.32 265.623 1321.65 265.147 1319.98 265.147Z" fill="#1EAEF7"/>
<path d="M613.631 354.176L599.694 356.52L607.922 392.251L621.859 389.907L613.631 354.176Z" fill="#CFF0FF"/>
<path d="M630.241 353.64L614.827 360.553L634.629 392.799L650.042 385.886L630.241 353.64Z" fill="#CFF0FF"/>
<path d="M532.504 476.979L535.15 560.879L844.292 570.875L910.716 471.505L783.299 430.328L624.551 451.273L532.504 476.979Z" fill="#1EAEF7"/>
<path d="M420.127 390.818H676.91L721.471 417.833L670.783 446.99C670.783 446.99 428.9 469.601 427.925 469.601C412.329 469.601 420.127 390.818 420.127 390.818Z" fill="#3F3161"/>
<path d="M588.345 530.413C588.345 530.413 594.611 534.816 601.435 536.245C609.372 537.792 616.613 542.433 615.638 546.003C615.081 548.264 614.664 549.93 614.664 549.93L574.559 573.256C574.559 573.256 530.555 579.325 532.504 567.067C534.454 554.81 533.618 533.626 533.618 533.626L558.962 528.747L588.345 530.413Z" fill="#0062BA"/>
<path d="M807.808 398.077H883.004V422.474H803.909L807.808 398.077Z" fill="#0062B8"/>
<path d="M849.723 413.549H999.699V432.709H844.292L849.723 413.549Z" fill="#1EAEF7"/>
<path d="M840.114 430.209H966.278V469.719L794.439 501.97L840.114 449.964V430.209Z" fill="#0062BA"/>
<path d="M608.954 478.526L588.345 530.413C588.345 530.413 582.218 544.575 567.039 541.005C573.027 551.002 546.43 562.783 546.43 562.783L553.114 542.552L529.719 544.456V487.571L608.954 478.526Z" fill="#3F3161"/>
<path d="M415.114 340.954L410.936 390.818C418.456 390.818 425.836 390.818 433.356 390.818C437.394 390.818 441.572 390.818 445.61 390.818C447.142 390.818 448.813 390.818 450.345 390.818C451.877 390.818 463.992 390.818 465.384 390.818C467.473 390.818 469.701 390.818 471.79 390.818L477.499 386.415L482.373 390.818H599.485C599.485 387.129 599.485 383.321 599.485 379.632C599.485 376.061 599.207 372.372 599.485 368.921C599.764 366.184 601.435 351.903 598.093 351.903C595.865 351.903 593.636 351.903 591.408 351.784C589.598 351.665 588.763 352.379 588.763 353.926C588.623 357.853 588.623 361.899 588.484 365.827C588.484 366.898 588.345 368.207 587.231 368.802C587.231 364.161 587.37 359.638 587.37 354.997C587.37 354.283 587.37 353.331 586.535 352.855C585.978 352.498 585.421 352.498 584.724 352.498C582.078 352.498 579.433 352.617 576.787 352.617C575.951 352.617 574.977 352.617 574.28 353.093C572.748 354.164 573.862 355.949 573.723 357.258C572.331 357.258 559.241 357.377 559.241 357.258C559.241 354.402 559.241 351.546 559.241 348.69C559.241 346.786 559.241 344.882 559.241 343.096C559.241 340.597 556.734 340.835 554.506 340.835C552.278 340.835 550.05 340.835 547.961 340.835C544.341 340.835 540.72 340.835 537.239 340.835C536.403 340.835 535.568 340.716 534.872 340.835C534.175 340.954 533.479 341.43 532.783 341.549C531.39 341.787 529.858 341.668 528.466 341.668C523.871 341.549 519.415 342.382 515.237 343.929C514.262 344.286 513.148 344.763 512.034 345.001C509.528 345.358 509.11 343.691 507.16 342.739C505.489 341.906 503.4 341.668 501.451 341.549C498.248 341.43 495.045 341.549 492.121 342.739C489.893 343.691 487.943 345.001 487.386 347.024C486.551 349.285 486.412 351.665 486.272 354.045C486.133 356.425 486.272 358.924 486.133 361.304C485.994 362.495 485.855 363.685 485.576 364.875C485.297 365.708 484.601 366.898 484.462 367.85C484.601 363.804 484.74 359.757 485.019 355.711C485.158 353.688 485.297 351.665 485.576 349.642C485.715 348.928 485.994 347.857 485.715 347.143C485.437 346.786 484.601 346.072 484.183 345.715C483.069 344.644 481.816 343.453 480.702 342.382C480.424 342.144 479.31 340.716 478.892 340.716C476.664 340.716 474.575 340.716 472.347 340.716C469.98 340.716 467.612 340.716 465.245 340.716C463.295 340.716 460.371 340.121 459.536 342.025C459.118 342.858 459.257 343.691 459.257 344.525C459.536 350.713 459.396 356.901 458.7 362.971C458.7 363.09 458.7 363.328 458.422 363.447C458.004 363.685 457.725 363.09 457.725 362.614C457.865 357.377 457.865 352.141 458.004 346.786C458.004 345.239 458.004 343.453 457.029 342.144C456.89 341.906 456.611 341.668 456.472 341.549C454.94 340.24 453.269 340.597 451.32 340.716C448.813 340.716 446.446 340.716 443.939 340.716C441.85 340.716 440.179 340.121 438.508 341.787C437.394 342.977 436.977 344.525 436.837 345.953C436.698 347.381 436.837 348.928 436.698 350.356C436.559 351.784 436.002 353.331 434.749 354.402C434.888 350.713 435.027 346.905 435.166 343.215C435.166 342.62 435.166 341.906 434.888 341.43C434.192 340.24 431.267 340.835 430.014 340.835C424.862 340.835 419.988 340.835 415.114 340.954Z" fill="#CFF0FF"/>
<path d="M465.384 344.049C471.79 344.049 471.372 353.212 465.384 353.212C459.396 353.212 458.979 344.049 465.384 344.049Z" fill="#C0EFFF"/>
<path d="M1323.74 472.813L1089.38 574.921L1360.78 632.878L1323.74 472.813Z" fill="#3F3161"/>
<path d="M927.287 417.238C926.312 417.476 925.337 417.833 924.641 418.428C923.249 419.38 922.552 421.046 923.388 422.355C924.223 423.783 926.451 424.021 928.262 424.14C936.338 424.616 944.276 424.14 952.353 423.188C953.884 423.069 955.416 422.831 956.809 422.117C959.594 420.57 957.923 417.833 956.252 416.048C955.834 415.572 955.138 415.215 954.72 414.619C953.467 412.834 954.581 410.573 955.695 408.907C956.53 407.479 957.644 406.289 958.619 404.98C959.454 403.909 959.594 402.838 961.265 402.362C962.1 402.124 962.936 402.005 963.771 401.886C964.189 400.101 964.328 398.197 964.05 396.292C964.05 395.816 963.911 395.34 963.493 394.983C963.214 394.745 962.657 394.626 962.24 394.626C957.087 394.031 952.074 393.555 946.922 393.317C941.073 393.079 935.364 393.198 929.654 394.031C928.958 394.15 928.262 394.269 927.844 394.626C927.287 395.102 927.148 395.935 927.148 396.649C927.148 398.435 927.008 400.22 927.008 402.005C927.008 402.124 928.819 402.6 928.958 402.6C929.933 403.076 930.211 404.147 930.629 404.98C931.743 407.241 932.857 409.502 933.693 411.763C934.11 412.953 934.807 414.024 933.693 414.858C932.579 415.691 927.983 417.119 927.287 417.238Z" fill="#3F3161"/>
<path d="M939.82 392.008C938.427 391.77 937.035 391.651 935.642 391.532C932.161 391.175 928.68 390.104 926.034 388.319C923.249 386.414 921.438 383.677 921.299 380.583C921.299 380.226 929.376 380.821 930.072 380.94C931.325 381.178 932.718 381.297 933.971 381.535C935.364 381.892 936.756 382.368 938.149 382.844C936.338 380.345 935.364 377.489 934.946 374.514C934.807 373.562 935.085 372.372 936.478 372.729C937.592 372.967 938.427 373.8 938.984 374.633C940.377 376.656 941.909 378.679 943.301 380.702C943.301 376.299 943.44 372.015 943.44 367.611C943.44 366.183 943.997 364.16 945.668 364.16C947.061 368.087 947.896 372.134 948.036 376.299C949.01 372.848 949.985 369.158 952.91 366.659C953.327 366.183 954.163 365.826 954.72 366.183C954.998 366.302 954.998 366.54 955.138 366.897C956.391 370.587 955.695 374.752 953.049 377.965C955.277 375.347 957.783 372.372 961.543 372.967C961.961 375.347 961.126 377.37 959.454 379.155C957.923 380.94 955.973 382.606 953.745 383.915C956.391 382.725 959.037 381.892 961.961 381.178C962.797 380.94 963.771 380.94 964.328 381.535C964.607 381.892 964.607 382.249 964.607 382.606C964.328 385.462 960.986 387.247 958.34 388.438C955.834 389.509 953.327 390.104 950.821 391.056C950.124 391.294 949.428 391.532 949.01 392.008C948.593 392.365 948.314 393.198 948.593 393.674C948.871 394.031 949.567 394.388 950.124 394.626C950.96 394.983 951.796 394.864 952.77 394.983C954.302 395.221 961.404 395.102 957.226 396.53C953.467 397.72 952.074 397.363 946.225 397.482C940.516 397.601 931.604 396.887 931.604 396.411C931.604 395.935 939.124 395.459 940.934 394.626C941.491 394.388 941.63 393.793 941.769 393.317C941.909 392.603 941.491 392.484 940.655 392.365C940.238 392.127 940.098 392.008 939.82 392.008Z" fill="#0062BA"/>
<path d="M845.545 425.092C845.128 425.092 852.23 425.092 851.812 424.854C851.533 424.616 843.735 424.259 843.735 423.902C843.317 420.094 840.532 414.619 840.115 410.811C858.635 409.264 887.182 409.502 905.703 407.955C920.046 406.765 917.679 421.522 905.424 423.069C888.575 425.211 862.674 424.735 845.545 425.092Z" fill="#3F3161"/>
<path d="M499.223 362.851C501.684 362.851 503.679 359.122 503.679 354.521C503.679 349.92 501.684 346.19 499.223 346.19C496.762 346.19 494.767 349.92 494.767 354.521C494.767 359.122 496.762 362.851 499.223 362.851Z" fill="white"/>
<path d="M474.018 382.964H462.181V387.486H474.018V382.964Z" fill="white"/>
<path d="M474.018 377.014H462.181V381.536H474.018V377.014Z" fill="white"/>
<path d="M874.232 383.678H802.238V399.506H874.232V383.678Z" fill="#CFF0FF"/>
<path d="M865.737 362.257H809.34V382.25H865.737V362.257Z" fill="#CFF0FF"/>
<path d="M856.686 350.355H824.24V361.185H856.686V350.355Z" fill="#CFF0FF"/>
<path d="M843.317 355.354C843.457 352.378 853.761 351.188 853.622 355.592C853.483 359.995 843.178 358.805 843.317 355.354Z" fill="white"/>
<path d="M849.444 365.826H820.062V371.062H849.444V365.826Z" fill="white"/>
<path d="M863.231 396.53C861.977 396.649 860.585 396.768 859.331 397.006C858.635 397.125 857.66 397.244 857.103 397.72C856.546 398.315 856.686 399.148 856.686 399.862C856.686 400.814 856.686 401.885 856.686 402.837C856.686 404.979 856.686 407.122 856.686 409.145C856.686 409.383 856.686 409.74 856.825 409.978C857.243 410.811 858.774 410.454 859.61 410.454C860.863 410.454 862.256 410.454 863.509 410.454C866.016 410.454 868.522 410.573 871.168 410.573C876.32 410.692 881.473 410.692 886.486 410.811C890.385 410.811 894.423 410.93 898.183 410.097C900.133 409.621 902.082 408.907 902.918 407.36C904.171 405.336 902.778 402.718 900.69 401.409C898.601 400.1 895.816 399.624 893.309 399.267C890.803 398.91 888.296 398.553 885.79 398.077C883.701 397.72 881.333 397.72 879.523 397.006C877.713 396.292 875.763 396.292 873.814 396.292C870.193 396.054 866.712 396.292 863.231 396.53Z" fill="#1EAEF7"/>
<path d="M895.259 401.885C896.512 403.075 897.348 404.742 896.791 406.289C895.816 409.145 891.36 409.74 887.739 409.621C882.865 409.621 877.852 409.502 872.978 409.502C870.75 409.502 868.383 409.264 866.155 409.383C864.205 409.502 862.256 409.502 860.167 409.502C858.914 409.502 856.546 409.264 855.432 409.978C855.015 410.335 854.736 410.811 854.736 411.406C854.736 411.882 854.875 412.477 855.015 412.953C855.015 412.715 868.94 412.834 870.193 412.834C872.7 412.834 875.346 412.834 877.852 412.834C880.219 412.834 882.448 413.072 884.815 413.072C886.068 413.072 887.321 413.072 888.575 413.072H888.714C893.866 413.072 898.879 412.953 904.032 412.953C906.678 412.953 915.033 413.905 914.893 409.859C914.754 407.717 914.754 405.694 914.615 403.552C914.476 402.123 914.336 400.338 912.805 399.386C912.108 398.91 911.134 398.672 910.298 398.553C905.285 397.482 900.133 397.006 894.98 396.53C894.006 396.411 869.636 395.34 864.066 395.102C861.977 395.102 860.028 394.983 857.939 395.221C857.103 395.34 856.268 395.459 855.711 395.816C855.154 396.292 854.875 397.125 855.432 397.601C855.85 397.958 856.546 398.077 857.103 398.077C867.547 398.553 877.991 399.505 888.575 399.981C890.942 400.1 893.866 400.576 895.259 401.885Z" fill="#0062BA"/>
<path d="M951.378 369.992C949.846 374.395 948.175 378.68 946.643 383.083C946.922 382.488 947.757 381.774 948.175 381.179C948.732 380.465 949.15 379.87 949.567 379.156C950.542 377.727 951.238 376.299 952.074 374.752C952.77 373.324 953.327 371.777 953.884 370.23C954.163 369.397 955.416 366.541 954.163 366.065C952.909 365.47 951.656 369.278 951.378 369.992Z" fill="#1EAEF7"/>
<path d="M942.466 385.82C942.744 386.058 942.883 386.296 942.883 386.653C942.744 387.129 942.048 387.248 941.63 387.129C940.377 387.01 939.263 386.296 938.288 385.582C936.478 384.273 934.667 382.964 932.718 381.655C931.743 381.06 930.908 380.346 929.933 379.751C929.376 379.394 927.844 378.68 927.844 377.966C927.844 376.419 931.604 378.323 932.3 378.68C934.25 379.513 935.921 380.465 937.592 381.655C939.541 382.845 941.073 384.273 942.466 385.82Z" fill="#1EAEF7"/>
<path d="M554.088 394.031C553.949 394.031 553.81 394.031 553.81 394.031C553.114 394.031 552.696 393.555 552.696 392.96C552.696 392.365 553.253 392.008 553.949 392.008C554.924 392.008 573.305 392.365 586.256 380.822C577.901 378.918 571.495 374.038 568.292 368.445C563.279 359.995 564.811 349.642 571.634 345.12C577.901 340.954 589.18 340.359 595.725 346.191C600.46 350.475 601.574 357.972 598.649 366.184C596.7 371.539 593.915 375.942 590.573 379.513C594.472 379.87 598.789 379.513 603.662 378.204C614.663 375.109 619.677 370.944 624.133 367.374C630.26 362.376 635.551 358.21 652.54 358.21C653.237 358.21 653.654 358.686 653.654 359.162C653.654 359.638 653.097 360.114 652.54 360.114C636.526 360.114 631.792 363.923 625.804 368.802C621.208 372.61 615.917 376.775 604.498 380.108C598.789 381.774 593.497 382.012 588.762 381.298C575.673 393.555 556.595 394.031 554.088 394.031ZM583.192 343.811C579.432 343.811 575.673 344.882 573.027 346.548C567.039 350.594 565.786 359.757 570.242 367.374C572.609 371.42 578.597 377.132 587.927 378.918C591.408 375.466 594.333 371.063 596.282 365.47C598.928 358.091 597.953 351.189 593.915 347.5C591.13 345.001 587.231 343.811 583.192 343.811Z" fill="#1EAEF7"/>
<path d="M420.127 469.6V449.726L705.317 421.521L809.34 433.303L767.285 460.794L545.594 487.57L420.127 469.6Z" fill="#CFF0FF"/>
<path d="M420.545 463.293L545.594 482.929L767.285 456.629V466.387L553.114 493.164V601.103L430.71 574.208L418.317 498.4L420.545 463.293Z" fill="#0062B8"/>
<path d="M643.907 341.073C643.768 341.192 643.768 341.311 643.768 341.43C643.768 341.549 643.768 341.668 643.768 341.787C643.768 342.144 643.768 342.501 643.768 342.858C643.768 343.929 643.768 344.881 643.768 345.952C643.768 347.38 643.768 348.808 643.768 350.236C643.768 352.021 643.768 353.807 643.768 355.473C643.768 357.496 643.768 359.519 643.768 361.542C643.768 363.803 643.768 365.945 643.768 368.206C643.768 370.587 643.768 372.967 643.768 375.347C643.768 377.727 643.768 380.226 643.768 382.606C643.768 384.986 643.768 387.486 643.768 389.866C643.768 392.246 643.768 394.626 643.768 396.887C643.768 399.148 643.768 401.29 643.768 403.551C643.768 405.575 643.768 407.598 643.768 409.621C643.768 411.406 643.768 413.072 643.768 414.857C643.768 416.285 643.768 417.713 643.768 419.022C643.768 419.974 643.768 421.045 643.768 421.998C643.768 422.474 643.768 423.069 643.768 423.545C643.768 423.783 644.046 423.783 644.325 423.783C644.464 423.783 644.603 423.783 644.882 423.783C645.16 423.783 645.299 423.783 645.578 423.783C645.856 423.783 646.135 423.783 646.413 423.783C646.692 423.783 647.11 423.783 647.388 423.783C647.806 423.783 648.084 423.783 648.502 423.783C648.92 423.783 649.338 423.783 649.755 423.783C650.173 423.783 650.73 423.783 651.148 423.783C651.705 423.783 652.123 423.783 652.68 423.783C653.237 423.783 653.794 423.783 654.351 423.783C654.908 423.783 655.465 423.783 656.161 423.783C656.857 423.783 657.414 423.783 658.111 423.783C658.807 423.783 659.503 423.783 660.06 423.783C660.756 423.783 661.453 423.783 662.149 423.783C662.845 423.783 663.542 423.783 664.377 423.783C665.073 423.783 665.909 423.783 666.605 423.783C667.441 423.783 668.137 423.783 668.972 423.783C669.808 423.783 670.643 423.783 671.479 423.783C672.315 423.783 673.15 423.783 673.986 423.783C674.821 423.783 675.657 423.783 676.631 423.783C677.467 423.783 678.442 423.783 679.277 423.783C680.252 423.783 681.087 423.783 682.062 423.783C683.037 423.783 683.872 423.783 684.847 423.783C685.822 423.783 686.797 423.783 687.632 423.783C688.607 423.783 689.582 423.783 690.557 423.783C691.531 423.783 692.506 423.783 693.481 423.783C694.456 423.783 695.431 423.783 696.405 423.783C697.38 423.783 698.355 423.783 699.469 423.783C700.444 423.783 701.418 423.783 702.532 423.783C703.507 423.783 704.621 423.783 705.596 423.783C706.571 423.783 707.685 423.783 708.66 423.783C709.634 423.783 710.748 423.783 711.723 423.783C712.698 423.783 713.812 423.783 714.787 423.783C715.761 423.783 716.876 423.783 717.85 423.783C718.825 423.783 719.939 423.783 720.914 423.783C721.889 423.783 723.003 423.783 723.977 423.783C724.952 423.783 726.066 423.783 727.041 423.783C728.016 423.783 729.13 423.783 730.105 423.783C731.079 423.783 732.054 423.783 733.168 423.783C734.143 423.783 735.118 423.783 736.092 423.783C737.067 423.783 738.042 423.783 739.017 423.783C739.992 423.783 740.966 423.783 741.941 423.783C742.916 423.783 743.891 423.783 744.726 423.783C745.701 423.783 746.536 423.783 747.511 423.783C748.486 423.783 749.321 423.783 750.296 423.783C751.132 423.783 752.107 423.783 752.942 423.783C753.778 423.783 754.752 423.783 755.588 423.783C756.423 423.783 757.259 423.783 758.094 423.783C758.93 423.783 759.766 423.783 760.601 423.783C761.437 423.783 762.133 423.783 762.968 423.783C763.665 423.783 764.5 423.783 765.196 423.783C765.893 423.783 766.728 423.783 767.424 423.783C768.121 423.783 768.817 423.783 769.513 423.783C770.209 423.783 770.906 423.783 771.463 423.783C772.159 423.783 772.716 423.783 773.412 423.783C773.969 423.783 774.666 423.783 775.223 423.783C775.78 423.783 776.337 423.783 776.894 423.783C777.451 423.783 777.868 423.783 778.425 423.783C778.843 423.783 779.4 423.783 779.818 423.783C780.236 423.783 780.654 423.783 781.071 423.783C781.489 423.783 781.768 423.783 782.185 423.783C782.464 423.783 782.882 423.783 783.16 423.783C783.439 423.783 783.717 423.783 783.996 423.783C784.274 423.783 784.413 423.783 784.692 423.783C784.831 423.783 784.97 423.783 785.249 423.783C785.388 423.783 785.527 423.783 785.667 423.783C785.667 423.783 785.806 423.783 785.945 423.783L788.312 340.716C788.034 340.716 787.895 340.716 787.616 340.716C786.92 340.716 786.363 340.716 785.667 340.716C784.692 340.716 783.578 340.716 782.603 340.716C781.21 340.716 779.818 340.716 778.565 340.716C776.894 340.716 775.223 340.716 773.552 340.716C771.602 340.716 769.652 340.716 767.703 340.716C765.475 340.716 763.386 340.716 761.158 340.716C758.791 340.716 756.423 340.716 754.056 340.716C751.55 340.716 748.904 340.716 746.397 340.716C743.751 340.716 741.106 340.716 738.321 340.716C735.535 340.716 732.75 340.716 729.965 340.716C727.18 340.716 724.256 340.716 721.471 340.716C718.686 340.716 715.761 340.716 712.976 340.716C710.191 340.716 707.267 340.716 704.482 340.716C701.697 340.716 698.912 340.716 696.127 340.716C693.481 340.716 690.696 340.716 688.05 340.716C685.404 340.716 682.898 340.716 680.252 340.716C677.885 340.716 675.378 340.716 673.011 340.716C670.783 340.716 668.555 340.716 666.327 340.716C664.377 340.716 662.288 340.716 660.339 340.716C658.528 340.716 656.857 340.716 655.047 340.716C653.655 340.716 652.123 340.716 650.73 340.716C649.616 340.716 648.502 340.716 647.388 340.716C646.692 340.716 645.856 340.716 645.16 340.716C644.464 340.835 644.046 340.835 643.907 341.073Z" fill="#0062B8"/>
<path d="M678.999 434.613C682.341 436.517 696.684 436.16 715.344 436.16C734.004 436.16 734.839 433.304 734.839 433.304V427.829L732.611 422.355L709.634 417.595C709.634 417.595 685.126 423.783 694.038 423.783C703.089 423.783 703.507 424.616 703.368 426.282C703.229 427.71 690.417 428.067 681.505 429.138C678.999 429.733 676.91 433.304 678.999 434.613Z" fill="#0062B8"/>
<path d="M652.541 348.451V416.523H777.033L784.831 395.102L777.033 380.702V348.451H652.541Z" fill="white"/>
<path d="M503.122 379.75C503.122 379.75 498.387 387.248 498.805 387.605C499.223 387.962 529.58 402.362 529.58 402.362C529.58 402.362 532.365 391.889 532.643 388.2C536.264 385.225 539.606 386.296 541.973 382.368C544.341 378.441 545.594 374.633 549.493 373.205C553.114 371.896 554.785 370.944 554.367 369.516C553.81 367.255 550.607 367.255 549.911 362.137C549.632 360.471 550.607 353.569 545.733 347.261C543.505 344.405 539.467 340.954 531.39 340.954C514.123 340.954 506.325 362.375 506.325 362.375L503.122 379.75Z" fill="#0062B8"/>
<path d="M502.426 380.702C505.071 381.654 507.717 381.297 513.984 376.299C520.25 371.42 517.883 369.158 516.769 364.517C515.376 358.686 521.921 356.782 524.149 362.613C525.681 366.421 528.744 367.73 531.251 365.231C533.2 363.327 532.922 360.947 528.605 354.164C524.288 347.38 534.036 341.073 534.036 341.073C534.036 341.073 529.719 340.716 525.959 340.716C520.946 340.716 513.705 341.192 506.882 346.547C494.906 355.949 499.919 379.75 502.426 380.702Z" fill="#3F3161"/>
<path d="M501.172 382.964C501.172 382.964 496.716 383.916 491.424 384.154C484.601 384.392 476.107 384.511 469.144 390.699C456.75 401.648 457.586 419.975 453.13 424.854C448.674 429.615 441.711 436.279 443.939 447.347C446.167 458.414 470.815 457.819 486.133 458.176C501.451 458.652 546.569 459.366 546.569 459.366L603.662 417.595C603.662 417.595 593.915 405.694 585.142 398.078C578.736 392.484 573.445 390.699 568.431 392.722C566.621 393.436 564.95 394.508 563.001 396.412C563.001 396.412 556.177 391.77 543.644 389.271C542.53 389.033 540.163 386.177 539.327 384.749C535.985 384.63 534.593 384.511 532.643 387.962C532.643 387.962 530.137 396.65 518.718 394.746C507.299 392.96 498.805 387.843 501.172 382.964Z" fill="#0062BA"/>
<path d="M564.115 396.411C562.165 397.72 560.355 399.505 557.988 399.981C556.177 400.338 554.367 400.338 552.696 400.1C552.278 399.981 551.721 399.862 551.303 399.743C551.025 399.624 550.468 399.386 550.189 399.386C549.772 399.386 549.632 399.981 549.493 400.219C548.797 401.529 546.987 404.147 544.759 403.076C541.974 401.648 539.606 406.051 536.682 401.529C535.15 399.148 535.568 395.816 535.986 393.198C536.403 390.937 536.543 387.962 538.214 386.058C540.163 383.796 543.227 382.13 546.43 381.535C549.354 381.059 552.139 381.535 554.924 382.487C560.633 384.392 565.647 387.843 568.292 392.603C568.292 392.722 568.432 392.722 568.432 392.841L564.115 396.411Z" fill="#0062B8"/>
<path d="M474.436 457.461L524.845 456.152L521.921 467.22L474.436 457.461Z" fill="#1EAEF7"/>
<path d="M545.594 482.929L553.114 493.164L668.415 478.764V468.41L545.594 482.929Z" fill="#0062BA"/>
<path d="M505.071 459.009C503.4 458.652 501.729 458.295 500.058 457.938C498.805 457.7 496.577 457.343 495.463 456.986C494.488 456.629 496.856 451.987 498.109 451.273C505.211 446.989 520.389 448.536 523.592 448.298C527.909 448.06 530.973 448.536 530.416 449.964C529.719 451.511 529.58 453.296 528.884 454.844C528.327 456.51 527.909 458.295 527.352 459.961C527.073 460.794 527.073 461.627 526.656 462.46C526.099 463.412 525.402 463.174 524.288 463.055C521.643 462.817 518.997 462.341 516.351 461.746C512.73 460.794 508.831 459.961 505.071 459.009Z" fill="#0062B8"/>
<path d="M541.277 418.071C545.176 417.833 601.156 413.667 617.867 412.477C620.791 412.239 622.323 413.429 621.766 415.571C619.398 425.33 612.853 450.917 611.879 454.844C610.625 459.723 610.068 463.65 603.245 464.84C592.801 466.506 546.151 472.338 528.605 473.885C524.567 474.242 521.921 474.361 516.629 473.052C511.338 471.743 477.639 463.412 477.639 463.412L474.157 457.105L522.06 467.339C522.06 467.339 531.39 430.447 532.922 424.616C534.175 419.499 536.821 418.428 541.277 418.071Z" fill="white"/>
<path d="M660.339 359.162H657.554C656.996 359.162 656.439 358.805 656.439 358.21C656.439 357.615 656.857 357.258 657.554 357.258H660.339C660.896 357.258 661.453 357.615 661.453 358.21C661.453 358.805 660.896 359.162 660.339 359.162Z" fill="#1EAEF7"/>
<path d="M752.942 359.162H747.372C746.815 359.162 746.258 358.805 746.258 358.21C746.258 357.615 746.676 357.258 747.372 357.258H752.942C753.499 357.258 754.056 357.615 754.056 358.21C754.056 358.805 753.499 359.162 752.942 359.162ZM737.485 359.162H731.915C731.358 359.162 730.801 358.805 730.801 358.21C730.801 357.615 731.218 357.258 731.915 357.258H737.485C738.042 357.258 738.599 357.615 738.599 358.21C738.599 358.805 738.042 359.162 737.485 359.162ZM722.028 359.162H716.458C715.901 359.162 715.344 358.805 715.344 358.21C715.344 357.615 715.761 357.258 716.458 357.258H722.028C722.585 357.258 723.142 357.615 723.142 358.21C723.142 358.805 722.585 359.162 722.028 359.162ZM706.571 359.162H701.001C700.444 359.162 699.887 358.805 699.887 358.21C699.887 357.615 700.304 357.258 701.001 357.258H706.571C707.128 357.258 707.685 357.615 707.685 358.21C707.685 358.805 707.267 359.162 706.571 359.162ZM691.253 359.162H685.683C685.126 359.162 684.569 358.805 684.569 358.21C684.569 357.615 684.986 357.258 685.683 357.258H691.253C691.81 357.258 692.367 357.615 692.367 358.21C692.367 358.805 691.81 359.162 691.253 359.162ZM675.796 359.162H670.226C669.669 359.162 669.112 358.805 669.112 358.21C669.112 357.615 669.529 357.258 670.226 357.258H675.796C676.353 357.258 676.91 357.615 676.91 358.21C676.91 358.805 676.353 359.162 675.796 359.162Z" fill="#1EAEF7"/>
<path d="M765.475 361.542C764.918 361.542 764.361 361.185 764.361 360.59V359.162H762.69C762.133 359.162 761.576 358.805 761.576 358.21C761.576 357.615 761.993 357.258 762.69 357.258H765.475C766.032 357.258 766.589 357.615 766.589 358.21V360.59C766.589 361.185 766.032 361.542 765.475 361.542Z" fill="#1EAEF7"/>
<path d="M765.475 371.063H762.69C762.133 371.063 761.576 370.706 761.576 370.11C761.576 369.515 761.993 369.158 762.69 369.158H764.361V367.73C764.361 367.254 764.778 366.778 765.475 366.778C766.171 366.778 766.589 367.135 766.589 367.73V370.11C766.589 370.706 766.032 371.063 765.475 371.063Z" fill="#1EAEF7"/>
<path d="M753.499 371.062H748.207C747.65 371.062 747.093 370.705 747.093 370.11C747.093 369.515 747.511 369.158 748.207 369.158H753.499C754.056 369.158 754.613 369.515 754.613 370.11C754.613 370.705 754.056 371.062 753.499 371.062ZM739.017 371.062H733.725C733.168 371.062 732.611 370.705 732.611 370.11C732.611 369.515 733.029 369.158 733.725 369.158H739.017C739.574 369.158 740.131 369.515 740.131 370.11C740.131 370.705 739.574 371.062 739.017 371.062ZM724.534 371.062H719.243C718.686 371.062 718.129 370.705 718.129 370.11C718.129 369.515 718.546 369.158 719.243 369.158H724.534C725.091 369.158 725.648 369.515 725.648 370.11C725.648 370.705 725.091 371.062 724.534 371.062ZM710.052 371.062H704.76C704.203 371.062 703.646 370.705 703.646 370.11C703.646 369.515 704.064 369.158 704.76 369.158H710.052C710.609 369.158 711.166 369.515 711.166 370.11C711.166 370.705 710.609 371.062 710.052 371.062ZM695.57 371.062H690.278C689.721 371.062 689.164 370.705 689.164 370.11C689.164 369.515 689.582 369.158 690.278 369.158H695.57C696.127 369.158 696.684 369.515 696.684 370.11C696.684 370.705 696.127 371.062 695.57 371.062ZM681.087 371.062H675.796C675.239 371.062 674.682 370.705 674.682 370.11C674.682 369.515 675.099 369.158 675.796 369.158H681.087C681.644 369.158 682.201 369.515 682.201 370.11C682.201 370.705 681.644 371.062 681.087 371.062Z" fill="#1EAEF7"/>
<path d="M663.82 373.443C663.263 373.443 662.706 373.086 662.706 372.491V370.11C662.706 369.634 663.124 369.277 663.82 369.277H666.605C667.162 369.277 667.719 369.634 667.719 370.229C667.719 370.824 667.301 371.181 666.605 371.181H664.795V372.729C664.795 373.086 664.377 373.443 663.82 373.443Z" fill="#1EAEF7"/>
<path d="M666.466 383.321H663.681C663.402 383.321 663.124 383.202 662.984 383.083C662.845 382.964 662.706 382.726 662.706 382.488V380.107C662.706 379.631 663.124 379.274 663.82 379.274C664.377 379.274 664.795 379.631 664.795 380.226V381.655H666.466C667.023 381.655 667.58 382.012 667.58 382.607C667.58 383.202 667.162 383.321 666.466 383.321Z" fill="#1EAEF7"/>
<path d="M753.499 383.32H748.207C747.65 383.32 747.093 382.963 747.093 382.368C747.093 381.773 747.511 381.416 748.207 381.416H753.499C754.056 381.416 754.613 381.773 754.613 382.368C754.613 382.963 754.056 383.32 753.499 383.32ZM739.017 383.32H733.725C733.168 383.32 732.611 382.963 732.611 382.368C732.611 381.773 733.029 381.416 733.725 381.416H739.017C739.574 381.416 740.131 381.773 740.131 382.368C740.131 382.963 739.574 383.32 739.017 383.32ZM724.534 383.32H719.243C718.686 383.32 718.129 382.963 718.129 382.368C718.129 381.773 718.546 381.416 719.243 381.416H724.534C725.091 381.416 725.648 381.773 725.648 382.368C725.648 382.963 725.091 383.32 724.534 383.32ZM710.052 383.32H704.76C704.203 383.32 703.646 382.963 703.646 382.368C703.646 381.773 704.064 381.416 704.76 381.416H710.052C710.609 381.416 711.166 381.773 711.166 382.368C711.166 382.963 710.609 383.32 710.052 383.32ZM695.57 383.32H690.278C689.721 383.32 689.164 382.963 689.164 382.368C689.164 381.773 689.582 381.416 690.278 381.416H695.57C696.127 381.416 696.684 381.773 696.684 382.368C696.684 382.963 696.127 383.32 695.57 383.32ZM681.087 383.32H675.796C675.239 383.32 674.682 382.963 674.682 382.368C674.682 381.773 675.099 381.416 675.796 381.416H681.087C681.644 381.416 682.201 381.773 682.201 382.368C682.201 382.963 681.644 383.32 681.087 383.32Z" fill="#1EAEF7"/>
<path d="M765.475 385.7C764.918 385.7 764.361 385.343 764.361 384.748V383.32H762.69C762.133 383.32 761.576 382.963 761.576 382.368C761.576 381.773 761.993 381.416 762.69 381.416H765.475C765.753 381.416 766.032 381.535 766.171 381.654C766.31 381.773 766.45 382.011 766.45 382.249V384.629C766.589 385.343 766.032 385.7 765.475 385.7Z" fill="#1EAEF7"/>
<path d="M765.335 395.221H762.55C761.993 395.221 761.436 394.864 761.436 394.269C761.436 393.674 761.854 393.317 762.55 393.317H764.361V391.77C764.361 391.294 764.918 390.937 765.475 390.937C766.032 390.937 766.449 391.294 766.449 391.889V394.269C766.31 394.864 765.892 395.221 765.335 395.221Z" fill="#1EAEF7"/>
<path d="M753.36 395.221H748.068C747.511 395.221 746.954 394.863 746.954 394.268C746.954 393.673 747.372 393.316 748.068 393.316H753.36C753.917 393.316 754.474 393.673 754.474 394.268C754.474 394.863 753.917 395.221 753.36 395.221ZM738.877 395.221H733.586C733.029 395.221 732.472 394.863 732.472 394.268C732.472 393.673 732.889 393.316 733.586 393.316H738.877C739.434 393.316 739.991 393.673 739.991 394.268C739.991 394.863 739.434 395.221 738.877 395.221ZM724.395 395.221H719.103C718.546 395.221 717.989 394.863 717.989 394.268C717.989 393.673 718.407 393.316 719.103 393.316H724.395C724.952 393.316 725.509 393.673 725.509 394.268C725.509 394.863 724.952 395.221 724.395 395.221ZM710.052 395.221H704.76C704.203 395.221 703.646 394.863 703.646 394.268C703.646 393.673 704.064 393.316 704.76 393.316H710.052C710.609 393.316 711.166 393.673 711.166 394.268C711.166 394.863 710.609 395.221 710.052 395.221ZM681.087 395.221H675.796C675.239 395.221 674.682 394.863 674.682 394.268C674.682 393.673 675.099 393.316 675.796 393.316H681.087C681.644 393.316 682.201 393.673 682.201 394.268C682.201 394.863 681.644 395.221 681.087 395.221Z" fill="#1EAEF7"/>
<path d="M663.82 397.601C663.263 397.601 662.706 397.244 662.706 396.649V394.269C662.706 393.793 663.124 393.436 663.82 393.436H666.605C667.162 393.436 667.719 393.793 667.719 394.388C667.719 394.983 667.301 395.34 666.605 395.34H664.795V396.887C664.934 397.244 664.377 397.601 663.82 397.601Z" fill="#1EAEF7"/>
<path d="M666.466 407.479H663.681C663.402 407.479 663.124 407.36 662.984 407.241C662.845 407.122 662.706 406.884 662.706 406.646V404.266C662.706 403.79 663.124 403.433 663.82 403.433C664.377 403.433 664.795 403.79 664.795 404.385V405.813H666.466C667.023 405.813 667.58 406.17 667.58 406.765C667.58 407.36 667.023 407.479 666.466 407.479Z" fill="#1EAEF7"/>
<path d="M746.118 407.478H740.27C739.713 407.478 739.156 407.121 739.156 406.526C739.156 405.931 739.574 405.574 740.27 405.574H746.118C746.675 405.574 747.232 405.931 747.232 406.526C747.232 407.121 746.675 407.478 746.118 407.478ZM730.104 407.478H724.256C723.699 407.478 723.142 407.121 723.142 406.526C723.142 405.931 723.559 405.574 724.256 405.574H730.104C730.661 405.574 731.218 405.931 731.218 406.526C731.218 407.121 730.801 407.478 730.104 407.478ZM714.23 407.478H708.381C707.824 407.478 707.267 407.121 707.267 406.526C707.267 405.931 707.685 405.574 708.381 405.574H714.23C714.787 405.574 715.344 405.931 715.344 406.526C715.344 407.121 714.787 407.478 714.23 407.478ZM698.355 407.478H692.506C691.949 407.478 691.392 407.121 691.392 406.526C691.392 405.931 691.81 405.574 692.506 405.574H698.355C698.912 405.574 699.469 405.931 699.469 406.526C699.469 407.121 698.912 407.478 698.355 407.478ZM682.48 407.478H676.631C676.074 407.478 675.517 407.121 675.517 406.526C675.517 405.931 675.935 405.574 676.631 405.574H682.48C683.037 405.574 683.594 405.931 683.594 406.526C683.594 407.121 683.037 407.478 682.48 407.478Z" fill="#1EAEF7"/>
<path d="M774.944 407.478H772.159C771.602 407.478 771.045 407.121 771.045 406.526C771.045 405.931 771.463 405.574 772.159 405.574H774.944C775.501 405.574 776.058 405.931 776.058 406.526C776.058 407.121 775.501 407.478 774.944 407.478Z" fill="#1EAEF7"/>
<path d="M815.745 405.098C811.289 405.098 807.947 404.622 807.668 404.622C806.972 404.503 806.554 404.027 806.694 403.432C806.833 402.837 807.39 402.48 808.086 402.599C808.225 402.599 825.493 405.098 835.937 398.196C843.039 393.555 845.128 387.366 846.938 381.892C849.027 375.823 850.837 369.991 859.61 368.563C865.737 367.611 869.915 371.539 873.953 375.347C876.877 378.084 879.802 380.94 883.283 381.654C888.853 382.844 892.195 377.727 895.955 371.777C896.791 370.348 897.765 369.039 898.74 367.611C906.26 357.02 915.59 350.831 926.034 349.641C936.06 348.451 946.643 352.259 956.669 360.471C965.999 368.087 971.987 366.778 980.203 364.874C984.659 363.922 989.533 362.732 995.939 362.732C996.635 362.732 997.053 363.208 997.053 363.684C997.053 364.16 996.496 364.636 995.939 364.636C989.951 364.636 985.077 365.707 980.899 366.659C972.266 368.682 965.303 370.229 954.998 361.78C945.529 354.045 935.642 350.474 926.312 351.545C916.704 352.616 907.791 358.567 900.69 368.563C899.715 369.872 898.879 371.301 897.905 372.61C893.866 378.917 889.967 384.986 882.587 383.439C878.409 382.487 875.206 379.512 872.003 376.537C868.244 372.967 864.762 369.634 859.888 370.348C852.647 371.539 850.976 376.299 849.027 382.249C847.077 387.961 844.988 394.507 837.19 399.624C830.785 404.146 822.012 405.098 815.745 405.098Z" fill="#1EAEF7"/>
<path d="M756.006 537.672L758.094 570.875C758.094 570.875 749.182 570.756 737.207 574.922C725.231 579.206 708.799 585.156 708.799 585.156L802.238 584.204L783.717 573.137L801.263 569.328L798.617 557.547L771.602 565.282L774.666 535.768C774.666 535.768 788.173 534.221 802.238 527.676C816.302 521.131 804.744 505.184 804.744 505.184C781.211 515.061 758.094 526.367 731.776 529.58C729.269 529.937 726.762 530.175 724.256 530.294C726.066 530.294 739.435 535.887 756.006 537.672Z" fill="#3F3161"/>
<path d="M632.21 530.889C632.21 530.889 625.526 539.576 614.246 538.624C602.966 537.672 589.32 532.912 583.75 542.551C578.179 552.191 600.042 560.878 613.41 560.997C626.779 561.116 617.727 565.401 623.019 570.042C628.311 574.683 637.78 572.303 645.021 565.163C651.705 558.617 661.453 548.978 661.453 548.978L632.21 530.889Z" fill="#3F3161"/>
<path d="M812.682 410.573C812.682 410.573 829.392 398.077 850.837 410.573C872.282 423.069 860.724 465.078 810.593 485.19L787.198 469.125L812.682 410.573Z" fill="white"/>
<path d="M719.382 513.157C719.382 513.157 708.799 523.035 722.724 529.699C736.789 536.483 779.4 533.745 803.352 517.084C813.657 509.944 806.972 502.09 803.77 495.425C799.592 486.738 796.25 480.073 796.25 480.073L719.382 513.157Z" fill="white"/>
<path d="M787.198 477.574C787.198 477.574 715.344 458.176 702.393 455.32C689.442 452.464 674.125 451.512 661.731 468.173C653.097 479.954 649.895 497.924 629.285 518.632C623.576 524.344 609.372 529.937 621.765 537.197C634.159 544.337 654.351 556 654.351 556L665.909 547.431V574.446H713.394C713.394 574.446 714.508 520.893 719.66 513.99C719.66 513.99 738.738 526.605 772.577 522.678C795.275 519.941 803.491 505.779 806.972 497.448C803.769 487.452 803.073 485.429 803.073 485.429L787.198 477.574Z" fill="#0062BA"/>
<path d="M743.334 457.343C739.156 454.606 734.978 451.75 730.801 449.013C728.991 447.823 726.763 447.228 724.813 446.276C722.724 445.324 723.42 446.752 721.471 445.562C715.344 444.252 710.748 441.277 706.432 440.92C699.19 440.444 693.481 441.515 689.025 443.895C688.05 444.372 685.404 446.99 684.708 448.061C684.151 448.894 683.873 449.846 684.012 450.798C684.43 454.13 687.911 454.011 690.557 454.606C692.506 455.082 694.456 455.201 696.266 455.677C698.494 456.272 700.444 457.343 702.393 458.533C705.318 460.437 708.242 462.58 711.862 463.413C717.154 464.603 723.142 462.818 727.877 465.079C729.687 465.912 731.079 467.221 732.472 468.53C733.864 469.839 735.257 471.148 737.067 471.981C740.131 473.409 742.777 472.219 745.562 471.029C747.233 470.315 748.347 469.006 748.486 467.221C748.765 464.127 746.397 461.032 744.448 458.652C744.03 458.176 743.751 457.819 743.334 457.343Z" fill="#3F3161"/>
<path d="M726.902 391.175C725.231 392.484 723.281 393.317 721.61 394.626C720.217 395.698 718.825 396.888 717.432 397.959C716.179 399.03 715.622 400.22 713.533 400.101C712.559 399.982 711.723 399.744 710.748 399.506C706.292 398.197 701.697 397.84 697.101 397.245C693.202 396.65 689.721 394.626 686.24 392.841C682.619 390.937 679.416 387.962 677.884 384.511C676.631 381.774 675.656 376.299 679.555 374.633C680.391 374.276 681.366 374.157 682.201 374.038C685.404 373.562 687.214 374.038 689.86 375.585C691.949 376.775 694.038 377.846 696.127 378.918C697.38 379.513 699.886 381.179 701.279 380.941C704.343 380.465 701 377.132 700.443 375.823C699.747 374.514 698.355 371.896 700.026 370.587C701.836 368.921 703.786 371.539 705.039 372.491C706.849 373.919 708.799 375.347 710.609 376.894C713.812 379.513 716.875 382.131 719.66 384.987C721.61 386.772 724.256 389.866 726.902 391.175Z" fill="#3F3161"/>
<path d="M799.035 347.142C797.503 347.38 796.111 347.975 794.857 348.689C794.161 349.046 793.604 349.403 792.908 349.641C792.212 349.879 791.376 350.118 790.68 350.356C789.844 350.713 789.009 351.189 788.312 351.665C787.198 352.498 786.224 353.45 785.667 354.64C785.388 355.235 785.249 355.83 784.97 356.425C784.692 357.02 784.274 357.496 783.717 357.972C782.882 358.686 781.907 358.805 780.793 359.043C779.539 359.281 778.425 359.638 777.172 359.757C774.248 359.995 772.298 361.066 772.995 363.803C773.273 364.874 773.83 365.945 773.969 367.016C774.387 369.992 767.285 380.464 773.83 386.653C775.64 388.438 781.071 391.651 781.071 396.649C774.944 400.338 773.273 414.024 774.666 414.262C775.919 414.619 798.478 418.189 798.478 418.189L811.846 404.623C811.846 404.623 809.757 402.481 808.504 399.267C807.251 396.292 806.694 392.246 807.808 388.2C810.036 379.75 821.455 362.732 821.455 362.732L815.049 356.425C813.656 355.592 812.403 354.64 811.011 353.807C809.061 352.498 806.972 351.189 805.023 349.88C803.352 349.046 801.263 346.904 799.035 347.142Z" fill="#3F3161"/>
<path d="M714.508 443.419C708.381 447.109 704.064 459.009 708.66 463.056C714.926 468.53 759.765 488.523 772.298 489.237C778.425 489.594 781.071 486.262 785.249 487.809C793.883 491.022 803.769 495.425 803.769 503.042C803.769 503.042 805.719 504.113 808.365 497.568C811.289 490.07 815.327 474.242 820.062 463.413C826.886 447.823 840.672 435.208 838.304 419.975C835.798 404.266 815.049 401.767 808.504 399.268C808.504 399.268 794.44 406.289 785.249 405.337C776.058 404.266 781.071 399.149 781.071 396.65C778.147 396.65 775.919 396.174 772.994 397.007C770.349 397.721 767.842 399.03 765.475 400.458C762.551 402.243 759.765 404.266 756.423 405.694C755.031 406.289 753.638 407.003 751.967 406.646C750.296 406.408 748.904 405.575 747.65 404.742C741.523 400.815 726.066 390.818 724.534 389.509C722.585 387.724 708.381 398.554 707.963 400.577C707.545 403.076 710.052 406.527 711.305 408.669C714.647 414.382 718.407 420.094 722.167 425.568C724.534 428.901 726.902 432.233 729.826 435.327C731.218 436.755 732.89 438.183 734.561 439.492C736.232 440.682 738.042 441.396 739.713 442.467C735.396 442.348 731.219 442.229 726.902 442.11C721.889 441.753 717.154 441.753 714.508 443.419Z" fill="url(#paint0_linear_440_8547)"/>
<path d="M827.164 361.899C826.886 361.066 826.607 360.114 827.303 359.519C827.721 359.043 828.417 358.924 829.114 358.686C830.785 358.21 832.316 357.377 833.57 356.425C834.962 355.354 835.519 354.283 836.076 352.736C837.051 350.118 837.051 347.143 835.519 344.881C833.848 342.263 830.367 340.597 826.886 340.835C823.404 340.954 820.201 342.977 818.809 345.714C816.163 342.62 811.568 340.835 806.972 341.192C804.605 341.43 802.238 342.144 799.87 342.263C796.111 342.382 791.933 340.121 788.312 340.716C784.831 341.311 782.185 343.929 782.185 347.976C782.185 350.475 784.97 356.425 784.97 356.425C784.97 356.425 786.502 353.807 787.059 353.212C788.591 351.189 791.237 350.118 794.161 351.665C795.832 352.498 796.668 354.164 796.807 355.83C796.946 357.496 796.389 359.043 795.832 360.59C795.275 362.137 794.718 363.684 794.579 365.351C794.579 366.065 794.579 366.898 794.997 367.493C795.414 368.207 796.111 368.683 796.946 368.802C797.642 368.802 798.339 368.564 798.617 367.969C799.035 367.255 799.592 366.66 800.567 366.303C801.959 365.708 803.769 365.827 805.023 366.66C806.415 367.493 805.719 369.754 805.301 370.944C804.327 374.038 801.959 376.061 800.706 378.917C799.313 382.012 798.896 385.463 799.592 388.795C799.87 390.104 800.288 391.532 801.263 392.603C802.238 393.674 803.63 394.626 805.301 394.626C807.529 394.745 809.34 393.436 811.011 392.246C814.214 389.866 817.556 387.486 820.758 385.106C822.151 384.035 823.961 383.083 824.936 381.655C825.911 380.226 826.746 378.679 827.303 377.013C829.114 372.253 829.114 367.017 827.443 362.256C827.164 362.018 827.164 361.899 827.164 361.899Z" fill="#1EAEF7"/>
<path d="M797.085 505.422V499.233L894.841 484.596L907.652 503.875L956.53 499.233L958.062 475.194L1134.5 448.894L1392.11 472.1C1377.91 477.931 1363.57 483.644 1349.36 489.475C1320.12 501.376 1290.88 513.276 1261.63 525.177C1250.08 529.937 1238.38 534.578 1226.82 539.339C1212.9 545.051 1202.45 555.524 1195.35 567.305C1194.65 568.495 1193.96 569.805 1192.7 570.757C1191.59 571.709 1189.78 572.304 1188.39 571.828C1187.13 571.471 1186.3 570.519 1185.6 569.566C1183.1 566.591 1179.75 560.165 1175.85 558.499C1174.6 558.023 1172.51 558.142 1171.12 557.904C1168.75 557.547 1166.52 557.309 1164.16 556.952C1157.61 556 1150.93 555.048 1144.38 554.215C1125.03 551.477 1105.53 548.74 1086.18 546.003C1061.67 542.552 1037.3 539.101 1012.79 535.769C987.027 532.198 961.404 528.509 935.642 524.939C912.526 521.726 889.41 518.513 866.294 515.18C849.584 512.8 833.013 510.539 816.302 508.159C809.897 507.207 803.491 506.255 797.085 505.422Z" fill="#CFF0FF"/>
<path d="M840.115 476.503C840.115 479.002 840.115 490.546 840.115 494.354C840.115 496.972 842.064 498.757 845.545 499.233C849.027 499.709 910.716 507.683 910.716 507.683L967.67 498.757V494.711C967.67 494.711 926.034 500.78 919.628 501.613C913.222 502.446 903.892 500.899 903.892 492.331C903.892 483.762 911.83 482.81 917.261 481.977C922.692 481.263 967.67 475.075 967.67 475.075L932.579 460.794C932.579 460.794 854.179 468.053 847.216 468.886C840.115 469.719 840.115 472.933 840.115 476.503Z" fill="#3F3161"/>
<path d="M955.138 474.956C955.138 474.956 944.137 486.619 944.137 502.566C944.137 518.512 957.505 515.18 976.443 515.18C995.382 515.18 1001.09 512.681 1001.09 499.828C1001.09 486.976 987.166 467.935 987.166 467.935L955.138 474.956Z" fill="#1EAEF7"/>
<path d="M809.34 605.268L803.909 512.8L1165.55 558.855L1162.62 619.311L809.34 605.268Z" fill="#3F3161"/>
<path d="M797.085 505.422V592.654H825.215V519.465L957.227 540.053V598.842H984.381V542.79L1149.95 567.186V601.103H1178.08V558.856L797.085 505.422Z" fill="#0062B8"/>
<path d="M904.867 583.133C904.867 583.133 904.728 583.133 904.728 583.252C899.715 585.037 884.815 592.772 882.726 584.323C881.891 580.872 881.751 577.183 881.473 573.612C881.194 569.804 880.916 565.996 880.637 562.069C880.498 558.26 880.22 554.333 880.22 550.525C880.22 548.621 880.22 546.717 880.08 544.813C880.08 543.504 880.637 541.719 880.22 540.409C879.663 538.386 877.017 538.743 875.764 540.647C874.928 541.838 874.928 543.385 874.789 544.813C874.65 552.905 874.51 560.879 874.371 568.971C874.232 573.255 872.282 575.516 867.13 573.493C863.37 571.946 860.863 568.852 859.61 565.52C858.357 562.188 858.078 558.618 857.939 555.047C857.8 551.715 857.521 548.502 857.382 545.17C857.382 542.671 857.382 539.814 859.471 537.791C860.724 536.601 862.395 535.887 864.205 535.173C865.598 534.578 867.13 534.102 868.522 533.507C865.041 534.102 861.699 534.935 858.357 535.887C857.661 536.125 856.964 536.363 856.407 536.72C854.04 538.267 854.736 542.195 854.597 544.456C854.597 547.431 854.736 550.525 854.597 553.5C854.458 558.499 853.901 563.735 851.255 568.138C850.419 569.685 849.166 571.232 847.634 572.303C846.103 573.374 844.014 574.088 841.925 573.969C838.165 573.612 835.38 570.518 834.823 567.305C834.405 564.925 834.962 562.426 835.659 560.165C836.355 558.142 836.216 556.237 836.216 554.214C836.355 549.216 836.494 544.218 836.076 539.219C835.937 536.244 835.519 533.507 839.001 531.722C841.647 530.294 861.142 526.486 866.712 525.891C885.372 528.628 918.932 533.983 918.932 533.983C918.932 533.983 904.589 536.958 904.31 539.933C904.032 542.433 904.31 545.051 904.31 547.55C904.31 548.264 904.31 558.737 904.31 558.737H914.197C914.197 556.475 914.197 554.095 914.197 551.834C914.197 550.049 914.197 548.264 914.197 546.479C914.197 545.17 913.64 542.79 915.172 541.957C916.286 541.243 929.098 543.028 934.25 543.504C936.756 543.742 946.783 543.98 948.175 545.17C949.707 546.479 949.011 549.811 949.011 551.596C949.011 554.095 949.011 556.594 949.011 559.094C949.011 562.188 949.011 565.282 949.011 568.376C949.011 568.733 943.441 570.28 943.023 570.399C941.909 570.756 937.313 573.017 936.478 571.946C936.06 571.47 936.199 570.875 936.339 570.28C937.313 564.925 923.945 561.474 923.806 565.996C923.667 569.09 924.363 572.898 922.413 575.636C921.16 577.54 918.793 578.492 916.425 579.206C912.666 580.634 908.767 581.824 904.867 583.133Z" fill="#0062BA"/>
<path d="M1180.17 340.835H995.382L987.584 349.284L997.471 471.505L1190.89 443.657C1191.03 443.657 1192.7 373.8 1180.17 340.835Z" fill="#0062BA"/>
<path d="M1012.51 350.594L1169.17 347.5L1179.89 434.851L1020.87 454.725L1012.51 350.594Z" fill="white"/>
<path d="M1074.9 456.51C1073.64 458.89 1072.81 461.508 1072.25 464.008C1071.83 466.388 1071.83 468.53 1070.44 470.672C1069.46 472.219 1067.79 473.528 1065.98 474.48C1062.22 476.503 1058.05 477.574 1054.01 479.24C1051.78 480.192 1049.55 481.383 1047.74 482.93C1046.07 484.477 1045.37 485.786 1044.82 487.809C1047.74 489.118 1050.53 490.427 1053.45 491.736C1055.4 492.569 1057.35 493.521 1059.16 494.354C1059.58 494.473 1061.25 495.544 1061.67 495.425C1063.06 495.068 1064.59 494.711 1065.98 494.354C1072.95 492.569 1080.05 490.784 1087.01 488.999C1097.04 486.5 1106.92 484.001 1116.95 481.383C1126.7 478.883 1136.45 476.384 1146.19 474.004C1152.04 472.457 1158.17 471.505 1163.74 469.363C1164.71 469.006 1166.66 468.649 1166.52 467.459C1166.52 466.507 1165.13 465.793 1164.44 465.317C1162.76 464.365 1160.95 463.651 1159.14 463.055C1154.55 461.508 1149.54 461.151 1144.66 461.27C1126 461.627 1130.04 443.776 1130.04 443.776C1123.77 445.085 1117.37 446.514 1111.1 447.823C1100.94 449.965 1090.77 452.226 1080.74 454.368C1078.79 454.725 1075.73 454.844 1074.9 456.51Z" fill="#0062BA"/>
<path d="M1069.19 508.278V520.178L1142.57 532.793L1273.33 491.141V483.167L1218.19 469.601L1069.19 508.278Z" fill="#0062BA"/>
<path d="M999.281 430.447C1001.37 431.042 1003.32 431.637 1005.41 432.232C1006.38 432.47 1007.5 432.708 1008.19 432.113C1008.61 431.756 1008.75 431.161 1008.89 430.566C1009.17 429.019 1010.14 427.472 1010.7 425.925C1011.54 422.949 1009.31 419.022 1005.69 418.308C1005.83 415.809 1003.04 413.548 1000.12 413.667C999.142 413.667 997.888 414.024 997.053 413.667C996.914 413.667 996.774 413.548 996.635 413.548C995.521 412.953 995.382 411.763 994.964 410.692C994.407 408.788 992.875 407.003 990.647 406.288C988.558 405.574 985.773 406.05 984.381 407.598C979.925 406.645 982.571 412.596 978.254 412.596C977.14 412.596 976.026 412.12 975.051 411.763C974.494 411.644 973.937 411.406 973.38 411.406C972.962 411.406 972.127 411.644 971.848 411.525C971.152 411.287 970.734 410.216 970.038 409.859C969.202 409.383 967.949 409.383 967.392 410.097C967.253 410.335 967.113 410.692 966.835 410.93C966.139 411.287 965.442 410.692 964.885 410.216C960.986 406.646 955.555 409.978 953.884 413.667C953.188 415.095 953.049 416.642 952.213 417.951C951.378 419.26 949.846 420.569 948.036 420.212C947.339 420.093 946.782 419.855 946.086 419.974C945.668 420.093 945.251 420.45 944.833 420.569C943.719 421.045 942.326 420.331 941.212 419.736C939.82 418.903 938.149 418.189 936.478 418.308C934.807 418.427 932.996 419.617 933.275 421.045C933.414 422.116 934.528 422.949 934.667 424.02C935.085 426.163 932.022 427.353 930.072 428.781C927.148 430.923 926.591 435.088 928.819 437.706C926.034 438.777 923.109 439.967 921.16 442.11C920.046 443.3 919.35 444.847 919.489 446.394C919.489 447.227 919.767 447.822 920.185 448.536C920.603 449.607 920.464 449.607 919.907 450.678C918.096 453.891 917.818 457.699 919.071 461.032C921.021 466.03 926.73 469.838 932.857 470.552C931.325 471.504 930.072 473.051 929.654 474.598C931.743 473.646 934.11 473.17 936.478 473.289C936.756 475.074 937.313 476.86 938.009 478.526C937.87 478.05 941.352 476.86 941.63 476.86C943.301 476.384 944.972 476.026 946.782 476.503C948.314 476.979 949.568 477.812 950.96 478.407C952.353 479.002 954.024 479.478 955.555 479.002C957.783 478.407 959.454 476.622 961.683 475.788C963.354 475.193 965.999 475.431 967.113 474.122C967.81 473.408 967.81 472.456 967.81 471.623C968.088 465.197 969.063 458.77 971.012 452.582C972.405 447.822 974.494 443.062 978.254 439.491C982.849 435.207 989.255 433.779 995.382 432.113C998.445 431.28 1001.51 430.328 1004.15 428.662C1006.66 427.234 1009.59 426.52 1009.72 423.425C1009.72 422.711 1009.59 421.878 1009.31 421.164" fill="#0062BA"/>
<path d="M1025.6 458.057C1025.6 457.938 1025.74 457.819 1025.74 457.7C1026.85 454.963 1024.21 452.106 1026.16 449.607C1026.99 448.536 1028.25 447.584 1029.08 446.513C1029.92 445.442 1030.61 444.014 1030.06 442.705C1029.08 440.444 1025.6 440.206 1023.65 438.421C1020.59 435.683 1025.18 432.351 1021.98 429.971C1020.73 429.019 1018.64 429.019 1017.66 430.09C1017.24 428.9 1015.71 428.186 1014.18 428.186C1012.79 428.186 1011.4 428.781 1010.28 429.614C1009.72 430.09 1009.17 430.566 1008.33 430.566C1007.22 430.566 1006.38 429.495 1006.52 428.543C1006.52 427.591 1007.08 426.639 1007.36 425.687C1007.91 423.426 1006.24 420.927 1003.74 420.094C1001.23 419.261 998.028 420.213 996.635 422.236C995.382 421.046 993.571 420.332 991.622 420.332C989.812 420.332 987.862 421.046 986.748 422.355C985.773 420.213 983.685 418.547 981.039 417.951C977.975 417.237 976.443 419.142 973.798 419.856C971.709 420.332 969.62 419.499 967.531 419.261C964.468 419.023 961.265 420.213 959.454 422.355C958.897 422.95 958.619 423.664 957.923 424.259C957.226 424.973 956.112 425.568 954.998 425.211C954.163 424.973 953.884 424.14 953.188 423.664C952.353 423.069 951.378 422.593 950.264 422.95C949.985 423.069 948.314 424.259 949.01 424.616C947.757 424.021 946.086 424.973 946.086 426.163C946.086 426.758 946.504 427.472 946.086 428.067C945.947 428.305 945.529 428.543 945.39 428.781C944.833 429.376 945.111 430.209 945.668 430.923C946.086 431.518 946.643 432.232 946.643 432.946C946.643 434.136 945.251 434.969 943.858 434.969C942.466 434.969 941.352 434.374 940.238 433.779C939.124 433.184 938.009 432.47 936.756 432.113C935.503 431.875 933.832 432.113 933.275 433.065C932.439 434.255 933.414 435.802 934.25 436.993C932.857 436.636 931.325 437.231 930.768 438.302C930.072 439.373 930.49 440.801 931.465 441.515C929.654 441.753 928.54 443.3 928.401 444.847C928.262 446.275 929.794 448.06 929.097 449.25C928.401 450.44 927.148 451.392 926.451 452.701C925.198 455.32 925.059 458.295 926.312 460.913C928.122 465.078 933.136 467.934 938.288 467.934C941.63 467.934 945.529 466.982 948.036 468.886C949.985 470.433 950.682 472.695 951.656 474.599C952.074 475.313 952.631 476.503 953.327 477.098C954.163 477.812 955.834 477.812 956.948 477.931C957.226 477.931 957.505 478.05 957.644 478.169C958.062 478.526 958.062 479.121 958.201 479.597C958.48 480.311 959.315 480.787 960.29 480.906C961.265 481.025 962.1 480.787 963.075 480.668C963.354 482.81 965.303 484.595 967.67 482.81C968.506 482.096 969.341 481.263 970.595 481.144C971.569 481.025 972.544 481.501 973.38 481.739C974.633 481.977 976.165 481.501 977 480.668C977.836 479.835 978.114 478.526 977.697 477.455C978.811 478.288 980.482 478.526 981.874 478.05C983.267 477.574 984.381 476.503 984.52 475.313C985.356 477.098 987.444 476.384 989.115 476.503C991.343 476.622 993.432 477.217 995.521 477.574C998.445 478.05 1001.65 478.05 1004.02 476.622C1007.22 474.718 1007.78 470.79 1010.28 468.172C1012.37 465.911 1015.71 464.602 1018.64 463.293C1021.56 462.341 1024.49 460.675 1025.6 458.057Z" fill="#3F3161"/>
<path d="M950.821 449.131C951.378 449.845 951.378 450.559 951.1 451.273C950.682 451.987 949.985 452.463 949.15 452.582C947.34 453.058 945.529 451.273 946.086 449.845C946.365 449.012 947.34 448.417 948.314 448.298C948.871 448.179 949.289 448.179 949.846 448.417C950.125 448.417 950.542 448.774 950.821 449.131Z" fill="url(#paint1_linear_440_8547)"/>
<path d="M965.025 465.316C964.885 465.078 964.746 464.959 964.746 464.721C964.607 464.364 964.468 463.888 964.607 463.531C964.746 462.103 966.417 461.508 967.81 461.865C968.785 462.103 969.899 463.055 969.759 464.007C969.62 464.602 969.202 465.078 968.785 465.435C968.088 465.911 967.392 466.03 966.556 466.03C966.139 466.03 965.582 465.911 965.164 465.554C965.164 465.435 965.164 465.435 965.025 465.316Z" fill="url(#paint2_linear_440_8547)"/>
<path d="M977.975 441.991C977.418 441.515 976.583 441.158 975.747 441.158C975.19 441.158 974.772 441.277 974.215 441.515C972.962 442.11 972.405 443.657 972.962 444.847C973.519 446.037 975.051 446.752 976.443 446.514C978.114 446.156 979.228 444.371 978.532 442.824C978.393 442.467 978.254 442.229 977.975 441.991Z" fill="url(#paint3_linear_440_8547)"/>
<path d="M999.559 453.534C999.559 453.415 999.559 453.415 999.42 453.296C999.281 452.82 998.863 452.344 998.306 452.106C997.749 451.868 997.192 451.868 996.635 451.987C995.66 452.106 994.686 452.582 994.268 453.534C993.711 454.725 994.407 456.391 995.66 456.867C996.914 457.343 998.306 456.748 999.142 455.677C999.559 455.082 999.699 454.248 999.559 453.534Z" fill="url(#paint4_linear_440_8547)"/>
<path d="M997.749 431.994C998.446 432.708 998.724 433.541 998.585 434.493C998.585 434.969 998.167 435.564 997.749 435.921C996.496 436.873 994.268 436.754 993.154 435.683C992.04 434.612 992.318 432.708 993.572 431.875C994.129 431.518 994.964 431.161 995.66 431.161C996.496 431.042 997.192 431.518 997.749 431.994Z" fill="url(#paint5_linear_440_8547)"/>
<path d="M1006.1 495.425V505.422L1037.58 510.777L1066.26 501.138V494.235L1044.82 491.617L1006.1 495.425Z" fill="#1EAEF7"/>
<path d="M1252.03 482.453C1254.53 483.048 1255.09 487.213 1256.9 488.998C1259.13 491.141 1262.19 492.569 1265.53 492.807C1270.82 493.164 1275.84 490.903 1280.99 489.95C1285.03 489.236 1289.07 489.236 1293.11 489.831C1297.14 490.426 1300.9 492.212 1304.8 492.926C1307.31 493.283 1306.75 493.283 1307.31 491.141C1307.73 489.474 1308.14 487.927 1308.56 486.261C1308.84 484.833 1312.32 468.053 1313.02 468.053C1302.99 467.934 1292.55 466.744 1283.08 463.65C1280.43 462.817 1277.79 461.865 1275 461.746C1271.38 461.627 1267.9 462.936 1264.7 464.245C1257.18 467.22 1249.66 470.195 1242.28 473.408C1238.52 475.075 1234.76 476.741 1231.14 478.526C1228.63 479.716 1225.15 481.858 1228.21 484.595C1229.33 485.547 1231 485.904 1232.67 485.785C1234.2 485.666 1235.73 485.19 1237.26 484.833C1240.05 483.881 1247.99 481.501 1252.03 482.453Z" fill="#1EAEF7"/>
<path d="M1287.67 471.029C1287.67 471.267 1287.54 471.505 1287.54 471.743C1286.84 476.741 1286.98 481.859 1287.81 486.857C1288.51 491.617 1290.46 493.759 1295.75 494.473C1297.7 494.711 1299.23 495.425 1301.32 496.02C1305.36 497.211 1309.68 497.568 1313.85 498.401C1319.01 499.353 1324.16 500.186 1329.31 500.9C1340.03 502.447 1351.59 503.994 1361.48 500.305C1370.53 496.973 1376.8 489.951 1382.51 483.168C1384.46 480.788 1386.4 478.407 1387.52 475.789C1388.63 473.052 1388.91 469.958 1387.38 467.34C1385.43 464.127 1381.25 462.342 1377.08 461.985C1372.9 461.628 1368.72 462.342 1364.68 463.056C1354.38 464.722 1343.51 467.34 1332.93 466.745C1322.49 466.031 1313.02 464.246 1302.85 462.223C1299.65 461.508 1296.03 461.032 1292.97 462.342C1289.62 463.889 1288.23 467.578 1287.67 471.029Z" fill="url(#paint6_linear_440_8547)"/>
<path d="M1324.58 381.773C1324.44 381.773 1324.16 381.773 1324.02 382.011C1323.74 382.368 1323.88 384.63 1323.88 385.106C1323.6 386.415 1323.32 387.605 1322.91 388.914C1321.37 394.031 1319.01 398.91 1315.94 403.433C1314.83 405.099 1313.58 406.765 1313.85 408.669C1314.13 410.811 1316.36 412.358 1318.59 413.548C1320.68 414.619 1322.91 415.809 1324.58 417.475C1326.11 419.023 1326.39 421.284 1327.08 423.188C1327.92 425.687 1328.75 428.186 1329.59 430.566C1331.26 435.208 1333.49 441.991 1338.64 444.728C1345.74 448.655 1359.67 446.156 1360.92 448.417C1362.17 450.678 1367.88 477.693 1368.44 477.455C1369 477.217 1421.78 448.536 1421.78 448.536L1395.18 391.889C1389.19 391.056 1383.34 390.223 1377.35 389.39C1363.98 387.486 1350.62 385.582 1337.25 383.678C1333.63 383.202 1329.45 382.011 1325.69 382.011C1325.13 381.892 1324.85 381.773 1324.58 381.773Z" fill="#1EAEF7"/>
<path d="M1407.85 443.776C1397.68 444.133 1381.25 444.014 1375.82 433.78C1372.48 427.234 1374.71 420.689 1376.38 415.334C1378.05 409.621 1378.89 399.625 1368.58 399.863C1355.63 400.101 1367.05 416.643 1359.67 417.357C1352.29 418.071 1348.11 412.715 1346.86 402.005C1346.02 394.983 1335.44 392.603 1329.87 389.033C1325.83 386.415 1323.18 383.083 1322.07 378.917C1320.82 373.919 1321.23 368.683 1323.18 363.923C1323.6 362.733 1324.16 361.661 1324.85 360.59C1329.17 353.331 1337.11 347.857 1346.16 345.358C1355.21 342.858 1365.24 343.453 1374.15 346.429C1382.65 349.285 1389.61 353.926 1398.8 355.473C1407.57 356.901 1416.76 356.782 1425.4 358.686C1430.41 359.757 1435.42 361.661 1439.04 364.875C1442.38 367.85 1444.47 371.658 1445.73 375.585C1447.26 380.346 1447.54 385.344 1446.42 390.104C1445.31 394.864 1442.66 399.506 1438.49 402.957C1435.56 405.456 1431.94 407.241 1428.88 409.502C1426.09 411.644 1425.12 415.096 1422.75 417.714C1412.31 429.376 1419.27 443.181 1419.27 443.181C1419.27 443.181 1418.15 443.419 1407.85 443.776Z" fill="#3F3161"/>
<path d="M1070.72 460.913L1081.44 459.366C1081.44 459.366 1087.29 469.006 1080.33 474.123C1076.71 476.741 1072.25 478.645 1067.79 480.192C1063.89 481.62 1059.72 483.168 1057.49 486.381C1056.65 487.571 1056.24 488.88 1055.4 490.07C1055.26 490.308 1053.59 492.807 1053.45 492.807C1052.48 492.688 1051.36 492.569 1050.39 492.331C1048.86 492.093 1048.16 492.331 1046.63 492.569C1045.79 492.688 1037.44 491.974 1037.85 491.022C1039.94 486.5 1042.73 482.097 1047.18 479.121C1053.03 475.194 1067.93 472.814 1070.02 468.53C1071.69 465.317 1071.27 462.817 1070.72 460.913Z" fill="#3F3161"/>
<path d="M1006.1 495.425L1039.39 487.928C1039.39 487.928 1061.39 490.189 1069.19 488.88L1040.5 501.257L1006.1 495.425Z" fill="white"/>
<path d="M1069.19 508.277V520.178L1142.57 532.793C1142.57 531.246 1143.13 528.628 1142.43 527.318C1141.6 525.89 1138.67 525.771 1137.14 525.414C1134.77 524.819 1132.27 524.224 1129.9 523.629C1121.55 521.487 1113.19 519.464 1104.83 517.322C1096.62 515.299 1088.4 513.157 1080.33 511.134C1076.57 510.181 1072.81 509.229 1069.19 508.277Z" fill="#3F3161"/>
<path d="M1171.82 520.893C1168.47 519.346 1165.13 517.68 1161.79 516.133C1159.56 515.062 1157.33 513.991 1155.24 512.562C1153.85 511.729 1150.65 510.301 1152.04 508.635C1152.6 507.921 1153.71 507.564 1154.55 507.088C1164.71 503.161 1176.13 499.829 1186.44 496.378C1191.73 494.592 1197.02 492.926 1202.31 491.379C1204.96 490.546 1207.6 489.832 1210.25 488.999C1214.01 487.928 1216.24 487.809 1220 488.88C1223.34 489.832 1226.96 491.022 1229.88 492.688C1232.25 493.997 1234.9 495.306 1236.29 497.449C1237.4 498.996 1237.68 501.138 1236.43 502.566C1235.59 503.756 1233.92 504.351 1232.53 504.946C1222.36 508.873 1211.78 511.967 1201.2 514.705C1200.08 515.062 1198.69 515.3 1197.58 514.943C1196.05 514.348 1195.77 514.229 1194.1 514.705C1192.42 515.181 1190.61 515.657 1188.94 516.133C1186.02 516.966 1183.1 517.799 1180.17 518.513C1178.08 519.108 1176.13 519.703 1174.04 520.179C1173.49 520.417 1172.37 521.012 1171.82 520.893Z" fill="#3F3161"/>
<path d="M1237.26 531.841C1232.39 528.152 1226.54 525.176 1222.23 521.249C1213.03 513.038 1201.48 507.206 1187.97 506.135C1183.79 505.778 1179.75 506.254 1175.58 506.135C1170.84 506.016 1166.11 505.897 1161.51 506.73C1156.64 507.563 1155.11 514.109 1155.24 517.917C1155.8 527.081 1168.47 534.459 1176.83 538.981C1184.21 542.908 1192.56 544.218 1200.5 547.074C1203.57 548.145 1206.77 549.335 1210.11 549.454C1213.17 549.454 1216.24 548.621 1219.16 547.55C1226.54 544.813 1233.64 540.885 1238.1 535.173C1238.38 534.697 1238.8 534.221 1238.8 533.745C1238.52 532.912 1237.82 532.317 1237.26 531.841Z" fill="#1EAEF7"/>
<path d="M797.085 499.233V505.422L1178.08 563.616V557.666L797.085 499.233Z" fill="white"/>
<path d="M969.481 429.02C969.481 429.734 969.899 430.329 970.595 430.567C971.152 430.686 971.709 430.686 972.127 430.448C973.241 429.972 974.076 428.187 972.823 427.473C971.57 426.64 969.481 427.711 969.481 429.02Z" fill="url(#paint7_linear_440_8547)"/>
<path d="M1017.11 448.418C1018.5 449.608 1020.45 447.585 1019.19 446.394C1017.8 445.204 1015.71 447.227 1017.11 448.418Z" fill="url(#paint8_linear_440_8547)"/>
<path d="M988.002 468.53C987.862 468.887 987.862 469.244 988.141 469.482C988.419 469.839 988.837 470.077 989.255 470.196C990.09 470.315 991.065 470.077 991.483 469.482C993.154 467.34 988.559 466.15 988.002 468.53Z" fill="url(#paint9_linear_440_8547)"/>
<path d="M1235.04 594.677C1232.39 589.678 1232.39 586.108 1226.4 583.252C1219.44 579.92 1211.78 577.421 1203.98 575.874C1200.5 575.16 1197.02 574.684 1193.82 573.374C1190.61 572.065 1187.69 569.923 1186.72 567.067C1185.32 563.259 1187.69 559.094 1190.2 555.761C1197.44 545.884 1207.19 537.196 1218.47 530.651C1221.81 528.628 1225.57 526.843 1229.61 526.605C1233.92 526.486 1237.82 528.152 1241.72 529.818C1251.61 534.221 1261.49 538.505 1271.38 542.909C1274.72 544.337 1278.34 545.884 1281.83 545.17C1285.72 544.456 1288.23 541.362 1290.46 538.624C1296.73 530.77 1302.85 522.916 1309.12 515.061C1314.55 508.278 1319.42 499.471 1327.08 494.473C1331.68 491.498 1335.86 488.166 1341.01 485.547C1350.9 480.43 1360.23 474.718 1369.97 469.482C1380 464.007 1390.16 459.009 1400.61 454.249C1408.41 450.678 1416.48 447.346 1424.98 445.323C1434.45 443.181 1446.28 442.348 1455.47 446.037C1460.35 447.941 1464.25 451.511 1467.45 455.082C1475.67 464.602 1480.54 476.146 1484.72 487.333C1488.34 497.21 1491.26 507.445 1493.49 517.679C1494.05 519.94 1494.47 522.321 1495.02 524.701L1357.02 610.267C1355.49 610.029 1354.1 609.91 1352.57 609.672C1330.29 606.815 1308.01 604.078 1285.72 601.222C1269.01 598.961 1251.89 595.986 1235.04 594.677Z" fill="url(#paint10_linear_440_8547)"/>
<path d="M1460.49 500.661C1460.49 500.661 1398.1 518.988 1382.37 549.335C1366.63 579.563 1363.71 587.06 1363.71 587.06L1466.89 584.204L1460.49 500.661Z" fill="#3F3161"/>
<path d="M-14.7608 113.651C-14.7608 113.651 390.884 192.553 404.67 195.29C418.456 198.027 424.444 205.287 424.444 215.997C424.444 226.827 424.444 570.876 424.444 570.876L-20.4702 567.186L-14.7608 113.651Z" fill="white"/>
<path d="M110.149 350.593C112.516 350.236 114.188 348.57 116.276 347.618C118.504 346.547 121.289 346.309 123.796 346.428C125.606 346.428 127.417 346.547 128.948 347.261C130.48 347.975 131.873 349.165 132.151 350.712C132.43 352.26 131.176 353.926 129.366 354.045C127.556 354.283 126.024 353.093 124.353 352.617C121.15 351.784 117.947 353.807 115.441 355.592C112.934 357.496 109.731 359.4 106.529 358.686C104.718 358.329 103.604 357.139 102.073 356.425C100.123 355.592 99.1482 356.068 97.4772 355.83C95.2491 355.592 94.4136 355.116 94.8313 352.736C96.0846 345 105.415 351.308 110.149 350.593Z" fill="#CFF0FF"/>
<path d="M77.9818 437.231C79.7921 438.302 81.0454 440.563 83.1342 440.206C84.109 440.087 84.8052 439.373 85.5015 438.659C87.0333 436.993 88.4258 434.97 90.5146 433.899C92.6034 432.709 95.9455 432.709 97.338 434.494C97.7558 434.97 97.895 435.565 98.452 436.041C99.5661 437.112 101.655 437.112 103.187 436.517C104.718 435.922 106.111 434.851 107.643 434.375C110.846 433.304 115.023 434.732 116.137 437.469C117.251 440.206 114.884 443.776 111.403 443.895C108.478 444.014 105.693 441.991 102.769 442.467C100.819 442.705 99.2876 444.014 97.7558 445.085C96.224 446.156 93.9959 446.989 92.3249 446.156C91.4894 445.799 90.7931 444.966 89.9576 444.609C87.7295 443.538 85.0837 444.847 82.8557 446.156C80.7669 447.346 77.7033 448.418 75.893 446.87C75.0575 446.275 74.779 445.204 73.9435 444.728C71.2977 443.062 63.9173 448.18 65.8668 443.3C67.1201 439.73 73.8042 434.851 77.9818 437.231Z" fill="#CFF0FF"/>
<path d="M48.4603 461.389C49.5743 461.032 50.6883 460.913 51.8024 461.27C54.1697 461.984 55.4229 464.602 57.9295 464.364C60.436 464.126 61.2716 460.913 63.7781 460.794C66.2847 460.556 67.538 463.531 70.0445 464.245C72.4118 464.84 74.6399 463.293 76.4502 461.865C78.2605 460.556 81.0455 459.247 82.9951 460.556C83.5521 461.032 83.9698 461.627 84.6661 461.984C87.7297 463.769 91.6288 458.414 94.6923 460.08C96.2241 460.913 95.9456 462.936 94.8316 464.007C93.5783 465.078 91.768 465.554 90.097 465.792C87.8689 466.149 85.7801 466.506 83.5521 466.744C82.9951 466.863 82.2988 466.863 81.7418 466.625C81.324 466.387 81.0455 466.149 80.767 465.911C79.3745 464.84 77.1464 465.435 75.6146 466.387C74.0829 467.339 72.8296 468.648 71.0193 469.005C69.3482 469.362 67.3987 468.648 66.4239 467.458C66.0062 466.982 65.8669 466.387 65.3099 466.03C63.7781 464.84 61.4108 465.792 60.0183 467.101C58.6258 468.291 56.9547 469.838 55.0052 469.6C52.4986 469.362 51.1061 466.506 48.5995 466.387C47.0677 466.268 45.6752 467.339 44.4219 468.172C41.4976 470.076 39.4088 469.481 41.2191 466.744C42.6116 464.245 45.3967 462.222 48.4603 461.389Z" fill="#CFF0FF"/>
<path d="M326.549 468.887C326.27 469.006 325.992 469.125 325.853 469.244C323.207 470.791 321.118 473.052 319.447 475.432C318.89 476.146 318.472 476.86 318.472 477.693C318.611 478.764 319.586 479.597 320.839 479.716C325.853 480.431 328.081 473.885 333.512 474.837C335.6 475.194 337.132 476.741 339.221 476.86C342.981 477.217 346.044 473.052 349.665 474.004C350.918 474.242 351.893 475.194 352.868 475.908C355.374 477.812 359.134 479.24 362.058 477.931C364.286 476.979 365.261 474.48 364.426 472.457C363.451 470.434 362.337 470.315 360.109 470.196C357.881 470.077 355.792 469.839 353.842 468.887C352.589 468.292 351.475 467.34 349.943 466.864C347.994 466.269 345.905 466.507 344.095 467.34C341.867 468.292 340.196 470.553 337.689 470.196C333.372 469.244 330.587 466.983 326.549 468.887Z" fill="#CFF0FF"/>
<path d="M350.222 484.239C351.336 483.525 352.45 482.93 353.842 482.93C356.628 482.93 358.299 485.548 360.944 486.143C365.957 487.333 369.996 481.264 375.148 481.859C378.908 482.335 381.136 486.262 385.035 486.619C387.124 486.857 389.213 485.905 391.023 484.953C392.833 484.001 395.061 483.168 397.15 483.644C399.239 484.12 400.632 486.619 399.1 487.809C397.846 488.88 395.897 488.404 394.087 488.523C389.909 488.761 386.845 492.688 382.807 492.45C379.326 492.212 376.819 489.118 373.338 488.88C368.325 488.404 364.426 493.878 359.413 493.521C355.931 493.164 353.146 490.07 349.665 490.784C347.298 491.26 343.816 494.711 343.955 491.26C344.095 488.523 348.133 485.548 350.222 484.239Z" fill="#CFF0FF"/>
<path d="M-2.6458 477.217C-3.48132 477.217 -4.03833 476.741 -4.03833 476.027C-4.03833 475.313 -3.48132 474.837 -2.6458 474.837C28.4077 474.837 33.9778 455.796 38.0161 441.753C29.2432 443.657 19.0777 443.062 7.79819 440.206C7.38043 440.087 6.96267 439.73 6.82342 439.373C6.68417 439.016 6.82342 438.54 7.24118 438.183C7.38043 437.945 22.002 426.044 25.0656 401.291C25.2048 400.696 25.7619 400.22 26.5974 400.22C26.8759 400.22 57.6508 402.6 68.6518 398.315C69.0696 398.077 69.6266 398.196 70.0444 398.434C70.4621 398.672 70.6014 399.148 70.6014 399.505C70.6014 399.624 68.0948 416.642 78.6781 418.428C82.5772 419.023 85.9192 418.428 88.7043 416.404C94.8314 412.12 97.6165 402.362 97.6165 395.102V368.326C97.6165 367.969 97.7558 367.731 98.0343 367.493C98.3128 367.255 98.7305 367.136 99.1483 367.136C99.566 367.136 136.886 369.516 155.407 363.208C156.103 362.97 156.938 363.208 157.217 363.922C157.495 364.517 157.217 365.232 156.381 365.47C139.253 371.301 107.782 369.992 100.402 369.635V395.102C100.402 403.076 97.338 413.429 90.5146 418.19C87.0333 420.689 82.8557 421.522 78.1211 420.689C67.2593 418.904 67.2593 406.051 67.6771 401.053C56.2583 404.266 33.56 402.957 27.7114 402.481C24.9263 422.831 14.9001 434.255 10.8618 438.183C21.3058 440.682 30.775 440.92 38.8517 438.897C40.8012 432.708 44.9788 423.069 50.8274 423.545C54.8658 423.902 55.9798 425.806 56.2583 426.877C57.2331 430.209 53.6125 434.851 49.7134 437.231C47.0676 438.778 44.2825 439.968 41.219 440.801C41.0797 441.158 40.9404 441.515 40.9404 441.872C36.7629 456.034 30.775 477.217 -2.6458 477.217ZM50.2704 426.044C47.7639 426.044 44.561 430.804 42.0545 438.064C44.1433 437.35 46.2321 436.398 48.0424 435.327C51.3844 433.422 54.1695 429.495 53.4732 427.591C53.334 427.234 53.0555 426.282 50.4097 426.044C50.4097 426.044 50.2704 426.044 50.2704 426.044Z" fill="#1EAEF7"/>
<path d="M383.921 394.626C383.086 394.626 382.389 394.626 381.554 394.626C366.654 394.031 353.146 387.723 347.437 378.917C340.613 380.821 334.765 383.677 329.055 386.414C317.915 391.77 308.446 396.292 297.166 391.175C279.203 382.963 280.456 364.279 280.456 363.446L283.241 363.565C283.241 363.803 282.127 381.535 298.42 389.033C308.307 393.555 316.801 389.509 327.524 384.272C332.955 381.654 339.082 378.679 346.044 376.656C335.043 356.187 342.006 342.739 342.284 342.263C342.563 341.787 342.981 341.549 343.538 341.549H386.706C387.542 341.549 388.099 342.025 388.099 342.739C388.099 358.329 397.429 370.586 397.568 370.706C397.846 371.063 397.846 371.539 397.568 371.896C397.289 372.253 396.872 372.491 396.315 372.491C379.744 372.491 364.426 374.276 349.804 377.965C355.096 385.938 367.489 391.532 381.275 392.127C397.15 392.722 410.797 386.652 418.456 375.585C420.127 373.205 421.659 370.706 423.191 367.968C429.735 357.139 437.116 344.762 454.244 344.762C467.055 344.762 474.575 353.092 481.12 360.59C486.69 366.778 492.26 372.61 499.641 372.61L500.058 375.109C491.285 375.109 484.74 368.682 478.892 362.018C472.347 354.759 465.663 347.142 454.244 347.142C438.926 347.142 432.242 358.21 425.697 369.039C424.165 371.658 422.494 374.276 420.823 376.775C413.443 388.2 399.935 394.626 383.921 394.626ZM344.791 343.929C343.538 346.904 339.778 358.924 348.969 375.942C363.312 372.253 378.212 370.348 394.226 370.229C391.58 366.302 386.01 356.306 385.592 343.929H344.791V343.929Z" fill="#1EAEF7"/>
<path d="M393.808 399.744C393.808 399.744 387.124 396.412 389.213 399.03C390.884 401.172 380.997 399.387 379.047 401.41C375.009 405.694 384.06 412.121 389.77 415.215L393.808 399.744Z" fill="url(#paint11_linear_440_8547)"/>
<path d="M389.213 399.029C389.213 399.029 362.058 435.802 353.564 444.252C353.564 444.252 368.743 460.437 415.114 461.508L441.711 450.44L444.079 413.667L441.711 401.766L389.213 399.029Z" fill="#CFF0FF"/>
<path d="M-5.57007 558.974C-3.62052 554.333 -6.12708 513.157 21.7236 502.327C21.7236 502.327 22.1413 502.565 22.0021 502.922C21.7236 505.302 20.888 515.537 36.3451 516.965C53.891 518.631 70.0444 508.873 72.9687 523.748C75.893 538.624 29.9395 563.378 29.9395 563.378L-5.57007 558.974Z" fill="url(#paint12_linear_440_8547)"/>
<path d="M22.2806 490.784C22.1414 493.521 21.7236 500.9 21.7236 502.328C21.7236 503.161 18.3815 518.751 38.0162 520.774C57.6509 522.797 67.8164 510.539 73.2473 523.749L121.15 506.731V488.047C121.15 488.047 110.01 475.908 71.5763 475.908C39.8265 475.908 26.876 485.31 23.3947 488.642C22.5591 489.356 22.2806 490.189 22.2806 490.784Z" fill="#3F3161"/>
<path d="M19.7739 567.543C19.7739 567.543 25.7618 548.264 27.9899 544.813C32.8637 537.673 40.5227 534.102 45.118 532.436C49.7134 530.77 181.029 481.858 181.029 481.858C181.029 481.858 272.518 505.422 325.295 502.328C368.046 499.828 389.213 507.326 401.885 515.537C414.417 523.749 422.494 539.339 430.989 539.339C444.775 539.22 428.482 520.298 433.356 506.969C437.951 494.473 469.005 481.025 500.337 484.834C504.236 485.31 508.831 489.475 508.831 489.475L566.9 572.542L19.7739 567.543Z" fill="#1EAEF7"/>
<path d="M449.509 492.331C446.585 486.618 440.876 477.812 432.103 474.718C418.595 469.957 413.303 462.579 410.658 446.751C408.012 430.923 392.555 416.761 397.846 411.644C403.138 406.527 421.102 419.736 426.533 428.662C430.432 435.088 435.166 429.852 435.166 429.852C435.166 429.852 441.015 420.569 440.597 409.026L389.213 399.029C389.213 399.029 382.529 395.935 385.871 390.342C389.213 384.748 426.533 387.605 438.369 394.269C450.206 400.814 460.232 423.902 463.156 435.445C466.359 448.06 491.982 478.526 497.273 487.094C498.109 488.403 495.741 489.593 495.741 489.593L461.485 495.782C461.485 495.782 451.041 495.425 449.509 492.331Z" fill="url(#paint13_linear_440_8547)"/>
<path d="M288.393 329.291C288.393 329.291 299.812 345.595 312.066 350.831C324.321 356.068 329.612 354.044 330.169 360.233C330.726 366.302 320.422 373.919 320.282 382.249C320.004 390.58 322.093 423.901 317.497 430.566C312.902 437.23 275.443 473.527 275.443 473.527L215.982 368.801L288.393 329.291Z" fill="url(#paint14_linear_440_8547)"/>
<path d="M289.925 565.163C289.925 565.163 301.205 580.99 318.194 548.978C332.676 521.844 338.246 495.782 317.08 459.842C297.863 427.234 277.949 418.189 266.67 410.811C255.39 403.432 253.859 387.723 266.67 383.558C278.785 379.631 281.709 390.699 287.558 389.27C293.407 387.723 304.408 355.711 296.749 334.408C289.09 313.106 259.429 296.326 223.641 293.708C182.004 290.733 143.988 298.468 125.746 346.309C118.922 364.16 119.619 383.677 116.276 396.649C111.263 416.761 97.6165 423.663 96.5025 445.799C95.5278 468.053 107.782 482.453 104.161 502.922C100.541 523.391 71.5762 560.045 101.376 579.086C131.316 598.128 289.925 565.163 289.925 565.163Z" fill="#0062BA"/>
<path d="M55.7012 379.512H12.5328C11.8365 379.512 11.2795 379.155 11.1402 378.56C11.001 378.084 11.2795 377.489 11.8365 377.251C12.115 377.132 36.3451 366.183 38.5731 342.62C38.5731 342.025 39.2694 341.549 39.9656 341.549H78.678C79.3743 341.549 79.9313 341.906 80.0705 342.501C80.0705 342.739 86.3369 365.826 56.2583 379.393C56.119 379.393 55.9797 379.512 55.7012 379.512ZM17.4066 377.132H55.2835C80.2098 365.826 78.3995 348.213 77.564 343.929H41.3582C39.1301 361.899 24.6478 372.729 17.4066 377.132Z" fill="#1EAEF7"/>
<path d="M1031.31 439.492C1031.03 439.492 1030.61 439.373 1030.47 439.254C1030.2 439.016 1030.06 438.778 1029.92 438.421L1028.94 417.952C1028.94 417.357 1029.5 416.762 1030.2 416.762L1162.49 405.218L1160.54 394.031L1029.5 402.719C1029.08 402.719 1028.8 402.6 1028.52 402.481C1028.25 402.243 1028.11 402.005 1028.11 401.648L1026.85 381.298C1026.85 380.583 1027.41 380.107 1028.11 379.988L1158.59 373.8L1156.5 360.828L1014.18 363.566H1013.48L1013.35 361.185H1014.74L1157.75 358.448C1158.45 358.448 1159 358.924 1159.14 359.519L1161.65 374.871C1161.65 375.228 1161.65 375.585 1161.37 375.823C1161.09 376.061 1160.81 376.18 1160.4 376.299L1029.78 382.488L1030.89 400.458L1161.79 391.77C1162.49 391.77 1163.18 392.127 1163.32 392.722L1165.69 406.17C1165.69 406.527 1165.69 406.765 1165.41 407.122C1165.13 407.36 1164.85 407.598 1164.44 407.598L1032.01 419.142L1032.84 437.231L1177.66 421.879L1178.22 421.76L1178.5 424.14L1031.59 439.73C1031.45 439.492 1031.45 439.492 1031.31 439.492Z" fill="#1EAEF7"/>
</g>
<defs>
<linearGradient id="paint0_linear_440_8547" x1="772.656" y1="389.312" x2="772.656" y2="503.107" gradientUnits="userSpaceOnUse">
<stop stop-color="#232C3C"/>
<stop offset="0.0001" stop-color="#5F77A2"/>
</linearGradient>
<linearGradient id="paint1_linear_440_8547" x1="948.633" y1="448.22" x2="948.633" y2="452.661" gradientUnits="userSpaceOnUse">
<stop stop-color="#232C3C"/>
<stop offset="0.0001" stop-color="#5F77A2"/>
</linearGradient>
<linearGradient id="paint2_linear_440_8547" x1="967.16" y1="461.764" x2="967.16" y2="466.03" gradientUnits="userSpaceOnUse">
<stop stop-color="#232C3C"/>
<stop offset="0.0001" stop-color="#5F77A2"/>
</linearGradient>
<linearGradient id="paint3_linear_440_8547" x1="975.745" y1="441.158" x2="975.745" y2="446.559" gradientUnits="userSpaceOnUse">
<stop stop-color="#232C3C"/>
<stop offset="0.0001" stop-color="#5F77A2"/>
</linearGradient>
<linearGradient id="paint4_linear_440_8547" x1="996.843" y1="451.909" x2="996.843" y2="457.033" gradientUnits="userSpaceOnUse">
<stop stop-color="#232C3C"/>
<stop offset="0.0001" stop-color="#5F77A2"/>
</linearGradient>
<linearGradient id="paint5_linear_440_8547" x1="995.538" y1="431.143" x2="995.538" y2="436.567" gradientUnits="userSpaceOnUse">
<stop stop-color="#232C3C"/>
<stop offset="0.0001" stop-color="#5F77A2"/>
</linearGradient>
<linearGradient id="paint6_linear_440_8547" x1="1337.77" y1="461.518" x2="1337.77" y2="502.582" gradientUnits="userSpaceOnUse">
<stop stop-color="#232C3C"/>
<stop offset="0.0001" stop-color="#5F77A2"/>
</linearGradient>
<linearGradient id="paint7_linear_440_8547" x1="971.465" y1="427.179" x2="971.465" y2="430.645" gradientUnits="userSpaceOnUse">
<stop stop-color="#232C3C"/>
<stop offset="0.0001" stop-color="#5F77A2"/>
</linearGradient>
<linearGradient id="paint8_linear_440_8547" x1="1018.12" y1="446.032" x2="1018.12" y2="448.78" gradientUnits="userSpaceOnUse">
<stop stop-color="#232C3C"/>
<stop offset="0.0001" stop-color="#5F77A2"/>
</linearGradient>
<linearGradient id="paint9_linear_440_8547" x1="989.878" y1="467.219" x2="989.878" y2="470.226" gradientUnits="userSpaceOnUse">
<stop stop-color="#232C3C"/>
<stop offset="0.0001" stop-color="#5F77A2"/>
</linearGradient>
<linearGradient id="paint10_linear_440_8547" x1="1340.66" y1="443.493" x2="1340.66" y2="610.267" gradientUnits="userSpaceOnUse">
<stop stop-color="#232C3C"/>
<stop offset="0.0001" stop-color="#5F77A2"/>
</linearGradient>
<linearGradient id="paint11_linear_440_8547" x1="385.925" y1="398.026" x2="385.925" y2="415.215" gradientUnits="userSpaceOnUse">
<stop stop-color="#232C3C"/>
<stop offset="0.0001" stop-color="#5F77A2"/>
</linearGradient>
<linearGradient id="paint12_linear_440_8547" x1="33.7663" y1="502.327" x2="33.7663" y2="563.378" gradientUnits="userSpaceOnUse">
<stop stop-color="#232C3C"/>
<stop offset="0.0001" stop-color="#5F77A2"/>
</linearGradient>
<linearGradient id="paint13_linear_440_8547" x1="441.193" y1="387.368" x2="441.193" y2="495.782" gradientUnits="userSpaceOnUse">
<stop stop-color="#232C3C"/>
<stop offset="0.0001" stop-color="#5F77A2"/>
</linearGradient>
<linearGradient id="paint14_linear_440_8547" x1="273.086" y1="329.291" x2="273.086" y2="473.527" gradientUnits="userSpaceOnUse">
<stop stop-color="#232C3C"/>
<stop offset="0.0001" stop-color="#5F77A2"/>
</linearGradient>
<clipPath id="clip0_440_8547">
<rect width="1425.95" height="556" fill="white"/>
</clipPath>
</defs>
</svg>
