<svg width="482" height="482" viewBox="0 0 482 482" fill="none" xmlns="http://www.w3.org/2000/svg">
<g clip-path="url(#clip0)">
<path d="M281.5 273H169C168.2 273 167.5 272.3 167.5 271.5V71.8C167.5 71 168.2 70.3 169 70.3H281.5C282.3 70.3 283 71 283 71.8V174.9C283 175.7 282.3 176.4 281.5 176.4C280.7 176.4 280 175.7 280 174.9V73.3H170.5V270H280V196.4C280 195.6 280.7 194.9 281.5 194.9C282.3 194.9 283 195.6 283 196.4V271.5C283 272.3 282.4 273 281.5 273Z" fill="#1EAEF7"/>
<path d="M449.1 242.4H304.5C303.7 242.4 303 241.7 303 240.9C303 240.1 303.7 239.4 304.5 239.4H447.6V3.5H306V185.8C306 186.6 305.3 187.3 304.5 187.3H193.1C192.3 187.3 191.6 186.6 191.6 185.8C191.6 185 192.3 184.3 193.1 184.3H303V2C303 1.2 303.7 0.5 304.5 0.5H449.1C449.9 0.5 450.6 1.2 450.6 2V240.9C450.6 241.8 450 242.4 449.1 242.4Z" fill="#1EAEF7"/>
<path d="M448.1 357.6H349.8C349 357.6 348.3 356.9 348.3 356.1V333.3C348.3 332.5 349 331.8 349.8 331.8H478.1V273H383C382.2 273 381.5 272.3 381.5 271.5V173.1C372.1 172.9 363.6 172.1 358.3 168.4C354.2 165.6 351.5 161 350.8 156C350.2 151.5 351.4 147.2 354.2 144C357.2 140.4 363.7 138.1 370.2 140.5C375.4 142.4 384.1 148.8 384.5 170.1C385.2 170.1 385.9 170.1 386.5 170.1H427.1V123.7H325.1C324.3 123.7 323.6 123 323.6 122.2V100.1C323.6 99.3 324.3 98.6 325.1 98.6H428.7C429.5 98.6 430.2 99.3 430.2 100.1C430.2 100.9 429.5 101.6 428.7 101.6H326.6V120.7H428.7C429.5 120.7 430.2 121.4 430.2 122.2V171.6C430.2 172.4 429.5 173.1 428.7 173.1H386.6C385.9 173.1 385.2 173.1 384.6 173.1V270H479.7C480.5 270 481.2 270.7 481.2 271.5V333.4C481.2 334.2 480.5 334.9 479.7 334.9H351.4V354.7H448.2C449 354.7 449.7 355.4 449.7 356.2C449.7 357 449 357.6 448.1 357.6ZM364.9 142.5C361.4 142.5 358.2 144 356.6 145.9C354.4 148.5 353.5 151.9 353.9 155.6C354.4 159.8 356.7 163.5 360.1 165.9C364.7 169.1 372.9 169.9 381.6 170C381.4 162.3 380.1 156 377.7 151.3C375.6 147.3 372.7 144.5 369.3 143.3C367.8 142.8 366.3 142.5 364.9 142.5Z" fill="#1EAEF7"/>
<path d="M479.7 392H317.8C317 392 316.3 391.3 316.3 390.5V271.5C316.3 270.7 317 270 317.8 270H369.9C370.7 270 371.4 270.7 371.4 271.5C371.4 272.3 370.7 273 369.9 273H319.3V389H478.2V345.7C478.2 344.9 478.9 344.2 479.7 344.2C480.5 344.2 481.2 344.9 481.2 345.7V390.5C481.2 391.3 480.5 392 479.7 392Z" fill="#1EAEF7"/>
<path d="M428.8 79.3H325.1C324.3 79.3 323.6 78.6 323.6 77.8C323.6 77 324.3 76.3 325.1 76.3H428.7C429.5 76.3 430.2 77 430.2 77.8C430.2 78.6 429.6 79.3 428.8 79.3Z" fill="#1EAEF7"/>
<path d="M256.8 117.7H193.1C192.3 117.7 191.6 117 191.6 116.2C191.6 115.4 192.3 114.7 193.1 114.7H256.8C257.6 114.7 258.3 115.4 258.3 116.2C258.3 117 257.6 117.7 256.8 117.7Z" fill="#1EAEF7"/>
<path d="M256.8 140.2H193.1C192.3 140.2 191.6 139.5 191.6 138.7C191.6 137.9 192.3 137.2 193.1 137.2H256.8C257.6 137.2 258.3 137.9 258.3 138.7C258.3 139.5 257.6 140.2 256.8 140.2Z" fill="#1EAEF7"/>
<path d="M256.8 163.7H193.1C192.3 163.7 191.6 163 191.6 162.2C191.6 161.4 192.3 160.7 193.1 160.7H256.8C257.6 160.7 258.3 161.4 258.3 162.2C258.3 163 257.6 163.7 256.8 163.7Z" fill="#1EAEF7"/>
<path d="M137 191.6C137 191.6 144.6 160.1 152.5 151.5C157.7 145.8 161.6 136.2 165.5 129.5C167.5 126.1 168.2 121.7 171.8 122.4C182.6 124.5 168 153.7 168 153.7L167.6 203.6L151.8 215.4L137 191.6Z" fill="#0062BA"/>
<path d="M39.8001 240.2C39.8001 240.2 8.90007 296.5 2.60007 312.9C-3.79993 329.3 3.50007 413.9 27.6001 448.7C39.9001 466.4 21.7001 481.9 44.9001 481.9C68.1001 481.9 179.8 481.9 179.8 481.9C179.8 481.9 185.8 477 189.8 459.6C192.6 447.3 189.8 422.8 189.8 422.8C189.8 422.8 253.4 356.9 256.1 343.3C258.8 329.7 233.8 288.8 213.9 301.1C194 313.4 162 330.6 162 330.6L159.7 301.5C159.7 301.5 188.6 290.7 190 272.9C190 272.9 171.4 272.7 169.9 272.7C168.4 272.7 167.5 271.6 167.5 269.8C167.5 268 167.6 203.5 167.6 203.5C167.6 203.5 150.1 208.3 137 191.5L128.3 223.3L69.8001 214.7L39.8001 240.2Z" fill="#E23B53"/>
<path d="M32.2999 265.6C32.2999 265.6 43.3 285.8 67.3 286.8C91.3 287.8 90.7 253.5 90.7 253.5C90.7 253.5 106.3 244 109.8 233.9C113.3 223.8 113.5 210.1 116.4 206.3C119.3 202.4 126.1 196.9 126.4 191.6C126.8 186.3 115.8 187 107.6 172.2C99.3999 157.4 88.5 143.9 88.5 143.9L39.2999 165.8L26.2 234C26.3 233.9 32.2999 252.5 32.2999 265.6Z" fill="#0062BA"/>
<path d="M29.9001 247.1C29.9001 247.1 39.0001 253.6 48.8001 258.7C58.6001 263.8 73.1001 253.1 63.6001 233.9C54.1001 214.7 53.5001 201.1 63.3001 200.2C73.1001 199.3 71.4001 212.7 79.8001 209.4C85.5001 207.2 84.6001 198.8 84.6001 187C84.6001 175.2 103.9 165.2 103.3 150.1C102.7 135 85.4001 122.1 69.5001 126.9C69.5001 126.9 44.9001 118 24.2001 142.3C3.5001 166.6 -0.199902 185.7 0.400098 201.9C1.4001 230 24.3001 243.4 29.9001 247.1Z" fill="#1EAEF7"/>
<path d="M232.3 305.5C232.3 305.5 237.5 300.8 242.7 291C250.2 277.2 255.1 248.1 265.5 248.1C275.9 248.1 266.4 272.7 266.4 272.7C266.4 272.7 278.8 272.7 280.2 272.7C281.6 272.7 283 271.7 283 270C283 268.3 283 265.9 283 263.3C283 251 283 235.7 283 235.7C283 235.7 289.1 236.6 291.9 247.8C294.7 259.1 295.4 267.7 298.3 278.4C301.5 290.5 290 300.3 276.8 313.9C263.6 327.5 243.8 340.7 243.8 340.7L232.3 305.5Z" fill="#0062BA"/>
<path d="M448.1 312.5H349.7C348.9 312.5 348.2 311.8 348.2 311C348.2 310.2 348.9 309.5 349.7 309.5H448.1C448.9 309.5 449.6 310.2 449.6 311C449.6 311.8 449 312.5 448.1 312.5Z" fill="#1EAEF7"/>
</g>
<defs>
<clipPath id="clip0">
<rect width="481.9" height="481.9" fill="white"/>
</clipPath>
</defs>
</svg>
