<svg width="482" height="482" viewBox="0 0 482 482" fill="none" xmlns="http://www.w3.org/2000/svg">
<g clip-path="url(#clip0)">
<path d="M164.6 478.4C123.4 478.4 85.6 476 65.4 445.8C61.8 440.5 59.4 435.4 58 430.6C57.8 430.6 57.6 430.6 57.4 430.6C43.1 429.9 31.5 418.7 28.3 402.7C25.3 387.2 30.4 365 54.9 353.7C87.2 338.8 143.8 307.1 151.5 282.9C158 262.3 138.5 253.9 125.6 248.3C122.7 247.1 120.3 246 118.6 245C110.5 240.1 93.6 229.9 99.8 210.6C100.8 207.4 101.8 204.7 102.8 202C105.6 194.1 107.9 187.9 107.6 178.5C107.2 164 98.2 148.5 82.1 148.2C76.5 148.1 71.6 150 67.7 154C61.6 160.1 58 170.7 58.2 182.4C58.4 194.6 62 203.4 65.6 210.4C69 217 69.5 221.6 67.3 224.6C64.8 228 59.3 228.7 49.6 226.9C42.8 225.7 35.8 227.4 30.9 231.5C26.4 235.3 24 240.7 24 247.1V268C24 268.8 23.3 269.5 22.5 269.5H2.5C1.7 269.5 1 268.8 1 268V101.8C1 101 1.7 100.3 2.5 100.3H82.8V53.4C82.8 52.6 83.5 51.9 84.3 51.9H155.7C156.5 51.9 157.2 52.6 157.2 53.4V150H171.8C172.2 150 172.7 150 173.1 150C173 145.9 173 141.7 173 137.4V136.4C173 112.4 185.5 98.5 207.2 98.2C219.2 98 228.1 95.6 231.6 91.4C235.6 86.7 233.2 79.1 228.6 75.2C217.5 65.8 213.1 60.2 214.8 50.3C215.4 46.9 216.9 42.4 217.6 40.6C216.2 39 212.9 35.2 212.4 32.6C211.4 27.6 214.6 26.1 217.4 24.9C218.6 24.4 219.7 23.8 220.9 23C222.8 21.6 224.3 19 226 16.1C230 9.00001 235 0.100006 250.8 0.100006C265.7 0.100006 276.1 9.10001 278 23.5C279.6 35.5 275.5 49.4 273.1 57.6C272.8 58.5 272.6 59.3 272.4 60C265.9 82.5 277.4 86 293.3 90.9C296.7 91.9 300.2 93 303.7 94.3C324.2 102.1 324.5 126.6 324.5 126.9C324.5 127.7 323.8 128.4 323 128.4C322.2 128.4 321.5 127.7 321.5 126.9C321.5 126.7 321.2 104.1 302.7 97.1C299.3 95.8 295.8 94.7 292.5 93.7C277 88.9 262.3 84.5 269.6 59.1C269.8 58.3 270.1 57.5 270.3 56.6C272.7 48.6 276.7 35.1 275.1 23.7C273.3 10.7 264.3 2.90001 250.8 2.90001C236.8 2.90001 232.5 10.6 228.6 17.4C226.8 20.5 225.2 23.5 222.7 25.3C221.3 26.3 219.9 26.9 218.7 27.5C215.8 28.8 214.9 29.3 215.4 31.9C215.7 33.5 218.5 37.1 220.4 39.1C220.8 39.5 220.9 40.1 220.7 40.7C220.7 40.8 218.5 46.6 217.8 50.7C216.4 59.1 219.9 63.8 230.5 72.8C236.3 77.7 239 87.1 233.8 93.2C228.3 99.8 214.7 100.9 207.2 101C187.1 101.3 176 113.8 176 136.2V137.2C176 141.6 176 145.8 176.1 149.9C199.8 150.8 207.6 159.5 210.2 164.8C212.8 170.2 212.1 176.6 208.4 181.4C204.7 186 198.9 188.1 193.3 186.9C177.7 183.5 174.1 169.6 173.3 152.8C172.8 152.8 172.4 152.8 171.9 152.8H155.8C155 152.8 154.3 152.1 154.3 151.3V54.9H85.6V101.8C85.6 102.6 84.9 103.3 84.1 103.3H3.8V266.4H20.8V247C20.8 237.7 25.2 232.1 28.8 229.1C34.4 224.4 42.3 222.5 50 223.8C58.2 225.3 63.1 224.9 64.8 222.6C66.2 220.7 65.5 216.9 62.8 211.5C59.1 204.2 55.3 195.1 55.1 182.2C54.9 169.7 58.8 158.3 65.5 151.6C70.1 147.1 75.7 144.8 82.1 145C100 145.3 110.1 162.4 110.5 178.2C110.8 188.2 108.4 194.6 105.5 202.8C104.6 205.4 103.6 208.1 102.6 211.3C97.2 228.3 112.1 237.3 120.1 242.2C121.6 243.1 124 244.1 126.7 245.3C139.8 251 161.6 260.4 154.3 283.6C150.5 295.5 136 309.8 111.1 326C87.5 341.4 63.1 353 56.1 356.2C33.2 366.8 28.3 387.4 31.1 401.9C34 416.6 44.1 426.6 57 427.4C54 414.3 58 403.7 64.2 397.2C70.9 390.3 80 388.1 86.3 392C90.7 394.7 93.3 399.2 93.6 404.6C94 411.6 90.5 418.8 84.9 423.2C78.9 427.8 70.6 430.3 61.1 430.4C62.7 435.2 65 439.8 67.8 443.9C89 475.6 131.3 475.4 176.1 475.1C180 475.1 184 475.1 188 475.1C188.8 475.1 189.5 475.8 189.5 476.6C189.5 477.4 188.8 478.1 188 478.1C184 478.1 180.1 478.1 176.1 478.1C172.3 478.3 168.5 478.4 164.6 478.4ZM79.4 393.2C75.2 393.2 70.4 395.4 66.6 399.4C58.8 407.5 57.9 417.8 60.4 427.6C72.6 427.6 79.9 423.5 83.3 421C88.1 417.3 91.2 410.9 90.9 405C90.7 401.9 89.6 397.6 85.1 394.8C83.3 393.7 81.4 393.2 79.4 393.2ZM176.1 153.1C176.9 168.9 180.1 181.2 193.7 184.2C198.3 185.2 202.8 183.6 205.8 179.8C208.9 175.9 209.4 170.8 207.3 166.4C203.6 158.5 192.3 153.8 176.1 153.1Z" fill="#1EAEF7"/>
<path d="M166.5 458.4C166.5 458.4 176.3 469.2 193.5 466.4C210.7 463.6 193.5 406.6 193.5 406.6L163.7 426.4L166.5 458.4Z" fill="#3F3161"/>
<path d="M303.3 260.1C295.6 259.8 287.6 261.4 279.5 260.7C240.5 257.3 198.4 254 168.8 294.9C133 344.3 95.5002 412 122.7 440.2C147.6 466.1 159.9 469.4 166.4 458.5C173 447.7 172 422.8 196 417.6C220 412.4 341.8 457.6 341.8 457.6L360.6 428.4C360.6 428.4 371.4 458.5 402 459C432.6 459.5 465.5 413.4 440.1 396.9C414.7 380.4 400.1 367.7 395.4 352.7C390.7 337.7 387.4 285 359.2 273.2C338.7 264.6 318.5 262.9 309 262.5C305.4 262.3 303.3 260.1 303.3 260.1Z" fill="#0062BA"/>
<path d="M244 254.5C244 254.5 252.6 267.8 258.8 279.6C264.5 290.5 288.7 298.2 296.2 279.6C301.4 266.8 308.6 256.4 312.5 251.1C314.3 248.8 327.5 244 327.5 244L328.6 199.6L302 167.6L260.8 179.2L237.8 198.7L234.3 232.4L244 254.5Z" fill="#3F3161"/>
<path d="M231.6 319.1C211.4 320.7 197.9 295.1 214.4 257C229.1 223 212.1 210.7 227.2 183.2C240.9 158.4 268.4 148.3 295.7 152.4C306 154 317.1 157.6 324.6 165.1C331.8 172.3 336.8 181.5 339.6 191.2C343.2 203.4 343.4 216.4 342.1 229.1C341.5 234.5 340.7 240 341.2 245.4C342 253.1 347.5 268.9 347.5 268.9L305 262.3C305 262.3 310.5 253.1 313.3 248.4C315.7 244.5 318.4 240.8 320.6 236.8C322.8 232.8 324.1 228.1 323.5 223.6C323 219.9 320.4 216 316.7 215.8C313.7 215.6 311.1 217.9 309.7 220.5C308.6 222.5 307.7 224.9 305.5 225.4C303.4 225.9 301.4 223.8 301 221.7C300.6 219.4 301.6 216.9 302.1 214.7C302.5 212.9 304.2 210.1 303 208.4C302.2 207.2 300.3 207.2 299 208C297.8 208.8 297 210.1 296.2 211.4C295.9 211.9 295.5 212.4 295.2 212.9C288.1 222.8 275.6 228.6 263.5 228.6C259.7 228.6 255.9 227.9 252.6 226C252.2 225.8 249.2 224.1 249.3 223.5C249.3 223.5 245.6 246.5 254.9 266.1C264.2 285.6 263.8 316.6 231.6 319.1Z" fill="#E23B53"/>
<path d="M454.4 408.3C454.4 408.3 457.3 393.5 433.7 393.5C410.2 393.5 400.8 396.7 400.8 406.7C400.8 416.7 400.8 458.9 400.8 458.9C400.8 458.9 401.4 471.3 427.6 471.3C453.8 471.3 460.1 455 460.1 455L470.3 415.4L454.4 408.3Z" fill="#1EAEF7"/>
<path d="M461.4 419.8C461.4 419.8 441 431.4 438.2 445.8C436.1 456.6 433.2 461.3 439.2 469.6C447.6 481.4 464.1 473.3 475.1 455.9C486.1 438.5 480.6 416.9 471.3 407.2C462 397.5 454.3 408.6 454.3 408.6C454.3 408.6 461.4 411.4 461.4 419.8Z" fill="#3F3161"/>
<path d="M449.2 341.5C449.7 338.1 448.1 334.6 445.5 332.4C442.9 330.2 439.4 329.2 436 329.2C430.7 329.2 425.4 331.5 422 335.6C418.7 339.7 417.5 345.6 419.3 350.6C420.8 354.7 424.2 357.9 424.5 362.3C424.7 366 422.7 370.7 424.7 374.1C426 376.3 428.7 377.2 430.8 378.8C434.2 381.5 434.4 384.9 435 388.7C438 385.3 440.1 379.2 440.3 374.7C440.4 371.4 439.6 368.2 439.7 364.9C439.8 361.6 441.1 358.3 442.3 355.3C444.1 350.6 448.5 346.6 449.2 341.5Z" fill="#CFF0FF"/>
<path d="M197.3 357.4C181.1 357.4 178.2 359.3 178.9 379.7C179.6 400.1 186.6 465.3 188.1 476.7C188.7 481.5 192.5 481.5 206.5 481.5C220.5 481.5 344 481.5 355.6 481.5C362.5 481.5 361.4 472.5 362.6 461.6C363.8 450.7 367.9 387.8 368.4 375.9C368.9 364 370.4 357.4 353.3 357.4C336.3 357.4 205.1 357.4 197.3 357.4Z" fill="#CFF0FF"/>
<path d="M116.6 103.9H105.3C104.5 103.9 103.8 103.2 103.8 102.4V82.6C103.8 81.8 104.5 81.1 105.3 81.1H116.6C117.4 81.1 118.1 81.8 118.1 82.6V102.4C118.1 103.2 117.4 103.9 116.6 103.9ZM106.8 100.9H115.1V84.1H106.8V100.9Z" fill="#1EAEF7"/>
<path d="M139.2 132.4H127.4C126.6 132.4 125.9 131.7 125.9 130.9V111.8C125.9 111 126.6 110.3 127.4 110.3H139.2C140 110.3 140.7 111 140.7 111.8V130.9C140.7 131.7 140.1 132.4 139.2 132.4ZM129 129.4H137.8V113.3H129V129.4Z" fill="#1EAEF7"/>
<path d="M38.3001 145.8H25.6001C24.8001 145.8 24.1001 145.1 24.1001 144.3V126C24.1001 125.2 24.8001 124.5 25.6001 124.5H38.2001C39.0001 124.5 39.7001 125.2 39.7001 126V144.3C39.8001 145.1 39.1001 145.8 38.3001 145.8ZM27.1001 142.8H36.7001V127.5H27.1001V142.8Z" fill="#1EAEF7"/>
<path d="M38.3001 179.9H25.6001C24.8001 179.9 24.1001 179.2 24.1001 178.4V160.3C24.1001 159.5 24.8001 158.8 25.6001 158.8H38.2001C39.0001 158.8 39.7001 159.5 39.7001 160.3V178.4C39.8001 179.2 39.1001 179.9 38.3001 179.9ZM27.1001 176.9H36.7001V161.8H27.1001V176.9Z" fill="#1EAEF7"/>
</g>
<defs>
<clipPath id="clip0">
<rect width="481.9" height="481.9" fill="white"/>
</clipPath>
</defs>
</svg>
