<svg width="482" height="544" viewBox="0 0 482 544" fill="none" xmlns="http://www.w3.org/2000/svg">
<path d="M266 482.5H245.3C244.5 482.5 243.8 481.8 243.8 481V415.5H180.9C180.8 421.4 180.5 427.1 178.8 430.7C176.9 435 173.7 437.8 170 438.5C166.4 439.2 162.5 437.9 159.6 435C156.9 432.3 156.2 428.1 157.9 424C160.1 418.7 166.5 413 178 412.5V348.9H126.4C125.6 348.9 125 348.3 124.9 347.5C124.8 346.7 125.4 346 126.2 345.9C131.2 345.1 139.3 340.8 140.5 335.8C141.1 333.2 139.7 330.6 136.2 328.1C131.5 324.7 122.3 323.3 114.1 322.1C103.9 320.5 95.7999 319.3 95.2999 314.6C95.2 313.9 95.5999 313.3 96.2999 313C105.1 309.9 104.4 302.4 100.5 291.5C97.3999 282.8 86.5999 248 85.7999 245.5L56.0999 190.8C55.8999 190.4 55.8999 190 55.9999 189.6C56.0999 189.2 56.3999 188.9 56.7999 188.7C60.9999 186.6 71.3999 180 69.4999 174.3C61.6999 150.5 44.7999 112.9 44.5999 112.5C44.2999 111.9 44.4999 111.1 45.0999 110.7C45.6999 110.3 46.3999 110.3 46.9999 110.7C47.2999 110.9 74.5999 133.8 82.6999 141.4C87.4999 145.9 111.3 159.8 115.1 159.8C116.3 159.8 117.4 158.3 118.4 156.9C119.5 155.3 120.7 153.6 122.5 153.7C124.3 153.8 125.5 155.5 126.2 156.7C133 168.1 143.8 173.6 149.2 172.7C148.1 170.9 145.7 167.7 143.7 164.9C143.3 164.4 143.3 163.6 143.7 163.1C144.1 162.6 144.8 162.4 145.4 162.6C147 163.2 160.3 168.1 161.8 175.6C166.4 177.2 171.7 176.6 174.9 174C177.8 171.6 178.8 167.9 177.8 163.3C177.7 162.7 177.5 161.6 177.3 160.2C176.9 157.1 175.7 149 174.6 147.9C172.9 146.5 169.7 145.9 166.6 145.4C163.5 144.9 160.3 144.3 158 142.7C156.8 141.9 156.5 141.9 156.5 141.9C156.4 141.9 156.2 142.1 156.1 142.3C155 143.3 153.6 144.3 150.5 143.5C150.3 143.4 150.1 143.4 149.9 143.2C132.7 129.5 100.2 102.1 75.8999 71.5C66.5999 60 56.8999 57.4 49.1999 55.3C44.8999 54.1 41.1999 53.1 38.4999 50.8C34.4999 47.5 32.4999 41.6 34.0999 37.7C35.8999 33 41.4999 33.9 47.3999 34.8C53.4999 35.7 60.3999 36.8 64.6999 32.5C72.1999 24.9 74.4999 21.2 74.4999 21.1C74.7999 20.6 75.3999 20.3 75.9999 20.4C78.7999 20.8 82.4999 20.6 83.1999 19.8C83.7999 19.1 83.6999 18.4 82.9999 16C82.6999 15 82.3999 14 82.1999 12.7C81.3999 8.90001 81.3999 2.30001 81.3999 2.10001C81.3999 1.30001 82.0999 0.600006 82.8999 0.600006C83.6999 0.600006 84.3999 1.30001 84.3999 2.10001C84.3999 2.20001 84.3999 8.60001 85.0999 12.1C85.2999 13.3 85.5999 14.3 85.8999 15.2C86.5999 17.7 87.1999 19.9 85.3999 21.9C83.4999 23.9 78.8999 23.8 76.4999 23.5C75.3999 25 72.5999 28.6 66.7999 34.6C61.5 40 53.3999 38.8 46.8999 37.8C41.2999 36.9 37.7999 36.5 36.8999 38.8C35.9999 41.2 37.1999 45.8 40.4999 48.5C42.7999 50.4 46.1999 51.3 50.0999 52.4C57.7999 54.5 68.3999 57.4 78.2999 69.8C102.3 100 134.4 127.2 151.6 140.9C153.1 141.2 153.5 140.9 154.1 140.3C155.5 139 157 138.6 159.8 140.5C161.5 141.7 164.4 142.2 167.2 142.7C170.7 143.3 174.2 143.9 176.6 145.9C178.2 147.2 179.1 151.7 180.3 160.1C180.5 161.4 180.6 162.5 180.8 163C182 168.7 180.6 173.6 176.9 176.6C172.6 180.1 165.8 180.8 159.9 178.3C159.4 178.1 159 177.6 159 177C158.8 173.4 153.9 170.1 149.5 167.9C153.4 173.3 153.2 173.7 152.8 174.5C152.7 174.8 152.4 175 152.2 175.2C144.3 179.4 130.4 169.8 123.8 158.6C122.9 157.2 122.5 157 122.5 157C122.2 157.1 121.4 158.2 121 158.9C119.7 160.8 118 163.1 115.3 163.1C109.7 163.1 84.8999 147.7 80.7999 143.9C74.8999 138.3 58.4999 124.5 50.1999 117.5C55.2999 129.1 66.4999 155.4 72.5999 173.6C75.1999 181.5 63.7999 188.6 59.7999 190.9L88.7999 244.4C88.7999 244.5 88.8999 244.6 88.8999 244.7C88.9999 245.1 100.4 281.8 103.6 290.7C105.9 297.1 110.5 310.2 99.0999 315.4C101.3 317.3 109 318.4 114.8 319.3C123.3 320.6 133 322.1 138.2 325.9C143.9 330 144.3 334 143.6 336.7C142.7 340.5 139.1 343.8 135 346.1H179.7C180.5 346.1 181.2 346.8 181.2 347.6V412.6H245.6C246.4 412.6 247.1 413.3 247.1 414.1V479.6H266C266.8 479.6 267.5 480.3 267.5 481.1C267.5 481.9 266.8 482.5 266 482.5ZM177.9 415.5C167.9 415.9 162.4 420.7 160.6 425.1C159.4 428.1 159.8 431 161.7 432.8C163.9 435 166.8 436 169.5 435.5C172.3 435 174.6 432.9 176.2 429.4C177.5 426.3 177.9 420.8 177.9 415.5Z" fill="#1EAEF7"/>
<path d="M429 483.7C429.2 485.8 429.2 487.9 428.9 490C428.4 494 427.1 498 425.5 501.6C424.2 504.5 422.6 507.2 420.9 509.8C419.2 512.2 417.6 513.5 415.4 515.3C412.7 517.5 410 519.8 408.1 522.8C404.4 528.7 405.2 536.9 412.2 539.7C412.3 539.7 412.4 539.8 412.5 539.8C417.9 541.5 424.4 540.9 430 540.8C439.5 540.6 446.6 536 452.7 528.8C452.7 528.4 454.1 527.2 454.4 526.8C455.1 526 455.7 525.2 456.4 524.4C457.7 522.8 459.1 521.2 460.4 519.6C463.7 515.8 467 511.8 470.2 507.8C473 504.4 476.2 501.4 478.4 497.6C484.4 487.3 478.5 476 473.6 466.6C472.5 464.4 471.2 462.3 469.5 460.5C467.9 458.7 465.8 457.7 464.2 455.9C464.6 456.4 461.8 460.9 461.5 461.6C460.5 463.6 458.8 465.3 457.1 466.9C455.6 468.3 453.4 469.4 451.6 470.5C449.1 472 446.5 473.5 444 475C441.5 476.5 438.9 478 436.4 479.5C435.7 479.8 429 483.1 429 483.7Z" fill="#3F3161"/>
<path d="M338.6 431.7C338.6 431.7 353.5 455.8 344.8 478.2C343.5 481.5 340.6 482.6 337.1 482.6C320 482.6 269.2 482.6 261.6 482.6C252.4 482.6 249.7 468 262.5 460.7C275.3 453.4 302.6 452.6 302.1 440.1C302.1 440 329.6 423.5 338.6 431.7Z" fill="#3F3161"/>
<path d="M325.6 245.5C325.6 245.5 274.8 298.5 266 315.4C260.8 325.3 259.2 336 261.7 344.7C264.2 353.4 290.6 445.4 290.6 445.4C290.6 445.4 326.4 445 347.5 433.9C355.1 429.9 326.6 364.6 325.4 355.4C324.2 346.2 359.6 322.3 359.6 322.3C359.6 322.3 368.9 360 381.4 392.1C391.5 418.1 410 464.3 416.5 480.3C417.7 483.3 424.9 485.8 432.2 483.8C445.9 479.9 463.8 467.2 470 463.8C473.3 462 474.7 459 473.7 455.8C469.4 441.3 451 389.8 441.1 363.6C430.4 335.3 428.5 301.9 432 283.2C435.5 264.5 405.5 211 405.5 211L325.6 245.5Z" fill="#E23B53"/>
<path d="M326.5 106.5C312.1 105.9 300.2 111.8 283.2 126.6C266.2 141.4 230.9 147 206.7 138.7C191.9 133.6 182.1 131.1 182.1 141.3C182.1 151.5 177.4 170.6 186.6 176.2C195.9 181.8 219.5 196.2 257 194.9C284.2 194 291 190 291 190C291 190 301.4 216.3 314.8 243.2C327.6 268.8 391.4 238.9 391.4 238.9C391.4 238.9 412.5 276.9 424.6 273.5C436.7 270.1 451.2 252.5 451.2 252.5C451.2 252.5 432.3 199.3 422.4 180.1C412.5 160.9 416.5 126.6 371.4 105C344.6 92.1 350.6 107.4 326.5 106.5Z" fill="#1EAEF7"/>
<path d="M307.2 35.8C307.2 35.8 304.5 48.1 298.1 53.8C291.7 59.5 287.5 60.6 288.8 64.2C290.1 67.8 295.8 67.8 296.8 74.6C297.9 81.4 297.2 89.2 309.1 94.9C320.9 100.6 316.3 118.2 324.1 117.9C331.9 117.7 348.7 100.2 355.4 99.8V74.9L322 30.3L307.2 35.8Z" fill="#6A6A6A"/>
<path d="M325.1 47.8C321.1 48.6 306.6 45.7 301.4 36.8C299 32.7 297 25.2 302.5 22.7C303.5 22.3 304.5 22.1 305.6 21.8C309.4 20.7 309.1 18 310.3 15C311.7 11.7 315.1 9.39999 318.7 9.49999C321.6 9.59999 324.3 11.1 326.8 12.5C330.8 14.8 347.4 24.8 349 25.7C359.3 31.8 375.9 53.3 366.6 75.8C358.8 94.8 360.9 95.1 351.9 95.7C342.9 96.3 327.8 90.1 331.4 78.4C335.3 65.5 333.5 57.1 325.7 62.2C317.9 67.3 326.3 49.4 325.1 47.8Z" fill="#3F3161"/>
<path d="M425.5 273.4C425.5 273.4 428.8 299.9 433.8 302.5C441.2 306.3 437 287 439.7 285.8C442.4 284.6 444.3 300 445.9 304.2C449.9 315.6 465.7 314 465.2 292C464.7 270 457.5 264.2 451.2 252.3C451.1 252.4 428.4 249.8 425.5 273.4Z" fill="#6A6A6A"/>
<path d="M174.4 133.7C175 133.8 175.6 134 176.2 134.3C179.2 135.6 187.2 140.1 187.2 144.1C187.2 148.4 187.9 162.1 186.1 166.1C184.6 169.6 180.9 167.6 180.9 167.6C180.9 167.6 170.5 146.4 163.1 145C159.5 145 158 144.7 154.4 144.2C153 144 151.3 143.6 150.8 142.2C150.4 141.1 150.9 139.8 151.8 139.1C152.7 138.3 153.9 138 155 137.7C158.2 136.8 161.3 135.9 164.5 134.9C167.7 134 171.2 133 174.4 133.7Z" fill="#6A6A6A"/>
<path d="M156.5 162.8C157.2 163.1 157.8 163.5 158.1 164.2C158.5 165 158.2 166 158.7 166.8C159.3 167.7 160.5 167.8 161.6 168.2C163.1 168.8 164.2 170.2 164.8 171.8C165.4 173.4 165.5 175 165.6 176.7C165.6 177.4 165.7 178.1 165.3 178.7C164.6 179.7 163.2 179.5 162 179.3C157.5 178.2 154.6 176.8 150.9 174.4C144.8 170.4 141.5 162.5 141.5 162.5C141.5 162.5 147.7 161.6 148.9 161.7C151 161.9 156.1 162.6 156.5 162.8Z" fill="#6A6A6A"/>
<path d="M64.4 348.2H23C22.6 348.2 22.2 348 21.9 347.7C21.6 347.4 21.5 347 21.5 346.6C22.2 338.9 18.9 337.1 15.1 335C11.2 332.9 6.8 330.5 7.5 322.1L14.6 235.3C14.7 234.6 15.1 234.1 15.8 234C16.4 233.9 17.1 234.1 17.4 234.7L65.8 315.8C65.9 316 66 316.3 66 316.6V346.8C65.9 347.6 65.2 348.2 64.4 348.2ZM24.6 345.2H62.9V316.9L17.1 240.2L10.4 322.3C9.9 328.8 12.8 330.4 16.5 332.4C20.2 334.4 24.8 336.9 24.6 345.2Z" fill="#1EAEF7"/>
</svg>
