<svg width="202" height="202" viewBox="0 0 202 202" fill="none" xmlns="http://www.w3.org/2000/svg">
<mask id="mask0" mask-type="alpha" maskUnits="userSpaceOnUse" x="0" y="0" width="202" height="202">
<circle cx="101" cy="101" r="101" fill="#C4C4C4"/>
</mask>
<g mask="url(#mask0)">
<path d="M1219.03 99.5588H-1.14697V378.91H1219.03V99.5588Z" fill="#00AFF9"/>
<path d="M-0.544678 99.5588H71.1003L79.9246 95.1054L115.375 90.3566L144.943 99.5588H1218.4V-245.708H2.40854L-0.544678 99.5588Z" fill="#C0EFFF"/>
<path d="M71.1004 99.5588C84.2481 91.9986 103.054 85.5369 120.242 90.6165C134.877 94.9115 149.863 97.9039 165.024 99.5588C165.024 99.5588 169.265 109.009 157.122 112.305C144.978 115.601 132.256 115.99 131.228 120.645C130.2 125.299 137.241 122.039 136.744 129.315C136.248 136.592 122.144 139.947 102.404 136.474C82.6652 133.001 59.9608 134.997 52.2352 135.127C44.5096 135.257 42.3006 130.095 42.9149 125.193C45.7536 123.149 48.7035 121.264 51.7509 119.546C60.457 114.514 68.6551 103.244 71.1004 99.5588Z" fill="#0062BD"/>
<path d="M825.269 253.776C825.269 253.776 812.074 281.004 746.123 275.263C718.02 272.818 690.272 279.989 669.481 278.736C638.697 276.964 628.207 269.558 621.745 263.521C608.066 247.338 638.165 241.136 652.73 243.912C666.906 246.629 674.596 246.275 688.346 238.525C705.499 228.874 712.917 235.785 723.785 226.382C736.247 215.573 753.069 220.782 753.069 220.782C753.069 220.782 757.581 217.014 760.747 219.306C758.728 217.521 756.465 216.034 754.026 214.888C739.945 207.481 725.155 215.916 718.918 220.168C715.788 222.306 709.468 223.464 700.478 224.893C682.546 227.787 679.215 238.407 660.208 233.788C639.63 228.768 627.758 231.993 599.962 240.037C572.167 248.082 495.572 270.101 465.603 270.078C430.105 270.078 410.283 258.489 407.72 241.833C403.585 214.793 473.388 206.075 517.201 211.12C533.61 213.01 565.079 218.94 591.812 217.865C622.525 216.683 664.201 204.386 674.041 197.783C697.052 182.213 785.082 201.846 785.082 201.846L848.694 156.166C848.694 156.166 842.032 157.147 831.577 154.784C827.833 153.933 824.809 146.869 819.646 147.389C793.859 149.953 753.116 142.664 736.507 142.664C710.283 142.664 652.636 160.383 593.572 172.043C509.263 188.569 448.073 174.76 446.478 154.382C445.356 140.325 477.002 128.878 421.092 123.279C379.853 119.156 333.535 122.429 296.265 125.394C251.471 128.937 194.131 141.471 136.792 129.315C133.685 140.798 109.197 136.474 89.0678 134.797C74.6561 133.615 32.6968 133.19 21.3801 132.351C9.20101 138.151 6.68487 136.368 3.53084 136.758C-5.91946 137.939 -38.393 170.944 100.396 193.944C116.934 196.696 94.1237 185.781 87.1069 183.69C46.5297 171.605 77.2549 151.476 124.506 154.04C220.096 159.226 307.393 142.345 349.813 147.401C396.616 152.988 423.053 170.353 415.457 187.943C385.334 257.946 64.8751 211.143 6.64943 193.979C-47.6071 177.984 -20.2957 257.958 -20.2957 257.958C-20.2957 257.958 -31.0809 305.126 -0.520975 287.088C47.3802 258.891 130.366 244.715 219.269 263.002C271.352 273.716 350.794 304.677 385.831 326.685C441.209 361.485 514.402 329.047 525.222 321.145C540.65 309.97 560.413 295.298 606.318 289.77C664.602 282.741 714.264 309.237 781.94 314.577C815.949 317.294 817.733 294.388 832.865 291.908C896.454 281.524 905.632 280.969 932.577 271.601V251.531L825.269 253.776Z" fill="#C0EFFF"/>
<path d="M1159.11 -105.17C1151.36 -70.5937 1195.28 3.50845 1171.6 23.7793C1159.79 33.9148 1150.75 10.5726 1128.56 10.5726C1104.86 10.5726 1091.66 20.8379 1083.27 32.8871C1068.09 54.6818 1055.03 57.5641 1039.02 52.2601C1019.53 45.8103 1018.53 15.912 981.494 14.3645C963.976 13.6321 949.6 25.2205 949.6 25.2205C949.6 25.2205 945.158 -10.0173 903.967 -12.6752C890.642 -13.5375 941.118 -70.0739 930.392 -71.3142C901.651 -74.6337 840.756 -93.9359 802.222 -83.9186C763.157 -73.7595 746.596 -34.2337 741.386 -30.7607C729.573 -22.8815 728.12 -42.4909 700.041 -45.0897C680.845 -46.8616 664.603 -40.6599 654.562 -37.7066C644.521 -34.7534 636.11 -47.4404 626.955 -55.5795C604.51 -75.496 561.063 -82.4302 527.987 -57.0325C494.911 -31.6348 503.57 -39.0651 471.734 -49.9448C436.295 -62.053 390.379 -58.6508 363.646 -21.4403C363.646 -21.4403 356.31 -50.1456 325.136 -73.0625C295.191 -95.0817 259.693 -87.7341 227.503 -78.2838C195.313 -68.8335 169.62 -80.3511 145.994 -92.164C122.368 -103.977 91.6549 -116.085 56.2163 -106.339C20.7777 -96.5938 -4.0293 -108.702 -4.0293 -108.702L3.05842 0.767868C36.9259 0.767868 333.216 -17.7311 393.462 32.2846C453.707 82.3003 440.914 99.6179 482.259 99.6179H640.374C640.374 99.6179 654.361 76.7836 685.464 78.3548C716.567 79.9259 748.887 77.9295 758.338 63.3524C767.788 48.7753 747.174 25.0433 841.134 20.897C894.623 18.5344 949.174 18.5344 974.371 50.7717C999.568 83.009 1011.98 92.8373 1063.77 65.715C1116.92 37.8366 1147.31 48.8226 1232.51 48.8226L1218.48 -152.823C1218.48 -152.823 1170.77 -157.206 1159.11 -105.17ZM1057.62 11.7775C1053.91 10.0493 1049.89 9.10046 1045.8 8.98961C1038.91 8.75336 1029.74 16.8806 1037.63 8.52892C1045.52 0.177216 1055.67 5.22131 1055.67 5.22131C1062.86 -5.56384 1070.75 3.70926 1070.75 3.70926C1062.08 3.40213 1057.62 11.7538 1057.62 11.7538V11.7775Z" fill="white"/>
<path d="M78.7432 31.3395C78.7432 31.3395 69.73 36.5726 69.8127 44.499C69.8127 44.499 62.3351 40.8961 50.9121 43.873C50.9121 43.873 59.9253 34.8597 67.0485 39.7266C67.1194 39.7266 67.4737 29.3668 78.7432 31.3395Z" fill="white"/>
<path d="M88.737 79.0753L85.1931 99.1572C85.1931 99.1572 86.3744 103.244 97.4549 103.244C108.535 103.244 111.111 98.9918 111.111 98.9918L108.24 79.0753H88.737Z" fill="#FF3853"/>
<path d="M99.8294 54.0084V52.2838H99.0143L98.5182 52.7563L98.022 52.2838H97.2069V54.0084L89.2096 61.6514C88.8026 62.0403 88.5004 62.5258 88.3311 63.0627C88.1617 63.5996 88.1307 64.1706 88.241 64.7227L89.2805 69.9558H107.768L108.807 64.7227C108.917 64.1706 108.886 63.5996 108.717 63.0627C108.548 62.5258 108.246 62.0403 107.839 61.6514L99.8294 54.0084Z" fill="#FF3853"/>
<path d="M77.5029 101.331C76.4397 97.5742 78.4833 94.0304 82.7832 95.0699C85.5711 95.7432 85.2403 98.8973 85.2403 98.8973C85.7966 98.3242 86.4807 97.891 87.2367 97.6333C87.7544 97.4492 88.315 97.4222 88.8481 97.5557C89.3811 97.6893 89.8628 97.9773 90.2326 98.3838C90.6024 98.7902 90.8439 99.2968 90.9267 99.8401C91.0095 100.383 90.9298 100.939 90.6978 101.437C90.6978 101.437 93.8282 99.169 94.0763 101.744C94.0763 101.744 102.038 99.4525 102.109 102.925C102.18 106.398 96.2971 105.383 91.7492 104.378C86.9532 103.339 78.8732 106.127 77.5029 101.331Z" fill="#422D62"/>
<path d="M96.8171 112.801C97.3723 111.147 96.5099 108.749 91.3595 112.128C86.2091 115.506 81.7911 118.755 84.2718 120.586C86.7525 122.417 91.832 117.113 92.5408 118.625C94.2655 122.594 101.873 121.625 104.047 116.912C104.047 116.912 109.185 120.385 114.064 119.369C118.943 118.353 129.834 122.629 132.563 123.48C131.736 119.558 130.862 117.928 125.581 117.845C125.581 117.845 126.255 113.911 121.849 113.793C119.545 113.734 119.486 110.486 115.942 109.529C111.737 108.348 110.863 111.065 109.457 111.124C108.051 111.183 104.933 107.237 101.294 109.304C99.7325 110.378 98.2374 111.546 96.8171 112.801Z" fill="#422D62"/>
<path d="M131.358 109.789C133.72 111.478 137.43 109.706 140.619 109.056C143.809 108.407 149.219 108.04 149.632 106.316C150.223 103.835 144.411 104.237 143.312 103.953C141.871 103.587 140.95 102.217 139.119 101.827C136.756 101.319 135.102 102.772 134.087 105.135C130.921 104.485 129.125 108.206 131.358 109.789Z" fill="#422D62"/>
<path d="M108.394 100.563C109.693 102.488 113.001 101.508 115.233 98.7201C117.938 95.3534 119.71 97.6805 123.609 98.0822C129.078 98.6374 133.531 95.3062 127.649 93.5815C124.92 92.7782 123.62 92.6246 123.124 91.656C122.274 89.9786 119.864 87.0844 116.32 87.6632C115.341 87.7588 114.438 88.2337 113.804 88.9863C113.448 88.1055 112.815 87.3643 112.001 86.8742C111.188 86.3842 110.236 86.1719 109.291 86.2693L110.721 96.1685C108.37 97.1253 107.449 99.2635 108.394 100.563Z" fill="#422D62"/>
<path d="M95.1868 68.1484C95.1868 71.1843 94.3599 71.6096 93.3322 71.6096C92.3044 71.6096 91.4775 71.1016 91.4775 68.1484C91.4775 65.1952 92.3044 64.6873 93.3322 64.6873C94.3599 64.6873 95.1868 65.3015 95.1868 68.1484Z" fill="#C0EFFF"/>
<path d="M100.361 68.1484C100.361 71.1843 99.534 71.6096 98.5062 71.6096C97.4785 71.6096 96.6516 71.1016 96.6516 68.1484C96.6516 65.1952 97.4785 64.6873 98.5062 64.6873C99.534 64.6873 100.361 65.3015 100.361 68.1484Z" fill="#C0EFFF"/>
<path d="M105.547 68.1484C105.547 71.1843 104.72 71.6096 103.692 71.6096C102.664 71.6096 101.837 71.1016 101.837 68.1484C101.837 65.1952 102.664 64.6873 103.692 64.6873C104.72 64.6873 105.547 65.3015 105.547 68.1484Z" fill="#C0EFFF"/>
<path d="M110.874 68.9517H86.1854C85.011 70.537 84.4374 72.4878 84.5671 74.4565C84.5671 75.5035 84.7142 76.5453 85.0042 77.5514C85.2022 78.2545 85.6243 78.8738 86.2064 79.3151C86.7884 79.7565 87.4986 79.9958 88.2291 79.9967H108.854C109.585 79.9958 110.295 79.7565 110.877 79.3151C111.459 78.8738 111.881 78.2545 112.079 77.5514C112.357 76.5436 112.492 75.5018 112.481 74.4565C112.614 72.4892 112.045 70.5386 110.874 68.9517ZM88.1464 77.9294C87.1187 77.9294 86.2918 77.4215 86.2918 74.4683C86.2918 71.5151 87.1187 71.0071 88.1464 71.0071C89.1741 71.0071 90.001 71.6214 90.001 74.4683C90.0128 77.5042 89.1741 77.9176 88.1582 77.9176L88.1464 77.9294ZM93.3322 77.9294C92.3045 77.9294 91.4776 77.4215 91.4776 74.4683C91.4776 71.5151 92.3045 71.0071 93.3322 71.0071C94.3599 71.0071 95.1868 71.6214 95.1868 74.4683C95.1987 77.5042 94.3599 77.9176 93.3322 77.9176V77.9294ZM98.5181 77.9294C97.4904 77.9294 96.6635 77.4215 96.6635 74.4683C96.6635 71.5151 97.4904 71.0071 98.5181 71.0071C99.5458 71.0071 100.361 71.6214 100.361 74.4565C100.361 77.5042 99.5458 77.9176 98.5181 77.9176V77.9294ZM103.704 77.9294C102.676 77.9294 101.849 77.4215 101.849 74.4683C101.849 71.5151 102.676 71.0071 103.704 71.0071C104.732 71.0071 105.559 71.6214 105.559 74.4565C105.559 77.5042 104.732 77.9176 103.704 77.9176V77.9294ZM108.89 77.9294C107.862 77.9294 107.035 77.4215 107.035 74.4683C107.035 71.5151 107.862 71.0071 108.89 71.0071C109.917 71.0071 110.744 71.6214 110.744 74.4683C110.744 77.5042 109.917 77.9176 108.89 77.9176V77.9294Z" fill="white"/>
<path d="M100.42 52.8744H96.4981V52.2837C96.4981 50.8189 96.7107 48.8698 98.518 48.8698C100.325 48.8698 100.42 50.689 100.42 52.2837V52.8744ZM97.6911 51.6931H99.1796C99.0969 50.0511 98.648 50.0511 98.4708 50.0511C98.2936 50.0511 97.7856 50.0511 97.703 51.6931H97.6911Z" fill="white"/>
<path d="M17.9661 133.875C23.8725 131.394 35.7917 122.854 42.9148 125.193C50.038 127.532 49.2938 133.899 56.6532 132.552C64.0126 131.205 68.915 126.421 75.4238 131.69C81.9327 136.958 83.3975 141.624 88.6661 141.14C93.9346 140.656 81.8028 148.133 72.6006 142.853C63.3983 137.573 60.9531 137.454 52.8495 140.644C44.7458 143.833 40.5877 135.222 36.0397 134.808C31.4918 134.395 26.554 137.065 17.9661 133.875Z" fill="white"/>
<path d="M21.0966 124C34.5396 117.278 35.8627 122.877 46.4234 116.475C52.4716 112.801 40.895 123.681 47.9472 121.141C55.1885 118.519 59.0159 114.62 65.0405 107.533C63.7292 105.961 60.776 106.493 58.1299 108.596C55.8855 110.391 58.2953 106.08 55.7674 106.233C52.696 106.481 49.1403 111.974 40.9304 114.916C32.7205 117.857 30.4878 112.848 20.6595 117.538C2.7394 126.197 -14.2239 113.344 -14.2239 113.344C-14.2239 113.344 -8.61277 131.217 -6.66364 131.383C6.93297 132.611 14.6468 127.225 21.0966 124Z" fill="#C0EFFF"/>
<path d="M149.632 114.041C161.185 112.624 161.93 111.324 166.371 108.926C173.624 105.005 180.476 110.332 184.528 111.407C188.579 112.482 189.17 107.863 192.572 106.859C194.935 106.162 196.896 106.859 198.479 107.155C200.061 107.45 201.101 106.824 199.589 106.316C197.746 105.702 196.529 105.335 195.088 104.993C191.544 104.13 189.513 105.264 187.268 108.147C185.343 110.604 178.999 102.878 170.47 103.658C162.355 104.39 157.689 112.565 149.632 114.041Z" fill="#C0EFFF"/>
<path d="M134.772 122.807C135.079 119.582 143.513 117.125 148.947 120.007C158.303 124.945 161.351 120.668 161.162 122.877C161.055 124.13 159.059 125.512 153.849 125.146C151.747 124.992 149.254 123.893 148.061 123.964C146.407 124.153 147.801 125.216 149.609 125.972C151.416 126.728 153.613 127.154 151.971 128.181C148.581 130.296 134.299 127.933 134.772 122.807Z" fill="#C0EFFF"/>
<path d="M163.064 120.326C161.067 121.956 162.615 122.582 163.713 121.566C164.812 120.55 164.422 119.215 163.064 120.326Z" fill="#C0EFFF"/>
<path d="M97.0888 140.762C92.3636 139.9 92.3636 144.07 96.6517 143.952C100.94 143.833 99.7467 141.258 97.0888 140.762Z" fill="white"/>
<path d="M87.3667 132.339C83.6929 132.257 83.9292 136.332 87.3667 136.332C90.8043 136.332 89.6466 132.41 87.3667 132.339Z" fill="white"/>
<path d="M62.1108 101.969C59.3466 102.996 59.2993 106.316 61.4965 105.075C63.9181 103.717 63.4929 101.461 62.1108 101.969Z" fill="#C0EFFF"/>
<path d="M87.4377 86.3993H109.292L110.201 92.6483L86.3391 92.6247L87.4377 86.3993Z" fill="white"/>
</g>
</svg>
