<?xml version="1.0" standalone="no"?>
<!DOCTYPE svg PUBLIC "-//W3C//DTD SVG 20010904//EN"
 "http://www.w3.org/TR/2001/REC-SVG-20010904/DTD/svg10.dtd">
<svg version="1.0" xmlns="http://www.w3.org/2000/svg"
 width="96.000000pt" height="96.000000pt" viewBox="0 0 96.000000 96.000000"
 preserveAspectRatio="xMidYMid meet">
<g transform="translate(0.000000,96.000000) scale(0.100000,-0.100000)"
fill="#21BA45" stroke="none">
<path d="M110 775 l0 -75 290 0 290 0 0 -145 0 -145 75 0 75 0 0 220 0 220
-365 0 -365 0 0 -75z"/>
<path d="M110 340 l0 -220 365 0 365 0 0 75 0 75 -290 0 -290 0 0 145 0 145
-75 0 -75 0 0 -220z"/>
<path d="M400 485 l0 -75 75 0 75 0 0 75 0 75 -75 0 -75 0 0 -75z"/>
</g>
</svg>
