<svg width="178" height="206" viewBox="0 0 178 206" fill="none" xmlns="http://www.w3.org/2000/svg">
<path d="M58.542 129.786C58.542 129.786 41.0586 151.726 41.0586 181.725C41.0586 211.724 62.3043 205.455 92.4023 205.455C122.5 205.455 131.574 200.754 131.574 176.576C131.574 152.397 109.443 116.577 109.443 116.577L58.542 129.786Z" fill="#1EAEF7"/>
<path d="M128.696 46.0571C132.016 47.1764 135.114 48.2958 138.434 49.4152C139.983 49.8629 141.754 50.3107 142.86 49.1913C143.524 48.5197 143.745 47.4003 143.967 46.2809C144.409 43.3705 145.958 40.4602 146.844 37.5498C148.171 31.953 144.631 24.5652 138.877 23.2219C139.098 18.5206 134.672 14.267 130.024 14.4908C128.475 14.4908 126.483 15.1625 125.155 14.4908C124.934 14.4908 124.713 14.267 124.491 14.267C122.721 13.1476 122.5 10.9089 121.836 8.894C120.95 5.31202 118.516 1.95388 114.975 0.610641C111.656 -0.732602 107.229 0.162907 105.016 3.07327C97.9344 1.28228 102.139 12.476 95.2786 12.476C93.5081 12.476 91.7377 11.5805 90.1885 10.9089C89.3033 10.685 88.418 10.2373 87.5328 10.2373C86.8689 10.2373 85.5411 10.685 85.0984 10.4611C83.9919 10.0133 83.3279 7.99848 82.2213 7.32686C80.8935 6.43136 78.9018 6.43139 78.0165 7.77463C77.7952 8.22238 77.5738 8.89396 77.1312 9.34171C76.0247 10.0133 74.9182 8.89402 74.033 7.99852C67.8363 1.2823 59.2052 7.55076 56.5495 14.4908C55.443 17.1773 55.2216 20.0877 53.8938 22.5503C52.5659 25.0129 50.1315 27.4755 47.2545 26.8039C46.148 26.58 45.2628 26.1323 44.1563 26.3561C43.4923 26.58 42.8284 27.2516 42.1644 27.4755C40.394 28.371 38.1809 27.0278 36.4104 25.9084C34.1974 24.3413 31.5416 22.998 28.8859 23.2219C26.2302 23.4458 23.3532 25.6845 23.7958 28.371C24.0171 30.3859 25.7876 31.953 26.0089 33.9678C26.6728 37.9976 21.804 40.2363 18.7057 42.9228C14.0582 46.9525 13.1729 54.7881 16.7139 59.7133C12.2877 61.7282 7.64021 63.967 4.54189 67.9967C2.77141 70.2354 1.66484 73.1458 1.88615 76.0562C1.88615 77.6233 2.32877 78.7426 2.99269 80.0859C3.65662 82.1007 3.43529 82.1008 2.55005 84.1156C-0.326968 90.1602 -0.769532 97.3242 1.22225 103.593C4.32058 112.995 13.3943 120.159 23.1319 121.503C20.6975 123.294 18.7056 126.204 18.0417 129.114C21.3613 127.323 25.1236 126.428 28.8859 126.652C29.3285 130.01 30.2137 133.368 31.3202 136.502C31.0989 135.607 36.6317 133.368 37.0743 133.368C39.7301 132.472 42.3858 131.801 45.2628 132.696C47.6972 133.592 49.689 135.159 51.9021 136.278C54.1152 137.398 56.7709 138.293 59.2053 137.398C62.7462 136.278 65.4018 132.92 68.9428 131.353C71.5985 130.234 75.8034 130.681 77.5739 128.219C78.6804 126.876 78.6804 125.085 78.6804 123.517C79.123 111.428 80.6722 99.339 83.7705 87.6976C85.9836 78.7426 89.3033 69.7877 95.2786 63.0714C102.582 55.012 112.762 52.3255 122.5 49.1913C127.368 47.6242 132.237 45.8332 136.442 42.699C140.426 40.0125 145.073 38.6692 145.294 32.8485C145.294 31.5052 145.073 29.9381 144.631 28.5949" fill="#0062BA"/>
<path d="M170.525 97.9957C170.525 97.7718 170.746 97.548 170.746 97.3241C172.516 92.175 168.312 86.802 171.41 82.1006C172.738 80.0858 174.73 78.2948 176.057 76.28C177.385 74.2651 178.492 71.5786 177.607 69.116C176.057 64.8624 170.525 64.4146 167.426 61.0565C162.558 55.9074 169.861 49.6389 164.771 45.1614C162.779 43.3705 159.459 43.3705 157.91 45.3853C157.246 43.1466 154.812 41.8033 152.377 41.8033C150.164 41.8033 147.951 42.9227 146.181 44.4898C145.296 45.3853 144.41 46.2808 143.082 46.2808C141.312 46.2808 139.984 44.266 140.205 42.475C140.205 40.684 141.091 38.893 141.533 37.102C142.419 32.8484 139.763 28.1471 135.779 26.5799C131.796 25.0128 126.706 26.8038 124.493 30.6096C122.501 28.3709 119.624 27.0277 116.525 27.0277C113.648 27.0277 110.55 28.3709 108.779 30.8335C107.23 26.8038 103.911 23.6696 99.7059 22.5502C94.8371 21.207 92.4027 24.7889 88.1978 26.1322C84.8782 27.0277 81.5585 25.4605 78.2389 25.0128C73.3701 24.565 68.28 26.8038 65.403 30.8335C64.5178 31.9529 64.0752 33.2962 62.9687 34.4155C61.8621 35.7588 60.0916 36.8781 58.3211 36.2065C56.9933 35.7587 56.5507 34.1916 55.4441 33.2962C54.1163 32.1768 52.5672 31.2813 50.7967 31.9529C50.3541 32.1768 47.6983 34.4155 48.8049 35.0871C46.8131 33.9677 44.1574 35.7588 44.1574 37.9975C44.1574 39.1169 44.8214 40.4601 44.1574 41.5795C43.9361 42.0273 43.2722 42.475 43.0509 42.9227C42.1657 44.0421 42.6082 45.6092 43.4934 46.9525C44.1573 48.0718 45.0426 49.415 45.0426 50.7583C45.0426 52.997 42.8295 54.5642 40.6164 54.5642C38.4033 54.5642 36.6329 53.4448 34.8624 52.3254C33.092 51.2061 31.3215 49.8628 29.3297 49.1912C27.3379 48.7435 24.6822 49.1912 23.797 50.9822C22.4691 53.2209 24.0183 56.1313 25.3462 58.3701C23.1331 57.6984 20.6987 58.8177 19.8135 60.8326C18.7069 62.8475 19.3708 65.534 20.92 66.8772C18.043 67.325 16.2725 70.2353 16.0512 73.1457C15.8299 75.8322 18.2643 79.1903 17.1577 81.429C16.0512 83.6678 14.0594 85.4588 12.9528 87.9214C10.961 92.8466 10.7398 98.4434 12.7316 103.369C15.6086 111.204 23.5756 116.577 31.7641 116.577C37.0755 116.577 43.2721 114.786 47.2557 118.368C50.354 121.279 51.4606 125.532 53.0098 129.114C53.6737 130.457 54.5588 132.696 55.6654 133.816C56.9932 135.159 59.649 135.159 61.4195 135.383C61.8621 135.383 62.3047 135.606 62.526 135.83C63.19 136.502 63.1899 137.621 63.4112 138.517C63.8538 139.86 65.1817 140.756 66.7308 140.98C68.28 141.203 69.6078 140.756 71.157 140.532C71.5996 144.561 74.698 147.92 78.4603 144.562C79.7882 143.218 81.1159 141.651 83.1077 141.427C84.6569 141.203 86.2061 142.099 87.5339 142.547C89.5257 142.994 91.96 142.099 93.2879 140.532C94.6157 138.965 95.0584 136.502 94.3944 134.487C96.1649 136.054 98.8206 136.502 101.034 135.607C103.247 134.711 105.017 132.696 105.239 130.457C106.566 133.816 109.886 132.472 112.542 132.696C116.083 132.92 119.402 134.039 122.722 134.711C127.37 135.606 132.46 135.607 136.222 132.92C141.312 129.338 142.197 121.95 146.181 117.025C149.5 112.771 154.812 110.309 159.459 107.846C164.107 106.055 168.754 102.921 170.525 97.9957Z" fill="#3F3161"/>
<path d="M51.6795 81.2051C52.5648 82.5484 52.5648 83.8917 52.1222 85.2349C51.4583 86.5782 50.3517 87.4736 49.0238 87.6975C46.1468 88.593 43.2699 85.2349 44.1552 82.5484C44.5978 80.9813 46.1469 79.8619 47.696 79.638C48.5813 79.4142 49.2451 79.4141 50.1304 79.8619C50.573 79.8619 51.2369 80.5335 51.6795 81.2051Z" fill="#E23B53"/>
<path d="M74.2556 111.652C74.0343 111.204 73.8129 110.981 73.8129 110.533C73.5916 109.861 73.3704 108.966 73.5917 108.294C73.813 105.608 76.4687 104.488 78.6818 105.16C80.2309 105.608 82.0015 107.399 81.7801 109.19C81.5588 110.309 80.8949 111.204 80.231 111.876C79.1244 112.772 78.0178 112.995 76.6899 112.995C76.026 112.995 75.1408 112.772 74.4768 112.1C74.4768 111.876 74.4769 111.876 74.2556 111.652Z" fill="#E23B53"/>
<path d="M94.8377 67.7729C93.9524 66.8774 92.6246 66.2058 91.2967 66.2058C90.4115 66.2058 89.7475 66.4297 88.8622 66.8774C86.8704 67.9968 85.9853 70.9071 86.8705 73.1459C87.7558 75.3847 90.1902 76.728 92.4033 76.2802C95.059 75.6086 96.8295 72.2504 95.723 69.3401C95.5016 68.6684 95.2803 68.2207 94.8377 67.7729Z" fill="#E23B53"/>
<path d="M129.14 89.4886C129.14 89.2647 129.14 89.2647 128.919 89.0408C128.698 88.1453 128.034 87.2498 127.149 86.8021C126.263 86.3543 125.378 86.3543 124.493 86.5782C122.944 86.8021 121.394 87.6976 120.73 89.4886C119.845 91.7273 120.952 94.8616 122.944 95.757C124.935 96.6525 127.148 95.5332 128.476 93.5183C129.14 92.3989 129.362 90.8318 129.14 89.4886Z" fill="#E23B53"/>
<path d="M126.264 48.9674C127.37 50.3107 127.813 51.8778 127.592 53.6688C127.592 54.5643 126.928 55.6836 126.264 56.3552C124.272 58.1462 120.731 57.9224 118.961 55.9075C117.19 53.8927 117.633 50.3106 119.625 48.7435C120.51 48.0719 121.838 47.4003 122.944 47.4003C124.272 47.1764 125.379 48.0719 126.264 48.9674Z" fill="#E23B53"/>
<path d="M81.3359 43.3705C81.3359 44.7137 81.9999 45.8331 83.1064 46.2808C83.9917 46.5047 84.8769 46.5048 85.5408 46.057C87.3113 45.1615 88.6392 41.8034 86.6474 40.4601C84.6556 38.893 81.3359 40.9079 81.3359 43.3705Z" fill="#E23B53"/>
<path d="M157.023 79.8619C159.236 82.1006 162.335 78.2949 160.343 76.0562C158.129 73.8175 154.81 77.6232 157.023 79.8619Z" fill="#E23B53"/>
<path d="M110.77 117.697C110.549 118.368 110.549 119.04 110.992 119.488C111.434 120.159 112.098 120.607 112.762 120.831C114.09 121.055 115.639 120.607 116.303 119.488C118.959 115.458 111.656 113.219 110.77 117.697Z" fill="#E23B53"/>
</svg>
