<svg width="107" height="176" viewBox="0 0 107 176" fill="none" xmlns="http://www.w3.org/2000/svg">
<g clip-path="url(#clip0)">
<path d="M14.7988 155.282C12.3896 155.978 9.98025 157.022 8.25938 158.763C4.81763 161.549 3.09667 166.423 5.16172 170.253C7.22677 174.431 12.7336 175.127 17.2078 175.475C37.17 176.868 56.7881 175.475 76.7503 172.69C80.5362 172.342 84.322 171.645 87.7637 169.556C94.6472 165.03 90.5172 157.022 86.3871 151.8C85.3546 150.407 83.6336 149.363 82.6011 147.622C79.5035 142.399 82.257 135.784 85.0104 130.91C87.0754 126.732 89.8289 123.25 92.2382 119.421C94.3032 116.287 94.6473 113.154 98.7774 111.761C100.842 111.065 102.907 110.717 104.972 110.368C106.005 105.146 106.349 99.5752 105.661 94.0046C105.661 92.6119 105.317 91.2192 104.284 90.1747C103.596 89.4784 102.219 89.1303 101.187 89.1303C88.4522 87.3895 76.0619 85.9968 63.3274 85.3004C48.872 84.6041 34.7608 84.9523 20.6496 87.3895C18.9287 87.7376 17.2079 88.0858 16.1754 89.1303C14.7987 90.5229 14.4545 92.96 14.4545 95.049C14.4545 100.271 14.1104 105.494 14.1104 110.716C14.1104 111.065 18.5845 112.457 18.9287 112.457C21.3379 113.85 22.0263 116.983 23.0589 119.421C25.8123 126.036 28.5657 132.651 30.6308 139.266C31.6633 142.748 33.3842 145.881 30.6308 148.318C27.8774 150.755 16.5197 154.933 14.7988 155.282Z" fill="#3F3161"/>
<path d="M45.7755 81.4706C42.3337 80.7743 38.892 80.4261 35.4502 80.078C26.8458 79.0335 18.2414 75.9 11.702 70.6775C4.81854 65.1068 0.344175 57.099 0 48.0467C0 47.0023 19.9623 48.7431 21.6832 49.0913C24.7808 49.7876 28.2225 50.1358 31.3201 50.8321C34.7618 51.8766 38.2036 53.2693 41.6453 54.662C37.1711 47.3505 34.7619 38.9945 33.7293 30.2904C33.3852 27.5051 34.0734 24.0234 37.5152 25.0679C40.2686 25.7643 42.3336 28.2013 43.7103 30.6385C47.1521 36.5573 50.9381 42.4761 54.3799 48.3949C54.3799 35.5128 54.724 22.9789 54.724 10.0968C54.724 5.91879 56.1006 0 60.2307 0C63.6724 11.4894 65.7375 23.3271 66.0817 35.5129C68.4909 25.4161 70.9001 14.623 78.1278 7.31149C79.1604 5.91883 81.2254 4.87435 82.6021 5.91885C83.2904 6.26701 83.2906 6.96326 83.6348 8.00776C86.7323 18.8009 85.0115 30.9867 78.4721 40.3872C83.9789 32.7275 90.174 24.0234 99.4667 25.7642C100.499 32.7275 98.4342 38.6464 94.3041 43.8688C90.5182 49.0913 85.6998 53.9656 80.193 57.7954C86.7323 54.3138 93.2715 51.8766 100.499 49.7876C102.564 49.0912 104.974 49.0913 106.35 50.8321C107.039 51.8766 107.039 52.9211 107.039 53.9656C106.35 62.3216 98.0901 67.544 91.5507 71.0257C85.3556 74.1592 79.1604 75.9 72.9652 78.6853C71.2443 79.3817 69.5235 80.078 68.491 81.4706C67.4584 82.5151 66.7701 84.9522 67.4585 86.3449C68.1468 87.3894 69.8676 88.434 71.2443 89.1303C73.3094 90.1748 75.3745 89.8266 77.7837 90.1747C81.5697 90.8711 99.1226 90.523 88.7974 94.701C79.5047 98.1826 76.0628 97.1381 61.6075 97.4862C47.4963 97.8344 25.4691 95.7454 25.4691 94.3528C25.4691 92.9601 44.0546 91.5675 48.5288 89.1303C49.9055 88.434 50.2496 86.6931 50.5938 85.3005C50.938 83.2115 49.9055 82.8633 47.8404 82.5152C46.8079 81.8188 46.4638 81.4706 45.7755 81.4706Z" fill="#0062BA"/>
<path d="M74.3427 17.0602C70.5568 29.9424 66.4266 42.4763 62.6406 55.3585C63.329 53.6176 65.3942 51.5286 66.4267 49.7878C67.8034 47.6988 68.8359 45.958 69.8685 43.869C72.2777 39.6911 73.9985 35.513 76.0636 30.9869C77.7845 26.8089 79.1611 22.2828 80.5378 17.7566C81.2262 15.3195 84.3238 6.96349 81.2262 5.57083C78.1287 3.83 75.0311 14.9713 74.3427 17.0602Z" fill="#1EAEF7"/>
<path d="M52.3145 63.3666C53.0028 64.0629 53.347 64.7592 53.347 65.8037C53.0028 67.1963 51.282 67.5445 50.2495 67.1963C47.1519 66.8481 44.3984 64.7592 41.9891 62.6702C37.5148 58.8404 33.0405 55.0106 28.222 51.1808C25.8128 49.44 23.7477 47.351 21.3385 45.6101C19.9617 44.5656 16.1758 42.4766 16.1758 40.3876C16.1758 35.8615 25.4686 41.4322 27.1895 42.4767C32.008 44.9138 36.1381 47.6991 40.2683 51.1808C45.0867 54.6624 48.8727 58.8404 52.3145 63.3666Z" fill="#1EAEF7"/>
</g>
<defs>
<clipPath id="clip0">
<rect width="107" height="176" fill="white"/>
</clipPath>
</defs>
</svg>
