<svg width="149" height="148" viewBox="0 0 149 148" fill="none" xmlns="http://www.w3.org/2000/svg">
<path d="M76.4665 0H3.01762C2.2173 0 1.44975 0.314575 0.883841 0.874522C0.317928 1.43447 0 2.19392 0 2.9858V144.752C0 145.544 0.317928 146.303 0.883841 146.863C1.44975 147.423 2.2173 147.738 3.01762 147.738H76.4665C95.8911 147.191 114.335 139.172 127.879 125.384C141.423 111.596 149 93.1262 149 73.8986C149 54.6711 141.423 36.2012 127.879 22.4134C114.335 8.62551 95.8911 0.60635 76.4665 0.0597174V0ZM83.6484 125.463C72.5355 127.356 61.1022 125.699 51.0042 120.734C40.9062 115.768 32.6676 107.751 27.4813 97.8438C22.295 87.9365 20.4303 76.653 22.1571 65.6272C23.8839 54.6014 29.1127 44.4056 37.0863 36.5161C45.0598 28.6266 55.3643 23.453 66.5076 21.7443C77.6509 20.0357 89.0547 21.8808 99.0676 27.0124C109.08 32.144 117.183 40.2957 122.201 50.2873C127.22 60.2788 128.894 71.5915 126.981 82.5873C125.12 93.288 119.955 103.155 112.195 110.833C104.436 118.511 94.4631 123.622 83.6484 125.463Z" fill="#0062BA"/>
</svg>
