<svg width="314" height="31" viewBox="0 0 314 31" fill="none" xmlns="http://www.w3.org/2000/svg">
<path d="M144.256 6.564H142.41L135 28.924H136.846L144.256 6.564ZM155.812 23.256C155.812 20.838 154.278 20.006 152.042 19.798L150.04 19.616C148.454 19.46 147.752 18.888 147.752 17.744C147.752 16.418 148.74 15.638 150.612 15.638C151.938 15.638 153.108 15.95 154.018 16.652L155.24 15.43C154.07 14.494 152.484 14.052 150.638 14.052C147.882 14.052 145.932 15.456 145.932 17.796C145.932 19.928 147.258 21.02 149.754 21.228L151.86 21.41C153.368 21.54 153.992 22.138 153.992 23.282C153.992 24.79 152.718 25.544 150.586 25.544C149 25.544 147.596 25.102 146.608 24.062L145.36 25.31C146.738 26.662 148.428 27.156 150.612 27.156C153.732 27.156 155.812 25.726 155.812 23.256ZM164.141 27V25.388H163.153C161.957 25.388 161.411 24.686 161.411 23.516V15.638H164.141V14.208H161.411V10.282H159.539V14.208H157.927V15.638H159.539V23.568C159.539 25.466 160.631 27 162.815 27H164.141ZM177.792 27V14.208H175.92V22.086C175.92 24.322 174.646 25.492 172.722 25.492C170.798 25.492 169.602 24.348 169.602 22.086V14.208H167.73V22.372C167.73 23.854 168.12 25.076 169.03 25.96C169.81 26.74 170.954 27.156 172.332 27.156C173.762 27.156 175.036 26.61 175.946 25.57V27H177.792ZM191.949 27V8.488H190.077V15.69C189.011 14.364 187.893 14.052 186.463 14.052C185.137 14.052 184.019 14.494 183.343 15.17C182.069 16.444 181.783 18.55 181.783 20.604C181.783 22.658 182.069 24.738 183.343 26.038C184.019 26.714 185.137 27.156 186.463 27.156C187.919 27.156 189.037 26.818 190.103 25.466V27H191.949ZM190.077 20.604C190.077 23.1 189.661 25.492 186.879 25.492C184.071 25.492 183.655 23.1 183.655 20.604C183.655 18.108 184.071 15.716 186.879 15.716C189.661 15.716 190.077 18.108 190.077 20.604ZM198.499 27V14.208H196.627V27H198.499ZM198.629 10.568V8.462H196.523V10.568H198.629ZM212.954 20.604C212.954 18.628 212.694 16.808 211.394 15.508C210.51 14.598 209.288 14.052 207.728 14.052C206.168 14.052 204.946 14.598 204.062 15.508C202.762 16.808 202.502 18.628 202.502 20.604C202.502 22.58 202.762 24.374 204.062 25.7C204.946 26.61 206.168 27.156 207.728 27.156C209.288 27.156 210.51 26.61 211.394 25.7C212.694 24.374 212.954 22.58 212.954 20.604ZM211.082 20.604C211.082 22.034 211.004 23.594 210.068 24.556C209.444 25.18 208.638 25.492 207.728 25.492C206.818 25.492 206.038 25.18 205.414 24.556C204.452 23.594 204.374 22.034 204.374 20.604C204.374 19.148 204.478 17.588 205.414 16.652C206.038 16.028 206.818 15.716 207.728 15.716C208.638 15.716 209.444 16.028 210.068 16.652C211.004 17.588 211.082 19.148 211.082 20.604Z" fill="#0062BA"/>
<path d="M73.1303 26.7449V25.5036C72.1643 26.4684 71.2543 26.8826 69.6 26.8826C67.9725 26.8826 66.7872 26.4684 65.932 25.6144C65.1585 24.8141 64.7455 23.6567 64.7455 22.3874C64.7455 20.0984 66.317 18.2236 69.6536 18.2236H73.0452V17.5072C73.0452 15.9357 72.2728 15.2462 70.37 15.2462C68.991 15.2462 68.3575 15.5776 67.612 16.4327L65.323 14.1986C66.7288 12.6539 68.1078 12.2129 70.5076 12.2129C74.5338 12.2129 76.6292 13.9221 76.6292 17.2867V26.7461H73.1303V26.7449ZM73.0475 20.6782H70.2066C68.9105 20.6782 68.1941 21.2849 68.1941 22.3046C68.1941 23.2974 68.8556 23.9589 70.2615 23.9589C71.2543 23.9589 71.889 23.8761 72.5236 23.2694C72.9098 22.9112 73.0475 22.3326 73.0475 21.4494V20.6782Z" fill="#0062BA"/>
<path d="M83.8555 26.7447C80.905 26.7447 79.6637 24.6762 79.6637 22.6357V7.11084H83.2489V22.4152C83.2489 23.2703 83.6082 23.7113 84.5182 23.7113H85.8972V26.7447H83.8555Z" fill="#0062BA"/>
<path d="M92.5693 26.7444C89.6468 26.7444 88.4055 24.6759 88.4055 22.6354V15.5211H86.8888V12.7911H88.4055V8.54443H91.9906V12.7911H94.527V15.5211H91.9906V22.4149C91.9906 23.2421 92.3768 23.7111 93.232 23.7111H94.5281V26.7444H92.5693Z" fill="#0062BA"/>
<path d="M97.0353 9.92367V7H100.703V9.92367H97.0353ZM97.0913 26.7447V12.3772H100.676V26.7447H97.0913Z" fill="#0062BA"/>
<path d="M112.34 26.7446V18.0576C112.34 16.0999 111.098 15.4373 109.969 15.4373C108.839 15.4373 107.569 16.0988 107.569 18.0576V26.7434H103.984V12.3771H107.486V13.7001C108.423 12.7073 109.747 12.2114 111.072 12.2114C112.505 12.2114 113.664 12.6804 114.463 13.4796C115.62 14.6369 115.925 15.9891 115.925 17.5606V26.7434H112.34V26.7446Z" fill="#0062BA"/>
<path d="M127.449 26.7446V18.0576C127.449 16.0999 126.208 15.4373 125.079 15.4373C123.948 15.4373 122.679 16.0988 122.679 18.0576V26.7434H119.094V12.3771H122.596V13.7001C123.533 12.7073 124.857 12.2114 126.181 12.2114C127.615 12.2114 128.773 12.6804 129.573 13.4796C130.73 14.6369 131.034 15.9891 131.034 17.5606V26.7434H127.449V26.7446Z" fill="#0062BA"/>
<path d="M52 7H40V11H52V7Z" fill="#0062BA"/>
<path d="M52 15H40V19H52V15Z" fill="#0062BA"/>
<path d="M52 23H40V27H52V23Z" fill="#0062BA"/>
<path d="M4 7H0V11H4V7Z" fill="#0062BA"/>
<path d="M4 15H0V19H4V15Z" fill="#0062BA"/>
<path d="M4 23H0V27H4V23Z" fill="#0062BA"/>
<path d="M12 7H8V11H12V7Z" fill="#0062BA"/>
<path d="M12 15H8V19H12V15Z" fill="#0062BA"/>
<path d="M12 23H8V27H12V23Z" fill="#0062BA"/>
<path d="M16 7H36V19H32V11H16V7Z" fill="#0062BA"/>
<path d="M28 15H24V19H28V15Z" fill="#0062BA"/>
<path d="M16 15H20V23H36V27H16V15Z" fill="#0062BA"/>
</svg>
