<svg width="1024" height="468" viewBox="0 0 1024 468" fill="none" xmlns="http://www.w3.org/2000/svg">
<g clip-path="url(#clip0)">
<path d="M1171.7 -55.8H-57.3999V655.5H1171.7V-55.8Z" fill="white"/>
<path d="M1084.3 422.7H620.3V108.4L1084.3 10.1V422.7Z" fill="white"/>
<path d="M639 319.3H651.1V286.4H690.5V325H697.4V315.3H714.6L737.1 344.8L714.4 369.2L639 357.6V319.3Z" fill="#6A6A6A"/>
<path d="M846 316.9H865.3V286.4H897.1L896.1 390.9L815.4 379.8L846 316.9Z" fill="#6A6A6A"/>
<path d="M917.9 286.4C918.7 287.3 919.5 288.1 920.3 289C922 290.9 923.8 292.8 925.5 294.7C927.3 296.6 929 298.6 930.8 300.5C931.3 301 931.7 301.5 932.2 302C932.7 302.5 933.3 302.9 933.4 303.7C933.4 303.9 933.4 304 933.4 304.2C933.4 304.7 933.4 305.3 933.4 305.8C933.4 307.5 933.4 309.3 933.4 311C933.4 313.3 933.4 315.7 933.4 318C933.4 320.6 933.4 323.3 933.4 325.9C933.4 328.5 933.4 331.1 933.4 333.7C933.4 336 933.4 338.2 933.4 340.5C933.4 342.1 933.4 343.8 933.4 345.4C933.4 346.1 933.4 346.7 933.4 347.4H938.8C938.8 346.8 938.8 346.2 938.8 345.6C938.8 344.1 938.8 342.6 938.8 341.2C938.8 339.1 938.8 336.9 938.8 334.8C938.8 332.3 938.8 329.7 938.8 327.2C938.8 324.5 938.8 321.8 938.8 319.1C938.8 316.5 938.8 313.8 938.8 311.2C938.8 308.9 938.8 306.6 938.8 304.2C938.8 302.4 938.8 300.7 938.8 298.9C938.8 298.3 938.8 297.7 938.8 297.1C938.8 296.9 938.8 296.7 938.8 296.4C938.8 295.7 939.1 295.5 939.8 295.6C940.5 295.7 941.3 295.6 942 295.6C943 295.6 944.1 295.6 945.1 295.6C947.7 295.6 950.4 295.6 953 295.6C955.8 295.6 958.5 295.6 961.3 295.6C963.5 295.6 965.7 295.6 967.9 295.6C968.8 295.6 969.7 295.6 970.6 295.6L1011.6 336.9L1015.6 384L948 391.1L912 368L917.9 286.4Z" fill="#6A6A6A"/>
<path d="M665.3 299.7H660.4V308.6H665.3V299.7Z" fill="#3F3161"/>
<path d="M658.7 288.4H653.8V297.3H658.7V288.4Z" fill="#3F3161"/>
<path d="M658.4 309.1H654V319H658.4V309.1Z" fill="#3F3161"/>
<path d="M890 305.9H884.9V316.2H890V305.9Z" fill="#3F3161"/>
<path d="M878.7 320.8H873.4V332.2H878.7V320.8Z" fill="#3F3161"/>
<path d="M887.5 341.3H882.2V354.7H887.5V341.3Z" fill="#3F3161"/>
<path d="M851.5 264.5C848.8 266.2 852.7 261.7 857.2 259.3C860.2 257.7 861 261.9 861 261.9C861 261.9 864 257.7 869.6 260.7C869.6 260.7 861.1 263.6 860.1 267C860 267 859.4 259.6 851.5 264.5Z" fill="#CFF0FF"/>
<path d="M980.8 215.5C980.8 215.5 972.1 216 968.1 221.4C964.1 226.8 964.9 210.5 978.6 210.2C978.6 210.2 978.8 203.5 984.4 202.9C990 202.3 994.1 205.9 994.1 205.9C994.1 205.9 981.9 204.3 980.8 215.5Z" fill="#CFF0FF"/>
<path d="M849 366L909.9 369.2L905 391.2L803.4 385L805.4 377.9L849 366Z" fill="#1EAEF7"/>
<path d="M801.6 186.5C804.7 187.1 807.4 189.5 808.2 192.6C810.8 190.4 814.3 189.2 817.8 189.4C821.2 189.6 824.6 191.2 826.9 193.8C820.3 192.1 812.9 193.6 807.4 197.7C807.9 197.3 803.9 193.3 803.5 193C801.7 191.6 799.7 190.7 797.5 190.2C795.9 189.9 792.7 190.2 795 188.1C796.5 186.5 799.6 186.1 801.6 186.5Z" fill="#CFF0FF"/>
<path d="M852.3 355.7C851.8 355.7 851.4 355.3 851.3 354.8C851.2 354.3 851.6 353.8 852.2 353.7C852.3 353.7 858.8 352.9 864.3 352.6C871.1 352.3 876 349.8 878.7 345.5C882.2 339.6 881.3 330.6 876 319.4C868.6 303.8 863 291 864 281.3C864.6 276.1 867.1 272 871.2 269.4C877.1 265.8 885.7 265.7 894.8 269.2C895.3 269.4 895.6 270 895.4 270.5C895.2 271 894.6 271.3 894.1 271.1C885.7 267.9 877.6 267.9 872.3 271.1C868.7 273.3 866.5 276.9 866 281.5C865 290.7 870.7 303.7 877.8 318.5C883.4 330.3 884.3 340 880.4 346.5C877.4 351.4 871.9 354.2 864.4 354.6C859 354.9 852.5 355.6 852.3 355.7C852.4 355.7 852.4 355.7 852.3 355.7Z" fill="#1EAEF7"/>
<path d="M925.5 267.7C925.1 267.7 924.7 267.4 924.7 267C924.6 266.5 925 266.1 925.4 266C925.6 266 943.2 263.4 950.8 250.6C951.3 249.8 951.8 248.8 952.3 247.8C946.1 245.7 941.8 242 939.8 238.3C938 235 937.8 231.4 939 228C940.1 225 942.3 222.7 944.9 221.7C947.4 220.8 950 221 952.3 222.4C955.3 224.2 957.3 227.7 957.9 231.9C958.5 236.5 956.8 242.1 954.7 246.8C958.6 247.9 963.1 248.4 968.3 248C986.5 246.6 992.5 239.6 998.7 232.2C1005.8 223.8 1013.2 215.1 1039.4 215.6C1039.9 215.6 1040.2 216 1040.2 216.5C1040.2 217 1039.9 217.4 1039.3 217.3C1014 216.8 1007.2 224.8 1000 233.3C993.8 240.6 987.3 248.2 968.4 249.7C962.9 250.1 958.1 249.6 954 248.4C953.4 249.5 952.9 250.6 952.3 251.5C944.3 265 926.5 267.6 925.7 267.7C925.6 267.7 925.6 267.7 925.5 267.7ZM947.9 222.8C947.1 222.8 946.3 222.9 945.5 223.3C943.4 224.1 941.5 226.1 940.6 228.6C939.5 231.5 939.8 234.7 941.3 237.5C943.2 241 947.2 244.3 953.1 246.3C955.1 241.8 956.7 236.4 956.2 232.1C955.7 228.4 954 225.4 951.5 223.8C950.3 223.2 949.1 222.8 947.9 222.8Z" fill="#1EAEF7"/>
<path d="M1032.2 399.6C1025.7 398.9 1019.2 398.3 1012.7 397.6C1000.7 396.4 988.7 396.6 976.6 396.6C962.3 396.6 947.9 396.1 933.7 395.1C930.1 394.8 891.3 391.7 891.4 390.5C891.4 389.9 891.5 389.4 891.5 388.8C892 378.2 892 367.6 892 357C892 344.9 892 332.8 892 320.7C892 305.8 892 290.9 892 276C892 260 892 244 892 228.1C892 212.7 892 197.3 892 182C892 168.9 892 155.8 892 142.8C892 133.7 892 124.6 892 115.5C892 112.1 892 106.9 892 103.5L763.9 130V338.6L738.4 334.6V135.3L641.5 155.4V351C641.5 348.9 635.3 345.7 633.4 345.9C633.5 342.5 633.4 339.1 633.4 335.7L630.5 333.5L630.2 260.3L295.2 259.6L282.9 321.3L-26.5999 351L-14.0999 -25.6H1037.9L1061.8 68.1L926.4 96.3V370.7L999.8 377.9L1032.3 378.1V399.6H1032.2Z" fill="#EFEFEF"/>
<path d="M440.658 297.61L430.65 299.579L436.559 329.604L446.567 327.634L440.658 297.61Z" fill="#CFF0FF"/>
<path d="M452.586 297.16L441.518 302.969L455.737 330.065L466.806 324.256L452.586 297.16Z" fill="#CFF0FF"/>
<path d="M382.4 400.8L384.3 471.3L606.3 479.7L654 396.2L562.5 361.6L448.5 379.2L382.4 400.8Z" fill="#1EAEF7"/>
<path d="M301.7 328.4H486.1L518.1 351.1L481.7 375.6C481.7 375.6 308 394.6 307.3 394.6C296.1 394.6 301.7 328.4 301.7 328.4Z" fill="#3F3161"/>
<path d="M422.5 445.7C422.5 445.7 427 449.4 431.9 450.6C437.6 451.9 442.8 455.8 442.1 458.8C441.7 460.7 441.4 462.1 441.4 462.1L412.6 481.7C412.6 481.7 381 486.8 382.4 476.5C383.8 466.2 383.2 448.4 383.2 448.4L401.4 444.3L422.5 445.7Z" fill="#0062BA"/>
<path d="M580.1 334.5H634.1V355H577.3L580.1 334.5Z" fill="#6A6A6A"/>
<path d="M610.2 347.5H717.9V363.6H606.3L610.2 347.5Z" fill="#1EAEF7"/>
<path d="M603.3 361.5H693.9V394.7L570.5 421.8L603.3 378.1V361.5Z" fill="#0062BA"/>
<path d="M437.3 402.1L422.5 445.7C422.5 445.7 418.1 457.6 407.2 454.6C411.5 463 392.4 472.9 392.4 472.9L397.2 455.9L380.4 457.5V409.7L437.3 402.1Z" fill="#3F3161"/>
<path d="M298.1 286.5L295.1 328.4C300.5 328.4 305.8 328.4 311.2 328.4C314.1 328.4 317.1 328.4 320 328.4C321.1 328.4 322.3 328.4 323.4 328.4C324.5 328.4 333.2 328.4 334.2 328.4C335.7 328.4 337.3 328.4 338.8 328.4L342.9 324.7L346.4 328.4H430.5C430.5 325.3 430.5 322.1 430.5 319C430.5 316 430.3 312.9 430.5 310C430.7 307.7 431.9 295.7 429.5 295.7C427.9 295.7 426.3 295.7 424.7 295.6C423.4 295.5 422.8 296.1 422.8 297.4C422.7 300.7 422.7 304.1 422.6 307.4C422.6 308.3 422.5 309.4 421.7 309.9C421.7 306 421.8 302.2 421.8 298.3C421.8 297.7 421.8 296.9 421.2 296.5C420.8 296.2 420.4 296.2 419.9 296.2C418 296.2 416.1 296.3 414.2 296.3C413.6 296.3 412.9 296.3 412.4 296.7C411.3 297.6 412.1 299.1 412 300.2C411 300.2 401.6 300.3 401.6 300.2C401.6 297.8 401.6 295.4 401.6 293C401.6 291.4 401.6 289.8 401.6 288.3C401.6 286.2 399.8 286.4 398.2 286.4C396.6 286.4 395 286.4 393.5 286.4C390.9 286.4 388.3 286.4 385.8 286.4C385.2 286.4 384.6 286.3 384.1 286.4C383.6 286.5 383.1 286.9 382.6 287C381.6 287.2 380.5 287.1 379.5 287.1C376.2 287 373 287.7 370 289C369.3 289.3 368.5 289.7 367.7 289.9C365.9 290.2 365.6 288.8 364.2 288C363 287.3 361.5 287.1 360.1 287C357.8 286.9 355.5 287 353.4 288C351.8 288.8 350.4 289.9 350 291.6C349.4 293.5 349.3 295.5 349.2 297.5C349.1 299.5 349.2 301.6 349.1 303.6C349 304.6 348.9 305.6 348.7 306.6C348.5 307.3 348 308.3 347.9 309.1C348 305.7 348.1 302.3 348.3 298.9C348.4 297.2 348.5 295.5 348.7 293.8C348.8 293.2 349 292.3 348.8 291.7C348.6 291.4 348 290.8 347.7 290.5C346.9 289.6 346 288.6 345.2 287.7C345 287.5 344.2 286.3 343.9 286.3C342.3 286.3 340.8 286.3 339.2 286.3C337.5 286.3 335.8 286.3 334.1 286.3C332.7 286.3 330.6 285.8 330 287.4C329.7 288.1 329.8 288.8 329.8 289.5C330 294.7 329.9 299.9 329.4 305C329.4 305.1 329.4 305.3 329.2 305.4C328.9 305.6 328.7 305.1 328.7 304.7C328.8 300.3 328.8 295.9 328.9 291.4C328.9 290.1 328.9 288.6 328.2 287.5C328.1 287.3 327.9 287.1 327.8 287C326.7 285.9 325.5 286.2 324.1 286.3C322.3 286.3 320.6 286.3 318.8 286.3C317.3 286.3 316.1 285.8 314.9 287.2C314.1 288.2 313.8 289.5 313.7 290.7C313.6 291.9 313.7 293.2 313.6 294.4C313.5 295.6 313.1 296.9 312.2 297.8C312.3 294.7 312.4 291.5 312.5 288.4C312.5 287.9 312.5 287.3 312.3 286.9C311.8 285.9 309.7 286.4 308.8 286.4C305.1 286.4 301.6 286.4 298.1 286.5Z" fill="#CFF0FF"/>
<path d="M334.2 289.1C338.8 289.1 338.5 296.8 334.2 296.8C329.9 296.8 329.6 289.1 334.2 289.1Z" fill="#C0EFFF"/>
<path d="M950.6 397.3L782.3 483.1L977.2 531.8L950.6 397.3Z" fill="#3F3161"/>
<path d="M665.9 350.6C665.2 350.8 664.5 351.1 664 351.6C663 352.4 662.5 353.8 663.1 354.9C663.7 356.1 665.3 356.3 666.6 356.4C672.4 356.8 678.1 356.4 683.9 355.6C685 355.5 686.1 355.3 687.1 354.7C689.1 353.4 687.9 351.1 686.7 349.6C686.4 349.2 685.9 348.9 685.6 348.4C684.7 346.9 685.5 345 686.3 343.6C686.9 342.4 687.7 341.4 688.4 340.3C689 339.4 689.1 338.5 690.3 338.1C690.9 337.9 691.5 337.8 692.1 337.7C692.4 336.2 692.5 334.6 692.3 333C692.3 332.6 692.2 332.2 691.9 331.9C691.7 331.7 691.3 331.6 691 331.6C687.3 331.1 683.7 330.7 680 330.5C675.8 330.3 671.7 330.4 667.6 331.1C667.1 331.2 666.6 331.3 666.3 331.6C665.9 332 665.8 332.7 665.8 333.3C665.8 334.8 665.7 336.3 665.7 337.8C665.7 337.9 667 338.3 667.1 338.3C667.8 338.7 668 339.6 668.3 340.3C669.1 342.2 669.9 344.1 670.5 346C670.8 347 671.3 347.9 670.5 348.6C669.7 349.3 666.4 350.5 665.9 350.6Z" fill="#3F3161"/>
<path d="M674.9 329.4C673.9 329.2 672.9 329.1 671.9 329C669.4 328.7 666.9 327.8 665 326.3C663 324.7 661.7 322.4 661.6 319.8C661.6 319.5 667.4 320 667.9 320.1C668.8 320.3 669.8 320.4 670.7 320.6C671.7 320.9 672.7 321.3 673.7 321.7C672.4 319.6 671.7 317.2 671.4 314.7C671.3 313.9 671.5 312.9 672.5 313.2C673.3 313.4 673.9 314.1 674.3 314.8C675.3 316.5 676.4 318.2 677.4 319.9C677.4 316.2 677.5 312.6 677.5 308.9C677.5 307.7 677.9 306 679.1 306C680.1 309.3 680.7 312.7 680.8 316.2C681.5 313.3 682.2 310.2 684.3 308.1C684.6 307.7 685.2 307.4 685.6 307.7C685.8 307.8 685.8 308 685.9 308.3C686.8 311.4 686.3 314.9 684.4 317.6C686 315.4 687.8 312.9 690.5 313.4C690.8 315.4 690.2 317.1 689 318.6C687.9 320.1 686.5 321.5 684.9 322.6C686.8 321.6 688.7 320.9 690.8 320.3C691.4 320.1 692.1 320.1 692.5 320.6C692.7 320.9 692.7 321.2 692.7 321.5C692.5 323.9 690.1 325.4 688.2 326.4C686.4 327.3 684.6 327.8 682.8 328.6C682.3 328.8 681.8 329 681.5 329.4C681.2 329.7 681 330.4 681.2 330.8C681.4 331.1 681.9 331.4 682.3 331.6C682.9 331.9 683.5 331.8 684.2 331.9C685.3 332.1 690.4 332 687.4 333.2C684.7 334.2 683.7 333.9 679.5 334C675.4 334.1 669 333.5 669 333.1C669 332.7 674.4 332.3 675.7 331.6C676.1 331.4 676.2 330.9 676.3 330.5C676.4 329.9 676.1 329.8 675.5 329.7C675.2 329.5 675.1 329.4 674.9 329.4Z" fill="#0062BA"/>
<path d="M607.2 357.2C606.9 357.2 612 357.2 611.7 357C611.5 356.8 605.9 356.5 605.9 356.2C605.6 353 603.6 348.4 603.3 345.2C616.6 343.9 637.1 344.1 650.4 342.8C660.7 341.8 659 354.2 650.2 355.5C638.1 357.3 619.5 356.9 607.2 357.2Z" fill="#3F3161"/>
<path d="M358.5 304.9C360.267 304.9 361.7 301.766 361.7 297.9C361.7 294.034 360.267 290.9 358.5 290.9C356.733 290.9 355.3 294.034 355.3 297.9C355.3 301.766 356.733 304.9 358.5 304.9Z" fill="white"/>
<path d="M340.4 321.8H331.9V325.6H340.4V321.8Z" fill="white"/>
<path d="M340.4 316.8H331.9V320.6H340.4V316.8Z" fill="white"/>
<path d="M627.8 322.4H576.1V335.7H627.8V322.4Z" fill="#CFF0FF"/>
<path d="M621.7 304.4H581.2V321.2H621.7V304.4Z" fill="#CFF0FF"/>
<path d="M615.2 294.4H591.9V303.5H615.2V294.4Z" fill="#CFF0FF"/>
<path d="M605.6 298.6C605.7 296.1 613.1 295.1 613 298.8C612.9 302.5 605.5 301.5 605.6 298.6Z" fill="white"/>
<path d="M610 307.4H588.9V311.8H610V307.4Z" fill="white"/>
<path d="M619.9 333.2C619 333.3 618 333.4 617.1 333.6C616.6 333.7 615.9 333.8 615.5 334.2C615.1 334.7 615.2 335.4 615.2 336C615.2 336.8 615.2 337.7 615.2 338.5C615.2 340.3 615.2 342.1 615.2 343.8C615.2 344 615.2 344.3 615.3 344.5C615.6 345.2 616.7 344.9 617.3 344.9C618.2 344.9 619.2 344.9 620.1 344.9C621.9 344.9 623.7 345 625.6 345C629.3 345.1 633 345.1 636.6 345.2C639.4 345.2 642.3 345.3 645 344.6C646.4 344.2 647.8 343.6 648.4 342.3C649.3 340.6 648.3 338.4 646.8 337.3C645.3 336.2 643.3 335.8 641.5 335.5C639.7 335.2 637.9 334.9 636.1 334.5C634.6 334.2 632.9 334.2 631.6 333.6C630.3 333 628.9 333 627.5 333C624.9 332.8 622.4 333 619.9 333.2Z" fill="#1EAEF7"/>
<path d="M642.9 337.7C643.8 338.7 644.4 340.1 644 341.4C643.3 343.8 640.1 344.3 637.5 344.2C634 344.2 630.4 344.1 626.9 344.1C625.3 344.1 623.6 343.9 622 344C620.6 344.1 619.2 344.1 617.7 344.1C616.8 344.1 615.1 343.9 614.3 344.5C614 344.8 613.8 345.2 613.8 345.7C613.8 346.1 613.9 346.6 614 347C614 346.8 624 346.9 624.9 346.9C626.7 346.9 628.6 346.9 630.4 346.9C632.1 346.9 633.7 347.1 635.4 347.1C636.3 347.1 637.2 347.1 638.1 347.1H638.2C641.9 347.1 645.5 347 649.2 347C651.1 347 657.1 347.8 657 344.4C656.9 342.6 656.9 340.9 656.8 339.1C656.7 337.9 656.6 336.4 655.5 335.6C655 335.2 654.3 335 653.7 334.9C650.1 334 646.4 333.6 642.7 333.2C642 333.1 624.5 332.2 620.5 332C619 332 617.6 331.9 616.1 332.1C615.5 332.2 614.9 332.3 614.5 332.6C614.1 333 613.9 333.7 614.3 334.1C614.6 334.4 615.1 334.5 615.5 334.5C623 334.9 630.5 335.7 638.1 336.1C639.8 336.2 641.9 336.6 642.9 337.7Z" fill="#0062BA"/>
<path d="M683.2 310.9C682.1 314.6 680.9 318.2 679.8 321.9C680 321.4 680.6 320.8 680.9 320.3C681.3 319.7 681.6 319.2 681.9 318.6C682.6 317.4 683.1 316.2 683.7 314.9C684.2 313.7 684.6 312.4 685 311.1C685.2 310.4 686.1 308 685.2 307.6C684.3 307.1 683.4 310.3 683.2 310.9Z" fill="#1EAEF7"/>
<path d="M676.8 324.2C677 324.4 677.1 324.6 677.1 324.9C677 325.3 676.5 325.4 676.2 325.3C675.3 325.2 674.5 324.6 673.8 324C672.5 322.9 671.2 321.8 669.8 320.7C669.1 320.2 668.5 319.6 667.8 319.1C667.4 318.8 666.3 318.2 666.3 317.6C666.3 316.3 669 317.9 669.5 318.2C670.9 318.9 672.1 319.7 673.3 320.7C674.7 321.7 675.8 322.9 676.8 324.2Z" fill="#1EAEF7"/>
<path d="M397.9 331.1C397.8 331.1 397.7 331.1 397.7 331.1C397.2 331.1 396.9 330.7 396.9 330.2C396.9 329.7 397.3 329.4 397.8 329.4C398.5 329.4 411.7 329.7 421 320C415 318.4 410.4 314.3 408.1 309.6C404.5 302.5 405.6 293.8 410.5 290C415 286.5 423.1 286 427.8 290.9C431.2 294.5 432 300.8 429.9 307.7C428.5 312.2 426.5 315.9 424.1 318.9C426.9 319.2 430 318.9 433.5 317.8C441.4 315.2 445 311.7 448.2 308.7C452.6 304.5 456.4 301 468.6 301C469.1 301 469.4 301.4 469.4 301.8C469.4 302.2 469 302.6 468.6 302.6C457.1 302.6 453.7 305.8 449.4 309.9C446.1 313.1 442.3 316.6 434.1 319.4C430 320.8 426.2 321 422.8 320.4C413.4 330.7 399.7 331.1 397.9 331.1ZM418.8 288.9C416.1 288.9 413.4 289.8 411.5 291.2C407.2 294.6 406.3 302.3 409.5 308.7C411.2 312.1 415.5 316.9 422.2 318.4C424.7 315.5 426.8 311.8 428.2 307.1C430.1 300.9 429.4 295.1 426.5 292C424.5 289.9 421.7 288.9 418.8 288.9Z" fill="#1EAEF7"/>
<path d="M301.7 394.6V377.9L506.5 354.2L581.2 364.1L551 387.2L391.8 409.7L301.7 394.6Z" fill="#CFF0FF"/>
<path d="M302 389.3L391.8 405.8L551 383.7V391.9L397.2 414.4V505.1L309.3 482.5L300.4 418.8L302 389.3Z" fill="#6A6A6A"/>
<path d="M462.4 286.6C462.3 286.7 462.3 286.8 462.3 286.9C462.3 287 462.3 287.1 462.3 287.2C462.3 287.5 462.3 287.8 462.3 288.1C462.3 289 462.3 289.8 462.3 290.7C462.3 291.9 462.3 293.1 462.3 294.3C462.3 295.8 462.3 297.3 462.3 298.7C462.3 300.4 462.3 302.1 462.3 303.8C462.3 305.7 462.3 307.5 462.3 309.4C462.3 311.4 462.3 313.4 462.3 315.4C462.3 317.4 462.3 319.5 462.3 321.5C462.3 323.5 462.3 325.6 462.3 327.6C462.3 329.6 462.3 331.6 462.3 333.5C462.3 335.4 462.3 337.2 462.3 339.1C462.3 340.8 462.3 342.5 462.3 344.2C462.3 345.7 462.3 347.1 462.3 348.6C462.3 349.8 462.3 351 462.3 352.1C462.3 352.9 462.3 353.8 462.3 354.6C462.3 355 462.3 355.5 462.3 355.9C462.3 356.1 462.5 356.1 462.7 356.1C462.8 356.1 462.9 356.1 463.1 356.1C463.3 356.1 463.4 356.1 463.6 356.1C463.8 356.1 464 356.1 464.2 356.1C464.4 356.1 464.7 356.1 464.9 356.1C465.2 356.1 465.4 356.1 465.7 356.1C466 356.1 466.3 356.1 466.6 356.1C466.9 356.1 467.3 356.1 467.6 356.1C468 356.1 468.3 356.1 468.7 356.1C469.1 356.1 469.5 356.1 469.9 356.1C470.3 356.1 470.7 356.1 471.2 356.1C471.7 356.1 472.1 356.1 472.6 356.1C473.1 356.1 473.6 356.1 474 356.1C474.5 356.1 475 356.1 475.5 356.1C476 356.1 476.5 356.1 477.1 356.1C477.6 356.1 478.2 356.1 478.7 356.1C479.3 356.1 479.8 356.1 480.4 356.1C481 356.1 481.6 356.1 482.2 356.1C482.8 356.1 483.4 356.1 484 356.1C484.6 356.1 485.2 356.1 485.9 356.1C486.5 356.1 487.2 356.1 487.8 356.1C488.5 356.1 489.1 356.1 489.8 356.1C490.5 356.1 491.1 356.1 491.8 356.1C492.5 356.1 493.2 356.1 493.8 356.1C494.5 356.1 495.2 356.1 495.9 356.1C496.6 356.1 497.3 356.1 498 356.1C498.7 356.1 499.4 356.1 500.1 356.1C500.8 356.1 501.5 356.1 502.3 356.1C503 356.1 503.7 356.1 504.5 356.1C505.2 356.1 506 356.1 506.7 356.1C507.4 356.1 508.2 356.1 508.9 356.1C509.6 356.1 510.4 356.1 511.1 356.1C511.8 356.1 512.6 356.1 513.3 356.1C514 356.1 514.8 356.1 515.5 356.1C516.2 356.1 517 356.1 517.7 356.1C518.4 356.1 519.2 356.1 519.9 356.1C520.6 356.1 521.4 356.1 522.1 356.1C522.8 356.1 523.6 356.1 524.3 356.1C525 356.1 525.7 356.1 526.5 356.1C527.2 356.1 527.9 356.1 528.6 356.1C529.3 356.1 530 356.1 530.7 356.1C531.4 356.1 532.1 356.1 532.8 356.1C533.5 356.1 534.2 356.1 534.8 356.1C535.5 356.1 536.1 356.1 536.8 356.1C537.5 356.1 538.1 356.1 538.8 356.1C539.4 356.1 540.1 356.1 540.7 356.1C541.3 356.1 542 356.1 542.6 356.1C543.2 356.1 543.8 356.1 544.4 356.1C545 356.1 545.6 356.1 546.2 356.1C546.8 356.1 547.3 356.1 547.9 356.1C548.4 356.1 549 356.1 549.5 356.1C550 356.1 550.6 356.1 551.1 356.1C551.6 356.1 552.1 356.1 552.6 356.1C553.1 356.1 553.6 356.1 554 356.1C554.5 356.1 554.9 356.1 555.4 356.1C555.8 356.1 556.3 356.1 556.7 356.1C557.1 356.1 557.5 356.1 557.9 356.1C558.3 356.1 558.6 356.1 559 356.1C559.3 356.1 559.7 356.1 560 356.1C560.3 356.1 560.6 356.1 560.9 356.1C561.2 356.1 561.4 356.1 561.7 356.1C561.9 356.1 562.2 356.1 562.4 356.1C562.6 356.1 562.8 356.1 563 356.1C563.2 356.1 563.3 356.1 563.5 356.1C563.6 356.1 563.7 356.1 563.9 356.1C564 356.1 564.1 356.1 564.2 356.1C564.2 356.1 564.3 356.1 564.4 356.1L566.1 286.3C565.9 286.3 565.8 286.3 565.6 286.3C565.1 286.3 564.7 286.3 564.2 286.3C563.5 286.3 562.7 286.3 562 286.3C561 286.3 560 286.3 559.1 286.3C557.9 286.3 556.7 286.3 555.5 286.3C554.1 286.3 552.7 286.3 551.3 286.3C549.7 286.3 548.2 286.3 546.6 286.3C544.9 286.3 543.2 286.3 541.5 286.3C539.7 286.3 537.8 286.3 536 286.3C534.1 286.3 532.2 286.3 530.2 286.3C528.2 286.3 526.2 286.3 524.2 286.3C522.2 286.3 520.1 286.3 518.1 286.3C516.1 286.3 514 286.3 512 286.3C510 286.3 507.9 286.3 505.9 286.3C503.9 286.3 501.9 286.3 499.9 286.3C498 286.3 496 286.3 494.1 286.3C492.2 286.3 490.4 286.3 488.5 286.3C486.8 286.3 485 286.3 483.3 286.3C481.7 286.3 480.1 286.3 478.5 286.3C477.1 286.3 475.6 286.3 474.2 286.3C472.9 286.3 471.7 286.3 470.4 286.3C469.4 286.3 468.3 286.3 467.3 286.3C466.5 286.3 465.7 286.3 464.9 286.3C464.4 286.3 463.8 286.3 463.3 286.3C462.8 286.4 462.5 286.4 462.4 286.6Z" fill="#6A6A6A"/>
<path d="M487.6 365.2C490 366.8 500.3 366.5 513.7 366.5C527.1 366.5 527.7 364.1 527.7 364.1V359.5L526.1 354.9L509.6 350.9C509.6 350.9 492 356.1 498.4 356.1C504.9 356.1 505.2 356.8 505.1 358.2C505 359.4 495.8 359.7 489.4 360.6C487.6 361.1 486.1 364.1 487.6 365.2Z" fill="#6A6A6A"/>
<path d="M468.6 292.8V350H558L563.6 332L558 319.9V292.8H468.6Z" fill="white"/>
<path d="M361.3 319.1C361.3 319.1 357.9 325.4 358.2 325.7C358.5 326 380.3 338.1 380.3 338.1C380.3 338.1 382.3 329.3 382.5 326.2C385.1 323.7 387.5 324.6 389.2 321.3C390.9 318 391.8 314.8 394.6 313.6C397.2 312.5 398.4 311.7 398.1 310.5C397.7 308.6 395.4 308.6 394.9 304.3C394.7 302.9 395.4 297.1 391.9 291.8C390.3 289.4 387.4 286.5 381.6 286.5C369.2 286.5 363.6 304.5 363.6 304.5L361.3 319.1Z" fill="#6A6A6A"/>
<path d="M360.8 319.9C362.7 320.7 364.6 320.4 369.1 316.2C373.6 312.1 371.9 310.2 371.1 306.3C370.1 301.4 374.8 299.8 376.4 304.7C377.5 307.9 379.7 309 381.5 306.9C382.9 305.3 382.7 303.3 379.6 297.6C376.5 291.9 383.5 286.6 383.5 286.6C383.5 286.6 380.4 286.3 377.7 286.3C374.1 286.3 368.9 286.7 364 291.2C355.4 299.1 359 319.1 360.8 319.9Z" fill="#3F3161"/>
<path d="M359.9 321.8C359.9 321.8 356.7 322.6 352.9 322.8C348 323 341.9 323.1 336.9 328.3C328 337.5 328.6 352.9 325.4 357C322.2 361 317.2 366.6 318.8 375.9C320.4 385.2 338.1 384.7 349.1 385C360.1 385.4 392.5 386 392.5 386L433.5 350.9C433.5 350.9 426.5 340.9 420.2 334.5C415.6 329.8 411.8 328.3 408.2 330C406.9 330.6 405.7 331.5 404.3 333.1C404.3 333.1 399.4 329.2 390.4 327.1C389.6 326.9 387.9 324.5 387.3 323.3C384.9 323.2 383.9 323.1 382.5 326C382.5 326 380.7 333.3 372.5 331.7C364.3 330.2 358.2 325.9 359.9 321.8Z" fill="#0062BA"/>
<path d="M405.1 333.1C403.7 334.2 402.4 335.7 400.7 336.1C399.4 336.4 398.1 336.4 396.9 336.2C396.6 336.1 396.2 336 395.9 335.9C395.7 335.8 395.3 335.6 395.1 335.6C394.8 335.6 394.7 336.1 394.6 336.3C394.1 337.4 392.8 339.6 391.2 338.7C389.2 337.5 387.5 341.2 385.4 337.4C384.3 335.4 384.6 332.6 384.9 330.4C385.2 328.5 385.3 326 386.5 324.4C387.9 322.5 390.1 321.1 392.4 320.6C394.5 320.2 396.5 320.6 398.5 321.4C402.6 323 406.2 325.9 408.1 329.9C408.1 330 408.2 330 408.2 330.1L405.1 333.1Z" fill="#6A6A6A"/>
<path d="M340.7 384.4L376.9 383.3L374.8 392.6L340.7 384.4Z" fill="#1EAEF7"/>
<path d="M391.8 405.8L397.2 414.4L480 402.3V393.6L391.8 405.8Z" fill="#0062BA"/>
<path d="M362.7 385.7C361.5 385.4 360.3 385.1 359.1 384.8C358.2 384.6 356.6 384.3 355.8 384C355.1 383.7 356.8 379.8 357.7 379.2C362.8 375.6 373.7 376.9 376 376.7C379.1 376.5 381.3 376.9 380.9 378.1C380.4 379.4 380.3 380.9 379.8 382.2C379.4 383.6 379.1 385.1 378.7 386.5C378.5 387.2 378.5 387.9 378.2 388.6C377.8 389.4 377.3 389.2 376.5 389.1C374.6 388.9 372.7 388.5 370.8 388C368.2 387.2 365.4 386.5 362.7 385.7Z" fill="#6A6A6A"/>
<path d="M388.7 351.3C391.5 351.1 431.7 347.6 443.7 346.6C445.8 346.4 446.9 347.4 446.5 349.2C444.8 357.4 440.1 378.9 439.4 382.2C438.5 386.3 438.1 389.6 433.2 390.6C425.7 392 392.2 396.9 379.6 398.2C376.7 398.5 374.8 398.6 371 397.5C367.2 396.4 343 389.4 343 389.4L340.5 384.1L374.9 392.7C374.9 392.7 381.6 361.7 382.7 356.8C383.6 352.5 385.5 351.6 388.7 351.3Z" fill="white"/>
<path d="M474.2 301.8H472.2C471.8 301.8 471.4 301.5 471.4 301C471.4 300.5 471.7 300.2 472.2 300.2H474.2C474.6 300.2 475 300.5 475 301C475 301.5 474.6 301.8 474.2 301.8Z" fill="#1EAEF7"/>
<path d="M540.7 301.8H536.7C536.3 301.8 535.9 301.5 535.9 301C535.9 300.5 536.2 300.2 536.7 300.2H540.7C541.1 300.2 541.5 300.5 541.5 301C541.5 301.5 541.1 301.8 540.7 301.8ZM529.6 301.8H525.6C525.2 301.8 524.8 301.5 524.8 301C524.8 300.5 525.1 300.2 525.6 300.2H529.6C530 300.2 530.4 300.5 530.4 301C530.4 301.5 530 301.8 529.6 301.8ZM518.5 301.8H514.5C514.1 301.8 513.7 301.5 513.7 301C513.7 300.5 514 300.2 514.5 300.2H518.5C518.9 300.2 519.3 300.5 519.3 301C519.3 301.5 518.9 301.8 518.5 301.8ZM507.4 301.8H503.4C503 301.8 502.6 301.5 502.6 301C502.6 300.5 502.9 300.2 503.4 300.2H507.4C507.8 300.2 508.2 300.5 508.2 301C508.2 301.5 507.9 301.8 507.4 301.8ZM496.4 301.8H492.4C492 301.8 491.6 301.5 491.6 301C491.6 300.5 491.9 300.2 492.4 300.2H496.4C496.8 300.2 497.2 300.5 497.2 301C497.2 301.5 496.8 301.8 496.4 301.8ZM485.3 301.8H481.3C480.9 301.8 480.5 301.5 480.5 301C480.5 300.5 480.8 300.2 481.3 300.2H485.3C485.7 300.2 486.1 300.5 486.1 301C486.1 301.5 485.7 301.8 485.3 301.8Z" fill="#1EAEF7"/>
<path d="M549.7 303.8C549.3 303.8 548.9 303.5 548.9 303V301.8H547.7C547.3 301.8 546.9 301.5 546.9 301C546.9 300.5 547.2 300.2 547.7 300.2H549.7C550.1 300.2 550.5 300.5 550.5 301V303C550.5 303.5 550.1 303.8 549.7 303.8Z" fill="#1EAEF7"/>
<path d="M549.7 311.8H547.7C547.3 311.8 546.9 311.5 546.9 311C546.9 310.5 547.2 310.2 547.7 310.2H548.9V309C548.9 308.6 549.2 308.2 549.7 308.2C550.2 308.2 550.5 308.5 550.5 309V311C550.5 311.5 550.1 311.8 549.7 311.8Z" fill="#1EAEF7"/>
<path d="M541.1 311.8H537.3C536.9 311.8 536.5 311.5 536.5 311C536.5 310.5 536.8 310.2 537.3 310.2H541.1C541.5 310.2 541.9 310.5 541.9 311C541.9 311.5 541.5 311.8 541.1 311.8ZM530.7 311.8H526.9C526.5 311.8 526.1 311.5 526.1 311C526.1 310.5 526.4 310.2 526.9 310.2H530.7C531.1 310.2 531.5 310.5 531.5 311C531.5 311.5 531.1 311.8 530.7 311.8ZM520.3 311.8H516.5C516.1 311.8 515.7 311.5 515.7 311C515.7 310.5 516 310.2 516.5 310.2H520.3C520.7 310.2 521.1 310.5 521.1 311C521.1 311.5 520.7 311.8 520.3 311.8ZM509.9 311.8H506.1C505.7 311.8 505.3 311.5 505.3 311C505.3 310.5 505.6 310.2 506.1 310.2H509.9C510.3 310.2 510.7 310.5 510.7 311C510.7 311.5 510.3 311.8 509.9 311.8ZM499.5 311.8H495.7C495.3 311.8 494.9 311.5 494.9 311C494.9 310.5 495.2 310.2 495.7 310.2H499.5C499.9 310.2 500.3 310.5 500.3 311C500.3 311.5 499.9 311.8 499.5 311.8ZM489.1 311.8H485.3C484.9 311.8 484.5 311.5 484.5 311C484.5 310.5 484.8 310.2 485.3 310.2H489.1C489.5 310.2 489.9 310.5 489.9 311C489.9 311.5 489.5 311.8 489.1 311.8Z" fill="#1EAEF7"/>
<path d="M476.7 313.8C476.3 313.8 475.9 313.5 475.9 313V311C475.9 310.6 476.2 310.3 476.7 310.3H478.7C479.1 310.3 479.5 310.6 479.5 311.1C479.5 311.6 479.2 311.9 478.7 311.9H477.4V313.2C477.4 313.5 477.1 313.8 476.7 313.8Z" fill="#1EAEF7"/>
<path d="M478.6 322.1H476.6C476.4 322.1 476.2 322 476.1 321.9C476 321.8 475.9 321.6 475.9 321.4V319.4C475.9 319 476.2 318.7 476.7 318.7C477.1 318.7 477.4 319 477.4 319.5V320.7H478.6C479 320.7 479.4 321 479.4 321.5C479.4 322 479.1 322.1 478.6 322.1Z" fill="#1EAEF7"/>
<path d="M541.1 322.1H537.3C536.9 322.1 536.5 321.8 536.5 321.3C536.5 320.8 536.8 320.5 537.3 320.5H541.1C541.5 320.5 541.9 320.8 541.9 321.3C541.9 321.8 541.5 322.1 541.1 322.1ZM530.7 322.1H526.9C526.5 322.1 526.1 321.8 526.1 321.3C526.1 320.8 526.4 320.5 526.9 320.5H530.7C531.1 320.5 531.5 320.8 531.5 321.3C531.5 321.8 531.1 322.1 530.7 322.1ZM520.3 322.1H516.5C516.1 322.1 515.7 321.8 515.7 321.3C515.7 320.8 516 320.5 516.5 320.5H520.3C520.7 320.5 521.1 320.8 521.1 321.3C521.1 321.8 520.7 322.1 520.3 322.1ZM509.9 322.1H506.1C505.7 322.1 505.3 321.8 505.3 321.3C505.3 320.8 505.6 320.5 506.1 320.5H509.9C510.3 320.5 510.7 320.8 510.7 321.3C510.7 321.8 510.3 322.1 509.9 322.1ZM499.5 322.1H495.7C495.3 322.1 494.9 321.8 494.9 321.3C494.9 320.8 495.2 320.5 495.7 320.5H499.5C499.9 320.5 500.3 320.8 500.3 321.3C500.3 321.8 499.9 322.1 499.5 322.1ZM489.1 322.1H485.3C484.9 322.1 484.5 321.8 484.5 321.3C484.5 320.8 484.8 320.5 485.3 320.5H489.1C489.5 320.5 489.9 320.8 489.9 321.3C489.9 321.8 489.5 322.1 489.1 322.1Z" fill="#1EAEF7"/>
<path d="M549.7 324.1C549.3 324.1 548.9 323.8 548.9 323.3V322.1H547.7C547.3 322.1 546.9 321.8 546.9 321.3C546.9 320.8 547.2 320.5 547.7 320.5H549.7C549.9 320.5 550.1 320.6 550.2 320.7C550.3 320.8 550.4 321 550.4 321.2V323.2C550.5 323.8 550.1 324.1 549.7 324.1Z" fill="#1EAEF7"/>
<path d="M549.6 332.1H547.6C547.2 332.1 546.8 331.8 546.8 331.3C546.8 330.8 547.1 330.5 547.6 330.5H548.9V329.2C548.9 328.8 549.3 328.5 549.7 328.5C550.1 328.5 550.4 328.8 550.4 329.3V331.3C550.3 331.8 550 332.1 549.6 332.1Z" fill="#1EAEF7"/>
<path d="M541 332.1H537.2C536.8 332.1 536.4 331.8 536.4 331.3C536.4 330.8 536.7 330.5 537.2 330.5H541C541.4 330.5 541.8 330.8 541.8 331.3C541.8 331.8 541.4 332.1 541 332.1ZM530.6 332.1H526.8C526.4 332.1 526 331.8 526 331.3C526 330.8 526.3 330.5 526.8 330.5H530.6C531 330.5 531.4 330.8 531.4 331.3C531.4 331.8 531 332.1 530.6 332.1ZM520.2 332.1H516.4C516 332.1 515.6 331.8 515.6 331.3C515.6 330.8 515.9 330.5 516.4 330.5H520.2C520.6 330.5 521 330.8 521 331.3C521 331.8 520.6 332.1 520.2 332.1ZM509.9 332.1H506.1C505.7 332.1 505.3 331.8 505.3 331.3C505.3 330.8 505.6 330.5 506.1 330.5H509.9C510.3 330.5 510.7 330.8 510.7 331.3C510.7 331.8 510.3 332.1 509.9 332.1ZM489.1 332.1H485.3C484.9 332.1 484.5 331.8 484.5 331.3C484.5 330.8 484.8 330.5 485.3 330.5H489.1C489.5 330.5 489.9 330.8 489.9 331.3C489.9 331.8 489.5 332.1 489.1 332.1Z" fill="#1EAEF7"/>
<path d="M476.7 334.1C476.3 334.1 475.9 333.8 475.9 333.3V331.3C475.9 330.9 476.2 330.6 476.7 330.6H478.7C479.1 330.6 479.5 330.9 479.5 331.4C479.5 331.9 479.2 332.2 478.7 332.2H477.4V333.5C477.5 333.8 477.1 334.1 476.7 334.1Z" fill="#1EAEF7"/>
<path d="M478.6 342.4H476.6C476.4 342.4 476.2 342.3 476.1 342.2C476 342.1 475.9 341.9 475.9 341.7V339.7C475.9 339.3 476.2 339 476.7 339C477.1 339 477.4 339.3 477.4 339.8V341H478.6C479 341 479.4 341.3 479.4 341.8C479.4 342.3 479 342.4 478.6 342.4Z" fill="#1EAEF7"/>
<path d="M535.8 342.4H531.6C531.2 342.4 530.8 342.1 530.8 341.6C530.8 341.1 531.1 340.8 531.6 340.8H535.8C536.2 340.8 536.6 341.1 536.6 341.6C536.6 342.1 536.2 342.4 535.8 342.4ZM524.3 342.4H520.1C519.7 342.4 519.3 342.1 519.3 341.6C519.3 341.1 519.6 340.8 520.1 340.8H524.3C524.7 340.8 525.1 341.1 525.1 341.6C525.1 342.1 524.8 342.4 524.3 342.4ZM512.9 342.4H508.7C508.3 342.4 507.9 342.1 507.9 341.6C507.9 341.1 508.2 340.8 508.7 340.8H512.9C513.3 340.8 513.7 341.1 513.7 341.6C513.7 342.1 513.3 342.4 512.9 342.4ZM501.5 342.4H497.3C496.9 342.4 496.5 342.1 496.5 341.6C496.5 341.1 496.8 340.8 497.3 340.8H501.5C501.9 340.8 502.3 341.1 502.3 341.6C502.3 342.1 501.9 342.4 501.5 342.4ZM490.1 342.4H485.9C485.5 342.4 485.1 342.1 485.1 341.6C485.1 341.1 485.4 340.8 485.9 340.8H490.1C490.5 340.8 490.9 341.1 490.9 341.6C490.9 342.1 490.5 342.4 490.1 342.4Z" fill="#1EAEF7"/>
<path d="M556.5 342.4H554.5C554.1 342.4 553.7 342.1 553.7 341.6C553.7 341.1 554 340.8 554.5 340.8H556.5C556.9 340.8 557.3 341.1 557.3 341.6C557.3 342.1 556.9 342.4 556.5 342.4Z" fill="#1EAEF7"/>
<path d="M585.8 340.4C582.6 340.4 580.2 340 580 340C579.5 339.9 579.2 339.5 579.3 339C579.4 338.5 579.8 338.2 580.3 338.3C580.4 338.3 592.8 340.4 600.3 334.6C605.4 330.7 606.9 325.5 608.2 320.9C609.7 315.8 611 310.9 617.3 309.7C621.7 308.9 624.7 312.2 627.6 315.4C629.7 317.7 631.8 320.1 634.3 320.7C638.3 321.7 640.7 317.4 643.4 312.4C644 311.2 644.7 310.1 645.4 308.9C650.8 300 657.5 294.8 665 293.8C672.2 292.8 679.8 296 687 302.9C693.7 309.3 698 308.2 703.9 306.6C707.1 305.8 710.6 304.8 715.2 304.8C715.7 304.8 716 305.2 716 305.6C716 306 715.6 306.4 715.2 306.4C710.9 306.4 707.4 307.3 704.4 308.1C698.2 309.8 693.2 311.1 685.8 304C679 297.5 671.9 294.5 665.2 295.4C658.3 296.3 651.9 301.3 646.8 309.7C646.1 310.8 645.5 312 644.8 313.1C641.9 318.4 639.1 323.5 633.8 322.2C630.8 321.4 628.5 318.9 626.2 316.4C623.5 313.4 621 310.6 617.5 311.2C612.3 312.2 611.1 316.2 609.7 321.2C608.3 326 606.8 331.5 601.2 335.8C596.6 339.6 590.3 340.4 585.8 340.4Z" fill="#1EAEF7"/>
<path d="M542.9 451.8L544.4 479.7C544.4 479.7 538 479.6 529.4 483.1C520.8 486.7 509 491.7 509 491.7L576.1 490.9L562.8 481.6L575.4 478.4L573.5 468.5L554.1 475L556.3 450.2C556.3 450.2 566 448.9 576.1 443.4C586.2 437.9 577.9 424.5 577.9 424.5C561 432.8 544.4 442.3 525.5 445C523.7 445.3 521.9 445.5 520.1 445.6C521.4 445.6 531 450.3 542.9 451.8Z" fill="#3F3161"/>
<path d="M454 446.1C454 446.1 449.2 453.4 441.1 452.6C433 451.8 423.2 447.8 419.2 455.9C415.2 464 430.9 471.3 440.5 471.4C450.1 471.5 443.6 475.1 447.4 479C451.2 482.9 458 480.9 463.2 474.9C468 469.4 475 461.3 475 461.3L454 446.1Z" fill="#3F3161"/>
<path d="M583.6 345C583.6 345 595.6 334.5 611 345C626.4 355.5 618.1 390.8 582.1 407.7L565.3 394.2L583.6 345Z" fill="white"/>
<path d="M516.6 431.2C516.6 431.2 509 439.5 519 445.1C529.1 450.8 559.7 448.5 576.9 434.5C584.3 428.5 579.5 421.9 577.2 416.3C574.2 409 571.8 403.4 571.8 403.4L516.6 431.2Z" fill="white"/>
<path d="M565.3 401.3C565.3 401.3 513.7 385 504.4 382.6C495.1 380.2 484.1 379.4 475.2 393.4C469 403.3 466.7 418.4 451.9 435.8C447.8 440.6 437.6 445.3 446.5 451.4C455.4 457.4 469.9 467.2 469.9 467.2L478.2 460V482.7H512.3C512.3 482.7 513.1 437.7 516.8 431.9C516.8 431.9 530.5 442.5 554.8 439.2C571.1 436.9 577 425 579.5 418C577.2 409.6 576.7 407.9 576.7 407.9L565.3 401.3Z" fill="#0062BA"/>
<path d="M533.8 384.3C530.8 382 527.8 379.6 524.8 377.3C523.5 376.3 521.9 375.8 520.5 375C519 374.2 519.5 375.4 518.1 374.4C513.7 373.3 510.4 370.8 507.3 370.5C502.1 370.1 498 371 494.8 373C494.1 373.4 492.2 375.6 491.7 376.5C491.3 377.2 491.1 378 491.2 378.8C491.5 381.6 494 381.5 495.9 382C497.3 382.4 498.7 382.5 500 382.9C501.6 383.4 503 384.3 504.4 385.3C506.5 386.9 508.6 388.7 511.2 389.4C515 390.4 519.3 388.9 522.7 390.8C524 391.5 525 392.6 526 393.7C527 394.8 528 395.9 529.3 396.6C531.5 397.8 533.4 396.8 535.4 395.8C536.6 395.2 537.4 394.1 537.5 392.6C537.7 390 536 387.4 534.6 385.4C534.3 385 534.1 384.7 533.8 384.3Z" fill="#3F3161"/>
<path d="M522 328.7C520.8 329.8 519.4 330.5 518.2 331.6C517.2 332.5 516.2 333.5 515.2 334.4C514.3 335.3 513.9 336.3 512.4 336.2C511.7 336.1 511.1 335.9 510.4 335.7C507.2 334.6 503.9 334.3 500.6 333.8C497.8 333.3 495.3 331.6 492.8 330.1C490.2 328.5 487.9 326 486.8 323.1C485.9 320.8 485.2 316.2 488 314.8C488.6 314.5 489.3 314.4 489.9 314.3C492.2 313.9 493.5 314.3 495.4 315.6C496.9 316.6 498.4 317.5 499.9 318.4C500.8 318.9 502.6 320.3 503.6 320.1C505.8 319.7 503.4 316.9 503 315.8C502.5 314.7 501.5 312.5 502.7 311.4C504 310 505.4 312.2 506.3 313C507.6 314.2 509 315.4 510.3 316.7C512.6 318.9 514.8 321.1 516.8 323.5C518.2 325 520.1 327.6 522 328.7Z" fill="#3F3161"/>
<path d="M573.8 291.7C572.7 291.9 571.7 292.4 570.8 293C570.3 293.3 569.9 293.6 569.4 293.8C568.9 294 568.3 294.2 567.8 294.4C567.2 294.7 566.6 295.1 566.1 295.5C565.3 296.2 564.6 297 564.2 298C564 298.5 563.9 299 563.7 299.5C563.5 300 563.2 300.4 562.8 300.8C562.2 301.4 561.5 301.5 560.7 301.7C559.8 301.9 559 302.2 558.1 302.3C556 302.5 554.6 303.4 555.1 305.7C555.3 306.6 555.7 307.5 555.8 308.4C556.1 310.9 551 319.7 555.7 324.9C557 326.4 560.9 329.1 560.9 333.3C556.5 336.4 555.3 347.9 556.3 348.1C557.2 348.4 573.4 351.4 573.4 351.4L583 340C583 340 581.5 338.2 580.6 335.5C579.7 333 579.3 329.6 580.1 326.2C581.7 319.1 589.9 304.8 589.9 304.8L585.3 299.5C584.3 298.8 583.4 298 582.4 297.3C581 296.2 579.5 295.1 578.1 294C576.9 293.3 575.4 291.5 573.8 291.7Z" fill="#3F3161"/>
<path d="M513.1 372.6C508.7 375.7 505.6 385.7 508.9 389.1C513.4 393.7 545.6 410.5 554.6 411.1C559 411.4 560.9 408.6 563.9 409.9C570.1 412.6 577.2 416.3 577.2 422.7C577.2 422.7 578.6 423.6 580.5 418.1C582.6 411.8 585.5 398.5 588.9 389.4C593.8 376.3 603.7 365.7 602 352.9C600.2 339.7 585.3 337.6 580.6 335.5C580.6 335.5 570.5 341.4 563.9 340.6C557.3 339.7 560.9 335.4 560.9 333.3C558.8 333.3 557.2 332.9 555.1 333.6C553.2 334.2 551.4 335.3 549.7 336.5C547.6 338 545.6 339.7 543.2 340.9C542.2 341.4 541.2 342 540 341.7C538.8 341.5 537.8 340.8 536.9 340.1C532.5 336.8 521.4 328.4 520.3 327.3C518.9 325.8 508.7 334.9 508.4 336.6C508.1 338.7 509.9 341.6 510.8 343.4C513.2 348.2 515.9 353 518.6 357.6C520.3 360.4 522 363.2 524.1 365.8C525.1 367 526.3 368.2 527.5 369.3C528.7 370.3 530 370.9 531.2 371.8C528.1 371.7 525.1 371.6 522 371.5C518.4 371.2 515 371.2 513.1 372.6Z" fill="#E23B53"/>
<path d="M594 304.1C593.8 303.4 593.6 302.6 594.1 302.1C594.4 301.7 594.9 301.6 595.4 301.4C596.6 301 597.7 300.3 598.6 299.5C599.6 298.6 600 297.7 600.4 296.4C601.1 294.2 601.1 291.7 600 289.8C598.8 287.6 596.3 286.2 593.8 286.4C591.3 286.5 589 288.2 588 290.5C586.1 287.9 582.8 286.4 579.5 286.7C577.8 286.9 576.1 287.5 574.4 287.6C571.7 287.7 568.7 285.8 566.1 286.3C563.6 286.8 561.7 289 561.7 292.4C561.7 294.5 563.7 299.5 563.7 299.5C563.7 299.5 564.8 297.3 565.2 296.8C566.3 295.1 568.2 294.2 570.3 295.5C571.5 296.2 572.1 297.6 572.2 299C572.3 300.4 571.9 301.7 571.5 303C571.1 304.3 570.7 305.6 570.6 307C570.6 307.6 570.6 308.3 570.9 308.8C571.2 309.4 571.7 309.8 572.3 309.9C572.8 309.9 573.3 309.7 573.5 309.2C573.8 308.6 574.2 308.1 574.9 307.8C575.9 307.3 577.2 307.4 578.1 308.1C579.1 308.8 578.6 310.7 578.3 311.7C577.6 314.3 575.9 316 575 318.4C574 321 573.7 323.9 574.2 326.7C574.4 327.8 574.7 329 575.4 329.9C576.1 330.8 577.1 331.6 578.3 331.6C579.9 331.7 581.2 330.6 582.4 329.6C584.7 327.6 587.1 325.6 589.4 323.6C590.4 322.7 591.7 321.9 592.4 320.7C593.1 319.5 593.7 318.2 594.1 316.8C595.4 312.8 595.4 308.4 594.2 304.4C594 304.2 594 304.1 594 304.1Z" fill="#1EAEF7"/>
<path d="M572.4 424.7V419.5L642.6 407.2L651.8 423.4L686.9 419.5L688 399.3L814.7 377.2L999.7 396.7C989.5 401.6 979.2 406.4 969 411.3C948 421.3 927 431.3 906 441.3C897.7 445.3 889.3 449.2 881 453.2C871 458 863.5 466.8 858.4 476.7C857.9 477.7 857.4 478.8 856.5 479.6C855.7 480.4 854.4 480.9 853.4 480.5C852.5 480.2 851.9 479.4 851.4 478.6C849.6 476.1 847.2 470.7 844.4 469.3C843.5 468.9 842 469 841 468.8C839.3 468.5 837.7 468.3 836 468C831.3 467.2 826.5 466.4 821.8 465.7C807.9 463.4 793.9 461.1 780 458.8C762.4 455.9 744.9 453 727.3 450.2C708.8 447.2 690.4 444.1 671.9 441.1C655.3 438.4 638.7 435.7 622.1 432.9C610.1 430.9 598.2 429 586.2 427C581.6 426.2 577 425.4 572.4 424.7Z" fill="#CFF0FF"/>
<path d="M603.3 400.4C603.3 402.5 603.3 412.2 603.3 415.4C603.3 417.6 604.7 419.1 607.2 419.5C609.7 419.9 654 426.6 654 426.6L694.9 419.1V415.7C694.9 415.7 665 420.8 660.4 421.5C655.8 422.2 649.1 420.9 649.1 413.7C649.1 406.5 654.8 405.7 658.7 405C662.6 404.4 694.9 399.2 694.9 399.2L669.7 387.2C669.7 387.2 613.4 393.3 608.4 394C603.3 394.7 603.3 397.4 603.3 400.4Z" fill="#3F3161"/>
<path d="M685.9 399.1C685.9 399.1 678 408.9 678 422.3C678 435.7 687.6 432.9 701.2 432.9C714.8 432.9 718.9 430.8 718.9 420C718.9 409.2 708.9 393.2 708.9 393.2L685.9 399.1Z" fill="#1EAEF7"/>
<path d="M581.2 508.6L577.3 430.9L837 469.6L834.9 520.4L581.2 508.6Z" fill="#3F3161"/>
<path d="M572.4 424.7V498H592.6V436.5L687.4 453.8V503.2H706.9V456.1L825.8 476.6V505.1H846V469.6L572.4 424.7Z" fill="#6A6A6A"/>
<path d="M649.8 490C649.8 490 649.7 490 649.7 490.1C646.1 491.6 635.4 498.1 633.9 491C633.3 488.1 633.2 485 633 482C632.8 478.8 632.6 475.6 632.4 472.3C632.3 469.1 632.1 465.8 632.1 462.6C632.1 461 632.1 459.4 632 457.8C632 456.7 632.4 455.2 632.1 454.1C631.7 452.4 629.8 452.7 628.9 454.3C628.3 455.3 628.3 456.6 628.2 457.8C628.1 464.6 628 471.3 627.9 478.1C627.8 481.7 626.4 483.6 622.7 481.9C620 480.6 618.2 478 617.3 475.2C616.4 472.4 616.2 469.4 616.1 466.4C616 463.6 615.8 460.9 615.7 458.1C615.7 456 615.7 453.6 617.2 451.9C618.1 450.9 619.3 450.3 620.6 449.7C621.6 449.2 622.7 448.8 623.7 448.3C621.2 448.8 618.8 449.5 616.4 450.3C615.9 450.5 615.4 450.7 615 451C613.3 452.3 613.8 455.6 613.7 457.5C613.7 460 613.8 462.6 613.7 465.1C613.6 469.3 613.2 473.7 611.3 477.4C610.7 478.7 609.8 480 608.7 480.9C607.6 481.8 606.1 482.4 604.6 482.3C601.9 482 599.9 479.4 599.5 476.7C599.2 474.7 599.6 472.6 600.1 470.7C600.6 469 600.5 467.4 600.5 465.7C600.6 461.5 600.7 457.3 600.4 453.1C600.3 450.6 600 448.3 602.5 446.8C604.4 445.6 618.4 442.4 622.4 441.9C635.8 444.2 659.9 448.7 659.9 448.7C659.9 448.7 649.6 451.2 649.4 453.7C649.2 455.8 649.4 458 649.4 460.1C649.4 460.7 649.4 469.5 649.4 469.5H656.5C656.5 467.6 656.5 465.6 656.5 463.7C656.5 462.2 656.5 460.7 656.5 459.2C656.5 458.1 656.1 456.1 657.2 455.4C658 454.8 667.2 456.3 670.9 456.7C672.7 456.9 679.9 457.1 680.9 458.1C682 459.2 681.5 462 681.5 463.5C681.5 465.6 681.5 467.7 681.5 469.8C681.5 472.4 681.5 475 681.5 477.6C681.5 477.9 677.5 479.2 677.2 479.3C676.4 479.6 673.1 481.5 672.5 480.6C672.2 480.2 672.3 479.7 672.4 479.2C673.1 474.7 663.5 471.8 663.4 475.6C663.3 478.2 663.8 481.4 662.4 483.7C661.5 485.3 659.8 486.1 658.1 486.7C655.4 487.9 652.6 488.9 649.8 490Z" fill="#0062BA"/>
<path d="M847.5 286.4H714.8L709.2 293.5L716.3 396.2L855.2 372.8C855.3 372.8 856.5 314.1 847.5 286.4Z" fill="#0062BA"/>
<path d="M727.1 294.6L839.6 292L847.3 365.4L733.1 382.1L727.1 294.6Z" fill="white"/>
<path d="M771.9 383.6C771 385.6 770.4 387.8 770 389.9C769.7 391.9 769.7 393.7 768.7 395.5C768 396.8 766.8 397.9 765.5 398.7C762.8 400.4 759.8 401.3 756.9 402.7C755.3 403.5 753.7 404.5 752.4 405.8C751.2 407.1 750.7 408.2 750.3 409.9C752.4 411 754.4 412.1 756.5 413.2C757.9 413.9 759.3 414.7 760.6 415.4C760.9 415.5 762.1 416.4 762.4 416.3C763.4 416 764.5 415.7 765.5 415.4C770.5 413.9 775.6 412.4 780.6 410.9C787.8 408.8 794.9 406.7 802.1 404.5C809.1 402.4 816.1 400.3 823.1 398.3C827.3 397 831.7 396.2 835.7 394.4C836.4 394.1 837.8 393.8 837.7 392.8C837.7 392 836.7 391.4 836.2 391C835 390.2 833.7 389.6 832.4 389.1C829.1 387.8 825.5 387.5 822 387.6C808.6 387.9 811.5 372.9 811.5 372.9C807 374 802.4 375.2 797.9 376.3C790.6 378.1 783.3 380 776.1 381.8C774.7 382.1 772.5 382.2 771.9 383.6Z" fill="#0062BA"/>
<path d="M767.8 427.1V437.1L820.5 447.7L914.4 412.7V406L874.8 394.6L767.8 427.1Z" fill="#0062BA"/>
<path d="M717.6 361.7C719.1 362.2 720.5 362.7 722 363.2C722.7 363.4 723.5 363.6 724 363.1C724.3 362.8 724.4 362.3 724.5 361.8C724.7 360.5 725.4 359.2 725.8 357.9C726.4 355.4 724.8 352.1 722.2 351.5C722.3 349.4 720.3 347.5 718.2 347.6C717.5 347.6 716.6 347.9 716 347.6C715.9 347.6 715.8 347.5 715.7 347.5C714.9 347 714.8 346 714.5 345.1C714.1 343.5 713 342 711.4 341.4C709.9 340.8 707.9 341.2 706.9 342.5C703.7 341.7 705.6 346.7 702.5 346.7C701.7 346.7 700.9 346.3 700.2 346C699.8 345.9 699.4 345.7 699 345.7C698.7 345.7 698.1 345.9 697.9 345.8C697.4 345.6 697.1 344.7 696.6 344.4C696 344 695.1 344 694.7 344.6C694.6 344.8 694.5 345.1 694.3 345.3C693.8 345.6 693.3 345.1 692.9 344.7C690.1 341.7 686.2 344.5 685 347.6C684.5 348.8 684.4 350.1 683.8 351.2C683.2 352.3 682.1 353.4 680.8 353.1C680.3 353 679.9 352.8 679.4 352.9C679.1 353 678.8 353.3 678.5 353.4C677.7 353.8 676.7 353.2 675.9 352.7C674.9 352 673.7 351.4 672.5 351.5C671.3 351.6 670 352.6 670.2 353.8C670.3 354.7 671.1 355.4 671.2 356.3C671.5 358.1 669.3 359.1 667.9 360.3C665.8 362.1 665.4 365.6 667 367.8C665 368.7 662.9 369.7 661.5 371.5C660.7 372.5 660.2 373.8 660.3 375.1C660.3 375.8 660.5 376.3 660.8 376.9C661.1 377.8 661 377.8 660.6 378.7C659.3 381.4 659.1 384.6 660 387.4C661.4 391.6 665.5 394.8 669.9 395.4C668.8 396.2 667.9 397.5 667.6 398.8C669.1 398 670.8 397.6 672.5 397.7C672.7 399.2 673.1 400.7 673.6 402.1C673.5 401.7 676 400.7 676.2 400.7C677.4 400.3 678.6 400 679.9 400.4C681 400.8 681.9 401.5 682.9 402C683.9 402.5 685.1 402.9 686.2 402.5C687.8 402 689 400.5 690.6 399.8C691.8 399.3 693.7 399.5 694.5 398.4C695 397.8 695 397 695 396.3C695.2 390.9 695.9 385.5 697.3 380.3C698.3 376.3 699.8 372.3 702.5 369.3C705.8 365.7 710.4 364.5 714.8 363.1C717 362.4 719.2 361.6 721.1 360.2C722.9 359 725 358.4 725.1 355.8C725.1 355.2 725 354.5 724.8 353.9" fill="#0062BA"/>
<path d="M736.5 384.9C736.5 384.8 736.6 384.7 736.6 384.6C737.4 382.3 735.5 379.9 736.9 377.8C737.5 376.9 738.4 376.1 739 375.2C739.6 374.3 740.1 373.1 739.7 372C739 370.1 736.5 369.9 735.1 368.4C732.9 366.1 736.2 363.3 733.9 361.3C733 360.5 731.5 360.5 730.8 361.4C730.5 360.4 729.4 359.8 728.3 359.8C727.3 359.8 726.3 360.3 725.5 361C725.1 361.4 724.7 361.8 724.1 361.8C723.3 361.8 722.7 360.9 722.8 360.1C722.8 359.3 723.2 358.5 723.4 357.7C723.8 355.8 722.6 353.7 720.8 353C719 352.3 716.7 353.1 715.7 354.8C714.8 353.8 713.5 353.2 712.1 353.2C710.8 353.2 709.4 353.8 708.6 354.9C707.9 353.1 706.4 351.7 704.5 351.2C702.3 350.6 701.2 352.2 699.3 352.8C697.8 353.2 696.3 352.5 694.8 352.3C692.6 352.1 690.3 353.1 689 354.9C688.6 355.4 688.4 356 687.9 356.5C687.4 357.1 686.6 357.6 685.8 357.3C685.2 357.1 685 356.4 684.5 356C683.9 355.5 683.2 355.1 682.4 355.4C682.2 355.5 681 356.5 681.5 356.8C680.6 356.3 679.4 357.1 679.4 358.1C679.4 358.6 679.7 359.2 679.4 359.7C679.3 359.9 679 360.1 678.9 360.3C678.5 360.8 678.7 361.5 679.1 362.1C679.4 362.6 679.8 363.2 679.8 363.8C679.8 364.8 678.8 365.5 677.8 365.5C676.8 365.5 676 365 675.2 364.5C674.4 364 673.6 363.4 672.7 363.1C671.8 362.9 670.6 363.1 670.2 363.9C669.6 364.9 670.3 366.2 670.9 367.2C669.9 366.9 668.8 367.4 668.4 368.3C667.9 369.2 668.2 370.4 668.9 371C667.6 371.2 666.8 372.5 666.7 373.8C666.6 375 667.7 376.5 667.2 377.5C666.7 378.5 665.8 379.3 665.3 380.4C664.4 382.6 664.3 385.1 665.2 387.3C666.5 390.8 670.1 393.2 673.8 393.2C676.2 393.2 679 392.4 680.8 394C682.2 395.3 682.7 397.2 683.4 398.8C683.7 399.4 684.1 400.4 684.6 400.9C685.2 401.5 686.4 401.5 687.2 401.6C687.4 401.6 687.6 401.7 687.7 401.8C688 402.1 688 402.6 688.1 403C688.3 403.6 688.9 404 689.6 404.1C690.3 404.2 690.9 404 691.6 403.9C691.8 405.7 693.2 407.2 694.9 405.7C695.5 405.1 696.1 404.4 697 404.3C697.7 404.2 698.4 404.6 699 404.8C699.9 405 701 404.6 701.6 403.9C702.2 403.2 702.4 402.1 702.1 401.2C702.9 401.9 704.1 402.1 705.1 401.7C706.1 401.3 706.9 400.4 707 399.4C707.6 400.9 709.1 400.3 710.3 400.4C711.9 400.5 713.4 401 714.9 401.3C717 401.7 719.3 401.7 721 400.5C723.3 398.9 723.7 395.6 725.5 393.4C727 391.5 729.4 390.4 731.5 389.3C733.6 388.5 735.7 387.1 736.5 384.9Z" fill="#3F3161"/>
<path d="M682.8 377.4C683.2 378 683.2 378.6 683 379.2C682.7 379.8 682.2 380.2 681.6 380.3C680.3 380.7 679 379.2 679.4 378C679.6 377.3 680.3 376.8 681 376.7C681.4 376.6 681.7 376.6 682.1 376.8C682.3 376.8 682.6 377.1 682.8 377.4Z" fill="#E23B53"/>
<path d="M693 391C692.9 390.8 692.8 390.7 692.8 390.5C692.7 390.2 692.6 389.8 692.7 389.5C692.8 388.3 694 387.8 695 388.1C695.7 388.3 696.5 389.1 696.4 389.9C696.3 390.4 696 390.8 695.7 391.1C695.2 391.5 694.7 391.6 694.1 391.6C693.8 391.6 693.4 391.5 693.1 391.2C693.1 391.1 693.1 391.1 693 391Z" fill="#E23B53"/>
<path d="M702.3 371.4C701.9 371 701.3 370.7 700.7 370.7C700.3 370.7 700 370.8 699.6 371C698.7 371.5 698.3 372.8 698.7 373.8C699.1 374.8 700.2 375.4 701.2 375.2C702.4 374.9 703.2 373.4 702.7 372.1C702.6 371.8 702.5 371.6 702.3 371.4Z" fill="#E23B53"/>
<path d="M717.8 381.1C717.8 381 717.8 381 717.7 380.9C717.6 380.5 717.3 380.1 716.9 379.9C716.5 379.7 716.1 379.7 715.7 379.8C715 379.9 714.3 380.3 714 381.1C713.6 382.1 714.1 383.5 715 383.9C715.9 384.3 716.9 383.8 717.5 382.9C717.8 382.4 717.9 381.7 717.8 381.1Z" fill="#E23B53"/>
<path d="M716.5 363C717 363.6 717.2 364.3 717.1 365.1C717.1 365.5 716.8 366 716.5 366.3C715.6 367.1 714 367 713.2 366.1C712.4 365.2 712.6 363.6 713.5 362.9C713.9 362.6 714.5 362.3 715 362.3C715.6 362.2 716.1 362.6 716.5 363Z" fill="#E23B53"/>
<path d="M722.5 416.3V424.7L745.1 429.2L765.7 421.1V415.3L750.3 413.1L722.5 416.3Z" fill="#1EAEF7"/>
<path d="M899.1 405.4C900.9 405.9 901.3 409.4 902.6 410.9C904.2 412.7 906.4 413.9 908.8 414.1C912.6 414.4 916.2 412.5 919.9 411.7C922.8 411.1 925.7 411.1 928.6 411.6C931.5 412.1 934.2 413.6 937 414.2C938.8 414.5 938.4 414.5 938.8 412.7C939.1 411.3 939.4 410 939.7 408.6C939.9 407.4 942.4 393.3 942.9 393.3C935.7 393.2 928.2 392.2 921.4 389.6C919.5 388.9 917.6 388.1 915.6 388C913 387.9 910.5 389 908.2 390.1C902.8 392.6 897.4 395.1 892.1 397.8C889.4 399.2 886.7 400.6 884.1 402.1C882.3 403.1 879.8 404.9 882 407.2C882.8 408 884 408.3 885.2 408.2C886.3 408.1 887.4 407.7 888.5 407.4C890.5 406.6 896.2 404.6 899.1 405.4Z" fill="#1EAEF7"/>
<path d="M924.7 395.8C924.7 396 924.6 396.2 924.6 396.4C924.1 400.6 924.2 404.9 924.8 409.1C925.3 413.1 926.7 414.9 930.5 415.5C931.9 415.7 933 416.3 934.5 416.8C937.4 417.8 940.5 418.1 943.5 418.8C947.2 419.6 950.9 420.3 954.6 420.9C962.3 422.2 970.6 423.5 977.7 420.4C984.2 417.6 988.7 411.7 992.8 406C994.2 404 995.6 402 996.4 399.8C997.2 397.5 997.4 394.9 996.3 392.7C994.9 390 991.9 388.5 988.9 388.2C985.9 387.9 982.9 388.5 980 389.1C972.6 390.5 964.8 392.7 957.2 392.2C949.7 391.6 942.9 390.1 935.6 388.4C933.3 387.8 930.7 387.4 928.5 388.5C926.1 389.8 925.1 392.9 924.7 395.8Z" fill="#E23B53"/>
<path d="M951.2 320.8C951.1 320.8 950.9 320.8 950.8 321C950.6 321.3 950.7 323.2 950.7 323.6C950.5 324.7 950.3 325.7 950 326.8C948.9 331.1 947.2 335.2 945 339C944.2 340.4 943.3 341.8 943.5 343.4C943.7 345.2 945.3 346.5 946.9 347.5C948.4 348.4 950 349.4 951.2 350.8C952.3 352.1 952.5 354 953 355.6C953.6 357.7 954.2 359.8 954.8 361.8C956 365.7 957.6 371.4 961.3 373.7C966.4 377 976.4 374.9 977.3 376.8C978.2 378.7 982.3 401.4 982.7 401.2C983.1 401 1021 376.9 1021 376.9L1001.9 329.3C997.6 328.6 993.4 327.9 989.1 327.2C979.5 325.6 969.9 324 960.3 322.4C957.7 322 954.7 321 952 321C951.6 320.9 951.4 320.8 951.2 320.8Z" fill="#1EAEF7"/>
<path d="M1011 372.9C1003.7 373.2 991.9 373.1 988 364.5C985.6 359 987.2 353.5 988.4 349C989.6 344.2 990.2 335.8 982.8 336C973.5 336.2 981.7 350.1 976.4 350.7C971.1 351.3 968.1 346.8 967.2 337.8C966.6 331.9 959 329.9 955 326.9C952.1 324.7 950.2 321.9 949.4 318.4C948.5 314.2 948.8 309.8 950.2 305.8C950.5 304.8 950.9 303.9 951.4 303C954.5 296.9 960.2 292.3 966.7 290.2C973.2 288.1 980.4 288.6 986.8 291.1C992.9 293.5 997.9 297.4 1004.5 298.7C1010.8 299.9 1017.4 299.8 1023.6 301.4C1027.2 302.3 1030.8 303.9 1033.4 306.6C1035.8 309.1 1037.3 312.3 1038.2 315.6C1039.3 319.6 1039.5 323.8 1038.7 327.8C1037.9 331.8 1036 335.7 1033 338.6C1030.9 340.7 1028.3 342.2 1026.1 344.1C1024.1 345.9 1023.4 348.8 1021.7 351C1014.2 360.8 1019.2 372.4 1019.2 372.4C1019.2 372.4 1018.4 372.6 1011 372.9Z" fill="#3F3161"/>
<path d="M768.9 387.3L776.6 386C776.6 386 780.8 394.1 775.8 398.4C773.2 400.6 770 402.2 766.8 403.5C764 404.7 761 406 759.4 408.7C758.8 409.7 758.5 410.8 757.9 411.8C757.8 412 756.6 414.1 756.5 414.1C755.8 414 755 413.9 754.3 413.7C753.2 413.5 752.7 413.7 751.6 413.9C751 414 745 413.4 745.3 412.6C746.8 408.8 748.8 405.1 752 402.6C756.2 399.3 766.9 397.3 768.4 393.7C769.6 391 769.3 388.9 768.9 387.3Z" fill="#3F3161"/>
<path d="M722.5 416.3L746.4 410C746.4 410 762.2 411.9 767.8 410.8L747.2 421.2L722.5 416.3Z" fill="white"/>
<path d="M767.8 427.1V437.1L820.5 447.7C820.5 446.4 820.9 444.2 820.4 443.1C819.8 441.9 817.7 441.8 816.6 441.5C814.9 441 813.1 440.5 811.4 440C805.4 438.2 799.4 436.5 793.4 434.7C787.5 433 781.6 431.2 775.8 429.5C773.1 428.7 770.4 427.9 767.8 427.1Z" fill="#3F3161"/>
<path d="M841.5 437.7C839.1 436.4 836.7 435 834.3 433.7C832.7 432.8 831.1 431.9 829.6 430.7C828.6 430 826.3 428.8 827.3 427.4C827.7 426.8 828.5 426.5 829.1 426.1C836.4 422.8 844.6 420 852 417.1C855.8 415.6 859.6 414.2 863.4 412.9C865.3 412.2 867.2 411.6 869.1 410.9C871.8 410 873.4 409.9 876.1 410.8C878.5 411.6 881.1 412.6 883.2 414C884.9 415.1 886.8 416.2 887.8 418C888.6 419.3 888.8 421.1 887.9 422.3C887.3 423.3 886.1 423.8 885.1 424.3C877.8 427.6 870.2 430.2 862.6 432.5C861.8 432.8 860.8 433 860 432.7C858.9 432.2 858.7 432.1 857.5 432.5C856.3 432.9 855 433.3 853.8 433.7C851.7 434.4 849.6 435.1 847.5 435.7C846 436.2 844.6 436.7 843.1 437.1C842.7 437.3 841.9 437.8 841.5 437.7Z" fill="#3F3161"/>
<path d="M888.5 446.9C885 443.8 880.8 441.3 877.7 438C871.1 431.1 862.8 426.2 853.1 425.3C850.1 425 847.2 425.4 844.2 425.3C840.8 425.2 837.4 425.1 834.1 425.8C830.6 426.5 829.5 432 829.6 435.2C830 442.9 839.1 449.1 845.1 452.9C850.4 456.2 856.4 457.3 862.1 459.7C864.3 460.6 866.6 461.6 869 461.7C871.2 461.7 873.4 461 875.5 460.1C880.8 457.8 885.9 454.5 889.1 449.7C889.3 449.3 889.6 448.9 889.6 448.5C889.4 447.8 888.9 447.3 888.5 446.9Z" fill="#1EAEF7"/>
<path d="M572.4 419.5V424.7L846 473.6V468.6L572.4 419.5Z" fill="white"/>
<path d="M696.2 360.5C696.2 361.1 696.5 361.6 697 361.8C697.4 361.9 697.8 361.9 698.1 361.7C698.9 361.3 699.5 359.8 698.6 359.2C697.7 358.5 696.2 359.4 696.2 360.5Z" fill="#E23B53"/>
<path d="M730.4 376.8C731.4 377.8 732.8 376.1 731.9 375.1C730.9 374.1 729.4 375.8 730.4 376.8Z" fill="#E23B53"/>
<path d="M709.5 393.7C709.4 394 709.4 394.3 709.6 394.5C709.8 394.8 710.1 395 710.4 395.1C711 395.2 711.7 395 712 394.5C713.2 392.7 709.9 391.7 709.5 393.7Z" fill="#E23B53"/>
<path d="M886.9 499.7C885 495.5 885 492.5 880.7 490.1C875.7 487.3 870.2 485.2 864.6 483.9C862.1 483.3 859.6 482.9 857.3 481.8C855 480.7 852.9 478.9 852.2 476.5C851.2 473.3 852.9 469.8 854.7 467C859.9 458.7 866.9 451.4 875 445.9C877.4 444.2 880.1 442.7 883 442.5C886.1 442.4 888.9 443.8 891.7 445.2C898.8 448.9 905.9 452.5 913 456.2C915.4 457.4 918 458.7 920.5 458.1C923.3 457.5 925.1 454.9 926.7 452.6C931.2 446 935.6 439.4 940.1 432.8C944 427.1 947.5 419.7 953 415.5C956.3 413 959.3 410.2 963 408C970.1 403.7 976.8 398.9 983.8 394.5C991 389.9 998.3 385.7 1005.8 381.7C1011.4 378.7 1017.2 375.9 1023.3 374.2C1030.1 372.4 1038.6 371.7 1045.2 374.8C1048.7 376.4 1051.5 379.4 1053.8 382.4C1059.7 390.4 1063.2 400.1 1066.2 409.5C1068.8 417.8 1070.9 426.4 1072.5 435C1072.9 436.9 1073.2 438.9 1073.6 440.9L974.5 512.8C973.4 512.6 972.4 512.5 971.3 512.3C955.3 509.9 939.3 507.6 923.3 505.2C911.3 503.3 899 500.8 886.9 499.7Z" fill="#E23B53"/>
<path d="M1048.8 420.7C1048.8 420.7 1004 436.1 992.7 461.6C981.4 487 979.3 493.3 979.3 493.3L1053.4 490.9L1048.8 420.7Z" fill="#3F3161"/>
<path d="M-10.6 95.5C-10.6 95.5 280.7 161.8 290.6 164.1C300.5 166.4 304.8 172.5 304.8 181.5C304.8 190.6 304.8 479.7 304.8 479.7L-14.7 476.6L-10.6 95.5Z" fill="white"/>
<path d="M79.1002 294.6C80.8002 294.3 82.0002 292.9 83.5002 292.1C85.1002 291.2 87.1002 291 88.9002 291.1C90.2002 291.1 91.5002 291.2 92.6002 291.8C93.7002 292.4 94.7002 293.4 94.9002 294.7C95.1002 296 94.2002 297.4 92.9002 297.5C91.6002 297.7 90.5002 296.7 89.3002 296.3C87.0002 295.6 84.7002 297.3 82.9002 298.8C81.1002 300.4 78.8002 302 76.5002 301.4C75.2002 301.1 74.4002 300.1 73.3002 299.5C71.9002 298.8 71.2002 299.2 70.0002 299C68.4002 298.8 67.8002 298.4 68.1002 296.4C69.0002 289.9 75.7002 295.2 79.1002 294.6Z" fill="#CFF0FF"/>
<path d="M56.0002 367.4C57.3002 368.3 58.2002 370.2 59.7002 369.9C60.4002 369.8 60.9002 369.2 61.4002 368.6C62.5002 367.2 63.5002 365.5 65.0002 364.6C66.5002 363.6 68.9002 363.6 69.9002 365.1C70.2002 365.5 70.3002 366 70.7002 366.4C71.5002 367.3 73.0002 367.3 74.1002 366.8C75.2002 366.3 76.2002 365.4 77.3002 365C79.6002 364.1 82.6002 365.3 83.4002 367.6C84.2002 369.9 82.5002 372.9 80.0002 373C77.9002 373.1 75.9002 371.4 73.8002 371.8C72.4002 372 71.3002 373.1 70.2002 374C69.1002 374.9 67.5002 375.6 66.3002 374.9C65.7002 374.6 65.2002 373.9 64.6002 373.6C63.0002 372.7 61.1002 373.8 59.5002 374.9C58.0002 375.9 55.8002 376.8 54.5002 375.5C53.9002 375 53.7002 374.1 53.1002 373.7C51.2002 372.3 45.9002 376.6 47.3002 372.5C48.2002 369.5 53.0002 365.4 56.0002 367.4Z" fill="#CFF0FF"/>
<path d="M34.8001 387.7C35.6001 387.4 36.4001 387.3 37.2001 387.6C38.9001 388.2 39.8001 390.4 41.6001 390.2C43.4001 390 44.0001 387.3 45.8001 387.2C47.6001 387 48.5001 389.5 50.3001 390.1C52.0001 390.6 53.6001 389.3 54.9001 388.1C56.2001 387 58.2001 385.9 59.6001 387C60.0001 387.4 60.3001 387.9 60.8001 388.2C63.0001 389.7 65.8001 385.2 68.0001 386.6C69.1001 387.3 68.9001 389 68.1001 389.9C67.2001 390.8 65.9001 391.2 64.7001 391.4C63.1001 391.7 61.6001 392 60.0001 392.2C59.6001 392.3 59.1001 392.3 58.7001 392.1C58.4001 391.9 58.2001 391.7 58.0001 391.5C57.0001 390.6 55.4001 391.1 54.3001 391.9C53.2001 392.7 52.3001 393.8 51.0001 394.1C49.8001 394.4 48.4001 393.8 47.7001 392.8C47.4001 392.4 47.3001 391.9 46.9001 391.6C45.8001 390.6 44.1001 391.4 43.1001 392.5C42.1001 393.5 40.9001 394.8 39.5001 394.6C37.7001 394.4 36.7001 392 34.9001 391.9C33.8001 391.8 32.8001 392.7 31.9001 393.4C29.8001 395 28.3001 394.5 29.6001 392.2C30.6001 390.1 32.6001 388.4 34.8001 387.7Z" fill="#CFF0FF"/>
<path d="M234.5 394C234.3 394.1 234.1 394.2 234 394.3C232.1 395.6 230.6 397.5 229.4 399.5C229 400.1 228.7 400.7 228.7 401.4C228.8 402.3 229.5 403 230.4 403.1C234 403.7 235.6 398.2 239.5 399C241 399.3 242.1 400.6 243.6 400.7C246.3 401 248.5 397.5 251.1 398.3C252 398.5 252.7 399.3 253.4 399.9C255.2 401.5 257.9 402.7 260 401.6C261.6 400.8 262.3 398.7 261.7 397C261 395.3 260.2 395.2 258.6 395.1C257 395 255.5 394.8 254.1 394C253.2 393.5 252.4 392.7 251.3 392.3C249.9 391.8 248.4 392 247.1 392.7C245.5 393.5 244.3 395.4 242.5 395.1C239.4 394.3 237.4 392.4 234.5 394Z" fill="#CFF0FF"/>
<path d="M251.5 406.9C252.3 406.3 253.1 405.8 254.1 405.8C256.1 405.8 257.3 408 259.2 408.5C262.8 409.5 265.7 404.4 269.4 404.9C272.1 405.3 273.7 408.6 276.5 408.9C278 409.1 279.5 408.3 280.8 407.5C282.1 406.7 283.7 406 285.2 406.4C286.7 406.8 287.7 408.9 286.6 409.9C285.7 410.8 284.3 410.4 283 410.5C280 410.7 277.8 414 274.9 413.8C272.4 413.6 270.6 411 268.1 410.8C264.5 410.4 261.7 415 258.1 414.7C255.6 414.4 253.6 411.8 251.1 412.4C249.4 412.8 246.9 415.7 247 412.8C247.1 410.5 250 408 251.5 406.9Z" fill="#CFF0FF"/>
<path d="M-1.8999 401C-2.4999 401 -2.8999 400.6 -2.8999 400C-2.8999 399.4 -2.4999 399 -1.8999 399C20.4001 399 24.4001 383 27.3001 371.2C21.0001 372.8 13.7001 372.3 5.6001 369.9C5.3001 369.8 5.0001 369.5 4.9001 369.2C4.8001 368.9 4.9001 368.5 5.2001 368.2C5.3001 368 15.8001 358 18.0001 337.2C18.1001 336.7 18.5001 336.3 19.1001 336.3C19.3001 336.3 41.4001 338.3 49.3001 334.7C49.6001 334.5 50.0001 334.6 50.3001 334.8C50.6001 335 50.7001 335.4 50.7001 335.7C50.7001 335.8 48.9001 350.1 56.5001 351.6C59.3001 352.1 61.7001 351.6 63.7001 349.9C68.1001 346.3 70.1001 338.1 70.1001 332V309.5C70.1001 309.2 70.2001 309 70.4001 308.8C70.6001 308.6 70.9001 308.5 71.2001 308.5C71.5001 308.5 98.3001 310.5 111.6 305.2C112.1 305 112.7 305.2 112.9 305.8C113.1 306.3 112.9 306.9 112.3 307.1C100 312 77.4001 310.9 72.1001 310.6V332C72.1001 338.7 69.9001 347.4 65.0001 351.4C62.5001 353.5 59.5001 354.2 56.1001 353.5C48.3001 352 48.3001 341.2 48.6001 337C40.4001 339.7 24.1001 338.6 19.9001 338.2C17.9001 355.3 10.7001 364.9 7.8001 368.2C15.3001 370.3 22.1001 370.5 27.9001 368.8C29.3001 363.6 32.3001 355.5 36.5001 355.9C39.4001 356.2 40.2001 357.8 40.4001 358.7C41.1001 361.5 38.5001 365.4 35.7001 367.4C33.8001 368.7 31.8001 369.7 29.6001 370.4C29.5001 370.7 29.4001 371 29.4001 371.3C26.4001 383.2 22.1001 401 -1.8999 401ZM36.1001 358C34.3001 358 32.0001 362 30.2001 368.1C31.7001 367.5 33.2001 366.7 34.5001 365.8C36.9001 364.2 38.9001 360.9 38.4001 359.3C38.3001 359 38.1001 358.2 36.2001 358H36.1001Z" fill="#1EAEF7"/>
<path d="M275.7 331.6C275.1 331.6 274.6 331.6 274 331.6C263.3 331.1 253.6 325.8 249.5 318.4C244.6 320 240.4 322.4 236.3 324.7C228.3 329.2 221.5 333 213.4 328.7C200.5 321.8 201.4 306.1 201.4 305.4L203.4 305.5C203.4 305.7 202.6 320.6 214.3 326.9C221.4 330.7 227.5 327.3 235.2 322.9C239.1 320.7 243.5 318.2 248.5 316.5C240.6 299.3 245.6 288 245.8 287.6C246 287.2 246.3 287 246.7 287H277.7C278.3 287 278.7 287.4 278.7 288C278.7 301.1 285.4 311.4 285.5 311.5C285.7 311.8 285.7 312.2 285.5 312.5C285.3 312.8 285 313 284.6 313C272.7 313 261.7 314.5 251.2 317.6C255 324.3 263.9 329 273.8 329.5C285.2 330 295 324.9 300.5 315.6C301.7 313.6 302.8 311.5 303.9 309.2C308.6 300.1 313.9 289.7 326.2 289.7C335.4 289.7 340.8 296.7 345.5 303C349.5 308.2 353.5 313.1 358.8 313.1L359.1 315.2C352.8 315.2 348.1 309.8 343.9 304.2C339.2 298.1 334.4 291.7 326.2 291.7C315.2 291.7 310.4 301 305.7 310.1C304.6 312.3 303.4 314.5 302.2 316.6C296.9 326.2 287.2 331.6 275.7 331.6ZM247.6 289C246.7 291.5 244 301.6 250.6 315.9C260.9 312.8 271.6 311.2 283.1 311.1C281.2 307.8 277.2 299.4 276.9 289H247.6Z" fill="#1EAEF7"/>
<path d="M282.8 335.9C282.8 335.9 278 333.1 279.5 335.3C280.7 337.1 273.6 335.6 272.2 337.3C269.3 340.9 275.8 346.3 279.9 348.9L282.8 335.9Z" fill="#E23B53"/>
<path d="M279.5 335.3C279.5 335.3 260 366.2 253.9 373.3C253.9 373.3 264.8 386.9 298.1 387.8L317.2 378.5L318.9 347.6L317.2 337.6L279.5 335.3Z" fill="#CFF0FF"/>
<path d="M-4 469.7C-2.6 465.8 -4.4 431.2 15.6 422.1C15.6 422.1 15.9 422.3 15.8 422.6C15.6 424.6 15 433.2 26.1 434.4C38.7 435.8 50.3 427.6 52.4 440.1C54.5 452.6 21.5 473.4 21.5 473.4L-4 469.7Z" fill="#E23B53"/>
<path d="M16.0001 412.4C15.9001 414.7 15.6001 420.9 15.6001 422.1C15.6001 422.8 13.2001 435.9 27.3001 437.6C41.4001 439.3 48.7001 429 52.6001 440.1L87.0001 425.8V410.1C87.0001 410.1 79.0001 399.9 51.4001 399.9C28.6001 399.9 19.3001 407.8 16.8001 410.6C16.2001 411.2 16.0001 411.9 16.0001 412.4Z" fill="#3F3161"/>
<path d="M14.2002 476.9C14.2002 476.9 18.5002 460.7 20.1002 457.8C23.6002 451.8 29.1002 448.8 32.4002 447.4C35.7002 446 130 404.9 130 404.9C130 404.9 195.7 424.7 233.6 422.1C264.3 420 279.5 426.3 288.6 433.2C297.6 440.1 303.4 453.2 309.5 453.2C319.4 453.1 307.7 437.2 311.2 426C314.5 415.5 336.8 404.2 359.3 407.4C362.1 407.8 365.4 411.3 365.4 411.3L407.1 481.1L14.2002 476.9Z" fill="#1EAEF7"/>
<path d="M322.8 413.7C320.7 408.9 316.6 401.5 310.3 398.9C300.6 394.9 296.8 388.7 294.9 375.4C293 362.1 281.9 350.2 285.7 345.9C289.5 341.6 302.4 352.7 306.3 360.2C309.1 365.6 312.5 361.2 312.5 361.2C312.5 361.2 316.7 353.4 316.4 343.7L279.5 335.3C279.5 335.3 274.7 332.7 277.1 328C279.5 323.3 306.3 325.7 314.8 331.3C323.3 336.8 330.5 356.2 332.6 365.9C334.9 376.5 353.3 402.1 357.1 409.3C357.7 410.4 356 411.4 356 411.4L331.4 416.6C331.4 416.6 323.9 416.3 322.8 413.7Z" fill="#E23B53"/>
<path d="M207.1 276.7C207.1 276.7 215.3 290.4 224.1 294.8C232.9 299.2 236.7 297.5 237.1 302.7C237.5 307.8 230.1 314.2 230 321.2C229.8 328.2 231.3 356.2 228 361.8C224.7 367.4 197.8 397.9 197.8 397.9L155.1 309.9L207.1 276.7Z" fill="#E23B53"/>
<path d="M208.2 474.9C208.2 474.9 216.3 488.2 228.5 461.3C238.9 438.5 242.9 416.6 227.7 386.4C213.9 359 199.6 351.4 191.5 345.2C183.4 339 182.3 325.8 191.5 322.3C200.2 319 202.3 328.3 206.5 327.1C210.7 325.8 218.6 298.9 213.1 281C207.6 263.1 186.3 249 160.6 246.8C130.7 244.3 103.4 250.8 90.3001 291C85.4001 306 85.9001 322.4 83.5001 333.3C79.9001 350.2 70.1001 356 69.3001 374.6C68.6001 393.3 77.4001 405.4 74.8001 422.6C72.2001 439.8 51.4001 470.6 72.8001 486.6C94.3001 502.6 208.2 474.9 208.2 474.9Z" fill="#0062BA"/>
<path d="M40.0001 318.9H9.00009C8.50009 318.9 8.10009 318.6 8.00009 318.1C7.90009 317.7 8.10009 317.2 8.50009 317C8.70009 316.9 26.1001 307.7 27.7001 287.9C27.7001 287.4 28.2001 287 28.7001 287H56.5001C57.0001 287 57.4001 287.3 57.5001 287.8C57.5001 288 62.0001 307.4 40.4001 318.8C40.3001 318.8 40.2001 318.9 40.0001 318.9ZM12.5001 316.9H39.7001C57.6001 307.4 56.3001 292.6 55.7001 289H29.7001C28.1001 304.1 17.7001 313.2 12.5001 316.9Z" fill="#1EAEF7"/>
<path d="M740.6 369.3C740.4 369.3 740.1 369.2 740 369.1C739.8 368.9 739.7 368.7 739.6 368.4L738.9 351.2C738.9 350.7 739.3 350.2 739.8 350.2L834.8 340.5L833.4 331.1L739.3 338.4C739 338.4 738.8 338.3 738.6 338.2C738.4 338 738.3 337.8 738.3 337.5L737.4 320.4C737.4 319.8 737.8 319.4 738.3 319.3L832 314.1L830.5 303.2L728.3 305.5H727.8L727.7 303.5H728.7L831.4 301.2C831.9 301.2 832.3 301.6 832.4 302.1L834.2 315C834.2 315.3 834.2 315.6 834 315.8C833.8 316 833.6 316.1 833.3 316.2L739.5 321.4L740.3 336.5L834.3 329.2C834.8 329.2 835.3 329.5 835.4 330L837.1 341.3C837.1 341.6 837.1 341.8 836.9 342.1C836.7 342.3 836.5 342.5 836.2 342.5L741.1 352.2L741.7 367.4L845.7 354.5L846.1 354.4L846.3 356.4L740.8 369.5C740.7 369.3 740.7 369.3 740.6 369.3Z" fill="#1EAEF7"/>
</g>
<defs>
<clipPath id="clip0">
<rect width="1024" height="467.2" fill="white"/>
</clipPath>
</defs>
</svg>
