<svg width="239" height="31" viewBox="0 0 239 31" fill="none" xmlns="http://www.w3.org/2000/svg">
<g clip-path="url(#clip0)">
<path d="M14.9059 0H0.588235C0.258824 0 0 0.258824 0 0.588235V28.5059C0 28.8353 0.258824 29.0941 0.588235 29.0941H14.9059C22.7765 28.9176 29.0941 22.4706 29.0941 14.5412C29.0941 6.62353 22.7647 0.176471 14.9059 0ZM16.2941 24.7412C9.21176 25.9059 3.2 19.8824 4.35294 12.8C5.05882 8.50588 8.51765 5.04706 12.8 4.35294C19.8941 3.2 25.9059 9.21176 24.7529 16.3059C24.0471 20.5882 20.5882 24.0471 16.2941 24.7412Z" fill="#0062B8"/>
<path d="M48.7059 4.23523H52.6C52.6823 4.23523 52.7529 4.24699 52.8 4.28229L59.6353 24.7058C59.6706 24.8588 59.6235 24.9411 59.4823 24.9411H56.4353C56.3765 24.9411 56.3176 24.8941 56.2823 24.7999L54.9412 20.5882C54.9176 20.5882 54.847 20.5882 54.7176 20.5882H45.8823C45.8 20.5882 45.7412 20.5529 45.7059 20.4705L44.3412 24.6941C44.3059 24.8588 44.2588 24.9411 44.2118 24.9411H41.7529C41.6353 24.9411 41.5765 24.8941 41.6 24.7999L48.5412 4.37641C48.5647 4.28229 48.6235 4.23523 48.7059 4.23523ZM46.6706 18.0941H53.9647C54.0823 18.0941 54.1176 18.047 54.0823 17.9411L50.647 7.17641C50.5882 7.03523 50.4823 6.96464 50.3294 6.96464C50.1765 6.96464 50.0823 6.99994 50.0353 7.08229L46.5529 17.8352C46.5176 18.0117 46.5529 18.0941 46.6706 18.0941Z" fill="#1E2B3C"/>
<path d="M65.2824 4.37641V24.7999C65.2824 24.8941 65.2353 24.9411 65.1412 24.9411H62.6471C62.5529 24.9411 62.4941 24.8941 62.4941 24.7999V4.37641C62.4941 4.28229 62.5412 4.23523 62.6471 4.23523H65.1412C65.2235 4.23523 65.2824 4.28229 65.2824 4.37641Z" fill="#1E2B3C"/>
<path d="M77.1294 22.5882V24.7999C77.1294 24.894 77.0823 24.9411 76.9764 24.9411H74.7176C72.1529 24.9999 70.8588 23.8352 70.8588 21.4705V12.4235C70.8588 12.3293 70.8117 12.2705 70.7176 12.2705H68.1059C68.0117 12.2705 67.9647 12.2235 67.9647 12.1293V10.2117C67.9647 10.1176 68.0117 10.0705 68.1059 10.0705H70.7176C70.8117 10.0705 70.8588 10.0235 70.8588 9.91757V5.9411C70.8588 5.84699 70.9059 5.79993 71.0117 5.79993H73.5059C73.6 5.79993 73.647 5.84699 73.647 5.9411V9.90581C73.647 9.99993 73.6941 10.0588 73.7882 10.0588H76.9647C77.0588 10.0588 77.1176 10.1058 77.1176 10.1999V12.1058C77.1176 12.1999 77.0706 12.247 76.9647 12.247H73.7882C73.6941 12.247 73.647 12.294 73.647 12.3999V20.9646C73.647 21.9411 74.1765 22.4352 75.2353 22.4352H76.9529C77.0706 22.447 77.1294 22.494 77.1294 22.5882Z" fill="#1E2B3C"/>
<path d="M83.2118 4.37641V7.45876C83.2118 7.55288 83.1647 7.6117 83.0588 7.6117H79.9765C79.8823 7.6117 79.8353 7.56464 79.8353 7.45876V4.37641C79.8353 4.28229 79.8823 4.23523 79.9765 4.23523H83.0588C83.1647 4.23523 83.2118 4.28229 83.2118 4.37641ZM82.9176 10.2117V24.7999C82.9176 24.8941 82.8706 24.9411 82.7765 24.9411H80.2588C80.1647 24.9411 80.1176 24.8941 80.1176 24.7999V10.2117C80.1176 10.1176 80.1647 10.0705 80.2588 10.0705H82.7765C82.8588 10.0588 82.9176 10.1058 82.9176 10.2117Z" fill="#1E2B3C"/>
<path d="M87.1059 10.0588H89.3176C89.3765 10.0588 89.4235 10.1058 89.4588 10.1999L89.7647 11.5294C89.7882 11.6117 89.8471 11.647 89.9176 11.647C89.9882 11.647 90.0471 11.6235 90.0941 11.5646C90.9529 10.3646 92.2353 9.76465 93.9412 9.76465C95.9765 9.76465 97.5529 10.4117 98.6706 11.7176C99.7882 13.0235 100.353 14.6823 100.353 16.7176V24.7999C100.353 24.8941 100.306 24.9411 100.2 24.9411H97.7059C97.6118 24.9411 97.5647 24.8941 97.5647 24.7999V16.7176C97.5647 15.4588 97.2588 14.3999 96.6353 13.5411C96 12.6941 95.0588 12.2588 93.8 12.2588C92.5412 12.2588 91.5529 12.6941 90.8471 13.5646C90.1412 14.4352 89.7882 15.4823 89.7882 16.7058V24.7882C89.7882 24.8823 89.7412 24.9294 89.6471 24.9294H87.1294C87.0353 24.9294 86.9882 24.8823 86.9882 24.7882V10.2117C86.9647 10.1058 87.0118 10.0588 87.1059 10.0588Z" fill="#1E2B3C"/>
<path d="M103.953 10.0587H106.165C106.224 10.0587 106.271 10.1057 106.306 10.1999L106.612 11.5175C106.635 11.5999 106.694 11.6352 106.765 11.6352C106.835 11.6352 106.894 11.6116 106.941 11.5528C107.8 10.3528 109.082 9.75281 110.788 9.75281C112.824 9.75281 114.4 10.3999 115.518 11.7057C116.635 13.0116 117.2 14.6705 117.2 16.7057V24.7881C117.2 24.8822 117.153 24.9293 117.047 24.9293H114.553C114.459 24.9293 114.412 24.8822 114.412 24.7881V16.7057C114.412 15.4469 114.106 14.3881 113.482 13.5293C112.847 12.6822 111.906 12.2469 110.647 12.2469C109.388 12.2469 108.4 12.6822 107.694 13.5528C106.988 14.4234 106.635 15.4705 106.635 16.694V24.7763C106.635 24.8705 106.588 24.9175 106.494 24.9175H103.976C103.882 24.9175 103.835 24.8705 103.835 24.7763V10.2116C103.812 10.1057 103.859 10.0587 103.953 10.0587Z" fill="#1E2B3C"/>
<path d="M139.565 24.8941C139.471 24.8941 139.447 24.8352 139.424 24.7529L139.129 23.4352C139.071 23.2588 138.859 23.3176 138.812 23.4C138.282 24.1647 136.847 25.1882 134.965 25.1882C130.118 25.1882 128.553 22.0705 128.553 18.247V10.1529C128.553 10.0705 128.612 10.0117 128.694 10.0117H131.188C131.282 10.0117 131.329 10.0705 131.329 10.1529V18.2352C131.329 20.4705 132.329 22.6705 135.235 22.6705C137.706 22.6705 139.118 20.5294 139.118 18.2352V10.1529C139.118 10.0705 139.176 10.0117 139.259 10.0117H141.753C141.835 10.0117 141.894 10.0705 141.894 10.1529V24.7411C141.894 24.8352 141.835 24.8823 141.753 24.8823H139.565V24.8941Z" fill="#1E2B3C"/>
<path d="M153 24.7412C153 24.8353 152.941 24.8823 152.859 24.8823H150.588C148.153 24.8823 146.741 23.8235 146.741 21.4118V12.3529C146.741 12.2706 146.682 12.2118 146.6 12.2118H143.988C143.906 12.2118 143.847 12.1529 143.847 12.0706V10.1529C143.847 10.0706 143.906 10.0118 143.988 10.0118H146.6C146.682 10.0118 146.741 9.95293 146.741 9.87058V5.89411C146.741 5.79999 146.8 5.75293 146.882 5.75293H149.376C149.459 5.75293 149.518 5.81175 149.518 5.89411V9.85881C149.518 9.95293 149.576 9.99999 149.659 9.99999H152.835C152.918 9.99999 152.976 10.0588 152.976 10.1412V12.047C152.976 12.1412 152.918 12.1882 152.835 12.1882H149.659C149.565 12.1882 149.518 12.247 149.518 12.3294V20.8823C149.518 21.7882 149.929 22.3529 151.106 22.3529H152.835C152.918 22.3529 152.976 22.4118 152.976 22.4941V24.7412H153Z" fill="#1E2B3C"/>
<path d="M158.741 24.8941C158.659 24.8941 158.6 24.8353 158.565 24.753L153.6 10.1647C153.565 10.0471 153.682 10.0236 153.776 10.0236H156.447C156.529 10.0236 156.565 10.0824 156.588 10.1647L160.435 21.9883C160.494 22.1294 160.671 22.1294 160.729 21.9883L164.612 10.1647C164.635 10.0824 164.671 10.0236 164.753 10.0236H167.424C167.506 10.0236 167.6 10.0824 167.565 10.1647L162.6 24.753C162.576 24.8471 162.541 24.8941 162.459 24.8941H158.741Z" fill="#1E2B3C"/>
<path d="M169.941 8.15294C169.859 8.15294 169.8 8.09412 169.8 8.01177V5.04706C169.8 4.96471 169.859 4.90588 169.941 4.90588H172.882C172.976 4.90588 173.024 4.96471 173.024 5.04706V8.01177C173.024 8.10588 172.965 8.15294 172.882 8.15294H169.941ZM172.824 24.7412C172.824 24.8353 172.765 24.8824 172.682 24.8824H170.188C170.094 24.8824 170.047 24.8235 170.047 24.7412V10.1529C170.047 10.0706 170.106 10.0118 170.188 10.0118H172.682C172.765 10.0118 172.824 10.0706 172.824 10.1529V24.7412Z" fill="#1E2B3C"/>
<path d="M188.529 24.8941C188.447 24.8941 188.329 24.8352 188.271 24.7529L183.6 16.7294C183.541 16.6352 183.482 16.6352 183.388 16.7294L180.035 19.6117C179.976 19.6705 179.976 19.7058 179.976 19.7882V24.7529C179.976 24.847 179.918 24.8941 179.835 24.8941H177.341C177.247 24.8941 177.2 24.8352 177.2 24.7529V4.34113C177.2 4.24701 177.259 4.19995 177.341 4.19995H179.835C179.918 4.19995 179.976 4.25877 179.976 4.34113V15.8705C179.976 15.9647 180.094 16.0117 180.176 15.9294L186.941 10.1647C187.118 10.0235 187.294 10.0235 187.388 10.0235H191C191.094 10.0235 191.141 10.1176 191.094 10.1647L185.624 14.8117C185.565 14.8705 185.565 14.9529 185.624 15.047L191.294 24.7529C191.318 24.8117 191.271 24.8941 191.176 24.8941H188.529Z" fill="#1E2B3C"/>
<path d="M196.153 24.7412C196.153 24.8353 196.094 24.8823 196.012 24.8823H193.518C193.424 24.8823 193.376 24.8235 193.376 24.7412C193.376 17.9529 193.376 11.1294 193.376 4.32941C193.376 4.23529 193.435 4.18823 193.518 4.18823H196.012C196.094 4.18823 196.153 4.24706 196.153 4.32941V24.7412Z" fill="#1E2B3C"/>
<path d="M200.412 8.15294C200.329 8.15294 200.271 8.09412 200.271 8.01177V5.04706C200.271 4.96471 200.329 4.90588 200.412 4.90588H203.353C203.447 4.90588 203.494 4.96471 203.494 5.04706V8.01177C203.494 8.10588 203.435 8.15294 203.353 8.15294H200.412ZM203.294 24.7412C203.294 24.8353 203.235 24.8824 203.153 24.8824H200.659C200.565 24.8824 200.518 24.8235 200.518 24.7412V10.1529C200.518 10.0706 200.576 10.0118 200.659 10.0118H203.153C203.235 10.0118 203.294 10.0706 203.294 10.1529V24.7412Z" fill="#1E2B3C"/>
<path d="M210 10.0118C210.082 10.0118 210.118 10.0706 210.141 10.1529L210.435 11.4706C210.459 11.6471 210.694 11.5882 210.753 11.5059C211.341 10.6235 212.635 9.71765 214.6 9.71765C218.859 9.71765 221.012 12.8353 221.012 16.6588V24.7412C221.012 24.8353 220.953 24.8824 220.871 24.8824H218.376C218.294 24.8824 218.235 24.8235 218.235 24.7412V16.6588C218.235 14.4235 217.235 12.2235 214.329 12.2235C211.859 12.2235 210.447 14.3647 210.447 16.6588V24.7412C210.447 24.8353 210.388 24.8824 210.306 24.8824H207.812C207.718 24.8824 207.671 24.8235 207.671 24.7412V10.1529C207.671 10.0706 207.729 10.0118 207.812 10.0118H210Z" fill="#1E2B3C"/>
<path d="M231.353 28.5058C234.435 28.5058 235.529 26.3882 235.529 24.3294V23.5411C235.529 23.4235 235.353 23.3058 235.235 23.4823C234.918 23.8941 233.094 25.1882 231.035 25.1882C227.035 25.1882 224.035 22.047 224.035 17.4588C224.035 12.8705 226.741 9.72937 231.035 9.72937C232.506 9.72937 234.412 10.5529 235.235 11.3764C235.329 11.4588 235.471 11.5176 235.529 11.3529L235.824 10.1764C235.847 10.0941 235.882 10.0353 235.965 10.0353H238.165C238.247 10.0353 238.306 10.0941 238.306 10.1764V24.3529C238.306 28.3176 235.482 31.0235 231.341 31.0235C227.729 31.0235 224.988 29 224.753 26.647C224.753 26.5529 224.812 26.5058 224.894 26.5058H227.447C227.529 26.5058 227.565 26.5647 227.588 26.647C227.859 27.3058 228.918 28.5058 231.353 28.5058ZM231.329 22.6823C234 22.6823 235.529 20.5058 235.529 17.447C235.529 14.3882 234 12.2117 231.329 12.2117C228.506 12.2117 226.835 14.3882 226.835 17.447C226.824 20.5058 228.506 22.6823 231.329 22.6823Z" fill="#1E2B3C"/>
</g>
<defs>
<clipPath id="clip0">
<rect width="238.329" height="31" fill="white"/>
</clipPath>
</defs>
</svg>
