<svg width="25" height="25" viewBox="0 0 25 25" fill="none" xmlns="http://www.w3.org/2000/svg">
<rect x="3.4111" y="4.53186" width="18" height="15.4684" rx="2" stroke="#4B5563" stroke-width="0.8"/>
<path d="M 9.61145 14.1118 C 9.75729 14.1118 9.87276 14.1528 9.95783 14.2349 C 10.0459 14.3139 10.09 14.4202 10.09 14.5539 C 10.09 14.6876 10.0459 14.7955 9.95783 14.8775 C 9.87276 14.9565 9.75729 14.996 9.61145 14.996 L 9.16025 14.996 L 9.16025 14.1118 Z" fill="#4B5563" />
<path d="M 12.4126 14.1346 C 12.5524 14.1346 12.6648 14.1741 12.7499 14.2531 C 12.835 14.3321 12.8775 14.4354 12.8775 14.563 L 12.8775 15.7526 C 12.8775 15.8832 12.835 15.9881 12.7499 16.067 C 12.6648 16.146 12.5524 16.1855 12.4126 16.1855 L 12.0161 16.1855 L 12.0161 14.1346 Z" fill="#4B5563" />
<path fill-rule="evenodd" clip-rule="evenodd" d="M 8.01627 7.38292 C 8.01627 6.93343 8.38065 6.56906 8.83013 6.56906 L 13.7133 6.56906 C 13.8428 6.56906 13.967 6.62051 14.0585 6.71208 L 16.6629 9.31643 C 16.7545 9.408 16.8059 9.53221 16.8059 9.66172 L 16.8059 12.4288 L 18.2709 12.4288 C 18.5406 12.4288 18.7592 12.6475 18.7592 12.9171 L 18.7592 17.4748 C 18.7592 17.7444 18.5406 17.9631 18.2709 17.9631 L 6.55133 17.9631 C 6.28164 17.9631 6.06301 17.7444 6.06301 17.4748 L 6.06301 12.9171 C 6.06301 12.6475 6.28164 12.4288 6.55133 12.4288 L 8.01627 12.4288 Z M 14.0388 10.15 C 13.5893 10.15 13.225 9.78566 13.225 9.33618 L 13.225 7.54569 L 8.9929 7.54569 L 8.9929 12.4288 L 15.8293 12.4288 L 15.8293 10.15 Z M 14.2016 8.23627 L 15.1387 9.1734 L 14.2016 9.1734 Z M 10.2222 13.6287 C 10.049 13.5406 9.84541 13.4965 9.61145 13.4965 L 8.47661 13.4965 L 8.47661 16.8236 L 9.16025 16.8236 L 9.16025 15.6113 L 9.61145 15.6113 C 9.84541 15.6113 10.049 15.5672 10.2222 15.4791 C 10.3954 15.391 10.5306 15.268 10.6278 15.1099 C 10.725 14.9489 10.7736 14.7636 10.7736 14.5539 C 10.7736 14.3412 10.725 14.1559 10.6278 13.9979 C 10.5336 13.8399 10.3984 13.7168 10.2222 13.6287 Z M 13.0142 13.6287 C 12.8441 13.5406 12.6435 13.4965 12.4126 13.4965 L 11.3324 13.4965 L 11.3324 16.8236 L 12.4126 16.8236 C 12.6435 16.8236 12.8441 16.7795 13.0142 16.6914 C 13.1874 16.6003 13.3211 16.4742 13.4153 16.3131 C 13.5125 16.1521 13.5611 15.9653 13.5611 15.7526 L 13.5611 14.563 C 13.5611 14.3473 13.5125 14.1605 13.4153 14.0024 C 13.3211 13.8414 13.1874 13.7168 13.0142 13.6287 Z M 14.2339 16.8236 L 14.2339 13.4965 L 16.376 13.4965 L 16.376 14.1346 L 14.9084 14.1346 L 14.9084 14.8729 L 16.2575 14.8729 L 16.2575 15.511 L 14.9175 15.511 L 14.9175 16.8236 Z" fill="#4B5563" />
</svg>
